P2
#CREATOR: gd-jpeg v1.0 (using IJG JPEG v62), default quality
64 64
255
 54  89  84  89  88  96  95  96  98  91  99  92  90  91  89  89  92  97  98  97  97  98 105 101 100 102  97  95  84  86  91  89  95  85  83  82  81  81  87  92  92  86  96 101  97  98  98 100  98  98 100 112 114 108 107 115 108 106 103 104 108 104 105  44
 85 134 130 134 143 149 147 151 148 150 145 149 142 142 143 144 145 149 160 156 157 154 159 161 158 158 158 149 137 139 145 146 149 140 138 134 130 134 143 162 157 147 153 147 150 146 147 151 151 154 162 175 179 175 179 176 172 171 170 168 171 173 170  76
 80 128 128 128 138 143 144 151 149 161 151 145 144 142 138 134 137 148 149 154 153 150 155 150 153 149 155 141 139 135 137 149 145 139 141 141 135 148 151 153 161 152 147 154 148 152 148 144 147 151 161 165 168 173 175 174 171 166 166 165 170 165 171  74
 82 125 122 131 134 133 136 153 157 158 162 147 142 148 138 132 137 140 143 144 154 147 142 152 150 147 142 141 142 138 139 149 145 139 138 137 139 150 156 158 154 154 147 159 152 160 159 149 149 146 161 160 165 169 168 171 171 166 171 174 170 167 172  75
 86 134 124 126 132 132 137 152 160 141 146 151 140 144 143 133 133 138 138 147 150 145 150 153 148 141 143 144 137 140 143 150 148 140 144 136 143 149 152 164 165 158 157 155 152 153 158 154 157 149 152 157 159 165 173 170 172 169 171 170 168 169 168  72
 84 135 129 128 128 129 136 143 146 139 140 150 144 143 147 138 130 132 132 136 139 140 148 147 149 145 143 148 144 146 148 147 146 143 143 136 143 149 148 158 165 160 160 156 154 153 157 157 159 154 150 156 167 164 168 173 175 175 174 170 165 170 170  70
 88 137 133 129 136 128 131 137 135 140 147 147 137 146 142 140 130 126 128 129 135 137 139 143 152 149 148 150 150 153 148 146 140 143 148 145 144 157 153 159 157 165 166 157 160 159 160 160 160 159 154 155 161 167 162 174 179 175 179 175 173 172 173  71
 81 134 132 126 131 133 133 133 134 139 148 139 130 142 140 129 130 122 125 133 136 132 140 138 152 155 156 151 150 152 154 149 145 144 153 157 154 156 159 159 164 168 172 162 164 160 166 163 161 158 156 154 157 161 165 162 173 173 177 180 176 172 169  71
 77 126 126 123 129 132 137 138 135 130 137 136 130 136 132 123 126 122 121 128 129 129 133 134 144 157 159 157 152 159 156 149 149 142 146 159 165 159 153 165 165 169 167 163 168 165 161 161 158 157 154 154 158 152 159 168 171 175 176 181 178 172 174  75
 77 125 127 125 126 129 136 140 133 129 128 127 127 130 125 120 124 122 122 124 121 129 135 133 141 150 153 153 159 157 152 152 150 143 142 159 157 164 157 171 170 171 171 163 162 170 164 160 160 161 156 158 156 160 163 164 168 168 175 179 179 173 178  74
 76 123 123 125 133 132 137 136 140 134 122 121 121 119 120 122 124 121 123 120 121 129 135 140 138 142 147 150 151 148 145 157 152 147 149 149 156 157 167 164 174 181 172 165 166 163 167 166 162 164 156 156 160 163 161 163 167 168 171 174 179 172 174  73
 70 118 121 120 127 133 138 138 144 131 127 121 122 123 119 122 127 124 120 121 119 123 131 136 136 136 137 147 155 140 143 147 148 144 146 160 158 156 166 168 168 178 180 170 162 156 166 166 164 162 158 156 170 170 173 168 163 172 173 180 179 174 175  75
 74 113 113 122 124 132 137 138 142 137 130 123 125 128 120 118 121 119 119 118 120 122 124 130 135 133 133 140 148 137 137 141 153 145 143 150 156 160 167 165 162 167 173 168 162 162 168 165 162 176 165 155 165 169 173 175 174 168 170 175 176 178 178  74
 80 123 114 125 125 125 134 135 138 135 134 124 116 124 115 116 117 118 119 119 122 120 121 127 132 134 126 132 137 134 131 145 156 148 150 135 144 153 156 158 157 166 167 160 158 167 168 165 160 162 162 154 157 166 170 173 184 184 172 178 177 185 183  73
 86 131 117 110 127 128 138 135 134 129 134 122 115 117 113 115 118 115 115 121 120 120 118 122 125 126 123 128 132 131 130 137 156 148 151 152 149 146 155 152 159 158 166 165 164 164 162 168 170 162 158 156 157 161 170 175 177 182 174 177 183 181 185  77
 87 135 124 113 129 128 132 138 140 128 126 123 114 114 112 114 115 112 113 117 118 115 116 120 121 121 122 122 127 127 131 136 149 144 155 159 154 151 155 157 160 160 164 168 169 161 160 168 176 168 162 162 167 161 167 169 179 179 180 176 180 184 188  76
 91 140 127 117 121 121 126 129 131 126 128 118 115 112 113 112 113 113 113 111 114 115 117 122 119 118 121 118 124 131 135 141 148 143 156 157 156 159 151 156 157 152 161 163 169 167 161 161 166 164 160 161 170 170 169 171 174 181 184 181 180 180 193  79
 84 137 130 126 123 120 120 120 118 118 121 116 120 116 112 115 118 120 117 116 113 112 114 120 120 117 118 116 118 131 135 136 134 151 160 164 158 161 155 156 157 149 149 162 168 164 160 163 162 163 163 165 171 169 170 165 169 176 181 180 179 178 188  78
 85 128 132 133 132 127 131 131 126 129 127 126 126 120 116 114 117 120 122 123 121 117 114 113 115 115 118 116 117 129 131 137 131 141 153 157 157 160 153 158 158 149 157 164 169 163 160 160 165 169 163 165 167 178 176 167 169 171 180 179 181 178 186  78
 87 135 133 135 133 129 137 136 127 133 141 133 131 128 122 120 114 117 121 132 130 122 120 115 113 118 119 118 115 117 129 132 134 136 149 150 148 159 164 159 161 158 159 164 165 170 173 169 176 174 169 163 167 172 179 170 177 182 176 175 174 178 187  78
 87 144 135 133 130 133 136 137 138 135 135 133 137 135 125 121 118 120 116 125 134 130 124 119 115 116 117 117 117 127 133 135 134 136 144 149 152 164 161 158 158 154 163 167 159 163 173 180 178 170 175 168 161 165 171 174 181 181 181 179 172 181 190  74
 86 141 135 135 132 129 133 141 142 140 142 135 136 134 128 122 120 124 119 116 125 128 131 127 120 112 113 120 114 117 126 129 125 138 136 143 162 175 158 162 160 151 173 166 155 158 160 175 181 174 179 168 159 163 166 173 174 175 175 176 170 181 195  80
 86 138 137 137 133 133 138 145 142 142 143 140 130 133 132 125 125 125 123 118 121 129 132 132 136 121 112 109 114 116 124 126 122 134 137 151 156 164 156 162 161 154 165 167 156 163 169 177 178 175 178 178 168 160 161 170 175 174 165 169 171 179 185  79
 87 136 131 132 133 140 140 141 145 146 146 138 133 131 130 127 125 126 125 124 122 127 136 136 138 130 123 115 111 108 122 123 116 136 144 154 155 155 156 152 153 149 154 157 155 166 175 180 183 178 184 185 176 166 159 162 165 172 162 156 166 169 180  76
 81 131 126 128 132 130 132 133 140 149 147 138 137 135 137 135 130 127 126 126 121 124 132 136 137 132 125 124 124 111 108 123 120 142 144 136 151 149 151 151 152 148 155 165 172 166 167 168 178 178 183 179 174 164 159 153 161 159 150 157 173 179 184  77
 79 121 120 123 122 127 128 129 139 145 147 143 138 139 139 139 135 131 129 129 124 120 128 130 135 133 127 123 124 126 110 113 118 126 141 134 148 151 151 150 148 154 160 168 179 170 164 168 172 173 172 165 168 161 158 152 150 147 157 164 173 182 183  75
 72 116 122 125 119 119 128 127 136 141 143 146 148 144 145 142 138 137 133 129 126 120 126 130 135 130 131 125 122 131 115 110 127 129 132 136 147 146 144 144 146 154 161 167 172 174 170 163 169 169 172 164 163 161 156 154 135 139 161 168 167 176 182  72
 67 117 123 116 114 117 122 121 128 133 139 147 154 153 147 148 142 138 135 130 125 123 120 128 132 135 131 126 121 127 120 114 129 131 134 141 144 143 143 143 148 152 156 161 167 168 166 158 170 173 166 161 157 164 152 143 131 141 163 164 163 166 180  73
 69 114 112 109 110 114 119 122 130 134 139 146 148 153 153 151 143 142 136 130 127 126 118 118 127 135 133 131 123 126 116 125 124 123 129 132 134 141 141 146 149 150 154 154 159 157 154 160 172 174 165 149 146 152 143 134 128 141 163 157 161 172 178  74
 67 118 118 114 119 116 122 123 123 133 139 140 143 143 145 145 144 141 133 128 127 117 114 124 129 135 139 133 123 120 120 119 118 125 124 125 131 139 145 149 151 154 158 152 153 160 165 167 164 156 149 139 144 131 126 125 129 145 146 148 158 168 174  73
 71 110 111 118 122 120 121 120 126 131 133 133 134 137 141 149 147 143 136 124 126 120 116 117 125 138 141 129 134 136 119 124 127 128 128 134 134 136 140 144 140 143 145 155 163 164 158 160 160 148 134 133 135 134 120 121 133 146 145 161 167 172 178  73
 74 114 108 108 113 112 117 122 128 130 133 127 131 136 136 145 151 144 138 126 124 120 115 117 119 122 135 132 137 131 120 124 126 126 126 130 132 138 143 131 138 152 152 158 162 162 154 149 158 154 141 131 126 133 122 122 133 150 158 161 161 162 163  69
 80 124 120 111 106 106 111 119 123 127 127 127 132 134 139 143 148 149 142 130 122 116 115 123 131 124 125 127 130 129 124 115 118 127 129 133 136 137 134 136 142 151 152 158 163 155 144 144 154 151 147 134 123 130 123 133 153 159 168 164 149 145 154  64
 78 129 122 119 117 113 111 111 117 124 123 127 129 134 139 140 143 146 140 133 127 119 116 126 133 128 129 127 130 135 128 120 122 128 130 138 144 138 140 149 146 143 148 155 160 153 140 150 149 140 139 135 126 122 120 146 166 172 173 162 143 139 155  69
 86 135 122 125 124 121 118 119 123 121 129 131 128 132 139 140 144 145 144 139 133 123 123 128 137 132 129 134 137 140 133 128 124 128 131 137 144 143 150 155 149 140 144 152 147 137 147 160 149 140 134 130 123 108 110 146 165 168 169 152 135 133 160  69
 88 136 126 130 131 126 125 127 132 128 129 140 137 135 136 137 143 144 141 143 140 127 123 129 139 137 133 131 134 143 142 133 131 135 133 132 145 150 153 156 146 146 154 148 138 137 148 158 144 133 134 127 117  99  87 131 162 154 158 149 130 127 151  64
 91 136 128 130 134 131 129 130 138 137 132 141 144 143 140 135 140 142 141 143 137 134 131 132 142 141 137 134 132 137 135 135 136 136 138 139 142 155 157 152 144 151 157 150 134 132 141 148 144 126 121 114 111  82  74 122 159 144 145 136 126 127 143  56
 88 140 132 135 138 136 135 135 138 144 142 140 149 149 143 141 144 143 144 141 134 140 139 132 140 145 140 135 133 132 133 139 143 144 145 144 153 157 161 152 149 161 159 156 142 133 131 133 123 119 118 108  95  69  75 119 138 124 138 138 121 132 153  64
 81 133 135 135 138 140 137 141 141 143 149 147 144 147 146 146 149 146 145 144 143 147 139 145 145 146 138 140 138 131 133 138 137 141 148 147 155 166 165 158 155 165 148 140 146 137 129 128 121 111 107 101  81  62 104 152 134 115 132 131 123 138 146  61
 75 127 127 125 126 139 139 136 136 138 144 150 146 143 150 146 144 145 145 147 149 146 139 146 138 133 132 135 141 136 132 136 136 138 141 149 152 153 154 159 158 157 141 135 133 135 127 131 127 110  99  88  74  69 117 131  93 110 122 121 133 147 155  62
 83 129 128 120 123 135 135 131 126 130 137 141 144 141 141 146 143 131 132 141 146 140 139 143 136 132 130 130 139 138 139 137 129 133 140 143 146 144 151 159 152 139 147 156 135 125 118 126 127 124 109  76  71  68  99  85  88 121 128 128 143 157 169  75
 79 122 123 121 125 131 133 127 125 127 130 134 133 136 142 140 131 127 138 147 145 134 134 130 133 126 131 132 136 140 138 137 129 130 134 133 136 141 150 157 152 133 143 149 138 122 112 123 125 126  99  64  56  62  71  70 108 137 137 136 146 166 175  73
 76 117 123 122 122 127 127 122 123 127 123 125 131 142 149 145 131 124 136 143 144 141 130 120 117 124 126 127 124 130 137 141 131 120 124 127 131 140 149 153 153 140 123 117 123 113 110 120 119 106  70  64  75  62  47  73 129 143 144 141 150 166 169  71
 73 123 124 119 120 119 114 116 126 132 131 127 131 140 143 139 130 124 131 135 144 143 128 123 111 118 124 121 119 128 132 140 131 126 116 125 132 138 144 147 151 145 124  88  98 117 110 110 112  95  75  86  93  66  50  95 131 144 150 153 157 162 162  68
 65 107 115 118 112 110 114 124 129 132 130 133 139 142 138 138 130 124 132 141 144 143 137 124 114 109 116 121 124 130 130 132 133 126 119 126 131 137 143 148 150 148 140 116  88  95 112  98  85  71  82  94  81  52  55  91 124 136 144 155 151 149 147  65
 65 101  99 103 106 121 119 115 120 122 122 129 133 132 136 136 129 124 129 142 140 139 140 134 133 116 111 122 127 129 132 126 124 119 122 132 137 143 148 149 149 148 149 140 131  84  80  77  65  76  82  67  55  49  65 104 130 150 150 140 124 124 146  61
 55  91  99 103 104 113 122 115 115 117 125 133 126 124 132 125 124 123 128 132 137 136 139 141 133 126 118 123 128 135 122 119 119 118 122 130 135 143 145 145 138 138 139 142 142 116  73  65  62  77  92  69  49  46  67 121 134 146 155 143 119 107 137  58
 56 109 117 117 108 111 115 114 124 126 128 133 126 121 129 118 117 120 118 118 119 126 131 138 133 119 114 122 123 134 118 108 108 117 122 130 133 137 142 142 136 139 133 137 141 123 109  82  63  60  71  61  49  47  63 105 140 147 151 147 133  95 108  53
 64 110 112 121 119 121 123 122 128 140 138 132 129 124 122 122 117 121 115  97  90 110 116 121 131 125 120 119 121 112 108 104 109 121 122 126 129 131 137 136 135 138 134 137 144 130 129  94  68  61  62  62  53  49  60  95 120 138 146 145 128  89  93  44
 61  96  98 117 122 134 134 131 132 132 131 132 129 124 114 115 124 122 103  90  74 100 107 104 117 120 128 116 119 115 104 105 108 119 121 120 122 125 134 138 132 135 133 135 141 141 128 118  89  64  65  63  49  43  51  85  99 110 132 137 132 102  86  41
 57  94 100 119 129 140 142 138 135 127 122 124 120 114 103 105 115 116  92  69  69  91  99  95 108 118 124 113 110 112 107 107 109 116 123 123 120 129 131 132 132 134 127 131 137 128 116 120  94  60  60  62  57  46  47  73  81 103 112 121 138 123  81  36
 58 100 108 113 121 130 139 137 128 124 115 109 104  98  94 105 110 114  94  56  62  78  74  86 112 120 126 120 110 110 100 105 106 113 110 113 120 124 125 130 128 130 132 139 135 128 114 104  86  67  83  68  60  51  45  71  69  71  96 128 136 129  84  32
 62  97 101 104 114 122 131 131 127 122 111 104  94  94  85 100  87 100  91  54  53  61  72  80  96 106 118 121 118 109 101  99 105 112 108 110 119 120 126 120 115 124 130 136 131 128 110  98  91  92 108  69  61  53  44  54  59  73  92 102 104 104  83  28
 68 104 118 123 115 122 127 127 121 116 104 105  99  86  84  95  76  73  72  61  52  51  55  65  72  87 111 116 118 115 111  99 104 106 104 113 116 118 124 113 105 119 125 134 130 128 111  91  82  97  96  66  60  57  52  47  63  72  70  80  91 104  97  27
 71 107 114 111 107 119 121 126 125 123 118 104  89  65  67  92  89  61  56  55  52  50  58  61  64  74  94 116 121 111 110  99  98 105 104 109 113 113 115 110  92 107 125 130 129 125 118 101  81  77  71  62  59  59  58  48  54  60  67  83  82  95 102  29
 66  90  92  85  90 103 113 125 120 126 120  93  70  45  51  79  63  59  61  57  50  45  54  57  58  77  89 104 120 107 105 100  91  96 101 109 109 110 107 110  95  97 119 121 127 118 112 103  82  74  70  69  69  64  57  47  46  51  62  64  70  86 105  42
 56  76  74  79  85  85  96 105 101 117 103  81  50  34  40  50  49  71  66  54  47  43  46  50  56  66  77  98 115 114 106 102  92  92  97 100 105 105 107 110  99  83  94 115 118 110  96  86  80  88  81  91  82  66  79  60  48  42  50  60  65  67  79  36
 42  61  62  69  70  66  81  86  75  82  76  60  42  29  34  39  46  78  80  61  44  38  44  47  54  57  71  93 111 117 111 105  97  92  99 100  93  98 107 106  98  82  77  98 108  95  82  77  86  99  99 110  99  70  71  64  59  50  45  51  62  65  78  45
 35  54  59  63  61  59  68  69  61  63  74  55  39  31  30  38  46  65  86  63  46  37  42  48  52  61  76  88 104 108  97  98  98  91  89  99  91  97 104 104  96  82  73  80  91  84  75  76  85 100 105 104  92  84  79  68  59  58  51  42  55  62  82  40
 28  49  54  62  60  52  53  53  50  56  66  57  44  35  27  35  43  50  70  58  44  35  41  50  55  63  69  68  81  91  90  95  91  79  79  87  85  91  96 102 107  91  74  68  77  77  72  77  83  91 102  99  99  82  77  71  58  56  52  43  55  64  76  35
 27  46  50  54  53  45  46  50  47  51  54  62  57  43  35  33  37  43  55  50  41  38  49  60  61  61  59  67  73  77  83  91  86  70  67  77  80  86  92 101 100  92  79  68  65  71  69  70  76  91  98  95  95  74  68  66  60  55  52  43  57  59  72  29
 28  44  47  45  47  41  42  41  43  48  49  65  67  53  40  32  41  51  53  46  35  42  57  65  65  69  66  73  75  75  79  83  92  80  57  63  77  87  96 103 102  87  80  72  65  66  65  62  71  86  92  90  93  70  67  66  61  57  52  41  51  57  66  30
 23  39  50  48  40  42  45  42  40  45  58  61  53  53  42  29  38  48  46  41  37  55  68  63  66  72  71  72  75  72  67  71  90  76  55  64  74  82  98 108  94  93  90  74  65  64  66  63  71  85  91  88  97  72  65  64  60  57  53  43  48  58  65  29
  9  17  18  18  16  15  21  19  17  20  24  19  18  20  17   9  17  22  16  14  16  21  30  24  24  31  27  28  27  25  24  30  32  31  20  30  31  27  36  46  46  44  38  32  27  24  27  23  27  33  36  34  39  33  28  26  22  21  20  19  15  22  26  15
