P2
# CREATOR: GIMP PNM Filter Version 1.1
80 80
255
67
69
71
73
74
75
78
80
82
84
88
91
95
107
125
145
146
129
108
97
92
92
93
93
93
94
95
96
110
116
117
122
124
123
119
116
105
97
97
97
96
96
94
94
93
92
89
88
87
84
83
86
88
85
88
87
85
82
74
72
72
72
67
57
51
51
52
52
52
49
48
47
45
44
43
45
45
39
31
29
67
70
72
74
75
78
80
82
86
87
88
91
95
100
113
128
140
130
113
104
97
95
94
94
94
95
96
98
110
120
123
131
135
132
127
122
112
99
99
98
96
97
97
95
94
94
92
90
88
87
88
96
95
88
90
89
85
81
78
75
72
69
60
57
55
54
55
54
53
51
49
47
45
44
43
50
44
35
33
32
68
70
72
75
77
79
81
84
88
91
91
91
95
101
107
118
125
125
118
110
101
98
96
96
97
97
98
99
109
122
130
140
145
142
135
129
114
100
100
99
98
99
98
97
96
96
94
91
90
90
97
102
98
91
91
89
85
82
81
76
72
65
60
60
58
56
56
55
54
52
50
49
48
45
44
43
38
35
34
34
69
71
73
76
78
80
82
85
90
92
92
95
98
103
109
117
120
121
120
111
104
100
98
99
102
102
101
101
104
121
134
145
154
148
141
135
116
102
102
101
100
100
99
99
98
98
96
94
94
96
105
105
101
95
92
89
87
86
83
77
69
64
62
61
60
59
58
57
55
53
52
51
50
48
47
42
38
36
34
38
69
72
74
76
79
81
84
87
91
93
94
97
101
103
107
114
116
116
115
111
106
102
100
103
107
106
104
103
103
114
134
146
152
149
142
138
116
103
103
103
102
101
100
100
100
99
98
98
98
104
109
109
104
98
96
91
89
88
84
76
67
66
64
63
61
60
59
58
56
55
53
52
51
49
46
42
38
36
37
44
69
71
76
80
81
83
85
87
91
94
96
98
102
105
107
110
111
113
114
111
108
104
103
107
112
113
109
108
106
108
127
140
147
146
140
133
113
105
105
105
103
103
103
102
101
100
100
100
102
109
110
110
109
106
105
93
90
89
86
73
67
67
65
64
63
62
61
59
57
56
55
54
53
49
45
42
38
37
40
49
69
72
75
80
83
84
87
89
92
94
96
98
100
104
107
108
110
111
113
112
109
107
106
111
117
119
117
117
109
109
117
133
140
140
135
122
111
108
107
106
106
106
106
104
103
102
102
102
106
112
112
113
114
116
113
101
93
91
82
69
69
68
66
65
65
64
62
60
57
57
56
56
53
49
45
42
40
39
44
52
71
74
75
81
84
85
88
90
92
94
97
98
100
104
107
109
110
112
112
112
112
110
111
117
124
125
125
124
115
111
115
125
130
129
123
116
113
109
111
109
109
109
107
106
104
103
103
104
109
114
115
116
118
120
119
114
105
94
76
71
70
69
68
67
66
66
64
60
58
58
58
58
55
48
45
42
43
42
45
52
76
80
81
83
85
86
89
91
93
94
97
99
101
104
108
109
111
112
113
114
115
115
117
123
129
130
131
131
125
117
117
122
125
123
121
117
114
115
117
112
110
110
109
107
105
105
105
107
112
116
117
117
120
122
121
120
115
99
80
72
72
71
70
68
68
67
65
61
60
59
60
61
58
48
45
45
46
44
46
50
85
86
87
87
87
88
90
92
94
95
97
99
103
107
109
111
112
113
115
116
117
120
125
129
136
137
137
138
136
128
121
126
126
125
123
119
119
122
120
113
111
111
110
108
107
107
107
109
117
118
117
119
121
125
123
121
112
97
80
75
74
73
72
70
69
68
67
65
61
60
62
64
58
49
47
48
48
47
47
49
86
88
89
90
90
90
92
93
95
96
98
100
104
109
109
111
113
114
117
119
122
126
131
136
143
144
146
147
144
136
129
132
129
127
125
121
123
127
122
115
113
112
110
110
109
109
109
113
120
122
121
121
122
126
125
119
104
90
79
76
75
74
73
71
70
70
69
67
63
61
65
68
59
52
49
52
50
49
49
50
86
88
89
90
91
92
93
94
96
98
100
103
105
108
110
112
113
116
119
122
127
131
136
143
149
151
154
156
152
144
138
140
135
130
128
127
129
132
124
117
115
114
112
112
111
111
113
116
117
110
114
120
122
123
123
118
104
91
81
78
76
76
75
74
75
76
71
68
64
64
69
73
64
55
53
56
53
51
52
53
85
87
88
90
92
93
94
96
97
99
101
105
107
109
111
113
115
118
121
124
129
135
141
147
154
157
160
164
162
152
146
148
141
134
126
117
119
123
126
120
118
118
116
114
114
111
106
106
96
82
90
111
126
124
122
118
108
98
85
80
79
77
78
80
81
81
74
70
66
67
75
80
71
63
60
59
57
56
58
60
83
86
88
91
93
93
95
97
98
100
102
105
108
110
112
114
117
120
123
127
131
138
144
150
158
164
168
171
172
161
147
139
126
117
103
88
87
99
122
124
119
110
105
100
99
98
85
83
78
74
76
93
128
127
122
116
108
99
87
81
81
82
84
84
84
82
78
73
69
70
82
85
80
77
69
62
64
66
65
63
84
86
89
92
93
94
96
97
98
100
103
106
109
112
113
116
118
121
125
128
133
138
146
153
164
173
178
180
167
153
134
114
96
86
79
75
74
80
103
122
116
88
82
79
79
79
75
74
75
75
74
85
122
125
119
113
106
96
88
84
86
89
88
86
85
83
79
75
72
74
87
89
87
84
75
69
71
68
65
59
85
88
90
91
93
95
96
97
99
101
104
107
110
113
115
118
120
123
127
131
134
139
147
156
171
181
187
188
149
128
111
87
78
74
74
75
75
75
85
106
101
77
74
74
74
74
75
75
75
75
74
92
120
119
114
108
102
93
88
87
92
94
90
87
86
84
80
75
73
79
91
92
92
88
77
73
70
66
62
57
84
87
89
92
94
94
96
97
100
101
106
109
111
115
117
120
122
125
129
134
138
143
149
159
176
189
196
195
139
102
84
75
75
75
75
75
75
75
77
82
81
75
75
75
75
75
75
75
75
75
75
95
114
115
110
105
100
94
92
95
97
96
92
90
85
82
78
76
76
86
95
96
96
90
79
73
69
66
60
57
80
83
87
93
94
95
96
98
101
105
108
113
114
116
118
122
124
127
130
135
142
148
155
168
169
164
163
170
128
86
75
75
75
75
75
75
75
75
75
75
75
75
75
75
75
75
75
75
75
75
75
81
95
114
111
106
102
99
97
104
101
97
94
92
88
83
81
81
86
95
97
97
99
93
78
72
69
65
61
59
76
81
84
89
94
97
100
102
104
107
110
114
117
119
121
123
126
129
133
136
143
153
159
148
135
129
120
118
102
83
74
75
75
75
75
75
75
75
75
75
75
75
75
75
75
75
75
75
75
75
75
75
79
107
116
110
104
104
103
112
108
100
95
95
95
97
96
97
99
99
97
98
96
87
77
72
69
67
63
61
74
78
82
87
94
98
101
106
108
111
114
116
120
125
126
126
128
132
135
137
142
152
151
120
107
99
91
84
78
76
75
75
75
75
75
75
75
75
75
75
75
75
75
75
75
75
75
75
75
75
75
75
75
90
99
108
108
111
114
116
111
102
96
96
98
105
106
105
104
98
93
92
89
81
76
73
70
68
65
63
73
77
81
88
95
98
102
108
112
114
118
121
122
128
131
131
132
135
137
139
143
148
136
100
81
77
76
75
75
75
75
75
75
75
75
75
75
75
75
75
75
75
75
75
75
75
75
75
75
75
75
75
75
76
77
87
105
117
120
118
110
102
99
98
102
108
109
107
103
99
97
92
85
80
76
74
73
71
67
64
73
77
83
89
93
96
102
107
113
117
121
124
127
130
134
136
139
139
141
143
146
143
112
81
75
75
75
75
75
75
75
75
75
75
75
75
75
75
75
75
75
75
75
75
75
75
75
75
75
75
75
75
75
75
75
76
90
120
123
117
111
104
103
103
105
108
110
108
105
106
108
103
90
81
78
76
75
73
70
67
74
78
84
88
92
95
102
110
115
121
129
132
134
136
136
141
144
144
145
147
145
134
97
73
75
75
75
75
75
75
75
75
75
75
75
75
75
75
75
75
75
75
75
75
75
75
75
75
75
75
75
75
75
75
75
75
76
94
109
107
111
106
105
108
109
110
111
109
110
112
115
111
98
85
80
78
76
75
71
70
76
81
86
90
93
97
105
114
120
125
131
136
139
141
141
146
149
149
149
143
122
113
96
74
75
75
75
75
75
75
75
75
75
75
75
75
75
75
75
75
75
75
75
75
75
75
75
75
75
75
75
75
75
75
75
75
75
76
78
88
105
109
111
111
113
114
113
112
114
112
112
111
97
86
82
80
78
75
73
76
81
84
87
92
96
100
107
118
123
128
133
137
140
145
147
150
154
155
149
131
100
85
84
75
75
75
75
75
75
75
75
75
75
75
75
75
75
75
75
75
75
75
75
75
75
75
75
75
75
75
75
75
75
75
75
75
75
75
75
75
92
116
115
114
115
116
115
115
115
109
100
99
92
85
82
80
78
75
77
84
81
85
86
93
97
104
110
119
126
135
139
139
144
150
152
155
159
155
130
107
85
75
75
75
75
75
75
75
75
75
75
75
75
75
75
75
75
75
75
75
75
75
75
75
75
75
75
75
75
75
75
75
75
75
75
75
75
75
75
75
79
106
118
116
116
117
117
117
115
104
96
92
88
84
82
79
77
78
86
90
85
89
93
99
102
111
116
124
130
139
145
146
149
156
161
160
162
144
112
86
75
75
75
75
75
75
75
75
75
75
75
75
75
75
75
75
75
75
75
75
75
75
75
75
75
75
75
75
75
75
75
75
75
75
75
75
75
75
75
75
75
95
120
120
118
118
119
118
113
101
95
90
87
84
82
80
81
84
93
90
85
93
101
107
110
119
125
130
139
146
151
153
156
162
169
167
161
134
102
76
75
75
75
75
75
75
75
75
75
75
75
75
75
75
75
75
75
75
75
75
75
75
75
75
75
75
75
75
75
75
75
75
75
75
75
75
75
75
75
75
74
88
119
122
119
118
120
119
110
99
95
90
87
84
83
83
87
96
94
89
83
89
98
108
114
124
135
141
149
159
162
163
165
168
175
173
152
119
88
74
75
75
75
75
75
75
75
75
75
75
75
75
75
75
75
75
75
75
75
75
75
75
75
75
75
75
75
75
75
75
75
75
75
75
75
75
75
75
75
75
75
85
118
122
121
121
122
120
111
100
95
93
91
88
87
89
98
100
95
90
83
87
96
104
113
122
135
148
158
169
173
172
173
176
180
172
140
105
79
75
75
75
75
75
75
75
75
75
75
75
75
75
75
75
75
75
75
75
75
75
75
75
75
75
75
75
75
75
75
75
75
75
75
75
75
75
75
75
75
75
75
85
115
127
125
126
124
119
108
100
98
100
97
97
98
102
104
104
103
97
86
89
98
104
109
117
126
138
153
163
166
171
179
188
182
158
128
93
76
75
75
75
75
75
75
75
75
75
75
75
75
75
75
75
75
75
75
75
75
75
75
75
75
75
75
75
75
75
75
75
75
75
75
75
75
75
75
75
75
75
76
93
124
133
130
127
123
115
105
101
101
100
98
104
116
114
114
120
119
108
88
92
99
106
110
117
123
131
143
151
159
167
177
190
174
142
113
84
75
75
75
75
75
75
75
75
75
75
75
75
75
75
75
75
75
75
75
75
75
75
75
75
75
75
75
75
75
75
75
75
75
75
75
75
75
75
75
75
75
75
80
107
136
134
129
123
118
109
105
103
102
101
101
111
122
124
129
127
124
110
88
95
99
106
111
116
122
130
140
149
157
165
173
181
161
131
103
80
75
75
75
75
75
75
75
75
75
75
75
75
75
75
75
75
75
75
75
75
75
75
75
75
75
75
75
75
75
75
75
75
75
75
75
75
75
75
75
75
75
76
92
123
137
132
129
123
119
110
107
106
103
105
111
121
126
129
132
130
124
111
88
94
100
106
110
114
121
129
139
147
154
160
168
177
156
124
94
77
75
75
75
75
75
75
75
75
75
75
75
75
75
75
75
75
75
75
75
75
75
75
75
75
75
75
75
75
75
75
75
75
75
75
75
75
75
75
75
75
76
86
112
134
137
137
140
137
135
114
108
107
107
115
123
129
129
130
131
132
125
117
86
92
99
104
107
112
119
127
135
143
150
156
162
170
151
117
87
75
75
75
75
75
75
75
75
75
75
75
75
75
75
75
75
75
75
75
75
75
75
75
75
75
75
75
75
75
75
75
75
75
75
75
75
75
75
75
75
75
77
102
127
143
143
149
153
150
142
116
110
110
116
125
134
136
138
137
134
133
129
127
86
92
96
100
105
110
116
124
129
138
150
162
167
165
143
109
83
75
75
75
75
77
77
75
75
75
75
75
75
75
75
75
75
75
75
75
75
75
75
75
75
75
75
75
75
75
75
75
75
75
75
75
75
75
75
75
75
75
75
99
131
151
155
157
155
151
136
116
114
117
126
136
143
144
145
145
141
136
133
133
83
90
96
100
105
111
120
128
136
148
163
175
182
163
130
100
78
75
76
75
77
80
81
78
75
75
75
75
75
75
75
75
75
75
75
75
75
75
75
75
75
75
75
75
75
75
75
75
75
75
75
75
75
75
75
75
75
75
76
97
135
160
161
160
155
144
127
119
122
128
135
145
147
146
145
144
143
141
138
135
82
91
97
101
109
117
128
140
150
159
170
177
181
160
122
94
75
75
77
77
79
84
90
87
79
75
75
75
75
75
75
75
75
75
75
75
75
75
75
75
75
75
75
75
75
75
75
75
75
75
75
75
75
75
75
75
75
75
75
97
137
167
166
163
154
138
129
126
134
145
146
148
147
147
145
145
144
143
141
136
80
90
96
104
116
124
134
144
151
155
159
163
161
154
121
89
75
75
76
78
80
89
108
106
88
76
75
75
75
75
75
75
75
75
75
75
75
75
75
75
75
75
75
75
75
75
75
75
75
75
75
75
75
75
75
75
75
75
74
92
130
169
172
166
155
141
134
133
147
156
152
149
148
147
144
142
141
140
136
129
77
86
94
108
119
126
134
141
140
138
139
148
150
150
118
86
74
75
75
76
78
93
119
117
92
76
75
75
75
75
75
75
75
75
75
75
75
75
75
75
75
75
75
75
75
75
75
75
75
75
75
75
75
75
75
75
75
75
74
88
125
173
180
171
163
152
140
141
156
158
152
149
148
146
142
135
130
129
125
119
76
81
90
108
117
124
130
130
123
122
128
139
145
145
116
84
74
75
75
75
77
89
109
107
87
75
75
75
75
75
75
75
75
75
75
75
75
75
75
75
75
75
75
75
75
75
75
75
75
75
75
75
75
75
75
75
75
75
74
88
126
180
186
178
174
164
146
149
161
157
153
150
149
145
137
130
125
123
120
116
77
80
86
99
110
114
116
116
116
120
127
134
140
141
113
81
74
75
75
75
78
83
90
87
78
75
75
75
75
75
75
75
75
75
75
75
75
75
75
75
75
75
75
75
75
75
75
75
75
75
75
75
75
75
75
75
75
75
74
93
129
173
186
186
185
173
158
158
166
160
158
156
153
146
137
133
127
123
120
117
77
80
85
93
99
102
107
112
115
119
126
131
137
139
115
81
74
75
75
75
77
77
79
77
75
75
75
75
75
75
75
75
75
75
75
75
75
75
75
75
75
75
75
75
75
75
75
75
75
75
75
75
75
75
75
75
75
75
75
98
133
172
184
190
191
178
167
167
170
167
164
162
157
149
143
138
130
126
124
122
75
79
83
92
94
101
108
113
115
118
122
126
131
136
114
83
74
75
75
75
75
75
75
75
75
75
75
75
75
75
75
75
75
75
75
75
75
75
75
75
75
75
75
75
75
75
75
75
75
75
75
75
75
75
75
75
75
75
76
110
141
173
182
190
194
184
180
177
174
172
167
165
157
154
153
145
141
136
134
129
75
78
81
88
93
97
103
112
115
118
121
125
131
142
119
84
74
75
75
75
75
75
75
75
75
75
75
75
75
75
75
75
75
75
75
75
75
75
75
75
75
75
75
75
75
75
75
75
75
75
75
75
75
75
75
75
75
74
84
118
151
173
178
189
195
189
184
179
176
174
170
166
163
164
165
159
156
150
146
138
77
78
81
82
90
95
99
109
111
116
121
127
134
146
126
89
74
75
75
75
75
75
75
75
75
75
75
75
75
75
75
75
75
75
75
75
75
75
75
75
75
75
75
75
75
75
75
75
75
75
75
75
75
75
75
75
75
86
116
134
158
169
174
183
190
184
177
174
174
174
171
169
171
182
184
176
169
165
164
151
74
76
78
83
87
90
99
101
108
120
127
129
135
141
133
97
75
75
75
75
75
75
75
75
75
75
75
75
75
75
75
75
75
75
75
75
75
75
75
75
75
75
75
75
75
75
75
75
75
75
75
75
75
75
75
76
88
114
143
153
157
161
166
174
178
175
167
163
166
172
172
170
175
197
205
193
186
182
173
158
74
76
80
82
84
86
91
92
101
113
124
127
132
133
135
108
79
75
75
75
75
75
75
75
75
75
75
75
75
75
75
75
75
75
75
75
75
75
75
75
75
75
75
75
75
75
75
75
75
75
75
75
75
75
74
94
124
144
156
155
153
155
155
160
162
163
160
159
163
172
173
173
177
199
222
213
203
189
174
163
75
77
79
82
83
86
89
92
96
102
111
116
123
129
134
119
87
75
75
75
75
75
75
75
75
75
75
75
75
75
75
75
75
75
75
75
75
75
75
75
75
75
75
75
75
75
75
75
75
75
75
75
75
75
74
89
125
154
156
153
150
149
150
153
155
156
156
158
163
174
175
176
182
201
229
236
213
194
180
166
74
76
81
82
84
88
89
91
96
100
105
111
121
129
135
133
101
77
75
75
75
75
75
75
75
75
75
75
75
75
75
75
75
75
75
75
75
75
75
75
75
75
75
75
75
75
75
75
75
75
75
75
75
75
75
78
113
155
153
151
148
146
147
150
151
151
152
155
161
174
188
185
190
208
234
244
220
201
184
169
70
77
79
77
78
82
86
92
97
102
105
115
118
126
132
137
116
89
75
75
75
75
75
75
75
75
75
75
75
75
75
75
75
75
75
75
75
75
75
75
75
75
75
75
75
75
75
75
75
75
75
75
75
75
75
76
120
156
152
149
146
143
144
147
148
147
150
152
159
178
199
203
202
219
242
242
224
207
190
176
63
70
69
67
73
76
84
93
99
103
108
114
117
120
127
137
132
104
78
75
75
75
75
75
75
75
75
75
75
75
75
75
75
75
75
75
75
75
75
75
75
75
75
75
75
75
75
75
75
75
75
75
75
75
75
81
115
147
152
148
144
143
141
145
146
147
149
150
157
178
201
214
216
227
243
226
213
201
190
177
61
62
63
67
72
76
86
95
100
104
107
112
117
121
125
129
134
119
94
78
75
75
75
75
75
75
75
75
75
75
75
75
75
75
75
75
75
75
75
75
75
75
75
75
75
75
75
75
75
75
75
75
75
75
76
94
119
147
152
147
142
139
138
141
143
146
148
148
152
168
186
198
203
216
229
213
195
183
173
164
60
61
62
66
72
76
86
93
99
102
107
113
117
121
126
129
132
136
116
94
83
76
75
75
75
75
75
75
75
75
75
75
75
75
75
75
75
75
75
75
75
75
75
75
75
75
75
75
75
75
75
75
75
77
89
109
132
155
153
149
141
136
136
138
143
146
147
145
147
157
170
180
187
204
214
205
186
171
160
151
59
60
62
63
69
82
92
98
102
106
110
114
117
120
127
126
129
138
135
122
110
85
76
76
75
75
75
75
75
75
75
75
75
75
75
75
75
75
75
75
75
75
75
75
75
75
75
75
75
75
75
75
77
95
115
130
148
158
152
147
141
135
133
136
141
143
144
142
142
148
158
166
177
194
200
195
180
164
153
142
59
60
61
63
73
91
99
103
108
110
111
117
118
119
123
123
126
132
133
136
129
109
92
86
77
75
75
75
75
75
75
75
75
75
75
75
75
75
75
75
75
75
75
75
75
75
75
75
75
75
75
75
90
112
122
144
157
156
150
146
137
131
130
135
140
142
142
139
139
143
150
157
169
184
187
184
175
158
147
137
59
61
63
68
83
94
98
98
102
106
110
118
120
117
119
119
122
127
128
127
130
128
118
113
90
79
78
77
78
76
75
75
76
77
75
75
75
75
75
75
75
75
75
75
75
75
75
75
75
75
75
80
106
109
113
132
149
153
148
142
132
125
128
132
137
139
141
137
137
139
144
149
160
172
173
172
169
155
142
134
61
65
70
79
85
89
93
93
96
102
108
119
120
114
115
114
117
121
121
121
126
133
135
131
115
100
98
96
97
89
80
81
87
89
76
75
75
75
75
75
75
75
75
75
75
75
75
77
76
77
83
104
112
103
108
126
137
147
146
138
127
121
123
126
134
137
138
135
135
137
140
145
153
160
162
163
163
152
141
133
64
70
77
83
84
83
87
91
94
98
105
112
116
109
108
107
111
113
116
120
126
131
135
137
137
126
123
125
128
121
103
102
112
106
84
75
75
75
75
75
75
75
75
75
75
77
82
96
92
100
117
133
110
100
101
117
127
135
139
133
123
115
107
118
131
135
134
133
132
134
138
141
148
151
153
154
154
151
144
134
68
73
79
81
81
82
87
91
92
94
102
106
110
106
103
105
109
111
115
117
122
127
132
136
136
135
131
131
139
145
137
136
136
123
98
79
74
75
75
75
75
75
75
75
75
82
104
132
143
150
158
147
112
97
96
107
121
120
119
118
114
106
98
116
129
133
131
128
129
132
132
132
137
143
148
149
147
146
143
136
71
74
76
80
80
82
87
89
89
93
100
104
106
103
100
104
107
108
108
111
117
123
131
135
134
132
129
123
128
150
166
170
161
138
111
91
80
77
75
75
75
75
75
75
75
90
117
164
190
183
171
152
117
97
94
97
108
102
97
97
99
95
97
116
127
132
126
120
124
130
128
121
122
133
139
141
140
140
139
135
70
71
73
77
79
80
85
85
83
91
98
103
103
98
96
99
100
100
102
109
115
123
130
134
131
128
125
116
121
138
162
179
176
148
123
107
95
90
82
77
75
75
74
74
79
100
128
177
195
180
166
153
127
99
94
93
93
90
89
89
90
89
91
102
116
129
122
111
114
124
123
112
110
124
125
128
130
134
136
133
67
68
70
71
75
77
81
81
79
90
97
101
99
92
90
91
94
96
102
110
117
124
130
135
129
123
118
109
114
127
151
178
186
166
139
122
111
106
98
95
92
84
90
98
98
122
143
176
197
180
165
152
136
106
94
93
91
89
88
88
88
86
87
88
99
117
117
106
103
116
118
108
105
114
113
118
121
127
129
128
61
64
66
66
70
73
75
76
74
86
95
98
97
88
86
87
92
97
105
111
118
125
132
134
128
119
113
105
107
120
146
178
184
177
162
152
134
122
121
126
121
117
124
131
135
156
168
189
199
184
167
152
138
118
99
93
91
90
88
87
86
84
84
85
86
103
106
99
96
108
114
106
100
103
104
109
112
116
118
119
55
57
58
61
66
67
67
69
67
77
90
97
94
85
84
86
89
97
106
111
117
123
129
131
123
114
108
102
103
117
145
174
176
172
173
176
162
149
151
163
154
139
134
135
149
169
187
196
196
186
169
154
141
130
116
102
95
94
90
87
84
83
82
82
82
90
93
88
89
100
107
103
97
95
97
98
101
103
105
107
53
54
56
57
62
62
62
62
63
68
81
92
89
84
82
83
85
94
105
110
115
121
127
129
117
107
104
99
100
114
148
170
169
167
169
173
174
176
180
191
169
139
127
129
146
166
185
193
191
184
173
161
147
137
126
115
108
105
95
86
84
82
80
79
79
82
83
82
84
92
98
98
97
92
90
90
90
93
94
97
54
54
55
57
60
59
59
61
62
65
72
79
82
81
80
81
85
93
101
108
115
121
129
130
114
104
101
97
97
111
146
160
161
162
163
166
172
176
181
191
168
133
122
125
146
159
177
190
188
181
173
163
152
140
130
123
120
117
106
87
82
81
79
77
76
78
79
79
81
86
88
89
91
90
86
85
85
85
87
89
53
53
55
56
58
56
59
61
62
65
70
73
80
79
78
79
86
93
99
105
112
119
125
124
112
99
97
94
95
108
139
152
157
158
157
160
167
168
173
182
159
129
117
119
138
152
168
184
183
179
171
162
151
142
132
127
124
120
109
87
81
80
78
76
75
75
77
78
79
80
79
81
83
86
86
85
83
82
82
83
52
53
54
55
52
52
58
61
62
67
68
71
76
77
75
78
86
94
97
103
111
118
125
119
108
95
93
93
93
103
132
145
154
154
154
155
158
161
168
165
141
125
113
112
123
145
160
178
178
176
172
164
153
144
135
129
123
115
104
86
81
79
77
75
73
73
74
76
80
77
74
75
78
88
88
84
83
81
79
79
52
53
54
55
46
55
60
61
62
64
67
69
71
73
72
76
85
91
95
103
111
117
125
116
102
92
90
91
92
99
126
142
152
148
149
149
153
157
161
150
130
124
113
108
113
136
154
175
175
172
169
165
156
147
140
133
124
112
97
85
81
78
76
75
72
71
72
73
81
78
73
72
77
90
92
87
84
82
79
77
46
50
54
46
45
58
60
61
62
63
64
67
69
70
71
77
83
85
92
101
109
116
124
114
101
90
88
89
91
98
122
138
146
143
143
146
150
151
156
147
128
124
117
108
107
126
147
168
173
168
164
161
154
148
142
137
128
114
101
90
84
77
75
74
71
69
70
71
75
80
73
71
77
92
96
91
86
84
81
76
32
34
38
42
53
56
59
60
62
62
64
65
67
69
71
77
79
86
91
99
107
114
124
110
99
89
87
88
88
98
118
135
139
138
140
141
143
144
149
147
127
124
120
108
104
117
140
161
170
167
162
155
148
143
139
135
128
117
107
100
92
79
74
73
71
68
69
69
70
72
71
70
77
91
93
94
92
89
84
78
46
43
39
38
41
49
54
56
57
60
62
64
67
68
71
73
77
85
91
98
105
115
122
109
96
86
85
87
86
98
116
130
134
134
136
137
137
139
147
149
130
125
122
107
103
111
132
154
163
164
161
152
141
136
136
133
127
121
113
105
96
81
73
72
70
68
67
68
68
68
69
68
76
87
89
95
100
96
89
80
49
50
51
51
48
48
48
57
61
59
61
63
65
67
69
71
77
84
91
96
105
115
113
106
93
84
84
87
85
97
115
126
131
132
132
133
134
136
142
146
133
123
121
105
102
107
125
148
157
159
157
146
136
129
130
129
124
120
115
108
101
87
73
71
69
67
66
67
67
67
67
67
76
85
86
93
100
98
91
81
51
51
53
54
55
58
59
61
62
64
65
65
67
69
71
71
77
84
92
100
114
114
104
102
89
83
83
85
83
94
110
120
126
127
129
130
131
132
135
141
136
122
115
102
101
105
120
142
157
156
152
139
129
122
122
124
121
117
111
106
102
90
73
70
67
66
64
66
66
66
66
66
76
83
83
89
95
94
86
79
54
55
54
55
56
59
60
61
63
66
69
73
72
72
72
74
80
88
99
115
123
105
100
98
86
82
82
83
84
92
105
113
121
124
125
128
128
127
130
138
133
115
103
99
101
104
116
136
155
155
147
132
123
117
115
116
116
114
108
102
99
91
74
69
67
65
63
65
64
65
64
67
77
79
79
82
87
87
81
78
58
60
56
56
58
59
61
61
64
67
75
78
77
74
75
82
93
102
110
122
117
98
97
94
85
82
81
81
83
92
102
111
116
122
121
123
125
125
128
135
126
107
97
98
101
104
115
131
151
153
140
125
117
111
108
108
107
106
102
94
91
90
82
68
66
65
62
64
63
63
63
65
74
76
74
75
78
78
75
73
62
60
58
59
61
63
62
62
65
70
78
82
80
78
84
94
101
112
119
118
102
89
93
90
84
81
80
79
82
93
101
106
112
117
117
120
122
121
123
129
120
99
94
97
100
104
115
129
148
151
136
123
114
106
102
99
98
95
91
83
81
84
83
69
65
64
62
61
62
62
62
63
70
70
70
69
70
70
67
65
64
65
63
68
70
69
66
65
69
82
84
83
84
85
90
94
103
113
122
110
90
84
89
87
82
80
79
78
82
89
97
102
108
113
113
117
117
115
117
124
111
93
91
97
99
105
117
128
146
149
133
120
112
106
103
99
94
88
82
78
75
75
79
72
65
63
62
58
61
60
60
60
63
65
65
63
63
62
59
58
61
75
77
81
77
72
75
74
81
85
83
83
87
89
93
95
103
112
117
102
86
83
88
85
81
80
78
78
80
86
92
99
107
112
111
114
112
111
111
116
106
89
89
98
97
107
117
127
145
148
132
121
113
110
107
104
97
89
83
78
74
70
69
69
64
62
61
59
56
57
58
58
58
60
60
59
57
55
54
52
