P2
# CREATOR: GIMP PNM Filter Version 1.1
100 100
255
19
20
21
21
22
22
23
24
24
21
17
13
11
11
12
13
13
14
15
17
19
19
19
20
24
27
27
23
18
13
10
8
8
8
8
8
8
8
8
8
9
11
17
23
27
26
21
15
10
8
7
6
6
6
6
5
5
6
6
5
5
4
4
4
4
5
6
6
6
7
9
11
14
18
24
32
40
45
50
56
60
58
54
50
42
34
31
33
36
37
37
36
38
42
49
55
62
69
75
78
22
22
22
23
24
25
25
26
24
21
16
13
12
13
14
15
16
17
17
18
18
18
18
19
23
27
27
23
18
13
10
8
8
8
8
8
8
8
8
8
9
12
17
23
26
26
21
16
11
8
7
6
6
6
6
6
6
6
6
6
5
5
5
4
5
5
6
7
7
8
10
13
17
22
30
38
46
50
53
57
61
59
56
50
42
36
34
37
40
41
41
42
43
48
55
62
68
73
77
79
22
22
22
24
26
26
26
25
23
18
15
13
14
16
17
17
18
18
19
19
18
17
16
17
21
25
25
21
16
12
10
9
9
9
9
9
9
9
9
9
10
12
17
21
23
23
21
16
11
8
7
6
6
6
6
6
6
6
6
6
6
5
5
5
5
6
7
7
8
10
12
15
20
28
37
45
52
54
56
59
61
59
55
49
42
37
38
41
44
45
47
48
49
52
58
64
69
73
74
73
20
20
22
24
25
25
24
22
18
15
13
13
15
16
17
18
18
18
18
18
16
14
13
15
18
21
21
18
14
11
9
9
9
9
9
9
9
9
9
9
10
12
15
18
19
19
17
14
10
8
7
7
7
7
7
6
6
6
6
6
6
6
5
5
6
6
7
8
9
11
14
18
25
33
43
50
55
57
59
61
60
56
51
46
40
39
41
44
47
49
51
52
53
53
55
60
64
65
65
64
18
18
20
22
22
21
20
17
15
13
12
13
15
16
17
17
17
16
16
16
15
13
12
12
14
16
16
14
11
10
9
9
9
9
9
9
9
9
9
9
10
11
13
14
14
14
13
10
8
7
7
7
7
7
7
7
6
6
6
6
6
6
6
6
6
7
8
9
11
13
16
21
29
37
46
52
56
59
62
61
57
52
47
43
39
39
41
45
47
50
52
54
53
51
51
53
56
58
57
56
18
17
18
18
18
17
15
14
12
11
12
13
14
16
17
18
16
15
14
14
13
12
10
11
12
13
13
11
10
9
9
9
9
10
10
10
10
10
10
10
10
11
11
11
11
11
9
8
7
7
7
7
7
7
7
7
6
6
6
6
6
6
6
6
7
8
9
11
13
15
19
24
32
40
47
52
56
60
61
59
54
48
44
41
39
39
41
43
46
49
51
52
51
49
48
49
52
53
53
53
16
15
14
14
13
13
13
12
11
11
12
13
15
17
18
18
16
13
12
12
11
10
10
10
11
11
11
10
9
9
9
9
9
10
10
10
10
10
10
10
10
10
9
9
9
9
8
7
7
7
7
7
7
7
7
7
7
6
6
6
6
6
6
7
7
8
10
12
14
16
21
27
35
43
50
55
59
60
59
56
50
45
42
41
40
39
40
42
45
47
50
50
50
48
48
48
50
51
52
52
15
13
12
11
11
12
12
12
12
12
13
14
16
18
19
18
16
13
11
11
10
10
10
10
10
10
9
9
9
9
9
9
10
11
11
11
11
11
11
10
10
9
9
9
9
8
8
7
7
7
7
7
7
7
7
7
7
7
7
6
6
6
7
7
8
9
11
13
16
19
23
30
39
49
57
62
62
60
56
52
47
43
41
41
40
40
41
42
44
46
48
49
49
49
49
50
51
53
54
55
12
11
10
10
11
12
13
13
13
14
14
15
17
18
19
17
15
12
10
10
9
9
10
10
10
9
9
9
9
9
9
10
10
11
11
11
11
11
11
11
10
9
9
8
8
8
8
8
8
8
8
7
7
7
7
7
7
7
7
7
7
7
7
8
9
11
13
15
18
22
27
35
46
57
65
67
64
59
54
49
45
42
41
41
41
42
42
44
45
46
48
49
50
50
51
52
54
56
58
60
9
10
10
11
13
14
14
15
16
16
16
17
18
18
18
16
14
12
10
9
9
9
10
10
10
9
9
9
9
9
9
10
10
11
12
12
12
12
12
11
10
9
9
9
9
9
9
9
9
9
8
8
8
8
8
8
8
8
8
8
8
8
9
10
11
13
16
19
23
28
34
43
54
64
68
67
62
56
51
47
44
42
42
42
42
43
44
45
46
47
49
50
52
53
54
56
57
60
63
66
9
10
11
13
15
15
16
19
21
21
19
18
18
18
17
16
14
12
10
9
9
9
9
10
10
9
9
9
9
9
10
10
10
11
12
13
13
13
12
11
10
9
9
9
9
9
9
9
9
9
9
9
9
9
9
9
9
9
9
8
8
9
10
11
14
17
21
26
31
36
43
51
60
67
68
65
60
55
51
48
46
45
44
44
45
46
47
47
48
49
50
52
54
56
58
60
62
64
68
72
10
12
14
15
15
16
19
23
25
24
21
19
18
18
17
15
14
12
11
10
9
9
9
9
9
9
9
9
10
10
10
10
10
11
12
14
14
13
12
11
11
10
10
10
10
10
10
10
10
10
10
10
10
10
10
10
10
10
10
9
9
10
12
15
19
24
30
35
41
47
54
60
66
69
68
64
60
57
54
51
50
48
47
47
47
48
49
49
50
51
53
55
57
59
62
65
67
69
71
74
14
15
15
15
16
19
23
27
28
26
22
20
19
17
16
15
14
13
12
10
10
9
9
9
9
10
10
10
10
10
10
11
11
12
13
14
14
13
12
11
11
10
10
10
10
10
10
11
11
11
11
11
11
11
11
11
11
11
11
10
11
12
15
19
25
32
38
43
50
56
62
68
73
75
72
68
65
62
58
55
54
52
50
50
51
52
52
52
53
54
55
57
59
63
67
70
72
73
74
76
18
18
16
16
18
21
25
28
28
26
23
21
19
17
16
16
15
13
12
10
10
9
10
10
10
10
10
10
11
11
11
11
11
12
12
13
13
12
11
11
11
11
11
11
11
11
11
12
12
12
12
11
11
11
12
12
12
12
12
12
12
15
19
25
32
37
42
47
53
60
68
76
82
83
80
75
72
68
63
58
56
54
53
53
54
55
55
56
57
59
60
61
63
66
72
77
78
78
78
79
22
19
17
17
20
24
26
27
26
25
23
21
18
16
16
15
14
13
12
11
10
10
10
10
10
10
11
11
11
11
11
11
11
11
12
12
12
12
11
11
11
11
12
12
12
12
12
13
13
13
13
12
12
12
13
13
14
14
13
13
15
18
24
31
36
40
43
48
53
61
71
82
91
92
89
84
80
75
67
60
57
55
55
56
58
59
60
60
62
65
67
67
68
71
78
83
85
84
85
87
22
19
17
18
22
25
26
26
25
24
22
20
17
15
15
14
13
12
12
11
10
10
10
10
11
11
11
11
11
11
11
11
11
11
11
12
12
12
12
11
11
12
12
13
13
13
14
14
14
14
14
13
13
13
14
14
15
15
15
16
18
22
28
34
38
40
44
48
54
62
73
87
97
98
95
91
86
78
69
61
58
57
58
59
61
63
65
66
69
72
75
75
74
77
83
89
92
92
94
97
21
18
17
18
22
24
24
24
24
23
20
18
16
15
14
13
13
12
12
11
11
11
11
11
12
12
12
12
12
12
12
12
12
11
11
12
12
12
12
12
12
12
13
13
14
14
15
15
15
15
15
14
14
14
15
16
16
17
17
18
20
24
29
34
37
41
47
53
60
67
79
90
97
97
93
90
85
77
68
62
59
60
60
61
63
66
70
73
77
81
85
85
84
83
88
95
100
101
102
105
19
17
16
17
20
21
21
21
22
21
19
17
15
14
14
13
12
12
12
11
11
11
12
12
13
13
13
13
12
12
12
12
12
12
12
12
13
13
13
13
13
13
14
14
15
15
16
16
16
16
16
15
15
15
16
17
18
18
19
20
22
25
29
33
39
45
53
61
69
77
87
94
96
92
88
85
80
73
66
62
61
63
64
64
64
68
73
79
85
91
96
98
95
92
95
102
107
106
106
107
18
16
15
16
17
18
18
19
20
19
18
16
15
14
14
13
13
12
12
12
12
12
13
13
13
13
13
13
13
12
12
12
12
12
12
13
13
14
13
13
13
14
14
15
16
16
17
17
17
17
17
17
16
17
17
18
19
20
21
22
24
26
30
35
42
50
59
68
77
88
97
99
94
89
84
80
75
69
65
63
63
65
67
67
66
69
75
85
95
104
111
112
107
100
101
108
112
110
107
106
16
15
15
15
16
17
17
17
18
18
17
15
14
14
14
13
13
13
13
13
13
13
13
13
14
14
14
13
13
13
13
13
13
13
13
13
14
14
14
14
14
14
15
16
16
17
17
18
18
18
18
18
18
18
19
20
21
22
24
25
26
28
31
37
44
52
61
71
82
94
103
102
95
88
84
79
73
69
67
66
65
67
69
69
68
70
77
90
105
118
126
126
116
106
105
111
115
114
112
110
13
14
15
16
17
17
16
16
17
17
16
15
14
14
14
14
14
14
14
14
14
14
14
14
14
14
14
13
13
13
14
14
14
13
13
14
14
14
14
14
14
15
16
16
17
18
18
19
19
19
19
20
20
20
21
22
24
25
26
27
29
31
34
39
46
54
62
71
82
95
105
104
97
92
87
82
75
72
72
70
68
68
71
73
73
74
80
94
113
130
138
133
120
107
105
110
115
118
119
119
13
15
16
18
18
18
17
17
16
16
15
15
14
14
14
14
15
15
14
14
14
14
14
14
14
14
14
14
14
14
14
14
14
14
14
14
14
14
14
14
15
16
16
17
17
18
19
19
20
20
20
21
21
22
23
25
26
27
28
30
31
34
37
42
48
55
63
70
79
92
102
105
102
97
92
85
79
77
77
75
72
70
72
76
80
82
85
95
114
132
139
132
117
104
103
108
115
121
125
126
14
15
17
18
19
19
18
17
17
16
15
15
14
14
15
15
15
15
15
15
15
15
15
15
14
14
14
14
14
14
14
14
14
15
15
15
15
15
15
15
16
16
17
17
18
19
20
20
21
21
21
22
23
24
26
28
29
30
31
32
34
37
41
46
51
58
65
72
80
90
101
106
106
101
95
87
83
83
84
82
78
76
77
81
87
91
91
95
109
125
132
125
111
101
100
106
115
122
126
126
15
17
19
19
19
19
18
17
17
16
15
15
15
15
15
15
16
16
16
15
15
15
15
15
14
14
14
14
14
14
15
15
15
15
15
16
16
16
16
16
17
17
18
18
19
20
20
21
22
22
23
24
26
28
30
31
32
32
33
35
37
41
45
51
56
62
69
75
83
92
101
107
107
102
94
87
85
88
91
90
85
82
83
86
93
99
100
98
104
115
121
117
107
99
100
107
117
124
126
125
17
18
19
20
19
18
18
17
17
16
16
15
15
15
15
16
16
16
16
15
15
15
15
15
15
14
14
14
15
15
15
15
16
16
16
17
17
17
17
17
17
18
18
19
19
20
21
22
23
23
25
26
28
31
32
34
34
35
35
37
40
45
50
57
63
68
74
81
88
96
103
106
104
98
92
89
90
94
98
97
93
90
90
92
99
107
109
104
101
106
112
112
105
100
101
108
117
125
129
129
18
20
20
20
19
18
17
17
16
16
15
15
16
16
16
16
16
16
16
16
16
16
15
15
15
15
15
15
15
15
16
16
17
17
17
17
17
18
18
18
18
19
19
19
20
21
22
23
24
25
26
28
30
33
35
36
37
37
38
41
45
50
57
65
72
78
83
89
96
101
104
102
98
94
92
93
96
100
103
102
97
96
96
98
104
114
116
109
101
101
108
111
108
105
104
108
115
123
130
133
19
20
20
19
18
17
16
16
16
16
16
16
16
16
16
16
16
16
16
16
16
16
16
16
16
16
16
16
16
16
16
16
17
18
18
19
19
19
19
19
19
20
20
20
21
22
23
24
25
26
28
30
32
34
36
38
39
40
41
45
52
60
67
75
82
88
93
98
101
102
101
99
95
92
93
97
101
104
104
101
97
97
99
102
108
117
119
111
101
100
108
115
116
112
108
107
109
116
124
129
18
19
19
18
17
16
15
15
15
16
16
16
16
16
16
16
16
17
17
17
17
16
16
16
16
17
17
16
16
16
17
17
18
18
19
20
20
20
20
21
21
21
21
21
22
23
25
26
27
28
30
31
33
36
38
40
41
43
45
51
59
69
76
83
89
94
98
100
100
98
95
94
93
92
94
99
103
104
102
98
97
98
101
105
113
121
121
113
103
103
113
122
124
119
112
107
106
109
116
121
17
17
17
16
16
15
15
15
15
16
16
16
16
16
16
16
16
17
18
18
18
17
17
17
17
18
18
18
17
17
17
18
19
20
21
21
21
21
21
22
22
22
22
23
23
25
26
28
29
30
31
33
35
38
41
43
45
48
51
57
65
74
81
86
90
93
95
94
91
88
86
87
88
89
92
97
101
103
101
99
99
101
103
108
117
125
125
116
107
107
116
125
127
121
114
108
106
107
112
117
16
16
16
15
14
14
14
14
15
16
16
16
16
16
16
17
17
18
18
18
18
18
18
18
18
19
19
19
19
18
18
19
20
21
22
22
22
22
22
23
23
23
23
24
25
26
28
30
31
33
34
35
38
41
44
47
51
55
59
62
65
71
77
82
85
86
86
84
81
78
78
80
83
87
90
95
100
102
101
102
105
107
107
110
119
128
129
122
112
109
115
122
123
119
114
111
109
111
115
119
14
15
15
15
14
14
14
14
15
16
16
16
16
16
17
18
19
19
19
19
19
18
19
19
19
20
20
20
20
20
20
20
21
21
23
23
23
23
23
24
25
25
25
26
27
28
30
33
35
36
37
38
41
45
50
54
60
65
69
68
67
68
70
74
77
77
76
74
72
71
73
76
81
85
89
95
99
103
104
106
110
113
112
114
124
133
135
127
116
110
113
118
121
121
119
117
118
121
125
129
13
14
14
14
14
14
14
15
16
16
16
16
16
17
18
19
20
20
20
19
20
20
20
20
20
20
21
21
22
21
21
21
22
22
23
24
24
24
24
25
26
26
26
27
28
30
33
36
39
41
41
41
44
50
56
63
70
76
78
75
71
69
68
68
69
70
70
69
68
70
72
77
81
86
91
96
101
104
106
110
114
115
114
118
128
136
136
128
118
113
114
119
125
129
129
130
131
134
141
146
12
13
14
14
14
14
14
15
16
16
16
16
16
17
18
20
21
21
20
20
20
21
21
21
21
21
21
22
22
22
22
22
22
23
23
24
25
25
26
26
27
27
28
29
30
33
37
41
44
46
46
45
48
54
62
70
77
82
82
78
76
73
69
66
66
69
70
70
70
72
75
78
82
87
92
97
101
105
109
114
117
117
116
120
128
135
135
130
123
119
120
124
131
138
144
147
149
152
157
164
11
12
13
13
13
14
14
14
15
16
16
16
17
18
19
21
21
21
21
20
20
21
21
21
21
21
21
22
23
23
23
23
23
23
24
25
26
26
27
28
29
29
30
31
33
37
41
46
49
51
50
48
49
55
63
71
78
81
80
77
76
75
71
67
66
68
71
72
74
75
77
80
83
87
91
95
99
104
111
116
119
121
121
122
127
133
136
134
130
127
129
132
136
146
158
165
168
168
173
179
10
11
12
12
13
13
14
14
15
16
16
17
17
18
19
21
21
21
21
21
21
21
21
22
22
22
22
23
24
24
24
25
25
25
26
26
27
27
28
29
30
31
31
33
36
40
45
50
53
54
53
50
50
53
60
67
72
74
74
73
73
73
70
66
64
66
70
72
75
77
80
82
84
86
88
91
95
101
108
115
120
123
125
126
131
137
141
140
135
135
140
141
142
151
165
176
181
181
184
191
10
11
12
12
13
13
14
14
15
16
17
18
18
19
20
21
22
21
21
21
21
22
22
22
23
23
23
24
25
26
26
27
27
27
26
27
28
28
29
30
31
32
33
35
39
43
48
52
55
56
54
51
49
50
54
58
62
65
65
66
67
67
66
63
62
63
66
70
73
76
78
80
81
83
85
87
91
96
103
110
116
122
126
131
139
146
148
144
139
141
148
151
148
151
163
175
184
187
192
199
10
11
12
12
12
13
14
14
15
16
17
18
19
20
20
21
22
21
21
21
22
22
23
23
24
25
26
27
28
28
29
30
31
29
28
28
29
30
30
31
33
34
35
37
40
44
48
51
54
55
54
52
49
48
50
52
54
56
57
58
60
60
59
58
58
60
62
65
68
71
74
76
78
79
81
84
87
92
97
103
110
117
125
136
148
155
154
149
144
146
154
158
155
154
162
173
183
188
193
199
10
11
12
13
13
13
14
15
16
17
18
19
20
20
21
21
22
22
22
22
22
23
24
25
26
28
29
31
32
31
32
33
33
31
29
29
30
31
32
33
34
36
38
40
41
44
47
49
52
53
53
52
50
49
48
49
50
51
52
53
54
55
55
56
57
59
61
63
65
67
69
72
74
76
79
82
86
89
94
101
107
114
123
138
152
160
160
157
153
153
159
164
163
162
168
178
184
184
185
187
10
12
13
13
13
14
14
15
16
17
18
20
20
21
21
21
22
22
22
23
23
24
25
26
29
31
33
36
36
35
34
34
33
31
31
31
32
32
33
34
36
38
39
41
42
44
46
48
50
51
51
51
50
49
49
49
50
50
50
51
52
54
55
57
59
62
64
65
67
68
70
71
74
77
81
84
87
90
95
104
113
119
126
138
152
163
166
166
165
164
168
173
173
172
176
182
181
176
170
167
11
12
13
14
14
15
15
16
16
17
18
20
20
21
21
21
22
23
23
23
24
24
25
28
31
34
36
38
39
37
35
34
33
32
31
32
33
34
35
36
37
39
40
41
43
45
46
48
49
50
51
52
52
51
50
51
51
51
52
53
54
56
58
61
64
66
68
70
71
73
74
75
78
83
88
90
91
92
98
109
120
128
132
140
154
168
176
179
179
178
181
184
182
178
177
175
169
161
153
150
11
13
14
15
15
16
17
17
17
17
18
20
20
21
21
22
22
23
23
24
24
25
26
29
32
34
36
38
39
37
35
34
33
32
33
34
35
36
37
38
39
40
42
43
44
46
48
49
50
51
52
52
53
52
52
53
54
54
55
56
57
59
62
65
67
70
72
73
75
77
78
81
84
89
95
99
99
98
102
112
124
134
139
147
161
178
190
194
193
190
188
185
178
171
165
158
152
148
146
144
11
13
14
15
16
16
17
17
17
18
18
20
21
21
22
22
23
24
24
24
25
25
27
29
31
33
35
37
37
36
35
34
34
34
34
35
36
37
39
40
41
42
43
43
45
47
49
50
51
52
53
54
54
54
55
56
57
58
59
60
61
63
65
67
69
70
72
74
76
78
81
85
89
94
100
105
105
104
106
114
127
140
149
157
171
188
200
201
195
187
179
169
159
151
144
140
141
146
149
149
11
13
14
15
16
17
18
18
18
18
19
20
21
22
22
23
23
24
24
25
25
26
27
29
31
33
35
36
37
36
35
34
34
35
35
36
38
39
40
42
43
44
44
45
46
48
50
52
53
54
54
55
56
57
58
59
60
61
63
65
66
67
68
69
70
71
73
76
78
81
85
89
95
100
106
111
112
111
111
118
132
148
161
170
181
192
199
194
182
170
158
148
139
132
126
127
137
148
154
154
11
13
14
15
16
17
18
18
19
19
19
20
21
22
23
23
24
25
25
25
26
27
28
30
31
33
34
36
37
36
36
36
36
36
37
38
39
41
42
44
45
46
46
47
48
49
51
53
54
55
56
57
58
59
61
62
64
66
68
69
70
71
71
72
73
75
77
80
83
87
90
95
101
107
114
120
123
121
119
122
133
151
168
179
186
190
188
178
163
151
143
138
135
129
121
120
129
141
147
149
12
13
15
16
17
18
18
19
19
20
20
21
22
23
23
24
25
25
26
26
27
28
29
30
31
33
34
36
37
37
37
37
37
37
38
39
41
42
44
46
48
49
49
49
50
51
52
54
55
56
57
59
61
63
65
67
68
70
72
74
75
75
76
77
79
82
85
88
93
97
101
105
111
117
125
134
139
138
132
129
134
149
167
179
183
181
173
162
151
143
139
140
140
134
122
113
114
122
129
134
12
14
15
16
17
18
19
20
20
21
21
22
23
23
24
25
26
26
27
28
28
29
30
31
32
34
35
37
38
38
39
39
39
39
40
41
42
44
47
49
52
53
52
52
51
52
54
56
57
58
59
61
64
66
68
71
73
74
76
79
79
80
82
85
88
92
96
99
105
111
115
119
124
129
138
149
156
154
145
137
137
148
165
176
178
171
163
153
145
139
137
137
137
130
117
104
99
102
108
115
12
14
16
17
18
19
20
20
21
21
22
23
24
24
25
26
27
28
28
29
29
30
31
32
33
35
36
38
39
40
40
40
40
41
42
43
44
46
49
53
55
56
56
55
55
55
57
58
60
61
62
65
67
70
72
75
77
79
81
83
84
86
90
95
99
104
108
111
117
124
131
136
140
144
150
159
164
160
152
145
146
156
172
181
179
171
163
154
145
138
133
130
126
119
109
99
95
93
95
98
13
14
16
18
19
20
21
21
22
22
22
23
24
25
26
27
28
29
30
31
31
32
33
34
35
36
37
39
40
41
41
42
42
43
44
45
47
49
52
56
58
59
59
59
59
59
61
64
65
66
67
69
72
75
77
80
82
84
86
88
90
95
102
110
114
117
121
124
129
137
146
153
155
157
160
163
164
162
159
160
164
175
188
193
189
182
173
163
153
146
139
133
126
117
110
106
104
101
96
93
13
15
17
18
20
21
22
23
23
23
23
24
25
26
27
28
29
30
31
32
33
34
35
37
38
38
39
40
41
42
42
43
44
44
46
47
49
51
55
59
61
62
63
63
63
65
69
72
74
75
74
75
77
80
83
86
88
91
93
96
99
106
118
128
132
134
136
138
142
150
160
165
166
165
166
167
168
172
179
186
191
197
202
203
200
194
186
175
167
160
152
145
137
129
123
122
122
118
110
103
14
16
17
19
21
22
23
23
24
24
24
25
26
27
28
29
30
31
33
34
35
36
38
39
40
40
41
41
42
43
43
44
45
46
48
49
51
54
58
61
64
65
66
67
69
73
78
83
85
84
82
82
84
87
90
94
98
101
105
109
111
118
131
145
152
153
154
156
159
164
170
173
173
171
172
176
182
193
206
214
215
211
208
203
201
199
194
185
177
169
161
153
147
143
139
139
140
136
128
121
16
17
18
20
22
24
24
24
25
25
25
26
26
28
29
30
31
33
35
36
37
38
40
42
43
43
42
42
43
44
45
46
47
48
50
52
54
57
60
64
67
68
70
73
77
83
89
93
93
91
90
91
93
96
99
104
110
116
123
127
127
129
141
158
169
174
176
177
177
178
182
184
182
182
186
195
205
217
229
233
228
218
207
197
192
193
194
189
181
171
161
153
150
149
150
152
153
149
143
137
17
18
20
22
24
25
26
26
25
26
26
27
28
29
30
31
32
34
36
37
38
39
40
42
43
44
44
44
45
46
47
48
49
51
54
56
58
60
63
66
69
71
73
77
85
93
99
101
99
97
97
100
104
107
110
116
124
135
145
149
145
142
151
169
186
195
198
198
194
193
198
201
199
198
206
218
228
237
243
242
234
222
207
192
181
181
185
184
178
169
158
150
145
145
149
155
158
155
148
143
18
20
21
23
25
26
27
27
26
27
27
28
29
30
31
32
33
35
37
38
39
39
40
42
43
44
45
46
47
48
49
50
52
55
58
60
61
63
65
68
70
73
75
81
92
102
108
109
106
105
107
111
117
121
125
132
144
158
168
169
162
156
165
186
205
215
218
214
208
208
216
221
218
215
223
235
244
248
249
245
236
223
207
189
175
169
171
173
172
165
156
147
138
134
138
149
156
154
146
139
19
20
22
24
26
27
28
27
27
28
28
29
30
30
31
32
34
35
37
38
39
40
41
42
43
45
46
47
49
50
52
54
56
59
62
64
65
67
68
70
72
74
78
84
96
107
114
116
114
115
118
123
130
137
146
156
169
181
187
182
174
174
187
208
225
232
232
225
219
221
231
237
233
229
234
243
248
249
246
240
232
222
208
191
175
164
159
159
160
158
152
142
132
123
125
136
147
149
142
134
20
22
24
26
28
29
29
29
28
29
29
30
31
31
32
33
34
35
37
38
39
40
41
43
44
45
47
49
51
52
54
56
59
63
65
67
69
71
73
74
76
77
80
87
98
110
118
122
124
127
131
137
146
158
171
184
196
201
198
190
187
196
213
230
241
243
237
229
226
232
242
246
243
239
241
245
245
242
237
231
227
222
211
195
179
165
154
148
147
148
147
141
131
121
117
123
133
139
137
132
21
23
26
30
32
32
32
30
29
29
30
31
32
33
33
34
35
36
38
39
40
41
43
44
45
46
48
50
52
54
56
58
62
65
68
70
72
74
77
79
80
81
85
92
104
115
122
128
133
139
145
154
166
182
198
211
215
212
205
200
205
219
235
245
249
247
239
231
232
241
249
251
249
246
245
243
235
227
221
219
220
220
210
194
179
167
155
144
139
140
145
145
138
129
120
115
117
124
130
130
22
26
30
34
36
36
34
32
30
30
31
32
33
34
34
35
36
37
38
39
41
42
43
45
46
47
49
51
53
55
58
60
63
67
69
71
73
76
79
82
84
87
91
100
113
124
130
134
141
148
158
172
190
208
223
229
227
221
217
218
226
238
248
252
252
248
239
233
237
246
252
254
252
250
245
235
220
208
201
202
208
209
199
183
170
162
154
143
134
134
143
149
147
138
126
113
106
109
118
124
24
28
33
38
40
39
36
33
31
31
32
33
35
35
36
36
37
38
39
40
41
42
44
45
47
48
50
52
54
56
59
62
64
67
69
71
74
76
80
84
88
93
99
110
123
133
139
143
148
155
167
185
207
226
238
240
236
233
233
237
243
249
253
254
252
247
240
236
240
248
253
255
254
249
239
223
205
190
183
183
186
186
180
169
159
153
147
139
130
130
141
151
151
143
130
115
101
99
106
113
27
31
36
40
41
39
36
33
32
32
33
34
36
37
37
37
38
39
40
41
42
43
44
46
47
49
51
53
55
57
60
63
66
68
70
72
74
78
81
86
93
101
111
122
133
141
147
153
158
164
174
191
212
232
244
246
244
244
247
249
252
254
255
254
253
249
244
241
243
249
253
254
253
246
233
214
196
185
178
170
164
160
157
152
146
141
136
130
123
125
138
150
153
148
136
121
104
94
94
98
29
33
37
40
40
38
36
33
32
33
34
35
37
38
39
39
39
40
40
41
42
44
45
47
48
50
52
54
56
58
61
64
67
69
71
74
77
83
88
93
100
110
123
136
146
151
155
161
170
178
186
196
214
234
247
250
251
252
253
254
255
255
255
255
254
252
249
247
247
251
254
254
251
242
226
209
197
192
185
171
154
143
137
133
129
127
124
121
117
119
131
145
151
149
139
125
108
93
83
81
30
33
37
39
39
37
35
33
33
33
34
36
38
40
40
40
41
41
42
42
43
44
46
48
50
52
54
56
57
59
62
64
67
70
73
77
83
91
98
103
108
117
131
147
160
167
167
169
178
191
200
208
222
239
250
253
254
255
255
255
255
255
255
255
255
254
253
251
250
251
252
251
248
237
222
209
205
204
197
178
157
141
130
122
117
115
114
114
112
113
123
136
142
141
134
122
107
90
76
68
31
33
36
37
37
36
35
34
33
33
35
37
39
40
41
42
42
42
43
43
44
45
47
49
51
54
57
59
60
62
63
65
68
71
75
81
89
99
109
115
118
122
134
151
171
184
185
181
185
198
211
220
233
245
253
255
255
255
255
255
255
255
255
255
255
255
254
252
249
247
245
245
243
235
223
217
217
216
206
189
170
153
137
125
116
110
107
107
105
107
117
128
132
130
125
116
103
88
74
63
29
32
35
37
37
37
36
35
34
35
36
38
40
42
43
44
44
44
44
45
45
46
48
50
53
56
60
63
64
65
66
67
70
74
79
87
96
106
117
125
128
129
136
153
175
194
198
192
193
206
221
232
242
251
254
255
255
255
255
255
255
255
255
255
255
254
253
249
242
235
232
233
235
233
229
226
227
223
212
199
186
171
153
137
124
112
103
100
97
99
108
119
123
120
115
109
99
86
73
63
28
31
34
37
38
39
38
36
35
35
37
39
42
43
45
45
46
46
46
47
47
48
49
51
54
59
63
66
68
68
68
70
74
79
87
96
106
116
126
135
139
139
143
157
177
195
201
199
203
218
232
242
249
253
254
254
254
255
255
255
255
255
255
255
254
252
248
242
232
221
215
217
224
229
230
228
226
219
208
198
189
177
161
146
133
117
104
96
91
90
95
104
110
109
106
103
96
84
71
61
28
32
35
38
40
40
39
37
36
36
38
41
44
45
46
47
48
48
48
48
49
50
51
53
56
61
66
70
71
71
72
76
82
90
100
111
122
131
140
149
152
150
152
165
183
196
201
202
211
228
242
249
252
252
251
251
253
254
255
255
255
255
255
254
251
247
240
231
219
206
200
204
214
221
221
216
210
202
192
181
172
162
151
142
133
121
110
101
93
87
85
88
93
95
96
94
88
77
66
57
28
32
36
39
41
41
40
38
38
38
40
43
45
47
48
49
50
50
50
50
50
52
54
56
59
64
69
72
73
74
77
83
94
106
118
131
142
150
157
163
164
160
161
173
191
203
207
210
221
236
247
252
252
249
245
246
250
253
255
255
255
255
253
251
246
238
227
215
203
193
190
197
207
210
204
195
186
178
168
156
146
136
128
124
122
121
118
112
103
92
83
78
77
79
81
81
76
67
58
52
28
32
36
38
40
41
40
40
39
40
41
44
47
49
50
50
51
52
52
52
53
54
56
59
62
66
70
73
74
75
80
91
106
122
135
148
159
164
168
172
172
168
169
181
201
215
221
225
233
243
250
251
248
242
239
241
247
253
255
255
255
254
252
247
241
230
217
203
191
184
185
194
203
202
191
179
169
160
151
141
131
120
111
106
106
114
122
122
115
103
89
77
69
66
67
67
63
57
50
46
29
31
34
37
39
40
41
41
41
42
44
46
49
51
52
52
53
54
54
54
54
55
58
60
63
66
70
72
74
77
84
97
114
130
144
156
164
168
171
176
179
178
180
190
210
228
237
241
245
249
251
248
241
234
232
237
245
252
254
255
255
253
250
244
237
227
214
200
189
182
182
192
201
200
189
176
164
154
147
140
133
123
111
99
94
101
115
123
120
112
100
82
66
58
55
55
52
47
43
40
29
31
34
36
38
40
41
42
43
44
46
49
52
53
54
54
54
56
56
56
55
56
58
61
64
67
71
74
77
81
87
97
112
127
139
149
157
164
173
184
191
194
197
206
222
238
247
251
252
253
251
244
234
225
225
232
243
251
254
255
254
250
244
237
229
220
211
202
195
187
181
186
195
196
187
173
159
148
142
140
137
131
120
105
90
89
101
112
116
115
106
86
65
52
47
45
43
40
37
35
29
31
34
36
38
40
42
43
45
46
48
51
54
56
56
56
56
58
58
57
56
56
59
62
66
71
75
79
85
91
94
99
107
117
128
139
148
159
175
193
206
214
219
226
236
246
252
254
255
254
250
241
228
220
222
231
243
251
254
254
251
244
232
220
210
202
198
198
197
189
178
176
184
187
178
163
148
137
130
127
128
129
125
111
91
80
84
94
101
105
100
81
59
45
40
39
37
35
34
33
30
32
35
38
40
42
43
45
47
49
51
54
56
58
58
58
59
60
61
60
58
57
60
65
70
76
81
87
95
103
106
105
107
114
125
136
148
161
180
202
220
231
238
242
247
252
254
254
254
252
247
236
224
216
219
229
241
250
253
253
248
237
219
200
186
177
177
185
191
186
173
168
174
176
168
155
143
131
120
112
112
119
122
113
93
77
72
76
81
85
83
69
50
38
34
34
33
32
31
31
31
34
36
39
41
43
45
47
49
51
53
55
57
58
59
59
60
63
64
63
60
60
64
70
77
84
91
97
106
114
118
116
115
120
129
143
156
170
188
210
227
238
245
249
251
252
251
250
250
248
241
231
219
212
213
222
234
244
250
252
246
232
212
189
169
158
160
172
183
183
171
162
163
163
157
150
143
133
118
104
101
110
117
112
98
83
75
73
72
68
62
53
40
32
30
30
31
31
31
32
32
34
37
39
41
44
46
49
51
53
55
56
57
57
58
59
62
65
67
66
65
67
73
81
90
98
105
112
120
126
129
129
128
129
135
149
167
183
199
215
226
232
238
244
248
247
243
240
240
239
234
225
217
209
206
212
224
237
246
249
243
228
206
182
159
146
148
160
172
178
170
156
149
146
144
143
142
133
117
99
94
102
110
110
104
97
92
88
78
62
49
39
32
27
27
28
29
31
34
37
33
36
38
40
42
44
46
48
50
53
55
55
55
55
56
58
62
67
70
71
73
78
88
100
110
118
126
133
138
141
142
142
141
140
142
155
175
193
207
215
216
217
223
234
240
237
228
223
225
226
224
221
215
205
199
203
215
230
241
243
234
216
193
168
146
136
140
150
159
165
162
149
135
127
128
135
137
131
116
97
87
90
98
102
104
106
105
98
82
59
41
30
26
24
25
27
30
34
40
46
35
37
39
41
43
44
46
47
48
50
51
52
52
52
54
57
62
67
73
77
83
93
108
124
136
144
151
157
159
159
158
155
151
148
151
163
180
193
202
205
202
200
209
224
231
224
210
203
207
211
212
212
208
198
191
196
210
226
237
236
222
199
175
151
132
125
133
141
145
147
145
134
120
112
117
129
136
132
118
100
85
79
82
89
98
106
106
96
75
52
34
25
22
22
24
27
32
39
49
58
36
39
41
43
44
46
47
48
48
48
49
49
49
50
52
55
59
65
72
80
91
106
124
144
160
170
176
179
178
176
171
163
156
156
164
177
186
189
189
188
186
188
201
219
223
210
193
185
190
196
198
199
195
187
183
191
206
223
234
231
213
189
165
142
123
116
123
132
134
130
124
115
105
103
112
126
136
134
123
107
89
75
69
74
87
98
98
84
62
41
27
21
19
21
24
29
37
48
60
71
38
40
42
44
46
48
49
50
50
49
49
49
49
49
51
52
55
60
68
79
93
111
131
153
173
187
193
194
191
186
176
166
161
168
182
194
196
188
178
172
172
181
198
214
212
195
177
170
175
182
184
185
181
175
176
187
203
220
232
229
213
192
171
147
122
108
111
121
126
122
112
101
95
98
111
126
134
132
123
111
95
76
63
63
77
89
86
69
48
31
22
18
18
21
26
34
45
59
71
79
39
42
44
46
48
50
52
53
54
54
54
52
50
50
50
52
54
57
63
73
89
109
131
154
175
190
195
196
194
187
177
169
170
183
202
214
212
196
176
163
164
179
199
210
203
183
164
157
161
168
173
174
170
167
173
187
203
217
227
226
216
200
179
151
121
100
98
108
118
117
106
94
90
97
111
123
127
123
116
109
97
79
62
57
67
77
72
54
36
24
19
17
19
23
30
40
53
66
75
79
42
44
46
49
51
54
57
61
63
64
62
59
56
54
55
57
59
60
61
68
83
106
131
153
169
178
183
187
190
187
182
181
186
200
219
230
225
206
178
158
158
175
197
207
198
176
157
148
150
158
166
166
162
161
172
189
204
213
216
216
213
202
179
148
116
93
87
95
108
111
102
91
88
96
108
116
116
111
106
100
92
79
61
52
55
61
55
41
27
19
17
18
21
26
34
45
55
63
67
68
44
47
50
53
56
61
67
73
77
77
72
66
63
64
67
71
74
72
68
68
79
102
128
146
155
160
168
180
191
192
191
197
204
215
228
234
227
207
177
154
150
166
189
201
194
174
154
143
144
154
162
161
156
157
170
190
204
205
199
196
198
192
172
142
112
90
80
84
96
102
96
87
85
92
103
108
106
100
94
90
87
79
63
50
46
45
39
28
20
17
17
20
26
33
42
50
54
56
55
54
47
50
53
58
65
73
81
87
91
87
80
73
72
76
81
88
93
91
81
72
76
95
117
132
139
146
162
182
196
200
204
212
219
224
228
227
218
198
170
147
140
154
175
188
184
167
149
139
142
153
159
155
149
153
168
187
198
194
180
174
178
178
165
141
115
92
78
76
83
91
90
83
81
86
95
101
100
94
87
82
83
80
67
50
40
34
27
20
16
16
19
24
33
43
51
55
55
50
46
43
50
53
58
65
75
86
95
101
100
93
84
78
78
82
89
97
104
103
92
79
76
88
105
118
128
142
163
186
203
210
214
219
222
221
218
215
206
187
162
141
132
141
160
171
166
152
138
135
142
152
155
149
144
150
165
183
192
184
166
155
156
160
157
142
120
98
81
72
73
79
83
81
78
79
84
90
92
89
81
76
79
80
69
50
35
26
20
16
15
18
24
33
43
53
60
61
57
48
40
35
54
57
63
72
84
96
104
107
103
95
86
81
82
85
91
98
105
105
96
84
80
88
101
114
128
145
165
185
201
210
213
213
209
205
202
201
196
180
157
136
125
131
146
153
146
135
129
133
144
152
151
143
140
148
165
181
189
182
162
143
136
139
143
139
124
105
88
74
67
70
78
82
79
76
76
77
78
76
70
67
72
75
65
46
30
22
17
16
18
25
34
45
54
62
65
63
56
45
35
29
58
62
67
75
86
97
104
107
103
96
89
86
87
90
95
101
105
104
97
90
90
96
107
121
136
150
163
175
187
195
196
193
187
184
186
191
189
177
156
134
120
123
135
137
130
123
125
135
147
152
146
137
137
147
164
178
185
181
165
142
123
119
126
130
124
111
95
77
65
64
75
85
87
84
79
73
67
62
57
56
61
63
52
36
24
18
16
18
24
35
46
56
61
63
63
60
52
41
31
26
62
66
70
75
82
90
97
101
101
97
93
92
95
99
104
107
106
100
96
98
106
112
120
133
147
157
161
163
165
169
170
169
166
167
174
182
182
172
153
130
116
118
126
125
119
118
127
140
150
148
139
131
135
148
164
174
176
172
162
142
119
106
107
112
112
107
95
77
62
62
76
92
101
101
93
79
64
53
47
45
47
45
36
25
17
15
17
22
32
44
54
60
61
60
58
54
46
36
31
30
67
71
75
78
82
87
92
96
99
99
99
103
108
113
116
113
103
96
98
110
123
131
138
148
159
163
158
149
144
145
148
151
151
154
163
169
167
157
139
119
108
111
117
115
112
117
129
142
147
141
130
128
138
154
167
171
166
158
151
138
118
101
93
91
92
90
83
69
57
60
78
98
110
111
102
85
65
49
40
36
34
29
22
17
14
15
20
28
38
48
55
58
57
54
51
45
39
34
36
42
70
75
80
83
87
90
92
95
100
105
111
118
125
130
128
116
101
95
103
119
133
143
151
159
165
164
153
139
130
131
137
141
140
141
147
149
142
128
114
100
96
101
105
106
108
118
132
141
140
130
123
128
144
163
174
173
162
147
137
129
119
106
92
81
73
69
63
54
49
58
80
100
109
107
97
81
62
46
36
31
26
20
15
12
13
16
23
30
38
46
51
55
54
50
43
37
35
39
48
58
73
79
85
89
93
97
99
100
104
114
125
133
140
142
136
119
100
96
106
121
134
146
156
162
164
158
144
129
123
128
136
136
128
124
126
124
112
98
88
83
84
89
94
99
108
121
135
139
132
120
117
129
148
167
176
174
161
142
126
120
118
112
100
85
70
58
49
41
41
55
78
96
99
93
84
71
55
41
32
26
21
16
12
10
11
16
23
29
36
44
52
57
55
47
37
33
37
48
61
70
77
84
90
94
99
105
106
107
114
127
138
144
146
145
137
120
102
98
106
119
133
149
160
164
162
153
137
122
120
129
139
135
122
110
105
98
86
75
72
73
77
83
90
99
112
126
137
136
125
112
110
123
142
158
166
165
154
135
116
109
113
114
106
92
76
60
45
35
34
47
69
85
85
76
67
58
47
36
28
22
18
14
11
10
10
14
20
27
35
45
55
59
55
43
34
36
47
60
71
75
83
90
97
101
106
110
112
116
127
139
146
147
144
137
129
116
106
105
112
123
137
152
163
165
159
147
130
115
114
127
140
139
123
102
87
76
68
64
67
73
80
88
96
106
119
132
140
135
120
106
101
110
125
138
147
148
138
121
105
100
107
111
106
94
81
66
51
37
31
37
53
64
64
55
48
43
38
32
25
19
15
12
11
10
10
12
18
26
37
49
58
58
49
38
34
43
57
69
74
73
92
100
107
112
116
117
118
125
138
145
144
140
134
126
119
115
115
120
128
135
144
153
160
159
151
138
122
107
104
116
133
139
124
95
71
60
57
61
69
79
89
100
109
118
128
137
141
135
120
104
95
96
105
117
127
129
120
105
93
93
102
108
103
93
85
77
64
47
34
31
36
42
41
35
31
29
28
26
23
18
14
11
11
10
10
12
17
27
40
51
56
51
41
34
37
50
64
72
72
68
103
112
121
127
129
126
125
134
145
146
138
130
123
118
117
122
130
138
143
145
147
150
153
151
144
132
117
102
94
99
114
125
112
83
59
51
56
65
76
88
100
112
121
127
132
139
142
137
125
108
93
85
88
98
109
111
103
92
85
88
99
104
101
95
92
89
78
61
45
35
32
32
30
27
23
20
20
21
20
16
12
11
11
11
11
12
19
31
43
52
51
42
34
33
42
56
67
70
66
61
117
126
135
140
140
134
132
138
145
142
131
120
115
118
127
137
146
149
148
144
142
145
149
149
142
130
116
100
87
83
91
98
88
65
49
51
63
76
87
97
108
119
125
126
127
132
136
137
131
117
97
82
77
82
90
93
89
82
79
84
94
101
101
99
98
96
87
72
58
47
42
40
37
32
25
19
16
16
16
14
11
10
11
12
12
15
22
34
44
48
44
35
31
36
48
59
66
65
60
55
133
139
143
144
142
138
136
139
141
135
122
112
113
124
138
148
151
146
139
135
138
145
152
151
141
126
111
96
82
71
69
68
60
46
43
55
74
89
99
107
115
121
124
120
118
120
126
133
134
124
104
84
71
69
74
78
78
75
74
79
89
97
102
102
98
93
86
76
67
62
59
57
52
44
33
23
16
14
13
12
10
11
12
12
13
16
23
34
41
43
37
30
30
39
52
61
63
59
54
51
141
141
138
137
138
139
137
136
133
125
115
107
114
130
143
146
139
129
124
130
142
154
159
151
135
118
103
92
78
64
53
46
38
34
42
62
84
100
108
113
116
119
119
114
108
108
115
126
132
127
109
87
70
62
62
65
68
67
68
75
86
97
103
101
93
85
78
73
71
72
73
71
62
50
37
25
17
13
12
11
11
12
13
13
14
16
22
30
35
34
29
26
31
42
53
60
59
54
49
46
138
133
128
129
136
140
137
129
122
116
107
102
108
124
133
130
118
110
115
130
150
163
162
149
131
115
104
95
82
66
50
36
27
28
42
65
88
102
108
111
112
113
112
107
99
97
104
117
124
120
107
90
72
59
54
55
57
59
64
74
87
97
101
97
87
77
71
68
71
76
78
72
61
49
36
25
17
12
11
11
11
13
14
14
14
15
18
24
27
25
22
23
31
43
53
57
56
51
45
42
122
118
118
126
137
141
136
125
115
107
100
94
97
107
112
106
100
102
114
131
149
161
159
147
133
124
116
107
94
75
54
34
23
24
39
63
84
97
103
105
105
104
105
101
92
88
95
106
111
107
101
91
74
58
49
47
49
54
64
78
90
97
97
90
80
70
65
65
69
74
73
65
53
43
33
24
16
13
12
12
12
13
14
13
13
13
15
18
20
18
17
21
30
41
49
53
52
47
41
38
108
110
115
124
134
139
134
124
114
106
98
89
85
87
86
83
87
103
121
135
146
153
152
145
138
133
127
117
102
83
60
37
22
21
35
58
80
93
99
99
97
95
96
93
85
79
82
91
95
94
95
91
76
57
46
42
43
52
67
81
90
93
89
81
72
66
64
65
68
68
64
55
45
37
29
22
17
15
16
15
14
14
14
13
12
11
12
14
15
14
15
20
28
37
44
47
46
42
39
39
109
116
119
121
125
128
126
119
112
106
99
88
76
67
61
61
75
101
124
137
143
146
144
140
136
132
127
118
104
87
66
41
22
19
31
54
77
92
97
95
89
86
86
85
80
72
69
74
80
87
94
92
77
57
43
38
39
49
66
79
85
83
79
71
65
64
67
69
67
62
56
48
40
32
25
20
18
19
20
19
16
14
14
13
12
10
11
12
13
12
13
18
26
33
39
42
41
38
38
42
119
126
127
121
117
116
114
111
106
101
95
83
67
52
44
45
61
91
117
132
137
138
134
130
127
124
120
113
104
90
69
43
23
17
28
51
75
91
96
93
85
79
77
79
77
68
60
62
73
87
96
94
77
55
41
35
36
46
62
73
76
73
69
63
61
65
72
73
67
58
50
43
36
29
23
19
19
22
24
22
17
14
13
12
10
9
9
11
11
11
12
17
24
30
36
38
37
36
40
46
