P2
# CREATOR: GIMP PNM Filter Version 1.1
100 100
255
16
17
22
19
17
21
19
22
27
21
18
11
7
7
10
11
10
12
12
13
21
23
20
14
23
33
28
20
19
12
7
7
7
7
7
6
7
7
7
7
7
7
13
31
24
34
18
9
9
7
6
6
5
5
5
5
5
5
5
5
4
4
4
3
4
4
6
6
6
6
6
10
11
14
18
23
37
42
37
64
70
53
44
56
42
24
23
31
35
35
33
31
29
36
44
45
54
67
69
78
26
22
23
22
26
31
25
29
32
23
18
11
9
14
18
16
14
19
18
19
21
20
18
14
25
39
34
28
24
11
9
9
9
9
9
9
9
9
9
9
9
9
14
31
36
36
20
13
11
8
7
7
7
7
7
6
6
7
7
6
6
5
5
5
4
6
6
7
7
8
9
14
15
20
26
40
64
58
43
55
63
65
63
68
44
29
32
39
43
42
43
41
39
47
64
72
71
88
89
93
25
29
17
20
32
29
24
36
26
17
11
9
12
19
22
18
17
21
22
20
18
14
14
14
21
31
33
24
13
9
9
9
9
9
9
9
9
9
9
9
9
9
13
35
21
20
35
21
10
7
7
6
6
6
6
6
6
7
6
6
6
5
6
5
5
6
7
7
7
9
12
14
18
25
37
42
60
53
48
65
72
60
56
58
36
30
36
42
46
44
48
47
54
47
66
75
76
83
75
72
16
20
16
28
32
22
29
29
18
11
9
12
21
17
16
21
21
25
18
19
21
13
9
11
15
23
29
16
10
9
9
9
9
9
9
9
9
9
9
9
9
8
17
25
10
20
24
10
7
7
7
6
7
7
7
6
6
6
6
6
6
5
6
5
5
7
8
8
9
10
13
16
20
30
56
51
66
56
56
60
66
51
57
42
33
36
43
51
49
48
54
55
60
52
52
60
67
68
63
60
19
13
20
36
21
21
23
15
10
9
10
15
18
14
14
18
16
13
11
17
19
11
9
10
19
19
18
10
9
9
9
9
9
9
9
9
9
9
9
9
9
8
21
10
9
20
7
7
7
7
7
7
7
7
7
7
6
6
6
6
6
6
5
5
6
6
8
9
10
12
14
21
25
40
57
57
54
58
71
71
60
46
49
38
34
36
44
49
49
52
57
60
57
49
43
51
55
57
53
53
18
13
21
21
14
15
13
10
9
10
12
14
13
12
16
20
16
12
13
17
16
9
9
9
10
11
14
9
9
9
9
9
9
10
9
10
10
10
10
10
9
11
12
7
12
11
7
7
7
7
7
7
7
7
7
7
6
6
6
6
6
6
6
7
6
7
9
11
12
14
17
25
34
45
45
43
49
61
69
65
51
48
41
44
38
35
40
42
46
51
54
53
49
44
41
45
51
49
48
51
20
13
11
12
10
10
13
11
10
10
14
12
12
16
22
23
17
11
12
17
11
9
9
9
9
9
10
9
9
9
9
9
9
10
11
11
10
10
10
10
10
10
8
8
10
8
7
7
7
7
7
7
7
7
7
7
7
6
6
6
6
6
6
7
7
7
10
13
14
16
21
25
36
35
40
51
55
67
61
55
48
40
38
43
39
37
39
41
41
44
49
52
51
47
45
46
48
50
50
51
18
14
13
9
8
12
12
13
11
10
11
11
14
17
23
22
15
10
9
9
9
9
10
16
11
9
9
9
9
9
9
9
10
11
11
11
10
10
11
10
10
8
8
8
9
8
7
7
7
7
7
7
7
7
7
7
7
7
7
6
6
6
7
7
7
8
11
14
14
16
20
23
32
48
61
71
72
60
56
55
46
37
38
41
39
39
40
42
42
44
48
49
48
48
49
49
48
53
53
53
12
13
7
8
8
12
12
10
11
12
13
13
18
21
20
18
13
10
9
9
9
9
9
12
10
9
9
9
9
9
9
10
10
11
11
11
11
11
12
11
10
9
8
8
8
8
8
8
8
8
7
7
7
7
7
7
7
7
7
7
7
7
7
7
8
9
13
14
16
19
23
30
41
64
78
78
68
53
51
46
41
39
39
41
41
40
42
43
44
45
47
48
49
49
51
53
50
53
55
60
8
7
7
10
13
16
14
11
16
18
14
16
23
20
16
16
16
11
10
9
9
9
9
10
10
9
9
9
9
9
9
10
10
11
12
11
11
13
12
11
10
9
9
9
9
9
9
9
9
9
9
8
8
8
8
8
8
8
8
8
8
8
8
8
10
12
14
15
20
23
30
41
55
74
79
69
63
63
50
43
42
41
41
41
41
42
44
45
46
47
48
49
51
53
54
54
54
58
64
72
6
7
10
13
17
19
13
15
25
24
16
18
19
17
17
17
14
11
11
9
9
9
9
10
10
9
9
9
9
9
10
10
10
11
12
12
14
14
12
11
10
9
9
9
9
9
9
9
9
9
9
9
9
9
9
9
9
9
9
8
8
8
9
10
13
14
17
22
29
29
39
55
68
72
79
64
54
49
45
47
43
42
43
44
43
46
48
47
47
49
49
51
54
56
57
61
62
61
73
73
6
10
16
19
17
12
13
24
33
31
18
19
19
18
17
15
13
12
10
10
9
9
9
9
9
9
9
9
10
10
10
11
11
11
12
15
19
14
12
11
11
10
10
10
10
10
10
10
10
10
10
10
9
10
10
10
10
10
10
9
9
9
10
13
15
20
26
36
44
50
51
52
63
69
63
56
57
53
56
47
55
45
46
46
46
48
49
48
48
50
52
54
56
60
61
67
68
63
73
81
12
18
18
17
12
13
22
32
38
28
18
20
19
18
16
14
13
13
12
10
9
9
9
9
9
10
10
10
10
10
10
10
10
11
12
15
16
13
11
11
11
10
10
10
10
10
10
11
10
10
10
11
11
11
11
11
11
10
10
10
10
10
11
14
23
40
43
47
56
65
73
72
78
74
69
61
61
63
60
48
66
52
47
49
50
51
52
51
51
53
55
55
58
61
65
69
73
71
67
79
22
18
15
12
13
21
34
32
34
23
20
21
19
16
14
17
17
14
13
10
9
10
10
10
10
10
10
10
11
11
11
11
11
12
12
16
12
11
11
11
11
11
11
11
11
11
11
11
12
12
12
11
11
11
12
12
12
12
12
11
11
12
16
23
34
40
46
54
54
65
63
75
87
87
80
66
70
79
61
50
65
52
51
54
56
55
55
54
54
57
60
58
59
64
72
77
83
80
70
73
24
22
15
12
18
24
29
24
24
23
30
24
18
15
15
20
15
14
13
11
9
9
10
10
10
10
11
11
11
11
11
11
11
11
11
11
11
11
11
11
11
11
12
12
12
12
12
13
13
13
13
12
12
12
13
13
14
14
13
12
12
16
26
39
45
47
40
44
47
56
71
82
106
100
82
94
83
85
64
54
58
52
53
58
60
60
57
59
60
65
68
65
61
68
84
88
91
77
75
86
29
20
13
15
28
33
29
25
29
25
22
19
16
14
15
16
11
12
11
11
10
10
10
11
10
11
11
11
11
11
11
11
11
11
11
11
11
12
12
11
11
12
12
12
13
13
14
14
14
14
14
13
13
13
14
14
15
15
15
14
14
20
31
39
43
37
35
43
50
59
70
82
113
112
101
93
90
83
65
58
55
56
54
57
63
68
63
63
66
73
77
77
65
70
87
99
90
82
92
107
21
17
13
17
25
34
24
21
29
22
18
17
17
14
13
12
12
11
11
10
10
11
11
11
11
12
12
13
12
12
12
12
12
11
11
11
13
14
12
12
12
12
13
14
14
15
15
16
16
16
15
14
14
14
15
16
16
17
17
17
16
27
36
34
32
35
43
57
49
55
62
90
124
102
91
102
105
80
71
62
54
60
61
56
62
71
73
70
74
83
85
85
83
71
79
93
104
107
98
115
22
17
12
14
23
24
16
20
25
22
18
16
15
14
13
13
12
11
12
11
11
11
12
13
12
12
13
13
12
12
12
12
12
12
12
12
14
14
13
12
13
13
14
14
15
15
16
16
16
16
16
16
14
15
16
17
18
18
20
20
19
27
26
31
33
42
48
70
72
68
87
107
97
83
75
83
90
69
62
56
56
68
67
60
60
67
76
81
81
92
97
98
102
78
88
104
125
103
110
115
21
15
13
13
17
14
16
21
24
22
17
15
14
14
14
13
12
12
13
12
12
12
12
14
13
14
14
13
13
12
13
12
12
12
12
12
14
14
13
13
13
14
14
15
16
16
16
17
17
17
17
16
16
16
17
18
19
20
22
21
21
24
26
33
43
58
62
81
76
89
121
102
85
87
93
70
63
59
55
59
58
68
74
66
60
66
72
87
94
94
111
117
116
89
103
118
123
98
100
93
15
14
14
15
15
14
14
14
16
20
17
14
14
14
14
13
13
14
13
13
13
14
14
14
13
14
14
13
12
13
13
13
13
12
13
14
14
14
14
13
14
14
15
16
16
17
18
18
18
19
17
18
18
17
18
20
21
22
26
23
27
24
30
35
46
55
60
67
80
98
127
109
86
77
77
80
76
67
65
74
59
66
75
74
63
62
69
90
108
116
130
146
133
91
96
122
120
117
112
98
12
14
15
17
18
18
16
13
15
16
15
15
14
14
14
14
14
14
14
14
14
14
14
14
13
14
14
13
13
13
14
14
14
14
13
13
14
14
14
14
14
15
16
16
17
18
18
19
19
19
19
20
20
18
19
22
23
24
28
24
32
28
34
32
41
47
54
70
83
96
128
114
83
90
99
81
69
59
75
74
62
64
71
77
68
64
67
88
131
157
155
154
125
91
95
120
129
121
114
124
11
14
17
19
19
19
17
17
17
16
15
15
14
14
14
14
15
15
14
14
14
14
15
14
14
13
14
13
14
14
14
14
14
14
14
14
14
14
14
14
15
16
16
17
17
18
19
19
20
20
20
21
21
21
22
26
27
26
30
29
34
31
37
36
53
63
71
73
70
84
117
105
92
107
84
91
76
66
88
74
66
64
68
75
82
78
68
80
128
148
164
150
113
86
109
109
100
113
141
140
12
16
18
19
19
19
18
17
17
16
15
15
14
14
15
15
16
15
15
15
15
14
15
15
14
14
14
14
14
14
14
14
14
14
14
14
14
15
15
15
16
16
17
17
18
19
19
20
21
21
21
22
23
24
26
28
29
27
31
31
34
34
43
42
45
48
56
61
64
82
110
110
114
99
101
94
68
87
92
77
76
69
72
74
99
122
80
73
106
133
146
127
104
87
91
95
110
134
136
124
13
18
19
20
20
19
18
17
17
16
15
15
14
14
15
15
16
16
16
15
15
15
15
15
14
14
14
14
14
14
15
15
15
16
16
15
16
16
16
17
17
17
18
18
19
20
21
21
22
22
23
24
25
28
29
31
33
31
31
34
35
39
49
54
58
65
77
89
90
93
91
123
121
114
104
74
73
91
100
91
82
75
84
78
89
106
104
75
96
125
139
124
102
83
94
110
123
138
117
107
14
20
21
21
20
18
18
17
17
16
15
15
16
16
15
16
16
16
16
15
15
16
15
14
15
14
14
15
14
15
15
15
16
16
17
16
17
17
17
17
17
18
18
18
19
21
21
22
23
23
24
25
28
32
35
34
36
34
33
36
40
41
45
53
59
60
65
70
73
84
113
106
104
106
84
73
91
86
106
109
89
87
98
84
86
120
122
91
84
103
108
106
97
88
101
108
117
129
128
123
18
22
22
21
19
18
17
17
16
16
15
15
17
16
16
16
16
16
16
16
16
16
15
15
15
15
15
15
15
15
16
16
17
17
17
17
17
17
18
18
18
19
19
19
20
21
22
23
24
24
26
28
31
35
37
36
40
38
35
40
43
47
50
59
78
73
75
79
101
118
112
109
90
84
79
95
96
94
112
122
94
91
110
88
91
126
157
126
84
83
122
121
103
101
93
108
120
134
157
153
19
23
21
20
18
17
16
16
16
16
16
15
16
17
17
16
16
16
16
16
16
16
16
16
15
15
15
16
15
16
16
16
17
17
17
19
19
18
19
19
19
19
20
20
21
22
23
24
25
26
28
29
31
34
36
36
39
41
36
42
49
58
64
76
97
100
98
115
114
113
97
100
93
82
97
103
107
110
115
105
84
102
116
90
102
123
123
111
87
84
109
107
114
111
99
96
96
109
128
130
18
21
19
18
16
16
15
15
15
16
16
16
15
16
17
16
16
17
16
16
17
17
16
16
17
17
16
16
16
16
17
17
17
19
19
21
20
19
21
21
21
21
21
21
21
23
25
25
26
27
29
31
34
35
39
40
40
43
40
45
60
74
81
80
85
96
111
105
106
103
93
100
101
87
92
102
112
107
101
94
82
94
98
99
112
119
133
115
88
87
111
132
136
132
116
113
100
97
110
119
16
19
17
16
15
15
14
15
15
16
16
16
16
16
16
16
16
17
17
18
18
16
16
16
16
17
18
17
17
17
17
18
18
20
21
21
21
21
21
22
22
22
22
22
22
24
27
28
28
29
31
33
34
37
41
41
42
47
46
48
80
93
100
96
98
93
106
94
92
87
81
90
91
92
90
96
106
104
95
90
94
99
92
99
131
145
139
106
89
93
136
162
145
128
113
107
97
97
110
125
14
18
16
15
14
14
14
14
15
16
16
16
16
16
16
16
16
17
19
21
18
16
17
18
17
19
22
19
18
18
18
19
19
21
22
23
22
21
22
24
23
23
23
23
24
26
28
28
32
33
33
34
36
41
43
46
47
52
58
55
54
69
75
83
95
94
90
96
81
69
69
70
79
83
87
91
101
109
100
94
109
125
103
99
119
116
127
132
106
97
123
123
116
109
106
104
103
108
104
112
14
16
15
15
14
14
14
14
15
16
16
16
16
16
16
17
19
20
21
19
17
19
20
19
19
20
21
22
21
19
20
19
20
21
24
24
24
24
24
24
25
25
25
25
26
28
29
32
35
38
34
34
39
43
48
51
54
64
74
87
51
52
68
84
81
71
63
66
62
63
71
73
79
83
88
89
95
107
102
97
112
133
111
96
115
140
160
151
114
94
98
103
121
114
110
113
112
118
121
115
12
15
14
14
14
13
14
15
16
16
16
16
16
16
16
19
22
21
21
18
19
20
21
21
20
19
21
22
23
22
21
21
21
22
24
24
24
24
24
25
26
27
26
27
28
28
34
35
39
42
39
35
43
51
58
62
71
84
93
71
70
70
54
53
59
65
64
59
62
64
71
80
81
82
91
100
100
108
104
102
110
129
106
104
137
174
143
113
101
98
127
106
143
130
126
124
124
121
147
156
10
14
14
14
14
13
15
15
16
16
16
16
16
16
18
22
23
21
19
20
20
21
22
21
21
20
21
22
22
22
22
21
22
22
24
24
25
25
25
27
28
27
27
28
30
31
34
39
46
48
48
41
47
58
65
74
76
97
98
69
86
82
67
59
69
78
76
70
69
72
69
77
84
87
93
103
107
100
113
115
125
114
104
111
148
149
122
125
137
103
120
108
133
145
144
141
150
139
165
170
10
13
13
14
14
14
14
14
15
16
16
16
16
17
21
21
22
21
20
20
20
21
22
21
21
21
20
22
23
23
24
24
23
23
24
25
26
26
27
28
28
29
29
29
32
36
40
47
52
55
54
46
44
59
67
80
91
89
83
69
79
83
80
58
61
68
72
74
74
76
79
75
79
89
94
102
105
100
113
133
121
112
120
114
114
117
125
154
132
110
136
132
115
157
168
164
183
162
172
185
9
12
12
11
13
13
14
14
15
16
16
17
17
17
19
21
23
22
20
20
21
21
22
21
21
22
22
22
23
24
24
24
24
24
24
26
27
27
28
29
30
31
31
31
35
41
48
53
57
58
56
50
42
50
63
76
78
78
78
70
75
80
81
65
58
69
73
75
79
80
84
87
83
82
85
85
88
96
122
121
108
140
140
116
122
131
142
158
122
124
152
152
114
153
197
201
207
173
175
201
9
11
11
12
12
12
14
14
15
16
17
17
19
17
18
22
23
21
20
20
21
22
23
22
23
22
23
22
24
30
25
25
27
26
25
27
27
28
30
30
31
32
32
33
38
45
49
55
57
59
57
52
44
42
50
56
59
64
65
67
69
71
70
65
56
63
70
72
78
81
84
86
88
89
88
88
89
93
104
103
123
148
123
123
140
144
172
153
119
133
171
164
125
132
165
180
205
189
175
212
9
12
11
12
12
13
13
14
16
17
17
20
20
20
19
22
22
21
20
20
21
22
23
21
23
22
23
23
25
28
25
27
40
30
27
28
29
30
30
31
33
34
35
38
38
45
49
53
55
58
56
52
48
45
44
47
50
53
55
58
59
58
56
54
54
56
59
62
65
69
72
73
75
77
78
84
86
89
93
104
112
105
112
135
165
163
165
132
125
140
162
182
166
127
137
143
173
204
195
223
9
12
12
12
13
13
14
15
15
16
18
21
21
21
21
21
22
22
20
21
23
24
24
22
25
28
26
27
33
29
26
39
36
28
28
29
31
31
31
33
34
36
38
41
40
42
47
50
51
54
55
52
49
48
48
48
48
48
48
49
49
51
53
53
54
56
57
59
61
63
66
68
69
74
75
82
84
88
88
88
92
96
121
146
165
180
143
160
163
131
142
176
166
141
179
194
178
190
176
199
9
12
13
14
13
14
14
14
15
17
19
20
21
21
21
21
21
23
22
22
24
24
24
24
28
40
33
44
47
31
32
44
32
29
30
31
31
33
33
34
35
38
41
41
41
42
42
46
48
49
53
51
51
48
48
48
48
48
48
49
50
50
51
53
56
59
61
62
62
63
65
67
68
73
74
77
83
87
92
99
113
110
106
131
154
183
154
173
178
142
158
176
169
148
182
198
215
192
155
168
10
14
14
14
14
16
15
16
15
17
18
19
21
21
21
21
22
22
24
22
24
24
24
25
34
38
33
42
48
39
34
36
31
30
31
31
32
34
35
36
37
38
41
41
42
45
47
48
48
48
48
53
53
49
49
48
51
49
50
51
53
55
57
61
66
68
71
71
73
74
74
72
74
80
87
90
83
83
93
115
153
156
120
127
138
171
167
166
183
157
179
197
204
174
190
201
175
162
144
124
10
14
15
15
15
16
17
17
17
17
18
20
21
21
22
22
22
24
24
23
24
25
24
28
38
33
32
39
46
34
34
32
31
31
33
34
34
35
37
38
40
40
41
41
44
46
48
49
49
48
50
54
53
51
52
53
55
53
54
54
56
58
64
68
71
74
77
78
79
83
83
83
83
89
114
113
100
93
91
104
121
135
148
123
161
184
203
183
218
189
218
212
203
196
185
158
137
114
129
142
10
14
14
16
16
16
18
18
17
17
18
20
21
21
21
23
22
24
24
24
24
25
27
29
30
31
33
38
36
34
34
33
32
33
34
36
35
38
39
40
41
42
42
42
45
48
48
51
52
52
52
54
54
54
55
56
57
57
58
59
59
64
66
67
68
69
71
72
74
75
79
84
84
88
97
112
113
104
97
110
124
124
152
145
156
202
241
221
217
209
207
177
157
145
146
113
109
145
152
138
10
14
14
15
17
17
17
18
18
18
18
19
21
21
22
22
24
24
24
25
25
26
27
27
31
32
33
41
36
34
34
34
34
34
34
38
38
38
41
42
43
44
44
43
46
48
49
54
55
54
54
55
55
55
55
59
61
61
64
67
63
64
71
66
66
69
69
73
75
76
80
90
102
97
95
107
113
105
100
111
141
169
159
168
163
199
214
221
173
179
149
124
105
99
108
110
159
174
184
171
10
14
14
15
17
17
18
18
19
19
19
20
21
22
23
24
24
24
24
25
26
26
27
31
31
31
35
37
36
35
35
35
35
35
37
38
39
41
41
43
45
46
46
45
47
48
50
55
55
55
55
57
58
59
61
61
63
63
68
71
73
67
75
71
69
72
72
76
84
81
84
88
101
108
112
112
124
116
104
109
127
163
196
206
195
200
210
171
141
120
109
108
119
126
100
94
151
175
153
154
11
14
14
15
16
17
18
19
19
20
21
20
21
24
23
24
24
25
26
26
27
27
29
30
31
33
34
36
37
37
37
38
37
38
38
38
40
42
44
46
48
49
49
47
48
49
52
54
55
55
57
59
61
63
64
65
69
67
70
76
80
70
77
75
73
82
84
78
95
94
94
101
106
109
133
131
147
133
122
114
115
136
168
193
204
193
170
155
150
138
138
162
176
169
130
86
109
127
125
136
11
15
15
17
17
18
18
20
20
21
21
22
23
24
24
24
25
27
27
28
28
29
30
31
32
34
34
36
38
39
38
39
39
39
40
40
42
44
45
48
53
54
54
50
50
51
54
55
56
55
59
61
64
66
69
71
76
72
75
81
84
73
81
82
79
99
100
84
112
118
114
115
131
120
123
165
175
170
174
147
117
132
164
176
167
157
145
143
141
146
158
157
164
159
139
97
78
83
96
140
11
15
16
17
18
20
21
21
20
21
22
23
23
25
25
26
27
27
28
29
29
31
31
32
33
34
36
37
40
41
39
41
40
41
42
42
43
45
48
54
57
55
57
55
52
54
56
57
58
58
60
63
67
69
72
74
81
77
79
87
85
75
85
102
92
99
124
100
112
134
129
126
145
138
137
169
203
181
147
131
126
135
160
188
175
149
152
145
134
114
98
93
91
98
101
79
75
73
69
89
11
15
17
17
18
20
21
22
21
22
22
23
24
26
26
27
28
30
30
30
31
31
33
33
34
36
38
39
41
41
41
41
42
42
43
45
46
47
50
58
60
58
60
61
56
56
60
61
63
61
62
67
72
74
75
78
83
83
82
91
86
85
96
108
107
105
124
133
109
144
154
147
169
148
176
170
164
140
136
136
140
163
205
220
176
175
196
159
161
134
135
134
125
99
87
87
104
100
83
68
11
15
17
19
20
21
21
23
23
23
23
24
24
26
28
28
28
31
31
32
32
33
34
35
36
37
38
40
41
41
41
43
44
44
45
47
48
50
53
62
63
61
63
66
61
60
65
71
74
78
69
71
78
79
80
83
86
88
86
92
91
104
127
126
136
130
129
144
120
141
171
195
178
166
174
159
147
147
151
195
201
185
229
220
191
222
179
160
153
167
168
164
137
125
114
113
148
125
105
90
12
16
17
19
21
23
22
23
24
23
24
24
25
27
28
28
29
31
33
34
33
35
36
40
41
39
40
41
41
43
44
45
45
45
47
49
51
54
56
63
67
61
64
68
66
66
74
91
85
95
82
76
82
86
87
94
95
95
97
106
96
112
144
167
178
141
145
148
156
162
172
173
165
165
160
154
163
212
222
247
247
228
223
215
221
224
196
193
191
187
169
140
140
167
136
130
171
126
135
120
15
17
18
20
24
24
24
23
25
25
25
25
26
28
30
30
31
32
36
40
36
38
45
47
48
45
41
42
43
43
44
44
46
48
49
51
54
56
60
65
70
68
68
72
73
76
90
106
94
91
90
86
90
96
94
108
113
110
113
146
122
107
142
154
179
159
176
185
184
181
174
171
167
167
171
191
187
208
255
240
220
200
182
170
166
201
229
182
193
174
156
161
173
178
151
151
170
145
157
142
17
19
18
21
24
26
27
26
25
26
26
27
27
28
30
31
32
33
38
42
38
36
39
42
44
44
43
43
44
46
46
46
48
50
53
56
56
59
61
67
73
74
70
75
83
99
99
112
96
88
95
99
102
111
101
106
120
131
142
161
145
116
137
173
197
207
201
195
197
180
185
222
190
181
215
249
232
252
255
255
244
235
219
199
157
174
208
188
165
160
139
127
127
140
164
160
181
161
164
143
17
21
19
21
26
31
29
27
25
26
28
28
29
30
31
31
33
35
36
38
39
38
39
40
42
44
45
45
47
48
48
48
51
54
57
61
61
62
61
65
71
75
72
76
95
120
111
112
98
98
101
111
119
121
114
125
126
152
183
197
182
143
135
171
214
214
222
242
211
184
228
255
223
189
233
254
255
255
255
255
236
213
241
189
152
146
169
196
191
189
179
158
136
105
137
176
164
143
133
150
16
22
22
22
23
29
26
28
26
27
28
30
30
30
31
32
33
35
37
39
39
39
40
42
43
44
46
48
49
49
51
53
56
60
63
63
67
68
67
66
70
76
76
77
95
116
121
120
106
115
118
116
134
138
131
148
157
179
219
197
163
142
157
223
248
232
255
241
194
204
238
255
249
210
221
253
255
255
255
241
255
216
180
170
168
145
137
159
169
146
143
142
159
110
94
143
176
167
141
102
19
23
23
26
26
27
28
27
28
28
30
31
31
31
32
33
35
35
37
38
40
40
41
43
44
45
47
49
52
53
54
57
61
64
68
65
68
74
74
74
72
73
76
80
93
119
128
125
116
119
135
129
142
155
165
186
210
242
216
172
157
178
226
255
247
254
255
216
204
245
255
255
247
219
245
255
251
249
255
215
208
247
207
203
207
160
133
127
146
155
149
124
98
97
79
96
165
153
151
128
19
23
24
31
30
33
36
26
30
29
29
31
32
33
33
34
35
36
38
38
41
41
42
45
46
45
47
49
52
54
55
59
62
67
70
70
70
76
78
81
83
81
75
87
94
98
111
132
146
139
140
143
149
169
199
228
248
215
199
167
192
244
255
255
255
255
244
209
220
254
255
255
249
244
255
255
238
222
250
207
208
243
254
208
172
191
150
127
118
137
174
151
140
148
116
87
94
125
142
136
21
24
27
40
36
38
40
28
30
30
31
32
33
34
34
34
36
37
38
39
41
41
43
45
47
47
48
50
54
54
57
60
62
67
73
75
75
76
81
82
86
90
80
96
124
141
119
121
147
160
162
165
196
205
250
250
221
194
191
199
220
255
255
255
255
255
238
212
238
255
255
255
255
255
255
255
222
187
194
185
247
246
184
162
152
186
174
156
121
111
133
170
164
150
150
137
77
90
140
125
19
24
34
49
41
45
37
28
29
31
31
33
35
37
35
35
36
38
38
40
41
42
43
45
47
47
48
51
55
56
60
62
62
66
69
70
73
76
80
83
88
93
87
95
131
161
144
134
129
146
166
204
238
255
254
253
220
230
249
255
255
255
255
255
255
251
239
218
240
255
255
255
255
255
236
214
205
167
157
181
194
213
194
177
140
137
152
172
122
105
156
168
137
130
111
94
76
68
125
122
24
32
37
45
46
43
41
30
30
31
33
35
37
38
37
37
37
38
39
41
42
43
45
46
47
49
50
51
54
58
61
63
68
68
68
67
72
75
75
83
91
99
105
119
122
125
155
170
154
146
148
180
211
243
254
243
240
251
255
255
255
255
255
255
252
240
242
233
233
251
255
255
255
255
254
213
169
168
156
140
135
142
150
187
153
148
122
129
113
101
150
169
165
163
155
126
106
61
94
110
27
37
38
40
43
33
34
31
33
33
33
35
36
39
39
39
39
40
40
41
42
44
45
47
47
49
52
52
54
57
61
65
69
72
71
72
75
77
80
82
91
122
122
148
160
141
135
172
194
176
180
168
197
237
255
251
255
255
255
255
255
255
255
255
254
254
255
246
237
255
255
255
254
244
233
202
170
196
221
177
134
121
116
117
115
147
123
121
113
95
137
159
166
167
140
142
135
85
59
78
29
34
33
45
42
38
33
31
32
33
34
34
38
45
39
40
40
41
42
42
43
44
46
47
50
53
54
55
56
57
60
64
68
70
74
75
80
86
108
103
92
111
149
152
165
169
142
145
170
221
241
185
211
252
255
255
255
255
255
255
255
255
255
255
255
255
255
251
254
255
255
255
255
250
209
182
190
203
230
179
133
132
117
107
103
102
99
129
118
89
117
138
136
164
143
106
116
104
66
50
31
34
37
43
37
32
32
34
32
33
34
36
39
41
41
42
41
42
42
43
44
44
46
48
52
54
57
58
60
60
61
63
67
69
73
76
82
108
121
132
113
108
125
155
193
215
193
161
155
196
217
198
247
255
255
255
255
255
255
255
255
255
255
255
255
255
255
255
254
255
253
251
254
235
200
195
232
227
230
174
158
144
125
108
106
98
96
123
124
86
117
158
115
117
139
123
91
78
70
53
28
32
39
33
32
34
39
35
32
33
34
38
41
42
44
43
43
43
45
44
45
45
47
48
51
56
58
63
65
64
62
66
68
71
75
80
90
102
122
136
134
118
116
131
172
227
250
197
160
222
211
230
253
255
255
255
255
255
255
255
255
255
255
255
255
255
255
255
237
238
228
227
251
244
228
213
251
248
203
182
211
181
149
123
133
100
92
93
92
82
114
149
138
98
116
115
99
86
76
59
24
33
35
33
41
40
42
34
34
34
36
41
41
43
45
46
47
46
45
46
47
48
48
49
52
60
64
67
72
69
67
69
71
73
79
90
117
99
111
120
147
133
127
153
154
210
230
192
171
242
228
245
255
255
255
255
255
255
255
255
255
255
255
255
255
253
249
255
234
209
200
217
223
230
253
241
254
230
214
227
235
230
175
168
157
125
88
88
84
80
79
110
142
119
90
110
108
98
69
55
23
34
34
34
45
46
42
35
35
35
37
41
45
45
46
47
50
49
47
47
48
50
50
51
53
61
70
71
76
70
69
73
77
82
90
104
121
118
137
149
165
146
137
176
181
175
200
176
191
245
255
255
255
255
254
249
254
255
255
255
255
255
255
255
255
252
236
254
230
203
181
196
192
227
246
224
208
226
198
173
177
167
144
162
136
118
94
90
83
78
73
71
87
124
91
109
102
76
61
53
25
36
40
43
42
39
36
37
37
37
38
42
48
48
47
48
50
52
48
49
50
51
53
55
57
63
73
75
74
70
73
79
88
105
112
135
148
146
160
189
188
157
140
171
210
226
188
187
223
251
255
255
255
251
238
237
251
255
255
255
255
255
255
255
253
252
220
221
199
186
173
177
221
241
191
197
164
183
178
134
151
111
130
130
141
127
124
115
107
83
70
66
62
72
77
96
79
61
55
50
25
34
36
42
41
44
40
39
39
38
40
44
48
50
49
49
51
52
52
51
52
53
58
61
62
66
73
79
75
73
76
85
107
142
134
153
172
186
179
177
179
154
147
168
210
229
203
223
221
236
255
255
255
255
224
236
251
255
255
255
255
255
252
240
236
237
192
178
173
171
173
192
215
196
157
151
141
136
128
110
101
87
83
79
91
133
154
128
136
102
77
62
59
57
62
69
63
56
49
42
26
32
33
36
39
41
42
41
41
41
43
45
49
53
53
48
53
54
55
52
53
55
60
60
62
65
72
76
69
72
79
101
129
151
157
177
202
181
152
164
174
179
174
161
218
251
251
254
254
254
255
251
239
228
217
239
254
255
255
255
255
255
254
253
230
210
226
182
173
167
164
207
235
192
185
190
172
164
136
141
152
113
99
75
53
80
145
148
129
106
122
83
56
54
52
55
53
46
38
35
26
32
33
35
36
39
41
41
42
42
44
48
52
56
53
51
53
57
57
54
53
55
58
60
61
64
65
66
68
71
75
90
117
146
142
160
159
147
162
201
190
188
179
177
204
250
255
255
255
255
255
250
229
213
213
222
239
255
255
255
255
255
251
247
255
250
237
211
202
193
158
176
231
221
212
186
170
154
173
165
165
154
142
115
78
43
109
139
105
139
141
97
51
47
43
46
42
35
34
34
26
33
34
36
38
40
42
44
45
46
47
50
55
59
55
54
54
60
61
57
54
54
57
62
66
69
72
75
82
89
84
81
96
106
112
123
129
149
174
205
208
218
233
217
244
255
255
255
255
255
255
244
216
209
211
225
247
255
255
255
255
255
233
208
240
199
192
196
223
233
159
149
181
185
177
158
126
111
125
123
142
148
134
144
88
37
109
111
104
143
115
89
48
40
35
36
36
33
32
32
26
33
35
38
40
41
43
44
46
47
51
55
58
63
59
56
57
61
64
61
55
55
57
60
67
76
81
83
102
127
124
90
93
107
125
124
132
157
171
203
231
237
255
254
255
255
255
255
255
255
255
253
224
205
214
248
254
255
255
255
251
240
220
170
166
157
158
191
208
182
150
140
202
188
165
142
130
105
92
75
90
108
122
126
102
38
43
52
59
96
120
81
37
30
29
34
35
31
31
29
29
34
36
39
41
42
46
47
49
51
50
54
60
66
60
57
60
63
69
63
56
55
59
64
76
88
90
89
92
111
130
117
98
105
123
169
154
149
169
212
254
255
255
255
255
255
255
254
255
255
242
230
208
203
202
219
250
252
255
255
255
232
187
179
142
143
141
167
186
224
152
133
189
187
151
157
170
153
156
85
68
120
142
124
85
69
49
42
36
28
58
59
28
26
28
31
32
29
30
28
30
36
35
39
42
45
48
48
53
55
58
55
54
56
56
59
62
64
71
65
60
58
63
71
78
91
99
102
109
124
152
117
130
131
113
153
184
174
186
234
234
243
255
251
255
255
245
241
250
251
236
211
209
205
196
211
208
236
252
254
255
253
227
215
170
112
143
163
169
223
177
122
135
174
139
129
157
140
150
74
74
137
106
125
114
106
89
114
115
57
29
40
25
22
25
29
27
28
28
34
31
38
38
39
41
44
48
50
53
57
62
64
56
53
54
57
62
70
74
70
67
69
84
94
108
107
124
125
156
137
131
119
161
160
120
133
187
223
228
241
200
207
217
227
255
255
229
212
240
224
232
231
226
224
183
185
206
223
241
253
248
232
185
193
142
106
142
156
138
190
215
149
115
107
109
145
144
108
91
89
49
110
105
98
124
104
125
134
109
67
24
29
22
21
25
26
25
29
33
47
33
39
40
41
43
41
43
45
46
49
51
53
50
51
54
57
61
73
77
77
78
86
105
134
147
126
173
153
179
140
157
167
169
138
128
139
172
206
229
212
226
171
170
227
244
223
193
174
210
216
199
221
231
190
173
188
231
239
251
248
226
202
159
135
103
103
155
163
120
130
173
190
113
95
98
137
155
138
136
108
46
51
100
89
92
124
123
105
82
42
21
22
19
21
23
24
28
35
46
70
34
40
41
42
45
45
46
47
45
44
45
45
46
48
52
55
59
65
79
83
90
110
132
168
188
160
163
197
169
171
204
183
137
133
154
205
198
175
171
194
197
156
198
252
247
223
187
155
194
204
182
210
223
174
167
176
190
207
247
240
207
162
130
125
110
88
133
155
125
109
90
92
89
91
93
119
142
153
130
104
95
50
35
65
82
111
110
93
62
28
20
18
18
20
21
25
32
42
56
79
35
42
41
44
48
48
49
49
48
47
45
46
47
48
49
51
53
56
67
82
100
124
144
149
200
224
213
208
194
217
193
146
138
173
167
199
200
164
162
172
152
151
188
244
228
197
150
158
183
204
170
191
174
161
164
192
216
233
255
250
200
165
183
163
112
79
111
134
148
137
115
85
87
86
103
152
155
133
125
140
105
81
44
38
78
118
95
67
38
22
17
16
17
17
22
27
40
60
78
91
37
44
43
46
48
49
52
53
52
51
48
48
48
48
47
47
48
49
54
68
87
96
113
131
164
220
224
206
217
190
161
142
145
191
210
229
224
208
156
136
146
197
178
237
195
179
143
145
164
173
158
183
161
156
161
180
186
201
245
255
208
216
199
179
117
74
89
100
126
133
106
83
84
83
118
145
132
135
97
124
111
88
49
30
66
117
93
47
24
19
14
14
14
17
26
32
57
82
98
95
40
45
46
47
50
53
54
55
58
56
71
59
49
48
47
48
49
51
50
55
78
116
131
172
186
200
182
164
186
186
153
195
158
186
243
255
253
225
175
131
141
195
224
248
189
153
139
133
137
140
161
188
152
149
164
198
201
208
232
222
242
239
199
167
103
72
69
80
123
131
98
79
81
91
111
135
112
123
113
84
107
90
52
32
41
83
72
27
19
17
13
16
22
23
28
53
68
80
80
65
42
48
48
51
53
56
60
68
76
85
69
69
56
54
58
61
65
61
54
53
61
100
155
172
164
153
138
160
223
186
169
235
189
193
248
255
249
237
195
134
126
151
193
243
202
184
159
128
131
152
191
171
141
144
167
209
251
226
205
168
199
225
133
107
100
74
67
68
114
130
94
75
78
89
132
102
77
83
105
87
87
81
53
35
43
38
40
18
16
13
14
21
24
24
39
44
50
42
45
45
44
51
52
55
59
69
78
92
108
108
82
62
73
86
95
97
122
120
76
54
57
89
139
143
138
112
132
181
229
185
172
212
242
245
244
234
229
202
162
127
116
145
201
200
214
199
141
127
131
151
177
156
136
138
150
187
224
179
171
144
187
210
181
156
125
73
66
62
71
116
93
72
74
77
101
133
102
82
69
59
94
103
73
31
48
28
22
14
12
12
17
22
18
40
63
60
58
48
40
39
46
53
57
62
71
88
114
93
117
102
79
65
83
92
92
108
129
134
111
62
56
77
118
101
90
132
180
209
220
206
223
243
247
230
219
202
222
168
156
146
106
129
155
171
178
138
124
125
129
164
177
141
133
138
170
180
188
208
127
128
175
176
179
142
103
100
68
58
57
81
100
72
71
68
74
107
113
124
100
53
77
102
90
33
34
26
15
11
11
15
18
18
37
66
76
69
61
50
37
33
50
57
59
72
95
103
114
131
113
81
79
77
79
75
80
85
99
102
119
72
67
69
76
102
123
135
177
177
225
237
227
233
223
194
207
192
219
179
167
115
102
119
165
195
143
115
120
119
138
172
163
128
130
135
165
192
217
195
138
107
121
117
160
150
139
106
82
63
53
50
87
98
67
67
62
56
71
97
80
45
69
101
102
35
27
21
12
11
15
16
22
45
70
69
70
66
66
46
31
25
56
64
59
72
100
119
121
108
103
94
93
78
86
85
90
93
101
111
115
67
83
88
114
141
134
149
163
171
200
219
203
206
175
172
180
180
205
178
138
132
103
95
145
137
111
112
114
125
140
172
149
123
124
148
172
181
190
222
199
130
86
93
153
166
123
100
112
82
51
48
74
99
75
68
61
55
51
48
46
39
76
100
58
24
21
12
10
14
16
30
55
70
71
67
67
66
61
43
20
15
57
78
67
63
73
85
94
101
112
97
84
89
89
93
100
114
132
114
84
66
122
90
96
107
146
155
160
161
162
177
170
164
147
154
163
189
198
196
177
147
91
100
167
120
106
108
114
157
182
170
135
119
121
136
165
185
178
163
201
168
100
72
97
143
135
130
116
87
48
44
66
107
107
110
110
86
52
45
41
36
51
49
26
16
13
10
11
16
22
55
77
73
67
58
60
59
54
31
14
20
63
70
79
72
67
70
78
105
113
89
87
97
100
101
138
121
110
71
63
105
164
142
126
150
177
199
170
134
120
133
126
132
147
149
169
207
182
164
187
114
80
117
159
101
102
108
129
144
169
148
111
116
121
154
162
173
161
134
165
164
112
73
57
61
99
117
109
77
39
41
65
119
134
157
127
110
68
41
38
34
30
20
13
12
9
11
20
27
46
63
62
57
53
48
55
52
42
12
21
49
66
80
79
90
103
100
79
79
96
97
112
106
140
126
141
126
78
66
95
149
151
164
171
191
173
181
153
154
111
111
128
159
170
124
159
160
150
135
109
79
80
121
108
96
97
112
132
153
159
118
107
113
134
178
197
185
154
114
118
147
119
109
98
50
29
48
73
54
32
42
90
118
118
110
114
74
62
37
34
33
25
15
9
10
8
16
33
34
46
46
43
45
52
49
42
42
19
15
49
73
67
85
92
81
83
94
99
101
84
115
132
124
162
160
157
117
71
85
142
138
117
125
141
150
167
172
125
113
103
112
155
143
105
93
141
147
89
81
67
72
75
84
88
90
93
113
142
159
135
101
104
128
167
200
195
198
183
151
101
111
137
132
104
88
58
32
29
37
27
44
104
109
103
81
89
73
55
35
29
27
22
15
8
9
7
13
25
30
30
34
47
58
67
62
26
13
17
46
74
82
68
86
88
88
92
132
117
107
88
123
146
161
155
161
172
142
74
75
100
95
126
164
175
162
163
144
151
114
99
141
145
131
104
79
125
124
62
60
64
68
70
77
83
86
117
146
140
151
122
93
102
133
153
174
174
179
168
154
110
77
128
124
120
103
98
70
30
22
19
30
87
126
93
72
77
66
52
28
23
22
18
12
9
10
8
7
23
31
25
40
62
75
74
47
12
19
46
69
87
83
72
91
99
99
99
117
110
87
132
166
177
164
129
115
166
111
87
94
84
107
120
174
183
172
179
176
135
103
90
162
194
135
135
80
86
66
52
56
57
66
73
75
79
88
101
128
153
151
121
90
86
93
150
140
137
155
150
120
101
70
122
119
104
108
80
60
41
19
15
16
63
104
85
51
46
46
49
33
19
14
13
10
10
10
8
7
15
22
29
49
73
81
59
26
11
37
69
78
89
69
83
118
102
104
101
124
102
107
165
143
117
151
173
128
92
82
108
138
129
132
147
142
167
176
161
131
109
84
78
117
139
183
166
94
46
46
49
50
66
77
90
101
106
125
139
140
154
133
97
85
82
82
107
100
128
159
114
89
92
60
98
126
110
77
66
75
73
38
17
12
21
29
28
18
14
17
26
29
31
15
12
10
10
13
9
7
10
21
37
61
72
62
32
12
24
55
80
84
79
59
93
107
117
117
143
144
94
137
186
163
133
115
119
97
94
131
112
128
148
180
163
153
169
147
121
108
120
117
68
79
112
167
171
64
35
42
41
59
79
88
106
132
136
148
139
152
173
138
129
120
82
73
68
94
127
132
90
87
75
69
126
120
100
75
93
111
103
69
31
17
12
11
12
12
10
11
14
20
33
13
10
9
10
13
9
6
12
28
49
66
64
39
12
18
38
62
76
80
71
57
103
124
155
148
170
147
100
150
158
148
128
134
87
98
120
138
155
183
174
159
132
136
148
130
144
159
124
97
61
60
84
136
119
39
30
36
60
77
85
93
99
119
144
116
117
131
144
157
147
112
75
68
65
68
107
103
66
103
60
75
119
99
84
102
106
122
102
67
63
44
31
29
31
32
24
12
11
14
20
11
9
9
10
12
11
7
17
41
48
63
51
19
22
36
53
63
74
71
51
55
128
143
169
170
146
128
109
133
159
151
122
91
97
128
146
167
188
186
138
104
108
115
145
176
164
135
104
110
110
58
44
79
60
19
23
50
81
101
96
104
119
130
142
120
102
138
105
126
147
150
115
67
61
56
65
85
66
94
45
85
92
83
116
125
86
103
89
80
83
65
57
63
68
55
38
21
10
12
14
10
9
9
11
13
15
8
25
45
46
54
42
16
23
34
54
71
72
59
43
42
152
173
149
117
138
146
159
163
145
110
103
79
100
162
162
177
153
108
88
111
145
157
180
173
138
101
93
94
68
49
38
31
28
13
27
65
99
118
120
120
133
120
121
109
86
113
96
136
159
151
123
76
57
55
52
56
94
67
50
83
72
96
120
107
89
82
82
75
66
66
92
102
81
55
41
25
12
10
12
9
9
11
13
14
17
12
20
40
42
43
26
9
25
45
62
71
61
53
40
60
156
140
107
90
124
148
132
112
114
137
150
78
122
141
161
150
107
78
101
162
152
229
191
140
103
87
79
76
66
54
36
28
18
12
35
76
115
126
120
112
118
97
125
126
90
93
84
125
137
125
119
99
58
51
47
48
74
46
53
64
76
110
106
110
79
67
65
61
61
80
98
86
61
48
40
26
12
10
10
9
11
15
16
14
13
13
13
26
29
25
12
16
32
46
66
59
56
57
41
32
142
116
90
144
153
162
127
113
79
91
92
70
79
114
133
111
64
73
87
104
172
169
165
118
133
123
120
124
107
107
57
20
14
10
33
75
82
78
87
113
101
96
117
101
93
61
90
135
114
113
82
120
71
46
46
41
36
44
58
76
94
115
101
92
91
65
57
55
71
94
88
60
47
41
36
22
11
9
10
9
10
14
15
14
11
12
9
18
21
16
8
21
28
44
57
51
58
57
32
34
68
77
87
130
163
168
150
142
111
98
85
63
55
107
104
68
63
125
143
127
128
141
179
143
152
151
147
143
117
80
56
24
10
9
26
61
85
103
111
101
106
84
113
92
89
50
92
117
114
62
89
115
78
43
43
39
34
46
69
99
108
99
105
76
70
59
57
55
65
73
67
49
40
36
32
19
11
12
17
16
11
13
16
14
12
11
8
17
21
9
7
17
26
41
47
49
53
43
24
41
101
124
135
99
107
130
141
122
126
124
141
125
88
46
52
35
64
131
175
154
166
157
156
142
150
142
134
131
89
71
103
33
7
8
18
56
86
102
103
87
78
68
102
83
102
51
40
73
65
61
95
116
85
40
40
37
29
42
78
103
90
79
86
69
55
51
62
81
62
67
53
43
36
33
26
14
12
18
26
23
15
11
14
14
12
9
8
14
14
11
7
17
27
33
40
45
48
32
30
41
114
157
143
112
111
108
102
102
100
88
90
79
59
34
30
22
31
79
128
123
127
142
117
120
122
111
113
110
106
105
79
40
5
6
11
48
83
97
105
93
91
61
70
67
88
78
40
38
70
97
112
110
81
38
35
34
24
32
66
77
67
65
64
55
49
63
86
92
64
49
49
40
34
28
20
14
16
27
32
25
15
11
14
13
11
6
7
11
11
13
5
16
24
27
34
41
33
23
39
57
