P2
# CREATOR: GIMP PNM Filter Version 1.1
50 50
255
21
22
23
25
23
15
11
13
15
17
19
19
26
25
15
9
8
8
8
8
10
20
27
18
9
6
6
6
6
6
5
4
5
6
7
11
17
30
45
54
60
53
38
33
38
39
42
55
68
78
21
23
26
25
18
13
15
17
18
19
16
15
22
22
13
9
9
9
9
9
11
18
21
17
9
7
6
6
6
6
6
5
6
7
9
14
26
44
55
59
60
51
39
41
47
50
52
60
69
69
18
20
20
16
12
12
15
17
16
15
13
11
14
13
10
9
9
10
10
9
10
12
12
10
7
7
7
7
6
6
6
6
7
9
13
20
35
49
58
61
53
43
39
43
48
53
51
50
55
54
15
13
12
12
11
13
17
18
14
11
10
10
11
10
9
9
10
10
10
10
10
9
9
7
7
7
7
7
7
6
6
7
8
11
16
25
41
56
61
56
46
41
40
41
45
49
49
49
51
53
10
10
12
14
15
15
18
18
13
10
9
10
9
9
9
10
10
12
11
11
9
9
8
9
9
8
7
7
7
8
8
8
11
15
22
34
56
68
60
50
43
41
42
44
46
49
51
53
57
62
10
13
15
19
23
19
18
16
13
10
9
9
9
9
10
10
10
13
13
11
10
10
10
9
9
10
10
10
10
9
9
12
18
28
39
52
66
66
58
51
47
45
46
48
49
52
56
61
65
72
16
15
18
26
28
21
18
16
14
11
9
10
10
10
11
11
12
13
13
11
11
10
10
11
12
11
11
12
11
11
12
19
32
43
55
69
79
73
67
58
54
51
53
54
56
58
62
72
75
76
21
17
23
27
25
22
16
15
13
12
10
10
10
11
11
11
11
12
12
11
11
12
12
13
14
13
12
13
15
14
18
30
39
45
57
78
96
91
81
64
56
57
60
63
67
71
72
84
88
91
19
17
22
22
23
18
15
13
12
11
11
11
13
13
12
12
12
12
12
13
12
14
15
16
16
15
14
16
17
18
23
31
40
53
68
88
96
89
79
64
61
62
65
74
83
91
88
95
104
106
16
15
17
18
19
16
14
13
13
12
12
13
14
13
13
12
12
13
14
13
14
15
16
17
18
18
17
18
20
23
26
33
47
65
86
102
91
81
71
65
65
68
68
81
106
120
107
106
113
108
14
16
18
16
16
15
14
14
15
14
14
14
14
14
13
14
14
14
14
14
15
16
18
19
20
20
21
23
26
28
31
38
51
66
87
105
97
87
75
74
69
73
77
88
124
138
112
106
118
123
15
18
19
17
17
15
14
15
16
15
15
15
14
14
14
15
15
15
16
15
16
18
19
20
22
22
25
29
31
33
37
46
56
70
86
104
105
91
84
87
80
81
93
95
113
125
103
102
120
126
18
20
18
17
16
15
16
16
16
16
16
15
15
14
15
15
17
17
17
18
18
19
20
22
24
26
31
34
36
37
45
57
70
81
95
104
98
91
95
101
94
94
106
110
101
111
104
105
121
131
19
19
17
15
16
16
16
16
16
16
16
16
16
16
16
16
18
19
20
20
20
20
22
25
26
30
34
38
41
45
60
76
89
98
101
98
93
96
104
101
97
102
115
117
100
115
119
108
109
123
16
16
15
14
16
16
16
16
17
18
18
17
18
19
18
18
20
22
22
22
22
23
25
28
31
33
38
44
49
57
69
82
89
90
84
82
87
93
102
100
103
106
123
123
108
120
123
111
107
115
14
14
14
14
16
16
16
18
20
19
19
20
20
21
21
20
21
23
24
24
26
26
28
33
38
39
45
56
68
73
68
69
73
72
69
74
83
93
102
106
114
114
131
133
113
115
124
123
125
135
12
14
14
14
16
16
17
20
21
20
20
21
21
21
22
22
23
24
26
27
28
30
33
41
48
47
51
67
81
80
76
68
67
71
73
77
85
94
102
113
119
119
131
134
124
126
138
154
159
169
10
12
13
14
16
17
18
20
21
21
21
22
23
23
25
25
26
26
27
29
31
33
40
49
55
52
50
60
69
70
70
67
64
70
76
80
84
88
96
109
121
127
138
144
137
146
147
171
184
192
10
12
13
14
16
18
20
21
22
21
22
24
26
28
30
31
31
28
30
31
34
38
42
49
54
53
49
49
52
55
57
57
58
62
67
73
76
81
88
98
111
130
155
155
148
159
158
170
185
192
11
13
14
15
16
19
21
21
22
23
24
26
31
36
37
34
32
31
33
34
38
40
43
47
50
51
50
50
50
51
54
57
63
67
70
72
78
86
89
101
120
133
159
172
171
177
177
179
173
159
12
15
16
17
17
19
21
22
23
24
25
28
33
37
37
34
33
34
36
39
40
43
45
49
51
53
53
54
56
57
60
65
69
73
77
81
89
100
101
108
132
147
175
198
193
182
166
152
146
146
12
14
16
18
18
19
22
23
24
25
26
28
32
35
37
35
35
36
39
42
44
45
48
52
54
55
57
60
63
66
69
70
72
76
82
89
100
113
116
116
141
171
188
192
166
145
132
122
140
153
13
16
18
19
20
21
23
24
25
27
28
30
32
35
37
38
38
39
42
46
51
50
51
54
56
59
64
68
71
75
77
80
85
92
101
110
120
137
148
135
140
172
179
162
143
138
137
114
108
122
13
17
19
20
22
22
24
26
28
30
30
32
35
37
40
41
41
43
46
53
57
57
57
60
63
65
71
76
80
84
88
99
108
116
127
142
149
158
163
152
158
184
180
163
144
133
121
104
97
94
14
18
21
23
24
24
26
28
30
32
34
37
39
40
42
43
45
47
51
58
63
65
67
75
80
78
82
88
94
100
108
131
143
145
153
168
169
169
177
197
205
205
200
186
169
153
139
131
130
115
17
20
24
25
25
26
28
30
32
36
38
41
44
43
44
47
49
53
57
63
69
73
85
96
95
94
100
107
121
136
135
154
182
188
185
191
189
201
222
239
226
200
186
190
175
155
148
153
155
144
19
22
26
27
27
28
30
31
34
38
39
41
44
46
48
51
55
61
64
68
72
79
100
113
109
114
126
139
163
178
165
185
221
224
213
228
224
234
249
246
229
198
169
165
165
149
130
137
153
140
21
26
30
30
29
30
32
33
35
38
40
43
45
49
52
56
62
68
72
76
78
85
107
123
131
141
162
192
208
197
201
232
247
234
232
248
244
244
238
227
223
204
173
149
143
145
129
117
129
133
25
34
38
34
30
32
34
35
37
39
42
44
47
50
54
60
65
70
75
81
88
99
124
136
148
170
209
235
229
226
240
253
250
236
243
254
252
236
205
191
199
184
161
146
131
147
146
121
102
116
30
39
40
34
32
34
37
38
39
40
43
45
48
52
56
62
68
72
78
86
101
123
143
154
167
186
223
248
248
251
255
255
252
245
247
254
249
220
191
175
153
144
136
128
120
142
152
131
99
88
32
37
37
34
33
35
39
41
41
43
44
48
52
56
59
63
69
76
90
107
116
141
172
175
188
210
235
253
255
255
255
255
255
253
250
249
242
216
211
193
154
127
113
110
109
126
137
125
97
69
30
36
38
36
35
37
42
44
45
46
46
49
55
63
66
67
74
86
105
126
133
146
186
198
204
232
250
255
255
255
255
255
254
249
233
224
231
229
226
206
183
150
122
100
93
107
116
109
92
66
30
37
41
38
37
41
45
47
49
49
50
53
60
70
72
77
93
115
136
153
157
162
194
204
224
249
252
248
253
255
255
254
246
229
205
196
214
210
194
174
154
137
125
110
93
82
86
89
78
58
30
36
40
41
40
44
49
51
53
53
54
58
64
71
75
88
119
147
165
172
174
178
214
231
243
251
241
237
250
255
254
249
234
208
185
188
203
183
161
144
126
105
103
123
114
87
64
61
55
44
30
35
39
42
44
48
54
55
56
57
56
60
67
74
83
93
116
139
156
181
202
211
236
252
254
247
226
227
248
255
250
234
216
203
193
179
192
176
147
135
133
116
85
98
111
95
54
42
38
34
32
37
42
45
49
53
58
59
61
62
58
64
76
88
105
111
113
133
158
195
231
245
251
253
252
239
217
221
243
253
242
204
171
173
187
167
170
158
137
112
110
118
86
71
76
67
39
32
32
31
34
39
43
47
52
56
56
58
64
69
70
85
103
118
131
136
134
144
180
211
224
235
244
234
233
226
212
204
226
246
232
188
145
149
170
160
139
137
137
106
92
106
104
97
71
39
27
27
31
39
37
41
44
47
48
50
50
54
63
76
93
126
154
167
169
163
152
163
187
197
193
213
223
196
201
206
198
189
216
236
205
156
122
133
139
130
108
120
136
112
80
77
98
98
57
26
21
26
38
60
40
44
48
51
51
51
49
51
56
70
101
143
184
197
191
171
169
199
198
171
173
207
199
165
171
179
172
180
211
231
206
163
111
109
122
102
93
119
130
116
87
59
79
71
34
18
20
32
56
78
44
49
55
64
71
65
59
62
66
65
92
141
166
179
190
187
201
230
219
165
161
201
186
149
150
164
158
180
208
207
204
161
101
85
106
94
90
110
108
97
85
55
52
41
20
17
26
43
57
61
50
58
75
92
94
79
77
90
100
81
82
118
137
173
203
213
224
223
203
154
140
175
169
139
147
155
148
176
193
167
169
153
106
75
81
84
80
93
95
81
82
59
33
20
15
24
43
58
53
40
57
69
92
107
100
85
85
96
106
91
87
110
139
173
200
206
196
195
187
145
123
144
133
129
150
144
142
173
186
152
127
136
117
83
65
80
81
75
70
62
69
51
23
16
25
46
61
64
49
29
66
74
85
96
99
96
103
111
101
100
119
134
158
158
155
159
158
173
172
136
112
121
115
135
148
131
143
170
168
150
109
100
102
82
59
86
108
91
57
41
39
24
14
21
41
58
58
52
38
34
74
84
92
96
105
122
136
126
96
112
140
158
164
141
126
137
133
138
120
95
92
100
113
138
130
123
157
177
153
127
115
89
66
51
49
90
104
84
51
31
20
12
14
27
41
54
52
36
38
60
83
95
105
110
127
145
144
126
101
114
143
164
156
125
122
140
114
91
72
70
81
96
122
138
115
110
142
158
138
106
112
101
71
40
35
70
71
54
38
23
15
10
11
22
41
59
47
35
59
74
101
117
122
125
145
138
125
117
126
139
149
156
141
111
102
131
105
58
58
78
101
120
135
140
114
90
101
120
105
88
104
98
86
63
34
34
32
25
24
19
12
11
11
23
47
51
34
46
70
67
129
142
139
136
142
120
116
139
150
142
141
151
135
106
79
82
65
47
76
98
117
124
124
134
128
91
73
84
81
78
96
101
97
81
58
49
41
25
15
14
10
12
14
29
45
36
33
56
64
55
140
132
138
135
124
107
120
141
123
123
154
157
124
97
72
45
30
52
95
111
116
113
102
116
128
99
65
58
63
69
92
102
85
72
73
76
57
31
14
11
12
14
15
24
31
24
37
57
55
45
113
120
139
130
110
94
94
97
97
125
153
152
132
118
89
45
21
48
89
102
100
100
85
94
102
95
66
45
49
73
94
90
71
64
70
65
44
27
15
14
13
14
12
15
17
18
34
49
47
39
118
122
121
117
106
92
64
50
81
129
141
137
130
120
97
55
18
40
85
96
84
81
74
64
81
96
66
38
41
71
79
70
63
71
63
49
34
21
20
22
15
13
10
11
12
14
28
39
38
42
