P2
# CREATOR: GIMP PNM Filter Version 1.1
100 100
255
76
80
85
94
105
115
121
119
114
112
115
124
135
147
160
173
185
194
197
192
181
166
149
136
130
129
128
125
119
117
119
124
130
134
137
141
148
157
166
173
175
173
168
163
159
156
154
151
150
150
154
162
174
187
200
212
222
230
234
236
236
236
239
243
246
249
251
251
248
243
234
223
211
199
188
178
167
156
144
134
126
122
120
117
115
111
108
106
105
104
103
101
96
91
85
82
80
81
83
84
88
87
88
94
103
113
120
121
118
114
115
121
131
143
158
173
186
196
198
192
179
163
147
136
133
135
137
135
131
128
128
133
139
145
150
155
162
171
180
186
189
187
182
176
171
168
164
161
158
157
160
167
177
188
199
210
220
229
236
238
239
238
239
241
243
245
248
249
248
244
236
225
213
201
189
179
167
156
144
133
125
120
118
116
113
110
107
105
103
102
100
98
94
89
84
81
80
81
82
84
104
98
95
97
103
112
120
123
122
119
118
121
128
140
155
172
187
197
200
193
180
163
148
139
139
144
149
150
146
142
141
145
152
159
165
171
178
186
193
199
201
199
195
190
185
181
176
171
167
165
167
172
180
189
199
209
219
229
236
240
240
238
236
236
237
239
243
246
247
245
238
228
215
203
190
178
167
154
142
132
124
118
115
113
111
108
105
102
101
99
97
95
91
86
82
80
79
80
81
82
120
111
105
104
107
114
122
127
129
127
125
126
131
141
155
172
187
199
203
197
184
168
154
147
148
154
161
164
162
159
157
160
166
173
180
186
193
199
203
206
207
207
205
202
197
192
186
180
175
172
173
176
182
189
198
208
218
228
236
239
239
236
232
229
229
232
237
242
245
245
240
230
217
203
190
177
165
153
141
131
123
117
114
111
108
105
103
101
99
98
96
93
89
85
81
79
78
79
80
82
132
125
119
116
116
120
126
132
135
136
136
136
140
147
158
173
187
199
204
200
190
177
165
159
160
166
174
179
179
176
173
175
179
184
190
196
202
205
206
206
207
208
209
207
203
197
191
184
179
175
175
177
182
189
197
207
217
226
233
236
236
231
225
221
220
224
231
238
243
244
241
232
219
205
191
178
166
154
143
132
124
117
113
109
106
103
101
100
99
97
96
93
89
85
82
79
77
77
79
81
141
136
132
129
129
131
134
139
143
146
148
150
153
157
164
175
187
198
203
201
194
184
176
172
173
179
186
192
193
190
187
186
187
189
194
200
205
207
205
202
201
203
206
206
202
196
189
183
178
175
174
176
180
187
196
205
213
220
227
231
231
227
220
214
213
217
225
234
241
243
240
233
222
208
194
182
170
158
146
134
125
117
112
108
104
102
101
101
100
99
98
95
91
87
83
79
77
77
78
79
145
144
143
142
142
143
145
148
151
155
159
163
165
167
171
177
187
195
200
199
193
186
181
179
182
188
196
201
203
200
195
191
188
188
192
199
204
206
202
197
195
196
199
200
197
191
184
178
173
171
170
173
178
186
195
203
209
214
220
224
226
222
215
208
206
211
221
231
238
240
238
232
223
212
200
188
176
164
150
137
125
117
111
107
104
103
103
104
105
104
101
98
94
89
84
80
77
76
77
79
146
148
151
153
154
155
156
158
161
165
169
172
173
173
174
178
184
191
194
193
187
181
178
179
184
192
200
205
206
202
195
189
185
185
189
196
202
203
199
192
188
188
191
192
189
183
176
171
168
166
166
170
177
186
194
200
204
207
212
217
220
217
210
203
201
207
218
229
236
238
235
230
223
214
203
193
181
168
153
138
125
116
110
106
105
105
107
110
110
109
106
102
97
92
86
81
77
76
77
79
146
151
155
159
162
164
166
167
169
171
173
174
174
172
170
172
178
183
186
184
178
172
169
171
178
187
197
203
204
198
190
183
179
180
186
194
199
200
195
187
181
179
181
182
179
174
168
163
161
160
162
168
177
187
194
197
198
199
204
210
214
212
205
198
197
203
215
227
233
234
231
226
220
212
204
193
181
167
152
137
124
115
110
108
109
110
113
116
116
114
110
104
98
93
87
81
78
77
78
80
144
150
156
161
165
168
171
172
171
170
169
167
165
162
161
162
167
172
175
173
168
161
157
159
167
179
191
198
199
193
183
175
172
175
182
190
195
195
190
181
174
171
171
171
169
164
159
156
154
155
160
168
178
188
193
194
192
193
197
203
208
207
200
194
192
199
211
222
229
230
226
221
216
209
201
191
178
165
150
136
124
117
113
113
115
117
119
121
120
116
111
105
99
93
87
82
79
78
80
82
143
148
153
158
162
166
169
169
166
161
156
152
149
146
145
147
151
157
161
161
156
150
147
150
159
172
186
194
195
188
177
168
166
170
177
184
187
187
182
174
167
162
162
161
159
155
151
148
148
151
159
169
180
188
192
190
187
186
190
197
202
202
196
189
188
194
205
216
222
223
220
216
211
205
198
188
176
163
150
137
127
121
119
120
122
124
124
124
121
116
110
104
98
92
87
83
80
80
81
84
142
145
149
152
155
159
162
161
155
147
138
132
128
127
128
130
134
139
143
145
143
140
139
144
156
170
184
192
192
183
172
162
160
164
171
176
178
177
173
166
159
154
152
151
149
146
143
142
143
149
158
169
180
187
189
186
182
180
184
191
197
197
191
185
183
188
198
208
214
215
212
209
206
202
197
189
178
165
153
141
132
127
126
128
129
129
127
124
120
114
109
103
98
93
89
85
83
82
83
85
141
142
143
144
146
149
151
149
142
131
119
111
108
108
110
112
116
120
124
127
128
129
133
142
156
172
184
191
189
180
167
157
154
157
162
165
167
166
163
158
151
145
142
141
140
138
136
136
140
147
158
168
178
184
185
182
177
175
178
185
190
191
186
180
178
182
190
198
203
204
203
202
202
202
200
194
185
173
161
150
141
137
137
137
137
133
128
123
117
112
107
102
98
94
90
88
86
85
84
85
141
140
138
137
137
139
140
137
129
116
103
94
91
92
95
98
100
103
106
110
113
118
127
141
158
172
183
187
184
174
160
150
146
148
152
154
155
155
153
148
142
137
134
132
131
131
130
133
138
146
156
166
173
178
179
177
172
170
172
178
183
184
180
175
173
177
183
189
192
193
193
194
198
203
205
201
194
184
172
162
154
150
149
148
143
136
128
121
115
110
105
101
98
95
93
91
89
87
85
83
141
138
134
130
129
129
129
126
117
104
91
82
80
82
86
88
90
91
92
95
101
110
123
140
157
170
178
179
175
165
153
143
138
138
140
141
141
141
141
138
133
128
126
124
123
124
125
130
137
145
154
161
167
171
172
170
166
164
166
171
176
177
174
170
168
171
176
180
181
182
184
189
196
204
208
208
202
194
184
175
169
166
164
159
151
140
130
121
114
109
104
101
98
97
95
94
92
88
84
80
142
137
131
125
121
119
118
115
106
94
82
75
75
79
85
88
89
87
85
87
94
105
121
139
154
165
169
168
163
154
144
134
129
128
128
128
128
128
128
127
124
120
118
117
117
118
121
127
135
143
150
155
159
162
163
161
159
158
160
165
169
170
168
163
162
164
168
169
170
172
176
183
193
202
208
210
207
202
196
191
187
183
179
171
158
145
132
123
115
110
106
102
100
99
98
96
93
88
82
78
143
136
128
119
113
109
107
103
94
84
76
73
77
86
94
98
98
93
88
87
92
104
120
136
149
156
158
154
149
141
133
125
119
116
115
115
114
115
116
116
115
113
112
111
111
113
118
124
132
139
145
149
151
153
153
153
152
152
155
160
164
164
161
157
155
156
158
159
160
163
169
177
187
196
203
207
208
208
207
205
204
200
194
183
169
153
139
128
120
114
109
105
102
101
99
96
92
86
80
76
142
134
124
113
104
99
95
90
83
76
72
74
84
97
109
115
113
105
96
91
94
104
119
132
142
145
144
139
133
127
121
115
109
106
105
104
105
106
108
108
108
108
107
108
109
111
115
121
128
134
139
142
143
144
145
145
146
148
152
157
161
161
157
153
149
148
148
148
149
153
160
169
178
186
194
201
206
211
214
217
217
215
208
196
180
163
148
136
126
119
113
108
104
101
98
95
90
84
78
74
138
130
119
107
96
89
83
78
73
70
70
78
92
109
124
131
129
119
107
98
97
103
113
123
129
130
127
122
117
113
109
104
100
98
98
100
102
104
106
106
106
107
107
109
110
112
116
120
126
131
136
138
139
140
141
142
144
147
152
157
161
162
159
154
148
144
141
139
140
144
151
158
166
175
185
194
202
210
217
222
225
224
218
208
192
175
158
144
132
123
115
109
104
100
97
92
88
82
77
73
132
124
113
100
88
79
73
70
68
68
73
84
100
119
135
144
143
132
118
105
99
100
104
110
113
112
109
105
101
99
97
95
94
94
97
101
106
110
111
111
110
111
113
116
118
120
122
125
130
135
139
141
143
144
145
147
149
152
156
162
167
169
167
162
155
148
141
136
134
137
142
149
156
165
176
187
197
206
214
221
226
227
224
215
201
183
165
150
136
125
116
109
104
99
95
91
87
82
77
73
121
113
103
91
80
71
67
66
68
72
80
92
108
126
142
152
152
143
129
115
104
98
97
98
99
98
95
92
90
89
89
90
91
95
100
108
115
120
122
121
120
121
124
129
132
134
135
137
141
146
150
152
154
156
158
160
161
162
165
169
175
179
180
176
168
158
148
139
134
134
139
145
152
159
169
180
190
199
208
216
222
225
223
215
201
185
167
151
137
125
115
108
102
98
94
91
87
83
78
74
106
99
90
80
72
66
65
68
75
83
92
104
118
133
147
157
159
152
139
124
110
100
95
93
93
92
91
88
86
86
88
91
95
100
106
115
124
130
134
134
134
134
138
143
147
149
150
153
157
161
164
166
168
170
174
176
176
175
175
177
183
188
191
190
183
171
157
145
137
137
143
149
155
160
166
173
182
190
200
209
217
220
217
208
194
179
162
147
134
123
114
107
102
98
95
92
89
85
80
75
89
83
76
70
65
64
68
76
86
97
108
119
131
143
154
163
166
161
150
134
119
107
100
99
99
100
98
95
93
94
97
101
105
109
115
122
131
139
145
148
148
148
150
154
157
159
161
165
169
172
174
174
176
180
186
189
189
186
184
185
189
195
200
199
192
179
164
151
144
146
153
160
165
167
168
171
176
184
193
204
212
214
208
197
182
167
153
140
129
119
112
106
101
98
95
92
89
86
81
76
75
71
67
64
63
65
72
84
97
111
123
134
144
155
164
171
173
169
158
143
128
117
112
113
116
118
116
113
110
110
114
118
121
123
125
131
139
149
157
161
162
161
160
160
160
162
165
170
174
176
175
174
175
181
188
194
194
192
189
190
193
199
203
203
195
181
166
155
152
158
168
177
181
181
178
176
177
182
191
201
209
209
201
186
170
154
142
131
122
114
108
104
100
96
93
91
88
85
80
75
66
64
62
62
64
69
78
90
104
118
131
143
155
165
174
180
182
177
166
153
139
129
127
132
138
142
141
137
134
134
137
139
140
139
139
143
150
160
170
175
176
172
167
162
158
158
161
167
173
174
170
167
168
175
184
190
191
189
188
189
194
199
202
200
190
176
164
158
162
172
185
195
199
197
192
187
184
186
193
202
208
206
196
180
161
145
132
122
115
109
104
101
97
94
91
88
85
81
78
74
61
61
62
64
67
73
82
93
106
120
133
147
160
172
181
187
188
184
174
162
150
143
143
149
157
163
163
160
158
158
159
160
159
156
155
157
164
173
181
186
185
179
169
159
152
150
153
160
166
167
162
158
159
166
176
181
182
181
180
183
189
195
196
191
179
167
159
161
171
185
199
209
213
211
206
200
196
195
198
204
208
206
195
178
158
140
127
117
110
104
100
96
93
90
87
84
80
77
74
71
62
63
66
68
73
79
87
97
108
120
133
147
161
174
184
191
193
190
182
172
162
155
154
160
169
175
178
177
176
176
176
175
172
168
168
171
177
184
189
191
188
180
167
154
144
141
145
152
158
158
152
148
150
158
166
171
171
169
170
175
182
187
187
179
166
156
153
161
176
193
206
215
219
218
215
211
207
205
205
208
210
207
197
179
159
141
126
115
107
101
96
93
89
87
84
80
77
74
71
69
69
71
74
76
81
86
94
103
112
122
134
148
161
174
184
191
194
193
187
179
169
162
160
164
172
179
183
184
185
185
185
182
177
174
175
179
184
189
191
189
184
174
161
147
136
133
137
144
149
148
142
139
141
149
156
159
158
157
159
166
173
177
175
165
153
145
148
160
178
194
206
213
216
217
217
217
216
215
213
213
213
209
199
182
162
144
128
116
107
99
94
90
87
85
82
79
75
72
69
67
84
86
87
89
92
97
104
112
121
130
140
151
163
174
183
190
193
192
188
180
171
163
159
162
168
176
181
184
186
187
185
181
175
173
176
181
185
187
185
181
174
164
152
139
130
126
130
136
139
137
132
129
132
139
144
147
146
147
151
159
165
167
163
152
142
138
145
159
177
191
200
206
208
211
214
218
221
222
220
218
216
211
201
184
165
146
131
118
108
100
94
90
87
85
83
79
75
71
68
66
101
103
104
105
107
110
116
124
133
142
151
160
169
177
183
187
188
187
183
176
167
159
153
154
160
168
174
179
183
184
181
174
169
168
173
179
182
181
176
168
160
151
142
131
123
120
123
127
128
125
121
120
123
128
132
134
135
138
144
152
157
157
151
142
135
135
145
160
175
186
193
196
198
202
208
216
223
226
226
223
220
213
202
185
167
149
134
121
110
101
95
91
88
86
84
80
75
71
67
65
115
117
120
121
121
124
129
136
146
155
163
170
176
179
182
182
181
178
174
168
159
150
144
145
150
158
166
172
177
178
174
166
161
162
169
176
177
172
163
153
145
138
131
124
117
115
116
117
117
114
111
111
114
118
122
123
126
131
138
145
148
147
141
134
131
136
148
162
173
181
184
185
187
192
202
213
222
228
229
226
221
213
201
185
167
150
135
122
111
102
95
91
89
86
84
79
75
70
67
65
120
125
129
132
134
137
141
148
157
166
173
178
181
180
178
175
171
168
165
158
150
141
135
135
140
149
158
166
171
171
165
157
153
157
166
173
172
163
151
139
130
124
120
116
112
109
108
108
106
103
101
102
106
109
112
115
120
126
133
137
138
136
132
130
132
140
151
162
170
173
174
174
177
184
194
207
219
227
230
228
222
212
199
183
166
149
135
122
110
101
93
89
87
84
81
78
73
70
66
64
119
125
132
137
141
144
148
155
163
172
179
183
183
179
172
166
161
158
155
149
141
132
126
127
133
143
154
163
167
165
158
149
147
153
163
170
167
156
140
126
117
112
110
108
105
102
100
98
95
92
91
93
97
100
103
108
114
120
125
128
128
127
126
129
135
143
153
159
163
164
163
164
168
176
187
201
214
225
230
228
220
209
195
179
162
146
132
120
109
100
92
88
84
82
80
77
73
70
68
66
114
121
129
136
141
145
150
157
166
175
182
184
182
175
165
157
151
149
147
143
134
125
120
122
130
141
153
161
164
160
151
142
140
147
158
164
161
148
131
115
106
102
102
101
98
95
92
89
86
84
84
86
89
92
95
100
107
113
117
118
118
120
124
130
137
145
150
153
154
154
154
156
161
170
182
196
211
222
228
226
217
204
190
174
158
143
130
119
109
101
94
88
85
82
80
78
75
72
70
68
113
118
125
131
137
142
148
157
166
175
182
183
179
170
159
149
143
141
141
138
130
121
116
118
127
139
151
160
162
156
145
135
133
139
149
156
152
139
122
106
96
92
92
92
91
88
85
82
81
81
82
84
85
87
89
93
99
104
106
108
110
115
121
129
136
140
143
144
144
145
148
152
159
168
180
194
209
221
226
224
214
201
186
170
155
141
131
122
115
107
99
92
87
84
83
81
79
77
75
73
116
120
124
128
133
138
145
154
164
174
180
180
175
165
153
142
135
133
134
132
126
118
112
114
122
135
148
157
159
152
140
129
125
130
138
144
141
128
112
97
87
83
83
84
84
82
80
80
81
83
86
88
88
88
88
90
93
96
97
100
104
110
118
125
130
133
134
135
136
140
146
153
162
172
184
197
210
221
226
223
214
200
185
170
155
144
137
131
124
115
105
97
91
87
85
84
83
81
79
78
126
128
130
131
133
137
144
153
164
173
178
177
170
159
147
136
129
127
127
126
122
115
109
108
115
127
141
151
155
150
137
125
118
120
127
131
128
117
102
88
79
76
77
79
81
82
82
83
86
91
95
98
98
97
95
94
93
93
93
95
100
107
114
120
124
126
127
129
133
139
148
157
168
179
190
201
213
222
226
223
215
202
187
172
160
152
147
143
134
123
110
99
93
89
87
87
86
85
84
82
138
140
141
141
140
141
146
155
165
173
176
174
167
155
143
132
124
120
119
119
117
111
105
103
108
119
134
146
151
148
136
121
112
111
115
118
115
105
92
81
74
72
75
80
85
89
90
92
95
100
106
111
113
113
110
106
102
98
97
98
102
108
114
119
123
125
127
129
134
141
150
161
172
183
194
204
213
220
223
222
215
205
192
178
168
162
160
154
143
127
112
100
92
88
87
88
88
89
88
86
150
153
154
153
151
150
153
160
168
174
176
172
163
152
139
128
120
115
112
112
110
105
99
97
101
113
128
141
148
146
134
118
106
102
103
104
101
92
83
75
73
75
81
90
99
104
106
106
107
111
117
124
129
132
130
124
118
111
107
106
110
116
122
127
131
134
136
138
141
146
154
163
173
183
193
201
209
215
218
218
214
207
197
186
178
174
170
162
147
128
111
98
90
86
86
87
89
90
89
88
158
163
166
166
163
161
161
166
172
176
175
169
159
148
136
125
116
109
105
103
102
98
94
92
98
111
126
139
146
143
131
115
101
94
92
91
87
81
75
72
75
82
93
105
116
123
125
124
123
125
130
138
146
152
151
146
137
127
120
117
120
126
133
140
145
149
151
152
153
156
161
167
174
182
189
195
201
205
208
210
211
208
202
195
189
185
179
167
149
128
109
96
88
84
83
85
88
90
90
88
163
169
174
175
174
171
170
173
177
179
175
167
156
144
133
122
112
104
98
95
94
91
88
90
98
112
126
137
142
138
126
110
95
84
79
77
74
71
70
73
81
93
106
119
130
138
140
139
138
139
144
153
164
172
173
167
156
143
132
127
129
136
144
152
159
163
165
165
166
168
171
174
178
182
185
188
191
194
197
202
206
207
206
202
198
193
184
169
147
125
107
94
86
82
81
82
85
87
87
87
165
171
177
180
180
178
177
179
181
181
175
166
155
144
133
123
112
101
93
89
87
85
84
88
98
112
125
133
135
131
120
104
88
76
69
66
64
64
67
75
87
100
114
126
137
144
148
148
148
151
158
169
182
191
193
187
173
157
144
137
137
143
151
160
166
170
172
173
174
176
178
180
181
181
180
180
180
182
186
192
199
204
205
205
202
197
185
167
144
122
104
92
85
81
79
79
81
82
83
83
164
171
177
180
181
181
181
183
184
183
177
168
157
146
136
125
113
101
91
84
81
79
79
84
95
109
120
125
125
120
111
98
82
69
61
58
58
61
68
78
90
103
114
124
133
140
145
148
150
156
166
181
195
206
208
201
186
168
154
146
144
149
156
162
167
170
171
172
175
178
182
183
181
177
173
169
168
169
174
182
189
196
200
202
200
194
181
162
139
118
102
91
85
81
78
77
77
78
78
78
163
169
175
179
180
180
181
184
186
185
180
170
159
148
138
127
115
102
90
81
76
73
73
78
88
101
109
112
111
108
102
91
77
65
57
55
57
62
69
79
90
100
109
116
124
130
136
141
147
156
170
187
203
213
215
207
192
175
161
153
152
154
158
161
163
163
163
165
169
174
179
180
177
170
163
157
154
156
162
169
178
185
191
194
193
186
173
155
134
114
100
91
85
81
79
77
75
74
74
74
161
167
172
176
177
177
179
183
186
186
182
173
161
149
138
127
115
103
91
80
72
67
65
69
77
88
95
97
96
94
90
82
72
62
56
56
60
65
72
80
89
96
103
109
116
123
131
137
145
156
172
189
205
214
214
205
190
176
165
159
156
157
157
157
156
153
152
154
160
167
173
174
170
161
151
144
141
144
150
157
165
173
180
183
181
174
162
146
127
111
99
91
86
82
79
77
74
73
72
72
159
165
170
172
172
173
176
180
184
186
182
173
161
149
137
126
115
103
91
79
69
61
57
59
65
73
79
80
80
78
77
73
66
60
58
61
66
71
77
83
89
95
101
107
115
123
132
141
150
162
177
193
206
211
207
195
181
169
162
158
156
155
153
150
146
142
140
143
150
160
167
168
162
151
140
133
132
135
142
149
155
163
169
172
170
162
151
136
121
108
98
91
86
83
80
77
74
73
72
72
158
162
166
168
168
168
171
176
181
183
180
172
161
148
136
125
115
105
93
80
67
57
51
51
55
61
66
67
66
66
65
63
61
59
61
66
73
80
85
90
95
102
108
114
122
132
142
152
162
174
186
198
206
205
197
183
169
159
154
152
151
148
145
141
135
131
130
134
143
154
161
161
154
142
131
126
127
133
139
144
149
154
159
162
159
152
141
128
115
104
96
90
86
82
79
77
75
73
73
73
154
158
161
162
162
163
166
171
176
179
176
170
159
147
136
126
117
107
96
82
68
56
48
47
50
56
60
62
62
61
61
61
61
62
67
74
82
90
96
101
107
114
121
128
136
145
155
166
176
186
195
202
203
198
186
170
156
148
144
142
141
139
135
131
125
121
121
126
135
146
153
152
144
133
124
123
128
136
142
145
146
149
152
154
152
145
133
121
109
100
93
88
84
81
78
76
74
73
73
74
150
153
155
155
156
157
161
166
171
173
171
166
158
147
137
127
118
109
98
84
70
57
49
47
51
58
64
67
67
67
66
67
68
71
76
83
92
100
107
114
121
129
137
144
151
159
168
177
186
193
198
199
196
188
175
160
147
138
134
132
130
128
125
121
116
112
112
118
126
136
142
141
133
124
118
121
130
141
148
149
148
147
148
149
147
139
128
115
104
96
90
86
82
79
77
76
74
74
74
74
145
147
148
149
150
152
156
160
164
165
164
161
155
147
138
129
120
111
100
86
72
60
53
52
57
65
73
79
81
81
81
82
83
85
89
94
102
110
118
126
135
143
151
158
165
170
175
182
188
192
192
188
183
175
165
152
140
130
124
121
119
117
114
110
106
104
104
109
116
124
129
128
122
116
114
121
133
146
154
155
151
147
146
145
142
134
122
110
99
92
87
83
80
77
76
74
73
73
73
73
139
140
141
142
144
148
151
154
156
156
156
155
152
147
140
133
125
115
103
89
75
63
56
55
62
72
83
92
97
99
101
101
102
103
104
108
113
120
127
134
143
151
160
167
172
174
175
178
181
182
179
173
166
160
153
145
135
125
117
111
108
105
102
99
97
95
97
100
106
112
116
116
113
110
112
122
136
150
159
160
154
148
143
139
134
126
115
104
95
88
83
80
77
75
73
72
72
71
71
72
135
135
136
137
140
143
146
148
147
146
145
146
146
144
140
135
129
120
107
92
76
63
56
56
64
76
90
101
109
115
118
120
120
119
119
120
122
126
130
136
144
154
163
170
171
169
167
166
167
167
163
156
149
145
142
138
130
120
110
102
97
93
91
90
90
91
94
97
101
105
107
108
107
108
114
125
140
155
163
163
156
146
138
131
125
117
108
99
91
86
82
78
75
73
72
70
70
69
69
69
131
131
131
132
136
140
142
141
138
134
133
134
137
138
138
136
132
124
111
93
75
61
54
55
64
78
93
106
116
124
130
133
132
130
128
127
126
126
128
132
140
151
162
167
165
159
153
150
151
151
148
141
135
131
131
130
125
115
104
94
86
83
83
85
89
94
98
102
104
105
106
107
109
113
120
132
146
160
167
166
156
144
131
122
114
107
101
94
88
84
80
77
74
71
69
68
67
67
67
67
128
127
127
129
133
138
139
136
130
123
120
120
124
127
131
132
131
125
111
93
73
58
51
53
64
80
96
111
122
131
137
139
137
133
129
126
123
121
121
126
135
148
159
162
156
146
137
134
135
137
135
130
124
121
121
122
118
109
98
86
79
77
81
87
95
104
110
114
115
115
114
115
117
122
130
142
155
167
172
169
158
142
126
114
105
99
94
89
85
82
79
76
73
71
68
66
65
65
65
65
124
123
124
127
132
137
137
132
123
114
108
107
110
115
121
125
127
122
110
91
71
56
49
52
64
81
100
116
129
137
141
140
134
128
123
118
115
112
114
120
132
147
157
158
148
135
124
120
122
126
126
122
116
113
113
113
110
102
91
81
75
77
85
96
107
118
126
130
130
128
126
126
128
133
141
152
164
175
179
174
161
144
126
111
101
94
89
85
82
80
78
76
74
71
68
66
64
64
63
63
119
119
121
126
132
136
136
129
118
106
98
95
97
102
110
116
120
116
105
88
69
54
47
51
63
81
102
120
134
142
143
137
128
119
112
107
104
103
107
117
132
147
155
153
142
126
114
109
111
116
118
115
110
106
105
105
101
94
84
76
74
80
92
106
120
131
139
141
141
138
137
136
138
143
151
161
174
184
187
182
168
149
129
112
99
91
85
81
78
77
76
76
74
72
69
67
65
64
63
62
114
115
120
126
132
136
133
125
113
101
90
85
86
91
99
107
111
109
98
82
65
52
47
51
63
82
104
123
138
144
143
135
122
110
101
95
93
95
103
115
131
146
152
148
135
119
107
101
103
108
110
109
104
100
98
96
92
85
77
73
76
86
101
116
130
139
144
145
143
141
140
141
144
150
158
169
181
191
195
189
175
154
133
114
100
90
84
79
76
75
75
75
75
73
71
69
66
65
63
62
110
114
120
127
133
135
131
121
108
95
84
77
77
82
90
98
103
100
90
75
60
50
47
53
67
86
108
126
139
143
140
130
117
103
92
85
84
89
99
113
129
141
146
142
129
113
100
94
95
99
102
101
97
93
90
87
83
76
71
72
79
93
108
123
134
141
143
141
138
136
137
140
146
153
163
175
186
195
198
192
178
157
135
115
100
90
83
77
74
73
74
75
75
74
72
70
68
66
65
64
112
117
123
129
134
134
129
118
105
91
79
72
70
74
83
91
96
94
83
69
56
48
48
56
72
92
112
128
137
139
134
124
111
97
85
78
78
84
96
110
124
134
138
134
122
107
94
87
87
90
93
92
88
84
81
77
73
68
66
71
81
96
111
124
132
136
136
132
129
128
130
137
146
156
168
179
189
196
196
189
174
154
132
113
98
88
80
75
72
71
72
74
74
74
72
70
69
68
67
66
120
123
128
132
135
133
127
117
104
90
77
68
65
68
75
84
89
87
78
65
53
47
48
58
75
95
114
127
134
133
127
117
105
92
80
73
74
81
92
104
116
124
128
125
114
100
87
80
78
80
82
81
78
74
70
67
64
62
63
70
81
95
108
118
124
126
124
121
119
120
125
135
147
160
172
182
190
193
191
182
167
147
126
107
93
84
77
72
69
68
70
72
72
72
70
69
68
68
68
67
131
132
134
134
134
130
124
115
104
91
78
67
61
62
68
75
80
80
73
64
54
48
49
57
72
90
107
120
125
124
118
110
99
87
76
69
71
78
88
98
107
114
117
115
106
93
80
72
69
70
71
70
67
64
62
60
59
59
63
69
79
89
100
107
111
112
111
110
111
115
124
136
150
164
175
184
188
187
182
171
156
137
118
101
88
79
73
68
66
65
66
68
69
68
67
66
67
68
68
69
142
141
138
135
130
125
119
112
104
93
81
68
59
56
59
64
69
70
67
61
54
49
48
52
63
78
93
105
112
113
108
101
92
81
70
65
67
74
83
91
97
102
106
104
97
85
73
65
62
62
62
61
59
58
57
58
60
63
66
71
76
83
90
95
98
100
100
102
106
114
126
140
155
168
177
182
183
179
172
159
144
127
110
95
84
76
70
65
63
62
62
64
64
64
63
63
64
66
67
68
150
147
142
134
126
118
111
106
101
94
83
70
58
51
50
52
55
58
58
57
53
48
45
47
53
63
75
86
94
97
96
91
83
73
64
59
61
68
75
81
85
90
94
94
88
77
67
61
59
59
59
59
59
58
60
64
68
72
75
76
78
81
85
88
90
92
95
99
107
117
131
145
159
170
176
179
177
171
161
147
132
117
103
91
81
74
68
64
61
59
58
59
59
59
58
59
60
63
65
67
155
150
142
132
122
111
103
98
95
91
84
71
58
47
42
41
43
45
48
50
49
46
42
40
42
48
57
66
75
80
82
79
73
64
56
53
55
60
65
69
73
77
81
82
77
69
62
60
61
63
64
65
65
66
70
75
82
86
87
87
86
86
87
89
91
93
97
103
112
123
136
150
161
169
173
173
170
163
152
137
122
109
97
87
79
73
67
63
59
57
56
55
55
54
54
55
57
59
62
64
156
150
142
131
119
107
97
91
88
87
82
72
59
46
37
34
34
36
40
43
44
42
39
36
36
38
44
51
58
65
69
69
64
57
50
48
50
53
56
58
61
64
68
70
67
63
61
63
68
73
76
77
78
80
85
92
99
103
104
102
100
98
98
99
99
101
104
111
120
130
142
152
161
165
167
167
163
156
144
130
116
103
93
85
78
72
66
62
58
56
54
54
53
52
52
52
53
55
58
60
152
146
139
130
119
106
94
86
82
82
80
72
60
46
35
30
29
31
36
40
42
41
38
35
33
34
37
42
49
55
61
62
58
53
48
48
49
51
52
52
52
54
57
59
60
60
63
70
79
86
91
92
93
96
101
109
117
121
121
119
116
115
114
113
112
113
115
120
128
136
145
152
157
160
161
161
158
150
138
124
110
99
90
83
76
70
65
61
58
57
56
55
55
54
53
52
52
52
53
55
144
140
134
127
119
108
95
84
77
76
75
70
59
45
34
29
28
32
38
44
47
47
44
40
37
36
38
42
47
52
56
57
55
51
50
53
57
58
57
54
51
50
50
53
56
61
69
81
92
101
106
108
109
112
119
128
136
140
139
137
134
133
131
128
126
124
125
129
134
140
145
149
152
155
156
156
153
145
133
119
106
96
87
81
75
70
65
62
60
60
60
60
59
58
56
54
52
51
50
51
137
132
128
124
119
109
96
83
74
70
69
65
56
44
34
29
30
37
46
54
59
59
55
49
45
43
45
48
50
52
54
55
53
52
55
62
70
73
71
65
58
52
49
50
55
64
77
91
104
113
118
120
122
126
134
144
152
155
153
150
148
146
143
139
134
131
131
134
137
141
143
145
148
151
154
154
149
139
127
114
102
93
85
79
74
69
66
64
65
66
67
66
65
63
61
57
53
49
48
47
129
124
121
120
117
110
97
83
71
65
62
59
52
42
33
30
34
43
55
66
74
75
70
62
56
54
56
58
58
56
55
54
53
54
62
74
85
91
90
82
71
59
52
51
56
67
82
98
111
119
123
126
130
136
146
156
163
164
161
157
153
150
146
141
136
133
133
135
137
139
140
141
145
149
152
151
144
133
121
109
98
90
83
77
72
69
67
68
70
72
74
73
72
69
65
60
54
49
46
44
122
117
115
115
115
109
98
83
69
60
56
52
47
39
33
32
37
48
62
76
86
89
84
75
67
65
67
70
69
66
62
59
58
60
69
84
99
108
109
100
85
68
56
52
57
68
83
98
110
117
122
125
131
140
151
162
167
166
161
155
150
147
142
136
132
129
130
132
133
134
136
139
144
149
151
148
139
127
115
104
95
87
81
75
72
70
70
73
76
78
79
78
76
72
68
62
55
49
45
43
113
110
109
111
111
107
96
81
66
55
49
45
41
36
32
32
39
51
66
82
94
99
95
86
78
75
79
83
84
82
78
74
70
71
78
93
109
121
123
114
96
77
61
54
56
65
79
93
103
110
115
120
127
138
151
161
166
163
156
148
141
136
132
127
124
123
124
127
129
131
134
139
145
150
150
144
133
121
109
99
91
84
79
74
71
71
73
76
79
81
81
80
78
74
69
63
56
50
45
42
102
102
103
105
106
101
91
77
62
50
43
39
36
33
32
35
42
55
70
86
100
107
104
95
86
84
88
95
100
101
100
96
90
87
90
101
116
128
131
122
104
83
66
56
55
62
73
85
94
101
106
113
122
133
145
155
159
155
147
137
130
125
120
117
115
116
118
121
125
130
136
143
150
154
151
143
130
117
106
97
89
83
78
74
73
73
76
79
80
81
81
79
77
74
70
64
58
52
46
43
90
93
96
99
98
94
85
72
57
45
38
35
33
33
34
38
47
60
76
92
106
113
111
102
93
90
95
105
114
120
122
120
114
107
104
111
123
133
135
126
109
88
71
59
55
59
67
77
86
93
99
107
116
127
137
146
149
145
137
127
119
113
109
107
107
109
113
118
125
133
141
149
156
159
154
144
130
116
105
97
90
84
80
76
75
75
77
78
78
78
77
76
74
72
69
65
59
53
48
44
79
85
90
92
91
86
77
65
52
41
34
33
33
35
38
45
55
68
84
100
113
120
118
109
99
95
100
111
123
133
139
140
135
126
121
123
132
140
139
129
112
93
76
63
57
57
62
70
78
86
94
102
111
119
127
134
136
133
126
116
108
103
100
99
101
106
112
121
130
141
150
158
163
164
159
147
133
119
108
100
93
88
83
80
78
76
76
75
74
73
71
70
70
69
68
65
60
55
49
45
71
78
83
85
82
77
70
60
48
38
33
33
36
40
45
52
63
77
92
108
121
127
124
115
105
100
105
115
128
141
151
155
152
144
137
138
143
148
145
134
116
98
81
68
59
56
58
64
72
81
90
97
104
110
115
120
122
120
113
105
98
93
92
95
100
108
117
129
141
151
159
164
167
167
162
151
137
124
112
104
98
93
89
85
82
78
74
71
69
66
65
64
64
65
65
63
59
54
49
45
66
72
76
76
73
69
64
55
44
36
32
34
40
47
53
61
71
84
99
115
127
133
131
122
112
108
111
121
133
146
158
164
163
157
151
150
153
156
152
139
121
103
86
72
61
55
55
59
67
76
84
91
95
99
102
106
107
105
99
93
88
86
89
95
104
116
128
141
153
162
167
168
168
168
164
154
141
128
117
109
104
100
97
93
87
80
73
68
64
61
59
58
59
60
61
60
57
52
47
43
62
66
68
66
64
62
58
51
42
34
32
37
45
54
62
70
79
91
106
120
133
139
138
130
122
118
120
129
140
152
162
168
168
164
158
157
159
161
156
144
126
107
90
75
64
56
53
56
61
69
76
81
84
86
89
91
92
90
86
82
80
83
90
102
115
129
142
153
163
169
170
168
166
165
162
155
144
132
122
115
111
109
107
102
94
84
75
67
62
58
55
54
54
55
57
56
54
50
46
42
60
61
60
57
55
55
53
48
40
33
32
38
49
61
71
80
88
99
112
126
138
144
144
139
132
128
130
136
146
155
163
168
167
163
159
157
159
161
158
148
131
113
95
80
68
60
55
54
57
62
67
71
73
74
76
77
77
76
74
73
75
83
96
113
130
143
153
162
168
171
169
164
161
159
158
152
143
133
126
121
120
119
117
111
102
91
80
71
64
58
54
52
51
52
53
53
52
48
45
42
58
58
54
51
49
49
48
44
37
32
32
39
51
65
78
88
97
107
119
131
142
149
150
146
140
136
137
141
148
155
160
162
161
157
154
153
155
159
158
151
136
119
102
87
75
65
59
55
54
55
58
61
64
66
67
68
67
66
66
68
74
87
106
127
144
154
160
164
167
168
165
159
154
152
151
147
140
133
128
126
126
127
125
119
110
98
87
77
68
60
54
51
49
48
49
50
49
47
44
42
57
55
51
47
45
44
44
40
35
31
33
40
52
68
82
94
104
114
123
134
144
151
153
151
146
141
139
140
145
149
152
153
151
148
145
145
149
155
158
154
143
127
111
96
84
73
65
59
54
52
53
56
60
64
66
66
66
65
65
69
79
97
119
141
155
161
161
160
161
161
157
151
146
144
142
139
135
130
128
128
129
130
129
124
116
105
93
82
72
62
54
49
46
45
45
46
46
46
44
43
53
51
47
44
42
41
40
38
34
32
35
43
55
70
85
98
109
118
126
134
143
150
154
153
147
140
136
134
136
139
141
141
139
136
134
137
143
151
158
157
149
135
119
104
91
80
71
63
56
52
52
56
62
67
71
73
73
72
73
78
90
110
134
154
164
164
159
155
153
152
148
143
138
134
132
130
127
125
124
126
128
129
129
125
117
107
95
83
72
62
53
47
43
42
42
43
44
45
45
44
46
45
43
41
40
41
40
39
37
37
42
51
63
76
90
102
111
119
125
132
140
148
152
151
146
137
130
126
126
128
129
129
127
126
126
130
139
149
158
160
154
141
125
110
97
86
76
68
60
55
54
57
64
71
78
82
85
86
87
92
104
125
148
165
171
167
158
150
145
143
139
135
130
126
123
121
119
119
120
122
125
126
126
123
115
104
92
80
69
59
50
44
41
39
39
40
42
43
44
44
37
37
37
37
39
42
44
44
44
47
53
63
74
86
97
106
113
118
122
129
136
144
148
148
143
134
125
118
116
116
117
118
117
118
121
128
138
150
159
163
158
146
131
116
103
91
81
73
65
60
57
58
63
71
80
89
95
99
102
108
121
139
159
173
176
169
157
146
138
134
131
127
123
118
115
112
112
112
115
117
120
122
122
118
109
97
84
72
62
54
47
42
39
37
37
38
39
40
41
41
29
30
30
33
38
44
48
51
54
59
67
76
87
96
104
109
112
114
118
124
132
139
143
143
138
130
120
111
106
105
107
108
110
114
121
130
142
153
163
167
163
152
137
122
108
97
87
80
73
66
60
58
60
66
76
87
99
108
116
124
136
151
168
178
178
169
156
143
133
127
123
120
116
112
108
105
105
107
110
114
117
119
117
112
102
88
75
64
55
49
44
40
37
35
35
35
36
37
38
38
27
27
27
31
37
45
53
59
64
70
78
86
95
102
107
109
109
109
113
119
125
131
134
135
132
125
116
106
99
97
98
102
108
116
126
138
149
160
169
173
170
160
145
130
115
104
95
88
82
74
66
59
57
60
68
81
96
111
124
135
146
159
172
180
178
168
154
140
128
120
115
112
109
105
102
100
100
103
107
111
114
115
112
104
93
80
67
58
51
46
42
39
36
34
33
33
34
34
35
35
30
28
27
29
35
43
53
62
69
76
83
91
98
103
105
104
102
102
106
111
117
120
123
124
123
119
110
100
93
90
93
100
110
122
134
147
158
168
176
179
177
167
154
138
124
113
105
99
92
83
73
63
57
56
61
73
89
108
124
138
149
161
172
179
177
167
152
136
123
113
107
104
101
98
96
95
96
99
104
108
110
108
103
94
83
71
61
53
47
44
41
39
36
34
32
32
32
32
32
33
37
33
29
28
31
38
48
58
68
75
82
89
95
98
98
95
93
93
96
101
105
107
109
112
113
111
104
95
87
86
91
101
114
128
142
154
164
172
179
182
181
174
162
147
134
124
117
110
103
93
81
70
61
57
57
65
80
99
117
131
143
155
167
176
176
166
150
132
117
107
100
96
94
92
91
92
94
98
101
104
103
100
93
83
72
63
55
49
45
42
40
38
35
33
31
31
30
31
31
31
45
39
32
27
26
30
39
49
60
69
76
83
87
89
87
83
80
80
83
86
89
92
95
99
103
103
97
89
83
84
91
103
117
131
145
156
165
172
178
182
182
178
170
158
147
138
130
123
113
102
90
78
68
60
56
60
72
88
105
119
132
146
160
171
173
164
148
129
113
101
93
89
87
87
88
91
95
99
101
99
95
89
80
71
63
56
50
46
43
41
39
37
34
32
31
30
30
30
30
31
52
44
35
27
23
24
30
39
50
60
69
75
78
78
74
69
66
66
68
71
73
76
81
87
92
93
89
83
79
81
90
102
116
130
141
151
160
166
172
177
181
181
177
170
162
153
145
136
125
113
101
89
77
66
59
58
65
77
91
105
118
134
151
164
167
159
143
124
108
95
88
83
82
84
88
94
99
102
100
95
86
77
68
60
54
48
45
42
40
39
37
35
33
31
30
29
29
30
30
30
54
46
37
27
21
20
23
32
43
54
62
67
68
65
60
55
53
52
54
56
58
62
68
75
81
83
80
75
74
78
87
99
111
123
134
143
151
157
164
170
177
182
183
180
175
169
160
150
138
125
113
100
87
73
62
57
59
67
78
91
105
122
140
153
156
149
134
117
102
90
83
79
80
84
90
97
102
103
98
89
77
66
58
51
46
43
40
38
37
36
34
33
31
30
29
29
29
30
30
30
57
49
39
30
22
18
20
28
39
49
55
57
56
52
47
44
42
42
43
45
47
51
57
64
69
71
69
67
68
74
82
92
103
114
124
132
140
147
154
162
172
180
185
187
185
182
174
164
152
139
126
112
96
81
67
59
57
61
69
79
93
109
125
136
138
132
120
106
94
85
79
76
78
84
92
99
102
100
92
81
68
58
50
44
40
38
36
35
34
33
32
31
30
29
29
29
29
29
30
30
59
52
43
33
25
20
20
27
36
45
49
48
44
40
37
36
37
39
41
42
42
44
48
53
57
59
60
61
64
70
77
85
94
104
113
121
129
136
145
155
166
176
183
188
191
190
186
177
165
152
137
122
105
88
74
64
60
60
64
71
82
95
108
116
117
112
104
94
86
79
75
74
78
85
93
97
97
92
83
71
59
50
43
39
36
34
33
32
32
31
30
29
29
28
28
28
29
29
29
29
64
58
49
38
28
21
20
25
33
40
41
39
35
32
32
34
38
43
47
47
46
45
46
49
52
54
56
59
63
69
74
79
86
94
102
110
118
126
136
147
159
170
179
187
192
195
194
188
176
162
147
130
114
98
84
75
70
67
66
68
74
82
91
96
97
94
89
83
78
74
72
74
78
85
91
93
90
83
72
61
51
43
38
35
33
31
30
30
30
30
29
29
28
28
28
28
28
28
28
29
71
64
54
43
31
22
20
23
29
33
33
31
28
28
31
37
45
53
58
59
57
53
52
52
55
59
62
66
70
74
77
79
83
89
95
102
111
120
130
142
154
165
175
183
192
197
199
195
185
171
156
140
125
110
99
91
86
81
75
72
71
74
79
83
84
83
81
78
76
73
73
75
80
86
90
90
84
75
64
53
44
38
34
32
30
29
28
28
28
28
28
28
28
28
28
28
28
28
28
28
76
69
58
45
32
23
19
20
24
27
27
26
26
29
35
44
54
64
71
73
72
69
66
67
70
74
78
81
84
86
87
87
88
91
96
102
110
119
130
141
152
162
172
182
191
199
202
200
193
181
167
152
139
127
118
112
106
100
90
81
75
74
76
79
82
84
84
82
80
77
76
78
81
86
90
89
82
72
60
48
40
35
31
29
28
27
27
27
27
27
27
27
27
27
27
27
27
27
27
28
78
70
58
45
32
23
19
20
22
24
25
26
28
34
42
52
63
74
82
87
88
87
86
87
90
94
97
99
101
101
101
101
102
103
106
110
117
126
136
145
154
163
172
182
192
200
204
204
199
190
179
167
156
146
139
134
129
121
109
96
86
82
82
85
89
93
94
93
90
86
83
82
84
86
89
88
82
72
58
47
38
33
30
28
27
26
26
26
26
26
26
26
26
26
26
26
26
26
27
27
72
65
54
42
31
24
21
22
24
27
30
32
36
43
51
61
72
82
91
98
102
104
106
108
111
113
114
114
114
115
116
118
119
121
123
126
132
139
147
154
161
168
175
184
192
199
205
206
205
200
192
183
174
166
160
156
150
141
128
113
101
94
94
97
102
107
110
109
104
97
91
86
84
85
87
86
81
71
58
45
36
31
28
26
25
25
24
25
25
25
25
25
25
25
25
25
25
26
26
26
62
56
48
39
30
25
24
27
32
36
40
44
49
55
63
72
82
92
101
108
114
118
121
124
126
126
124
122
122
123
126
130
135
138
140
144
148
153
160
166
171
175
180
186
192
198
203
207
208
206
202
196
189
183
178
174
168
158
144
129
116
109
108
112
118
123
126
124
117
107
96
88
83
81
82
82
78
68
55
43
35
29
27
25
24
24
24
24
24
24
25
25
25
25
25
25
25
25
25
26
51
47
42
36
30
26
27
31
39
47
53
58
63
69
76
84
93
102
110
118
123
128
131
133
133
131
128
124
123
124
130
137
144
149
153
157
161
166
171
176
179
182
184
187
191
196
201
205
208
210
209
206
201
197
194
189
183
173
159
144
131
124
123
128
133
138
140
137
127
113
99
88
80
76
76
76
72
63
52
41
32
28
25
24
23
23
23
23
23
23
24
24
24
24
24
24
24
24
25
25
43
42
39
35
30
27
28
34
45
55
64
70
75
81
88
95
104
112
119
125
131
134
136
136
134
131
127
122
120
122
129
138
147
155
160
164
168
173
178
183
185
186
187
188
190
194
199
204
208
211
212
212
210
207
204
200
193
183
170
155
142
136
136
141
145
149
150
146
134
117
100
86
76
71
70
69
66
58
48
38
30
26
24
22
22
22
22
22
22
23
23
24
24
24
24
24
24
24
24
24
