P2
# CREATOR: GIMP PNM Filter Version 1.1
80 80
255
168
199
207
208
209
205
209
212
204
184
186
203
203
196
202
174
127
132
155
150
185
148
124
131
123
86
113
141
143
145
154
148
147
156
145
124
145
152
158
145
88
83
122
147
160
160
145
148
153
125
131
134
142
124
112
89
120
133
125
128
137
134
92
93
147
141
148
149
139
149
160
155
139
129
113
109
132
138
121
102
197
203
204
205
192
193
207
214
210
186
150
148
155
149
151
155
129
121
159
157
173
145
126
113
117
83
117
139
141
134
150
138
140
158
147
118
132
142
153
149
118
74
103
131
141
160
158
134
139
141
112
134
153
128
117
89
102
117
113
120
131
128
91
94
129
123
150
141
143
151
158
149
149
143
132
110
127
115
100
92
206
196
199
201
177
194
216
213
230
209
191
151
132
128
120
113
113
117
136
140
168
160
138
123
97
77
117
135
142
130
147
136
137
159
159
138
112
137
153
139
116
82
82
110
127
158
151
141
136
137
128
127
149
109
88
77
86
95
100
110
122
122
89
85
112
130
147
129
141
151
157
142
137
132
132
107
100
101
86
83
198
189
181
186
172
204
218
202
230
229
195
173
186
162
147
131
108
89
100
131
146
147
139
128
108
81
120
139
146
122
137
123
139
155
158
142
117
122
149
154
137
87
70
125
148
161
155
123
125
125
137
117
123
90
74
71
82
90
95
101
110
111
83
87
115
143
136
130
145
153
158
144
135
116
120
106
89
79
84
130
198
200
167
157
176
200
190
200
214
225
206
200
207
199
181
159
134
111
85
116
134
133
126
123
106
76
112
136
141
120
136
115
131
149
157
155
151
118
121
139
124
95
70
133
162
155
157
145
116
113
138
106
83
73
68
73
79
81
88
94
100
98
74
87
118
130
117
134
146
149
151
135
131
117
107
94
85
93
144
164
196
198
184
146
180
184
192
202
205
208
210
209
206
204
164
134
121
115
87
99
128
136
131
118
95
71
95
116
115
121
138
121
141
154
155
135
131
134
105
111
120
92
76
137
150
135
145
156
126
117
128
102
76
69
71
72
71
74
81
88
95
85
72
85
102
111
116
134
130
146
142
122
80
79
88
78
87
132
156
151
179
198
191
149
145
169
198
204
208
210
209
208
191
190
196
173
138
112
95
87
109
125
137
137
101
66
102
119
120
140
139
125
143
157
160
153
139
128
115
87
112
83
83
152
155
123
101
119
109
108
117
102
90
72
71
71
70
72
80
85
85
77
80
100
110
113
127
127
138
143
135
110
73
73
72
76
133
157
151
134
176
194
193
147
144
178
186
196
209
210
204
205
187
173
193
175
147
144
117
87
111
129
139
139
96
79
139
147
146
142
124
118
143
151
160
152
155
154
133
97
75
76
109
156
146
91
68
74
77
85
88
96
96
77
71
71
70
71
79
80
82
75
78
96
108
116
124
113
130
127
102
83
72
76
73
96
140
144
140
128
155
183
185
152
135
154
188
199
208
209
181
171
182
152
171
165
146
160
135
90
92
113
135
137
88
77
124
142
150
149
120
116
140
149
155
151
137
136
129
96
64
86
143
144
114
66
70
68
65
69
71
86
84
75
71
72
71
72
76
74
77
71
77
84
90
95
103
103
100
95
77
75
74
78
73
105
138
135
120
126
139
169
152
130
156
186
201
207
208
207
199
159
157
143
140
160
137
124
115
91
72
96
120
126
91
65
120
142
135
147
109
118
150
158
149
145
147
115
109
78
64
121
156
136
96
70
72
80
75
69
66
68
70
70
74
69
67
80
107
84
71
72
76
87
85
79
82
85
76
74
77
83
81
77
76
90
118
139
120
136
135
151
131
118
163
197
205
208
195
189
194
153
134
125
127
140
140
126
105
109
92
68
77
86
78
64
125
135
121
124
89
138
161
153
138
139
150
135
96
66
88
146
150
138
117
75
73
84
89
92
91
86
84
73
86
79
101
141
165
140
90
68
82
84
88
66
36
35
67
78
77
79
83
83
84
90
101
118
111
122
135
114
108
118
147
185
205
204
192
164
173
169
150
125
123
131
133
126
120
121
116
104
75
72
62
57
104
129
91
77
103
148
157
137
139
124
133
136
125
66
83
138
140
128
119
76
73
86
103
102
103
113
138
138
143
141
147
167
168
173
137
95
76
70
77
70
34
32
69
71
85
90
83
81
83
87
88
87
93
95
118
105
123
133
155
192
205
202
203
171
141
138
148
143
117
121
133
130
131
134
136
136
126
130
89
59
66
89
68
115
145
155
153
123
145
125
106
121
121
68
71
126
136
114
123
81
76
80
100
103
105
122
144
146
137
130
141
161
147
155
157
149
115
90
72
73
69
72
74
82
96
99
81
80
81
84
85
84
83
79
97
118
140
154
187
201
202
191
181
179
156
133
127
135
127
118
128
133
135
143
142
133
135
110
68
59
61
53
59
116
135
138
124
98
118
99
79
79
77
65
76
122
123
119
138
105
68
78
89
95
102
128
150
152
121
120
139
148
153
137
168
181
169
148
100
70
67
72
85
109
103
107
83
82
80
82
81
81
82
82
120
131
149
182
197
200
187
190
161
155
160
151
123
127
129
115
113
129
138
144
140
127
106
80
60
49
61
60
50
69
95
72
56
63
60
54
61
64
65
59
64
89
90
119
124
114
63
74
76
82
96
137
157
134
108
126
132
131
135
137
155
167
159
135
128
121
110
122
121
114
107
118
107
93
85
83
86
86
85
82
147
142
159
192
200
188
169
187
175
160
131
126
121
113
128
138
107
128
138
143
135
142
121
79
65
59
56
54
54
53
58
55
67
67
61
59
58
63
60
57
63
61
61
76
89
86
73
69
73
79
90
115
139
112
111
117
119
132
131
140
142
151
149
146
148
147
136
156
152
121
121
127
135
126
114
99
94
92
92
80
121
134
175
194
189
181
161
181
168
170
163
126
114
109
116
134
106
103
131
139
128
136
113
76
71
64
59
52
48
56
75
65
71
68
64
68
63
61
61
61
59
60
64
64
64
67
71
73
72
75
81
99
115
98
138
137
145
162
166
167
162
155
154
163
174
168
158
172
146
143
140
134
139
148
136
120
108
101
96
90
135
158
188
191
159
160
142
175
174
147
164
151
121
112
107
111
125
86
115
134
117
135
115
89
88
68
53
49
45
56
80
74
66
72
75
77
76
65
65
75
72
69
75
70
65
67
70
71
70
69
74
77
80
99
118
130
145
140
145
154
154
170
172
173
178
177
178
160
148
166
149
138
155
153
136
137
135
113
98
99
147
184
184
179
177
146
136
168
162
134
149
159
133
117
119
102
125
103
90
128
113
134
117
83
77
58
48
49
63
57
74
67
59
72
83
91
101
106
117
137
123
110
103
78
75
82
71
71
63
66
64
71
73
77
90
113
123
125
149
149
145
156
158
171
167
161
165
162
168
156
147
143
158
155
155
153
153
128
126
128
158
172
146
158
184
163
129
151
151
142
121
144
144
152
134
103
90
105
77
122
105
132
98
66
61
44
54
69
102
57
76
66
58
67
82
96
103
114
135
153
165
159
134
95
119
139
98
109
104
95
72
78
107
128
108
90
102
117
140
133
138
150
170
175
156
157
154
161
173
172
167
164
167
161
156
150
134
133
160
144
132
123
124
172
161
146
141
149
153
141
117
123
140
155
148
133
114
86
67
73
82
109
67
53
50
52
88
114
116
47
72
65
54
68
92
102
106
107
136
155
178
157
133
111
144
165
159
168
158
144
116
76
116
154
156
142
117
107
110
121
140
162
160
166
154
155
148
170
171
176
178
190
183
167
153
140
134
154
158
142
97
102
129
173
166
137
132
125
124
148
125
116
127
135
151
134
136
132
125
86
59
59
54
53
52
54
111
151
128
62
71
67
59
69
101
134
145
114
125
152
179
164
133
102
134
167
176
147
152
152
111
78
96
132
143
157
154
135
111
109
131
140
143
156
146
140
153
158
159
170
185
201
170
158
154
152
161
165
148
123
135
135
177
186
181
169
138
114
108
129
120
112
122
121
121
119
128
137
133
126
78
50
49
50
65
82
126
143
119
52
59
60
53
86
136
164
144
119
133
135
155
167
167
136
125
156
164
160
137
115
93
135
106
104
122
146
176
165
138
125
118
126
142
148
131
142
147
152
166
183
200
196
191
180
177
173
169
160
144
127
114
134
161
162
165
173
159
140
107
116
116
111
122
124
118
108
122
129
116
100
55
50
59
75
85
102
114
143
105
51
58
58
63
136
156
177
162
150
150
124
136
158
168
149
130
166
166
151
150
119
111
163
147
101
116
154
165
159
173
170
143
119
119
129
146
155
160
169
178
193
186
192
196
171
166
165
156
140
129
141
89
108
132
155
145
162
142
134
104
99
110
108
121
116
112
103
109
113
99
75
49
48
57
88
78
82
92
112
87
52
53
45
105
146
161
168
169
177
161
135
155
185
173
146
142
170
167
146
131
103
126
160
148
102
93
129
140
154
171
170
166
161
150
134
130
147
156
163
170
177
175
183
192
187
163
149
139
145
157
153
97
105
118
151
135
138
130
140
130
104
83
104
109
69
71
76
84
95
92
73
48
55
46
61
78
79
89
107
84
68
59
80
136
137
159
148
161
176
186
168
154
189
200
155
172
184
171
169
140
113
139
160
143
129
114
100
128
145
138
156
180
173
166
145
146
130
143
152
163
164
165
177
196
184
173
161
150
174
168
167
85
95
111
151
152
123
111
135
144
130
102
97
95
56
58
62
75
84
86
81
52
60
58
65
112
127
97
133
145
131
101
113
125
128
136
146
150
162
185
196
177
188
208
182
192
185
163
138
130
140
150
174
138
149
131
108
110
119
141
156
158
154
170
165
168
159
153
145
149
153
161
172
178
191
177
165
172
184
189
181
80
93
111
149
138
137
114
109
120
124
93
97
91
53
50
48
56
58
64
79
61
54
56
56
107
147
129
108
133
143
153
129
146
150
156
179
176
189
194
201
191
185
198
209
210
192
156
158
144
164
169
175
149
161
124
137
136
109
122
138
144
144
162
169
173
181
172
169
156
164
178
175
174
186
186
181
196
193
196
180
80
91
104
132
147
120
124
108
100
118
97
87
71
50
50
50
49
49
49
46
60
62
52
54
112
155
135
125
118
120
146
153
147
158
183
175
185
175
167
166
180
202
202
213
219
199
185
190
151
158
198
175
163
169
126
148
167
146
111
115
130
142
152
156
153
164
184
195
175
193
196
196
193
197
216
213
206
182
182
175
74
85
102
125
155
119
106
119
101
91
95
65
49
50
50
50
53
54
54
53
50
56
48
55
111
149
141
153
153
136
144
156
160
174
192
168
163
159
181
197
209
214
218
205
206
202
185
206
188
158
198
174
183
170
136
169
164
144
137
133
123
130
130
136
151
170
176
183
191
218
230
224
231
231
219
196
194
183
169
161
67
76
91
116
142
123
90
106
128
100
71
55
52
51
52
55
65
69
73
81
81
55
41
61
137
152
157
167
173
169
183
185
199
183
167
167
148
175
183
188
191
188
207
185
193
197
175
201
198
178
191
205
201
160
168
159
173
144
163
144
143
167
164
152
143
149
160
174
182
200
222
210
232
247
229
213
178
174
183
196
57
84
98
104
119
124
103
85
119
120
101
63
45
48
53
60
68
79
101
121
140
118
62
104
143
157
155
157
175
193
179
170
195
196
164
144
150
179
170
171
170
200
199
168
189
184
166
176
183
206
203
195
199
174
198
193
184
170
191
156
142
158
177
191
164
156
150
154
162
183
185
187
210
231
245
211
197
187
201
208
42
63
86
107
103
85
80
60
87
91
98
83
55
44
47
50
56
64
88
98
110
142
139
135
152
158
144
158
188
175
155
174
196
174
164
137
163
180
155
162
190
196
176
159
181
174
159
182
197
218
205
176
196
212
192
191
210
210
205
200
182
155
180
218
184
187
199
177
170
176
178
188
191
220
245
217
220
183
202
208
37
42
42
52
46
40
45
49
62
73
84
80
53
50
52
48
51
56
94
133
142
147
149
137
153
149
138
155
173
152
156
182
165
166
143
142
181
169
150
185
196
178
164
157
159
155
174
204
214
209
202
176
174
201
179
175
197
193
182
208
213
184
165
200
219
217
219
206
207
202
212
218
222
242
255
245
215
201
204
209
40
43
43
40
37
38
39
41
47
57
66
69
55
51
54
51
47
48
60
137
145
138
152
160
150
141
132
162
154
142
162
176
152
154
141
155
181
156
153
189
189
165
159
153
153
183
201
215
196
191
196
189
162
190
179
160
180
165
169
180
195
199
197
222
240
249
242
241
234
240
244
239
249
254
255
250
220
233
214
215
40
43
43
45
47
47
43
40
44
42
43
50
50
47
47
56
50
42
61
123
125
142
153
160
148
132
133
150
131
154
162
164
152
133
128
163
170
144
146
181
176
164
146
135
174
204
197
194
184
188
179
184
159
181
172
155
156
160
175
195
210
218
225
234
236
231
229
218
230
248
251
255
254
251
254
249
237
255
243
236
36
43
42
47
52
51
52
53
51
50
48
48
52
54
59
54
50
40
94
117
127
148
140
152
152
136
119
129
144
167
153
149
142
112
138
161
160
126
155
185
162
159
135
150
191
188
170
163
177
170
169
181
154
168
160
141
162
192
206
212
218
225
219
212
204
197
209
235
250
252
248
235
239
219
244
254
255
255
254
246
36
40
38
70
96
94
88
89
82
84
79
75
87
104
109
103
96
100
127
110
143
135
131
149
138
120
123
136
155
162
140
129
122
113
156
139
133
126
173
183
162
144
129
168
172
155
148
161
175
157
167
174
153
159
147
150
176
171
171
179
189
191
175
181
198
221
241
237
224
244
230
199
204
225
251
252
249
254
253
229
45
36
58
91
104
103
107
118
117
109
108
114
113
122
108
108
110
122
110
108
137
119
117
134
113
108
151
158
164
157
140
113
102
135
150
133
106
150
180
168
147
140
128
156
149
139
158
170
165
151
160
161
149
146
135
156
163
155
150
149
151
164
188
214
233
233
238
204
213
236
198
196
231
239
225
221
239
255
247
240
40
52
86
88
85
78
81
95
107
96
101
106
93
89
80
83
81
87
81
78
85
87
92
98
112
147
143
154
163
143
139
115
106
146
131
109
124
160
165
158
152
131
114
147
142
131
152
148
151
138
154
152
141
131
131
152
148
139
158
183
198
211
212
217
206
200
214
189
211
196
179
191
198
199
199
215
247
255
231
201
34
58
79
67
43
37
44
45
71
83
86
70
66
56
83
117
116
117
107
97
125
132
142
143
154
156
125
154
162
158
134
100
123
147
138
102
130
141
144
149
145
142
115
144
137
124
141
132
146
133
149
142
126
117
123
138
136
152
163
177
190
191
176
181
180
177
177
169
178
171
186
197
206
225
245
255
255
254
230
195
38
38
45
39
35
41
34
41
44
63
52
43
45
46
57
72
101
133
134
125
142
148
141
143
142
148
118
147
139
145
148
108
109
121
113
110
122
126
150
151
137
144
114
135
137
119
126
123
135
130
144
133
115
140
136
124
125
142
147
156
166
165
160
160
160
155
154
167
170
168
205
229
239
243
243
251
253
250
242
201
40
40
36
32
31
39
47
41
35
41
44
45
42
47
41
41
60
103
122
134
127
140
123
130
132
146
106
135
114
126
132
111
84
91
85
96
108
142
146
133
137
145
116
119
116
104
106
104
109
119
132
121
124
154
163
167
154
136
146
146
149
148
145
146
156
169
200
229
222
201
177
187
192
199
214
233
250
220
222
200
34
38
37
34
31
34
77
85
44
41
41
42
61
71
67
42
53
68
95
109
97
120
102
117
118
136
91
100
100
134
121
96
77
78
78
83
80
101
104
117
127
122
102
98
96
105
121
118
107
107
116
115
133
147
146
153
168
173
178
165
154
142
166
202
219
219
235
242
242
246
225
225
230
239
239
250
250
205
190
190
45
37
45
34
54
97
80
99
109
73
81
94
102
123
99
53
53
45
52
59
72
86
82
94
119
125
73
69
77
93
87
76
74
80
101
114
107
92
84
96
98
92
87
99
127
139
147
163
155
125
104
109
127
128
129
137
151
163
171
183
196
177
161
171
187
199
206
209
225
246
245
249
229
227
237
243
244
213
183
181
66
40
43
35
69
125
123
90
123
137
103
119
126
116
87
84
56
57
54
50
48
50
70
99
110
82
61
65
67
59
70
70
85
89
96
128
148
144
108
87
108
125
132
118
125
163
172
180
187
155
141
120
116
141
144
136
130
138
151
168
188
207
204
192
190
202
210
228
242
251
253
246
201
206
210
200
213
210
183
180
73
51
39
37
73
144
130
112
125
146
139
144
135
107
129
110
91
95
76
41
53
52
59
78
72
58
69
111
128
85
75
84
140
155
107
91
125
166
168
148
177
184
180
168
143
135
165
187
201
180
158
151
137
139
161
171
167
157
138
149
162
169
186
214
232
240
245
245
252
249
224
218
188
202
198
185
191
193
183
162
70
59
42
33
94
134
150
146
136
133
142
139
147
127
139
127
113
123
114
56
89
80
47
53
55
64
93
133
167
160
133
90
111
160
163
114
99
136
162
177
169
153
158
178
181
146
149
154
181
200
162
187
172
134
142
164
176
199
187
150
148
152
162
177
199
211
221
224
237
245
214
187
180
186
190
175
173
197
201
170
54
43
33
43
107
115
129
122
120
120
115
126
143
158
157
138
126
114
91
61
103
110
74
71
74
81
116
157
165
173
138
106
89
132
162
159
104
116
151
165
145
138
173
182
198
189
190
193
206
213
200
204
182
149
143
147
153
182
210
173
166
185
183
163
170
174
182
198
221
249
228
204
171
167
177
165
174
194
186
185
41
37
36
84
97
117
132
107
99
105
118
150
167
170
134
121
104
110
116
76
102
132
138
145
142
118
99
113
142
177
165
133
94
95
126
159
146
102
116
136
129
156
170
169
176
174
175
188
225
204
181
173
158
142
161
181
165
166
217
206
184
189
218
175
201
222
210
200
209
228
246
229
204
168
158
160
178
195
178
175
40
33
70
97
93
109
110
82
84
112
127
132
137
164
142
123
132
146
130
90
108
147
155
155
162
164
126
104
135
142
168
161
110
129
122
130
169
133
106
106
120
150
158
140
146
161
182
189
215
219
186
173
192
166
163
200
202
167
196
229
218
196
228
187
188
225
244
240
234
241
249
231
200
184
160
154
173
182
177
170
39
43
95
77
78
80
82
79
111
110
114
141
161
169
152
153
143
143
120
86
109
126
125
144
161
177
164
128
126
153
175
151
113
121
148
124
158
178
155
141
123
117
132
157
184
197
216
211
226
219
222
209
207
171
162
182
213
191
176
213
234
232
231
204
205
197
220
234
250
246
232
221
181
177
172
147
161
171
166
176
78
44
33
37
62
74
67
77
104
115
128
153
144
144
165
155
121
139
128
84
80
108
146
138
147
178
188
136
127
177
194
170
149
107
142
140
126
180
184
190
163
121
121
158
171
188
183
187
199
179
207
230
223
190
183
187
198
227
199
208
244
239
243
233
241
232
231
238
244
242
204
196
182
163
161
153
145
168
161
163
103
97
65
70
88
112
112
75
90
122
119
115
118
138
162
135
120
105
94
101
105
91
106
134
161
171
183
176
137
150
174
185
140
126
121
147
137
143
167
199
190
162
131
125
143
162
165
183
169
188
207
222
220
223
225
234
231
239
216
225
221
215
236
234
223
213
218
235
211
239
223
179
166
164
157
145
139
153
156
159
102
110
88
57
97
122
148
122
78
90
108
132
153
164
176
145
127
130
103
123
154
116
95
128
134
141
162
186
181
160
187
173
134
154
157
127
163
142
153
169
200
193
143
145
126
141
146
159
156
176
175
194
181
190
204
228
246
247
241
243
220
187
201
205
179
195
226
225
188
209
232
215
218
200
175
158
137
137
140
151
88
110
121
86
78
118
137
148
99
96
126
143
142
137
163
167
157
134
103
122
155
154
127
98
99
110
135
164
180
193
203
183
182
183
183
140
150
181
149
158
187
207
172
170
162
131
135
144
143
148
167
171
178
211
228
241
244
247
245
244
226
199
169
176
194
228
231
194
176
207
240
248
235
192
161
153
160
134
120
139
61
102
130
127
84
85
116
145
124
88
106
125
122
135
148
153
164
129
120
120
145
160
137
124
147
136
110
128
151
177
179
178
179
196
188
145
135
189
189
156
156
188
213
204
191
163
150
183
184
167
152
157
190
213
203
228
225
236
227
238
216
192
178
161
191
208
196
175
180
223
218
230
243
191
174
181
170
158
151
121
89
75
103
140
124
75
92
119
145
124
96
105
117
133
133
138
163
136
134
140
153
174
145
126
168
184
158
126
128
147
144
151
161
191
174
174
140
164
200
213
182
169
192
216
222
177
150
168
203
220
192
164
160
180
188
214
205
216
211
243
235
225
215
173
169
169
181
163
178
178
183
226
242
213
211
209
175
171
160
136
107
94
86
120
144
125
93
97
126
148
121
131
117
113
124
148
163
160
130
152
160
186
168
132
141
174
196
153
137
125
165
190
187
196
196
201
166
153
182
201
219
201
183
187
220
203
171
158
185
203
214
207
180
170
175
183
185
199
210
239
225
189
198
186
155
166
177
157
160
169
205
233
224
223
224
227
203
163
146
150
148
136
86
105
133
148
119
96
101
134
153
155
156
134
120
130
146
162
143
147
160
178
191
153
144
179
210
180
182
139
145
165
179
198
209
224
191
153
157
180
186
210
224
200
225
216
204
188
169
183
194
218
227
197
203
220
215
230
232
216
216
195
174
161
142
145
166
150
165
194
213
211
186
188
193
228
202
167
179
161
142
140
105
94
113
148
148
146
102
108
121
124
151
168
154
124
130
142
156
155
163
185
207
188
169
184
217
197
165
139
140
143
157
176
209
223
180
169
189
164
208
232
234
233
237
213
220
228
203
213
233
230
237
224
227
212
233
222
216
186
208
223
217
193
184
150
146
146
164
174
179
178
169
176
193
205
226
192
163
151
160
159
146
107
102
122
144
158
111
103
111
136
147
166
171
164
153
140
164
172
185
197
195
208
213
216
214
203
174
152
180
156
150
177
193
214
218
179
210
184
195
225
213
198
220
187
197
227
212
209
204
226
226
196
195
193
222
192
211
182
174
199
230
210
172
160
138
134
154
169
173
166
157
172
175
190
206
202
175
174
158
161
137
113
96
125
143
156
129
144
111
115
127
138
155
170
174
145
152
149
161
169
183
201
209
192
177
199
189
171
189
190
176
180
171
195
224
204
219
212
223
234
212
170
212
180
187
218
177
181
181
199
215
212
180
178
206
177
208
203
167
196
218
196
177
185
164
133
144
160
169
157
155
171
161
170
189
191
180
176
153
151
108
111
105
133
162
171
141
154
146
120
127
151
175
190
189
167
182
176
188
182
199
188
188
158
173
194
201
197
179
196
203
209
197
183
212
231
226
232
230
192
196
166
187
161
192
216
176
163
165
171
210
228
202
171
174
171
203
195
162
182
181
174
164
180
181
150
128
151
165
160
150
150
163
189
185
167
172
177
159
120
141
156
125
109
126
150
165
164
171
133
117
129
151
180
182
189
203
197
195
208
189
163
178
151
164
166
191
184
176
183
177
195
218
215
203
224
196
207
227
188
173
161
162
166
204
183
180
151
157
193
218
198
182
190
162
166
182
171
158
173
167
174
163
170
170
165
127
141
154
166
137
152
177
173
166
160
173
190
164
130
167
163
146
122
120
124
165
172
171
161
134
137
139
148
158
183
193
163
167
193
165
153
158
139
163
188
195
162
167
155
168
180
191
219
220
209
181
201
217
194
168
151
145
186
195
153
173
145
157
189
200
167
167
206
177
150
155
155
153
157
156
167
160
152
163
163
131
127
161
169
139
142
166
167
147
162
182
186
178
139
160
178
164
125
154
141
133
146
169
165
142
168
171
177
183
193
178
148
150
178
174
140
138
142
171
184
191
149
157
166
191
202
215
223
188
173
171
204
217
168
168
144
148
191
183
155
153
141
180
199
200
161
159
203
189
171
160
145
141
137
153
161
154
140
164
163
136
127
162
167
148
131
158
146
141
157
175
183
179
149
165
180
147
129
162
162
150
163
172
174
146
168
188
169
156
178
169
137
145
177
184
148
132
168
171
169
185
141
137
146
161
170
193
222
197
161
165
205
211
180
148
134
145
179
169
147
130
162
193
173
176
156
157
179
193
206
182
158
147
125
145
154
143
142
166
165
136
124
157
163
145
130
143
133
168
174
183
179
184
160
165
185
159
146
170
185
184
183
187
181
161
179
191
162
141
144
149
140
137
153
163
154
124
145
158
181
175
130
152
183
201
204
216
224
198
167
158
176
184
181
157
135
138
164
163
130
147
179
190
168
164
149
148
153
164
197
196
164
156
135
127
146
136
143
155
163
141
117
151
159
146
120
126
150
168
179
182
173
189
165
164
185
173
159
172
180
165
180
175
164
166
181
187
165
151
125
137
139
123
134
151
155
117
154
170
163
132
136
181
213
226
226
222
218
217
198
147
152
177
175
145
128
122
153
156
118
154
161
172
162
149
137
152
174
191
213
198
177
170
160
143
124
118
139
148
156
136
113
159
158
146
116
139
146
170
179
169
175
193
183
183
185
185
174
159
163
154
184
178
166
150
174
179
142
137
126
128
140
111
125
149
152
120
151
141
129
146
185
194
189
190
216
202
188
188
204
169
140
171
179
155
136
115
141
141
119
143
162
153
154
128
140
179
190
174
183
196
169
156
164
165
156
128
109
141
150
128
115
161
155
129
115
155
172
179
180
161
170
179
201
203
206
178
175
157
132
160
171
161
160
147
168
186
176
150
125
114
130
106
136
156
139
112
128
126
133
177
182
159
168
203
219
202
169
162
194
184
132
154
182
176
163
125
118
119
126
135
148
137
129
135
163
187
177
159
179
206
180
166
145
147
155
154
116
132
148
116
117
154
151
121
118
151
155
173
180
173
153
173
186
179
198
175
154
150
129
138
163
151
149
147
146
154
176
160
123
112
113
107
132
138
126
97
110
130
128
137
135
161
207
224
196
183
170
149
191
180
142
135
179
166
150
141
111
102
149
127
121
118
141
159
160
172
168
154
170
196
183
167
148
132
134
139
126
108
146
111
118
156
142
107
114
140
154
174
170
167
164
158
168
161
189
177
177
165
137
124
156
129
145
154
133
142
166
148
138
101
98
117
131
120
105
113
146
174
154
159
156
151
180
216
202
166
152
137
172
182
145
133
182
181
164
137
118
97
141
105
127
153
162
143
154
169
165
150
170
196
194
179
173
158
139
125
113
96
122
97
130
149
128
102
142
152
155
169
167
157
169
170
149
169
182
170
154
172
167
117
116
130
162
167
120
146
162
134
125
133
87
125
120
102
93
134
168
196
197
202
212
196
160
178
211
187
168
140
139
170
152
124
170
164
170
154
134
93
101
119
161
150
141
138
161
171
152
144
166
175
181
175
169
170
163
163
144
119
91
95
140
131
106
113
140
147
156
159
162
150
161
150
131
165
160
167
166
137
163
145
104
130
136
148
115
136
158
148
101
120
93
92
88
87
105
114
136
155
162
172
201
221
215
199
200
208
182
141
131
128
131
118
157
168
143
144
148
120
85
118
151
137
118
144
163
166
156
136
157
176
177
170
159
163
160
161
154
140
110
86
110
119
90
114
139
153
148
147
162
144
149
128
132
165
138
135
168
159
132
142
128
103
129
133
111
135
160
151
111
80
77
102
119
134
154
156
142
152
168
184
196
211
223
225
225
210
175
184
172
141
111
111
149
170
168
145
132
116
85
107
149
116
113
153
153
149
157
130
154
174
172
171
168
150
142
143
151
147
137
113
83
89
88
129
139
138
142
152
154
145
146
105
153
170
129
124
160
171
149
122
139
98
125
119
117
152
145
143
125
68
114
159
152
126
139
183
201
192
181
159
170
210
225
225
220
222
218
211
186
167
150
114
120
148
172
144
129
112
76
104
126
100
142
159
157
136
133
137
168
177
162
160
168
168
152
131
136
148
152
150
136
103
75
106
143
131
132
157
146
135
140
125
161
148
119
110
133
154
147
118
137
110
101
104
124
155
128
133
124
65
126
148
114
126
172
183
178
149
139
169
198
220
221
218
201
220
212
164
158
153
162
125
99
135
149
166
138
125
101
81
88
115
145
154
142
148
106
143
162
169
159
160
175
174
158
150
130
120
134
148
140
139
96
81
117
110
146
152
161
139
123
123
167
167
147
102
128
130
141
111
136
133
84
105
127
159
136
118
126
61
111
109
116
160
167
149
143
131
169
206
219
215
214
202
191
222
207
157
134
124
139
145
100
115
147
155
147
146
130
74
85
134
150
135
131
121
116
148
156
154
151
157
167
167
171
162
156
139
116
115
116
136
114
69
88
124
129
146
160
159
118
