P2
# CREATOR: GIMP PNM Filter Version 1.1
100 100
255
53
75
83
99
100
134
160
134
81
72
117
143
157
139
162
157
199
207
199
218
180
192
169
125
70
151
146
102
87
96
87
127
144
119
100
129
131
131
148
158
169
158
148
137
139
150
132
144
141
127
137
144
164
192
207
221
227
233
249
238
205
214
244
249
249
255
255
255
255
253
221
216
216
196
176
160
178
169
136
119
122
122
127
122
114
107
105
107
107
104
109
114
109
96
78
76
76
83
86
86
67
55
81
81
94
129
131
153
112
64
105
129
134
139
165
194
169
192
225
199
167
137
139
110
91
151
139
125
112
131
94
127
162
144
122
143
162
150
171
216
214
189
169
160
153
164
155
151
155
141
155
165
172
178
196
216
212
227
255
255
246
246
255
255
247
246
255
255
255
255
249
227
210
190
189
201
172
174
164
127
112
110
122
129
131
124
104
102
107
100
100
99
99
87
76
75
78
79
86
84
136
67
58
64
81
97
125
155
137
87
76
92
92
117
153
185
210
207
223
203
172
146
115
76
107
189
203
148
139
153
112
105
139
185
160
137
162
198
229
249
246
233
207
192
178
189
187
180
160
160
165
160
190
199
207
196
199
221
249
255
255
255
233
246
225
242
255
247
255
255
253
223
223
214
214
180
162
137
144
134
114
109
105
110
114
115
102
100
105
97
94
91
91
81
76
76
75
78
84
84
155
114
68
78
83
83
110
150
171
146
94
73
91
119
153
171
189
220
246
216
180
155
112
105
114
141
190
192
185
157
122
148
164
190
212
201
196
221
221
210
216
234
234
220
210
223
223
198
174
178
176
174
189
201
189
189
220
244
253
255
246
225
220
233
216
238
234
240
255
255
255
233
192
187
190
207
180
146
115
114
114
110
109
102
102
102
100
96
97
96
91
89
86
79
76
76
75
76
83
84
167
120
89
124
119
104
100
132
165
172
146
104
131
115
129
164
183
212
251
227
185
148
162
144
155
124
171
223
178
136
136
167
205
218
207
225
238
246
229
185
196
212
234
229
221
216
203
194
178
169
178
192
194
189
171
209
234
244
244
255
255
220
210
207
212
231
210
242
255
255
255
249
223
187
157
160
127
132
136
122
117
124
120
105
102
99
97
94
91
92
96
96
86
78
76
75
72
73
79
83
153
144
114
136
137
112
136
110
125
143
165
160
167
153
131
181
196
214
225
227
221
201
196
167
187
146
157
220
233
198
183
216
218
183
183
223
214
221
205
172
190
214
221
225
209
187
185
194
189
169
165
187
180
164
183
214
231
218
223
242
255
242
205
181
203
207
203
229
255
247
255
253
244
214
172
137
165
181
167
136
115
117
114
109
105
99
92
92
94
94
107
100
84
92
79
75
72
72
76
83
137
151
153
151
150
112
162
144
122
137
155
178
198
169
158
160
172
190
214
203
218
216
207
196
205
192
178
233
242
234
220
225
216
162
185
183
199
225
190
157
189
198
198
220
218
183
165
174
185
174
158
172
158
174
198
216
214
207
207
229
251
247
223
189
181
192
214
247
255
236
247
247
236
229
194
171
203
165
136
124
109
120
117
105
99
92
92
110
107
97
94
86
86
104
84
75
72
72
75
81
157
162
171
171
155
139
153
178
144
167
167
178
203
201
187
178
192
196
218
187
178
185
171
181
209
229
231
242
223
207
189
205
189
153
157
171
214
244
223
171
160
192
180
214
209
190
160
164
174
176
157
146
164
185
214
216
207
192
194
220
244
221
223
196
167
185
223
255
255
229
227
244
220
231
210
214
216
172
164
141
122
112
114
100
92
89
96
125
115
120
99
97
102
110
91
75
72
72
73
81
139
137
162
187
172
165
180
181
160
178
192
194
209
183
172
176
198
220
223
190
153
164
153
171
189
212
227
234
214
198
189
171
164
136
178
214
231
233
225
178
143
167
192
209
183
171
169
153
165
157
146
151
171
187
212
212
198
181
190
205
234
229
198
190
162
192
227
255
255
234
212
234
223
216
214
216
199
207
180
144
110
99
100
94
104
109
97
117
134
124
125
115
107
104
86
75
72
72
73
79
117
146
174
176
185
190
194
194
194
198
205
209
201
164
151
148
172
190
183
205
172
120
132
148
158
169
176
221
203
185
192
167
129
158
221
209
203
220
201
196
136
157
192
183
169
160
160
141
165
144
129
153
178
199
209
190
190
180
172
205
233
227
212
171
157
185
231
244
246
253
210
216
233
210
207
214
172
174
151
114
99
97
97
91
102
115
119
127
144
134
125
112
92
84
86
76
72
70
76
83
134
160
162
164
169
174
178
196
178
180
157
167
172
150
120
141
143
169
164
178
201
148
110
122
117
134
148
220
205
176
165
174
124
192
207
190
171
207
187
190
136
144
180
172
144
153
153
136
151
134
144
172
190
221
207
189
174
172
172
199
233
209
205
185
146
187
220
221
244
251
225
205
220
205
176
160
160
125
110
109
127
119
97
107
141
129
137
141
141
115
104
91
91
92
83
75
73
70
83
89
144
160
141
144
151
155
185
183
169
148
105
102
134
136
132
109
120
144
160
151
180
160
97
102
127
131
180
225
233
187
143
137
127
181
199
164
162
199
169
185
151
125
169
148
137
151
150
127
134
120
151
181
199
209
212
183
165
160
165
199
221
220
190
169
143
181
221
196
242
236
218
201
212
190
203
194
150
134
141
171
131
100
110
141
158
148
127
134
131
105
91
97
100
92
87
76
76
70
81
99
139
158
139
134
131
148
164
151
162
117
86
73
78
100
139
119
92
119
153
117
148
143
102
117
205
203
203
223
229
203
172
125
112
164
203
148
157
196
171
162
153
115
151
137
141
151
136
129
112
136
172
181
189
192
205
201
176
144
160
201
196
220
198
162
139
172
210
181
218
210
209
201
194
209
223
205
160
176
185
141
117
105
129
153
144
132
122
117
107
99
112
114
102
97
86
79
105
78
72
96
137
137
144
124
117
155
134
136
160
105
70
64
79
79
81
104
102
91
110
97
131
110
76
132
192
210
187
220
216
178
169
120
105
174
174
157
137
169
178
144
155
110
132
131
132
137
131
110
117
162
165
171
174
180
198
185
181
143
162
192
181
212
203
162
129
172
207
172
207
190
198
174
165
192
236
199
187
210
187
139
124
115
144
172
136
124
127
119
114
119
115
105
100
91
81
87
109
92
68
87
120
148
150
102
114
151
105
148
160
97
75
59
70
65
73
65
72
64
55
73
96
73
84
169
187
176
189
172
216
181
148
129
104
178
153
132
129
150
157
146
137
115
120
119
129
124
107
104
137
151
157
165
158
176
183
171
176
144
144
176
172
201
190
155
132
185
209
164
201
171
165
148
185
223
251
223
210
223
185
146
146
148
183
190
157
139
127
120
110
97
94
97
92
84
87
96
110
96
73
72
157
146
143
115
110
125
105
151
144
87
68
61
53
55
59
53
65
59
53
62
65
81
105
160
171
141
203
151
183
165
148
112
92
150
144
119
115
134
129
136
120
112
117
117
117
99
100
125
153
144
155
169
151
171
174
160
171
153
136
160
176
187
183
158
137
176
203
153
190
139
150
187
210
229
242
244
227
212
176
178
165
196
214
189
144
125
119
114
102
94
92
89
89
89
110
112
104
94
78
70
157
144
131
120
91
96
125
132
92
73
53
50
49
64
86
86
109
87
59
59
62
109
114
129
137
165
194
155
141
144
144
127
84
122
125
114
100
114
105
119
124
100
119
105
94
104
120
139
148
137
160
158
144
164
162
153
160
153
134
167
174
174
169
144
136
167
189
150
172
120
172
203
187
207
225
223
201
210
210
223
192
220
218
176
160
136
110
109
107
110
104
104
105
107
112
110
99
87
76
68
157
137
114
119
96
78
120
97
72
61
49
52
55
119
134
132
136
112
70
68
79
129
120
146
172
192
169
137
110
131
136
141
87
99
102
91
86
94
97
105
115
96
115
99
100
117
117
129
137
131
148
148
136
144
141
136
150
136
127
158
165
153
146
131
131
155
162
158
134
127
192
194
160
189
214
205
176
205
234
253
242
242
196
190
187
144
114
127
134
125
119
115
112
112
105
99
92
83
73
68
162
132
105
96
87
79
104
65
72
65
49
56
79
137
169
169
165
151
92
67
75
127
150
194
190
157
129
114
94
125
125
115
92
79
91
79
72
75
84
99
99
97
107
97
86
91
92
105
119
129
132
136
125
125
120
120
127
127
143
146
164
151
143
122
110
122
112
129
110
153
192
183
127
185
194
164
189
225
234
251
247
253
220
231
199
169
162
155
143
127
117
104
97
100
97
92
87
79
73
68
134
144
127
99
64
67
68
59
67
53
47
50
102
153
176
183
187
165
97
65
62
76
100
125
114
99
104
96
86
112
99
89
81
70
81
75
87
102
78
87
87
83
87
81
89
100
89
96
107
110
104
109
112
109
112
114
117
124
155
162
176
171
160
148
129
99
127
91
89
136
158
122
141
146
153
176
216
238
229
227
234
255
253
255
236
212
180
167
139
127
114
109
102
92
86
84
79
75
72
68
134
155
148
124
75
49
47
47
49
47
47
81
129
131
146
171
181
151
131
92
91
67
72
72
68
70
86
70
73
73
75
72
72
75
89
102
157
153
150
99
94
97
97
136
155
134
120
105
114
115
129
125
125
131
137
143
162
146
144
172
203
199
196
180
187
157
136
132
92
86
92
94
107
144
187
210
203
225
203
194
225
242
246
255
233
192
155
136
131
117
109
110
104
97
94
83
79
83
70
68
136
100
87
107
65
46
46
44
44
44
56
72
83
104
146
178
180
153
129
127
129
72
67
65
68
72
75
68
65
64
67
72
92
81
107
146
157
158
172
155
174
119
144
205
201
167
136
139
172
189
209
209
201
203
190
185
209
183
146
160
181
205
225
231
207
164
167
190
144
94
165
180
119
119
180
174
203
198
162
194
210
220
238
233
216
201
187
155
131
117
105
99
97
87
86
91
100
104
79
67
86
46
46
46
46
46
46
59
89
129
112
120
120
114
134
165
189
169
151
174
131
81
67
68
67
68
68
67
67
67
70
72
89
107
87
132
136
137
139
150
151
114
141
171
196
165
185
194
216
209
185
216
223
190
236
255
216
178
169
165
164
194
214
233
225
199
196
158
115
97
183
187
157
129
107
146
158
153
192
199
220
238
220
174
183
165
157
151
129
124
112
104
97
102
105
100
100
107
92
68
72
40
42
42
44
46
50
97
167
157
167
172
167
155
143
165
190
196
187
169
132
89
78
114
110
104
96
92
76
83
89
104
137
127
89
102
105
114
136
150
148
129
148
164
155
203
165
180
220
216
150
172
178
158
203
255
231
218
201
212
187
180
194
233
255
229
171
131
73
89
180
194
189
212
155
119
117
146
185
220
240
244
212
176
131
143
141
125
110
107
107
110
109
96
91
87
94
96
92
72
73
42
67
79
55
52
67
117
120
110
146
172
181
187
187
187
199
187
153
129
114
87
94
169
172
180
167
151
104
119
144
176
174
146
109
132
125
169
216
221
192
180
185
139
155
189
134
158
171
212
148
144
146
141
192
218
194
203
209
210
210
223
203
214
227
201
143
99
125
172
174
218
231
207
189
203
189
143
180
221
229
221
164
155
125
119
120
124
114
119
97
97
112
105
89
83
83
89
79
67
55
49
52
91
73
61
73
89
86
97
115
129
151
185
201
214
212
196
151
162
137
124
109
158
196
218
203
148
157
131
174
192
169
129
134
144
164
146
187
216
244
229
199
148
122
157
124
136
171
234
167
122
119
137
180
201
167
176
178
172
181
220
240
236
189
125
81
162
221
229
229
251
244
231
234
210
174
164
176
192
212
234
216
187
131
102
96
102
97
107
110
91
100
102
86
81
76
83
70
67
43
67
64
59
58
61
73
109
120
132
157
169
194
198
194
205
218
198
183
189
164
146
127
171
209
210
210
221
201
187
216
209
190
164
180
171
201
189
189
218
229
198
160
176
119
124
110
146
214
187
162
115
109
187
231
196
155
158
160
150
181
201
212
218
171
127
89
176
216
234
218
246
255
255
229
210
225
218
181
194
227
242
233
192
160
129
110
96
91
86
94
87
84
79
76
76
75
68
65
64
39
50
52
47
64
112
72
78
73
84
97
134
160
171
176
203
214
207
201
209
183
172
171
190
178
181
199
201
201
214
229
198
199
201
190
201
207
223
234
176
209
192
144
139
112
107
117
155
205
151
141
115
107
176
172
194
157
136
134
144
174
190
183
187
139
96
104
176
192
189
209
231
238
236
210
216
247
240
214
180
212
231
216
160
158
169
137
117
114
96
84
79
73
70
72
72
68
67
64
67
68
61
70
72
68
104
124
129
120
102
105
120
139
150
171
192
209
210
210
205
192
167
150
148
157
183
201
183
164
192
210
176
171
187
162
183
209
207
199
201
151
205
167
117
110
92
115
160
172
132
117
96
117
165
146
153
153
124
115
153
189
190
165
158
120
73
132
131
172
192
221
199
221
198
198
233
251
229
220
190
214
242
229
183
150
136
125
109
102
94
83
75
76
87
87
84
72
65
62
65
127
127
129
112
89
79
102
120
148
148
157
148
187
172
172
201
201
190
196
185
185
160
124
115
174
203
192
155
165
196
218
151
148
151
129
190
214
178
167
209
134
157
183
132
97
91
124
155
132
134
105
89
122
150
131
132
134
112
125
183
201
171
162
137
119
72
114
171
196
210
212
185
201
174
187
221
246
234
242
216
209
238
225
178
153
131
115
109
100
99
97
91
92
102
100
92
84
70
62
62
119
136
151
134
122
102
102
125
150
167
180
162
185
205
203
205
181
174
189
167
155
167
129
114
158
185
183
137
194
221
210
162
115
129
158
207
192
171
141
178
125
117
141
150
99
87
132
136
104
132
104
83
112
124
119
117
114
102
139
167
165
167
141
137
89
84
137
209
198
185
199
178
180
158
203
231
234
249
246
221
210
242
223
203
189
165
132
125
110
97
99
99
102
102
92
83
76
72
64
62
134
144
155
153
143
136
129
157
171
192
199
185
192
196
192
185
167
160
178
162
132
157
120
112
143
171
132
144
198
207
181
160
105
127
171
218
196
146
102
164
110
86
129
131
99
79
127
112
99
102
107
86
109
129
99
107
91
114
143
157
139
146
136
99
62
139
185
187
185
164
194
162
137
174
209
212
214
255
244
229
227
238
196
165
146
144
164
181
119
96
87
83
94
97
81
73
68
67
62
61
127
124
146
164
167
172
169
178
176
171
189
203
199
192
160
153
150
144
165
146
107
136
127
83
86
97
105
153
183
160
153
139
84
141
203
210
198
146
114
139
87
94
122
117
104
84
124
109
104
78
89
89
112
129
97
87
96
162
134
144
122
129
109
75
131
180
180
176
171
150
187
143
153
196
190
183
221
240
238
255
234
216
205
176
153
124
136
127
97
83
76
75
76
76
68
67
65
64
62
61
87
119
132
151
171
164
155
157
146
176
194
207
181
160
162
150
122
131
167
169
131
91
86
81
160
167
155
171
203
172
143
124
99
164
181
194
223
169
89
104
81
89
105
115
104
75
122
99
68
50
62
75
102
117
76
76
134
146
136
129
100
76
73
141
164
162
169
162
146
148
171
132
148
187
151
194
192
229
255
246
234
190
205
223
198
137
104
87
78
75
75
72
72
68
75
73
67
68
64
59
78
96
117
139
157
131
117
139
169
180
196
212
205
194
155
125
122
136
167
155
158
114
62
124
158
160
148
194
198
162
141
100
100
174
172
150
212
180
115
79
84
92
107
125
87
86
73
61
58
46
50
61
86
70
50
114
117
124
129
99
62
100
158
164
165
143
164
143
153
131
129
122
120
134
134
181
218
244
255
233
196
165
153
132
150
134
114
87
87
124
97
79
79
81
91
81
84
81
70
70
104
107
92
114
122
115
160
171
176
185
196
189
174
176
167
144
105
136
158
162
125
115
84
96
144
122
169
181
185
171
120
102
100
141
104
172
183
120
96
73
58
83
92
119
73
100
61
59
70
87
94
55
43
53
53
75
87
97
91
64
117
141
141
139
160
131
148
127
127
91
105
120
137
172
155
164
203
225
246
216
201
198
164
178
141
107
94
99
158
162
109
94
94
97
92
92
87
75
83
79
124
132
107
97
91
105
124
141
153
169
190
185
164
153
134
119
91
104
134
146
137
99
70
87
100
139
172
148
172
185
141
94
86
87
112
187
150
97
96
110
64
39
75
62
47
70
64
58
107
100
131
109
78
79
64
56
52
56
55
73
92
102
122
117
129
112
104
94
99
160
192
196
198
210
212
194
198
233
251
240
238
214
218
178
129
100
129
221
165
120
110
97
94
92
86
94
86
81
87
83
146
148
144
158
122
115
143
143
146
167
189
192
162
141
124
119
109
86
102
127
155
143
114
70
92
124
115
137
162
183
143
100
59
79
144
153
131
99
81
94
52
40
42
44
59
55
56
55
67
104
125
146
146
124
115
86
78
79
70
65
72
65
79
83
86
81
86
78
136
158
162
165
185
205
221
242
240
253
253
255
227
189
181
174
151
127
225
207
139
110
107
97
87
84
78
89
96
92
94
91
150
164
172
171
146
115
136
165
176
178
190
196
185
171
143
153
153
122
78
105
139
117
107
61
64
105
102
139
167
187
153
119
72
73
124
134
102
102
86
65
43
70
43
70
117
110
119
94
78
102
109
122
141
169
143
119
119
124
110
78
134
100
102
89
102
112
151
110
109
115
129
148
172
196
194
225
210
223
227
225
218
216
218
194
134
129
199
203
143
112
96
89
89
84
73
89
97
102
91
79
144
164
185
187
169
146
127
167
189
196
190
178
169
157
129
117
112
136
109
67
134
107
99
79
52
94
122
148
174
189
139
114
99
59
102
124
84
72
79
46
49
84
56
110
141
150
150
102
107
107
124
120
131
169
158
139
143
143
129
86
141
150
160
144
162
172
169
134
155
114
132
134
137
160
169
187
189
223
210
203
218
233
203
165
148
174
214
255
150
117
96
79
79
81
73
86
100
114
99
79
162
171
201
216
192
172
146
167
194
205
183
155
136
132
122
97
72
87
120
55
119
97
76
58
44
97
139
158
165
176
134
100
89
47
72
104
76
44
42
34
58
100
109
143
167
201
189
139
148
104
114
127
146
190
201
167
155
141
125
89
131
167
180
180
196
203
201
176
181
169
180
174
169
172
178
194
190
209
176
183
214
234
223
209
205
221
218
189
136
115
100
87
76
72
70
81
94
105
105
92
171
183
199
205
203
190
176
165
189
196
172
158
136
117
115
117
104
72
75
47
110
99
58
39
100
167
172
143
146
162
129
92
94
44
55
75
59
40
42
72
91
136
157
158
157
181
171
198
183
169
148
155
165
198
255
185
176
157
141
99
105
148
157
165
169
190
210
198
203
207
207
216
199
214
189
205
190
176
143
194
218
231
220
233
223
240
198
155
124
102
100
97
84
72
67
72
76
81
92
94
155
164
176
181
190
192
189
181
189
201
185
155
136
157
157
146
132
110
67
42
112
102
47
62
143
144
164
114
115
136
132
112
75
34
34
37
37
34
36
99
124
115
139
127
150
139
174
187
167
164
196
231
247
255
255
255
218
155
134
117
132
117
132
150
187
178
183
174
192
192
201
207
171
201
183
172
158
143
172
201
201
212
201
220
203
231
229
210
120
96
87
92
81
70
78
64
64
65
73
79
148
158
167
187
183
176
181
187
199
209
189
174
157
172
158
132
119
109
87
33
89
105
53
50
99
117
158
122
84
114
139
110
53
30
39
61
65
67
65
79
97
119
114
100
132
122
131
141
132
132
165
223
247
223
255
255
225
167
153
132
164
136
171
176
187
172
150
141
180
167
183
212
167
171
189
134
129
169
178
178
169
189
176
214
210
199
214
155
115
100
79
76
72
86
89
68
68
67
62
64
153
178
178
187
178
162
172
181
194
207
198
180
160
137
131
158
136
124
105
64
36
99
56
39
76
89
124
122
67
89
112
127
97
39
33
32
37
39
70
100
110
107
99
78
105
105
87
97
102
119
132
150
181
199
255
255
189
187
181
155
160
185
181
174
162
162
122
146
157
150
174
198
180
137
155
134
107
127
171
160
151
143
176
207
164
181
172
143
115
99
92
83
84
87
87
83
78
76
64
62
150
169
190
187
174
157
169
185
194
201
201
178
158
143
115
107
110
105
76
70
37
50
78
28
49
81
92
107
59
81
78
97
89
59
32
59
72
65
46
46
70
53
56
70
81
81
114
124
94
125
155
194
253
255
247
214
157
158
160
183
180
181
155
160
143
150
109
150
122
139
185
198
174
125
139
122
83
87
129
129
146
153
212
207
157
181
141
153
124
104
99
94
89
86
78
79
76
72
67
72
143
164
181
178
169
151
167
183
180
196
199
189
171
148
131
97
81
68
96
99
52
28
44
22
42
59
65
67
42
42
64
70
47
43
36
86
100
114
87
58
53
96
112
97
119
150
157
198
151
143
167
178
236
236
162
174
148
143
148
181
148
155
146
131
139
131
100
109
127
178
194
185
174
137
124
102
89
139
107
134
151
131
187
181
141
137
125
132
112
97
91
91
89
84
76
73
70
68
70
81
150
169
183
172
160
146
165
164
181
190
187
174
160
143
129
132
150
139
131
105
64
26
26
29
28
32
40
33
26
26
28
28
29
34
44
61
79
122
109
83
131
119
137
107
117
115
164
214
196
190
234
234
255
255
150
146
143
122
144
164
141
122
151
122
122
120
78
112
155
150
187
178
157
146
83
75
129
167
165
122
114
115
162
144
158
139
129
110
100
104
92
83
83
83
79
78
72
70
72
78
153
164
160
157
151
136
158
176
178
178
189
174
158
150
136
132
132
131
110
91
78
34
24
24
46
42
29
30
36
40
40
49
40
59
64
75
81
114
100
99
96
146
160
129
155
153
127
155
203
255
255
216
216
240
169
119
127
114
141
136
136
110
136
131
115
110
83
134
120
150
171
162
148
124
84
78
164
172
172
181
127
109
124
143
167
176
136
94
87
91
96
86
76
76
79
75
75
75
72
78
146
150
150
143
134
146
165
162
167
176
176
174
153
127
124
105
97
91
84
78
59
46
28
22
49
109
91
72
89
83
52
70
78
84
79
84
91
100
117
143
134
141
144
174
171
212
187
194
190
221
236
176
144
218
214
157
104
99
122
117
134
92
120
139
102
79
100
122
94
137
150
150
120
84
72
105
143
151
178
178
155
119
165
176
174
157
124
105
91
81
91
84
78
70
76
79
76
72
68
75
127
139
143
129
139
160
151
153
171
164
150
169
167
155
151
124
102
99
91
91
94
79
78
50
17
115
155
136
143
117
92
94
120
87
107
96
104
119
136
165
185
189
153
194
210
220
214
190
234
205
201
171
129
153
162
180
136
96
102
104
132
96
102
129
109
67
115
117
70
115
137
141
115
68
94
122
115
180
199
176
141
122
158
158
153
127
112
92
84
76
84
83
78
68
75
75
73
72
68
75
127
137
134
127
146
144
139
158
151
125
139
160
171
162
160
136
139
151
139
91
58
62
94
75
22
110
109
125
136
150
146
122
137
112
125
107
127
129
160
162
150
164
160
196
227
169
169
144
190
165
148
144
129
131
129
153
155
127
89
86
114
112
73
91
87
59
73
73
62
94
107
112
91
72
84
105
136
153
187
181
164
137
131
139
137
117
105
97
86
76
73
76
78
75
68
73
72
67
68
70
131
141
120
127
132
131
146
158
136
107
131
144
155
146
157
153
162
155
114
110
59
20
34
42
22
59
61
68
96
144
162
174
167
157
157
143
150
157
136
117
117
143
160
214
181
132
129
131
144
162
150
114
115
129
110
153
148
124
100
72
81
64
44
44
44
43
68
86
72
61
62
68
62
114
102
117
132
150
196
207
194
148
122
107
110
112
97
91
94
83
76
67
72
72
65
67
70
64
67
65
125
137
115
114
122
134
151
155
120
97
107
124
136
125
131
139
151
153
122
105
65
20
25
24
28
58
97
115
76
104
143
187
155
141
172
153
127
143
112
92
92
129
164
196
141
146
94
109
124
158
165
112
91
112
109
151
136
125
97
86
59
37
70
96
79
86
109
143
107
97
92
105
99
110
150
139
141
176
192
174
144
112
97
89
94
100
99
87
84
91
84
75
67
64
61
58
62
64
65
62
144
124
105
105
132
148
157
148
119
92
76
100
115
102
129
115
146
150
125
102
58
20
26
53
102
137
160
153
112
124
155
155
137
96
136
136
107
110
96
78
100
158
210
199
119
136
99
96
117
136
153
131
96
75
114
131
124
115
109
75
43
37
87
99
110
153
165
165
134
141
129
139
137
109
148
164
150
192
210
174
136
124
109
89
75
78
86
91
75
84
86
83
75
70
64
58
53
58
62
68
132
112
99
125
137
155
153
150
125
79
55
76
83
86
122
104
125
153
139
107
75
20
20
29
44
96
129
157
169
185
158
112
127
91
125
97
94
100
87
83
131
150
229
205
127
100
109
68
114
109
143
137
109
76
83
125
107
105
84
46
34
49
92
100
117
153
183
169
172
178
155
151
157
122
158
171
169
196
218
192
174
171
105
92
86
75
68
70
68
72
83
81
78
67
65
70
59
56
55
65
109
99
112
131
139
155
151
124
139
125
84
50
62
109
89
89
136
148
104
81
89
36
39
20
20
21
53
94
160
198
181
131
81
96
96
75
78
99
64
112
119
178
187
181
148
94
91
68
86
112
124
125
112
91
84
127
92
94
78
37
59
99
114
127
119
144
176
150
162
157
153
158
158
160
132
164
192
201
229
231
201
155
124
110
102
94
81
76
65
61
75
76
70
72
72
73
68
65
53
52
94
86
104
122
143
153
131
117
104
109
96
37
76
92
56
114
120
119
67
73
53
52
47
42
22
36
83
137
164
164
180
171
141
75
67
79
73
79
68
131
181
187
150
153
122
124
91
50
100
117
110
117
100
78
78
124
84
87
58
32
64
102
112
146
176
174
160
132
151
129
132
144
148
160
157
151
196
223
234
225
223
196
143
115
105
96
92
78
68
59
84
81
76
81
76
76
73
67
67
59
87
107
120
124
136
151
137
104
75
67
91
47
73
50
83
86
112
119
62
43
30
18
21
26
67
119
178
171
132
137
127
151
110
115
53
52
76
49
94
144
117
127
167
164
97
102
87
49
105
107
92
117
97
53
94
100
81
61
40
36
83
92
129
155
157
169
151
125
120
102
119
119
129
150
171
164
194
212
214
212
185
155
122
109
92
87
76
76
68
58
78
84
81
79
75
68
75
75
72
62
100
119
134
143
148
158
143
124
91
56
59
37
37
79
68
76
114
136
105
44
22
20
29
70
119
144
160
181
146
110
112
134
122
72
75
53
56
64
91
89
120
137
144
164
143
99
73
46
100
92
83
91
105
53
92
79
40
34
36
64
102
127
141
146
131
141
137
127
124
87
99
124
141
155
176
205
210
190
198
207
201
141
104
96
89
79
86
84
73
55
67
83
79
73
78
68
64
72
68
68
134
117
124
141
146
143
146
132
114
92
68
37
46
53
61
94
124
99
94
58
32
28
24
59
94
86
122
146
172
125
86
105
112
96
67
39
52
83
78
124
109
105
124
139
117
91
75
39
70
62
81
84
83
37
68
55
26
46
64
78
94
104
109
122
120
109
100
120
102
79
102
132
144
158
176
218
209
189
199
181
181
144
107
79
75
70
68
65
61
53
68
81
79
68
65
67
59
67
72
72
158
155
143
146
137
122
127
131
127
117
91
67
26
30
72
91
87
72
78
73
58
47
28
34
52
70
94
120
164
155
129
76
105
109
65
29
67
78
122
87
92
91
100
119
104
86
59
30
42
36
55
52
39
26
39
34
37
36
37
40
46
75
83
99
104
86
70
107
81
84
122
150
157
172
187
210
192
172
192
174
134
127
102
83
73
65
59
56
53
50
59
73
72
73
56
56
64
72
73
73
155
181
157
136
127
110
117
92
125
127
97
67
29
25
64
44
50
42
70
110
76
43
29
25
34
62
84
114
110
115
143
94
78
109
59
26
62
89
129
70
105
68
97
132
110
81
40
52
56
37
39
33
30
37
26
36
67
67
83
68
53
40
53
68
70
68
59
72
76
115
136
150
171
190
201
194
178
167
172
143
120
112
104
83
72
68
64
58
58
49
52
61
61
59
50
55
65
73
73
72
158
169
139
115
102
87
81
70
109
110
114
73
29
22
29
25
26
24
34
79
83
72
55
24
24
33
33
46
73
73
91
87
70
94
42
21
36
79
87
50
99
55
109
110
94
75
33
55
68
58
28
58
64
64
43
79
87
105
110
84
87
64
70
72
50
83
89
89
92
119
136
153
174
196
190
174
158
171
157
119
107
99
94
94
83
75
68
65
73
53
47
50
52
47
46
47
52
61
68
65
171
176
137
124
112
97
68
50
81
102
114
81
39
22
20
22
25
22
20
29
39
52
46
30
28
20
20
18
34
53
64
47
53
40
20
20
22
49
56
36
58
46
76
94
78
43
25
37
75
84
58
76
84
72
72
104
107
122
104
99
84
83
107
102
75
96
112
107
115
136
137
158
180
185
169
151
153
180
150
117
92
87
86
81
87
81
64
61
62
55
47
47
47
47
44
44
44
53
67
62
176
162
151
148
134
119
99
49
64
97
104
112
96
26
21
21
22
21
21
21
21
24
24
24
25
21
21
28
26
29
53
75
70
37
22
37
40
28
36
36
25
30
53
81
46
34
29
39
102
110
104
104
107
73
97
99
120
139
110
107
100
102
109
119
100
92
114
115
132
148
158
162
190
162
139
139
172
181
151
115
107
99
81
65
64
65
61
55
50
50
47
46
46
46
42
42
42
44
50
59
150
137
143
132
137
117
89
59
39
78
84
115
81
29
21
21
21
21
21
30
26
18
21
20
22
21
20
33
34
37
86
107
62
34
25
53
79
21
21
21
20
21
28
62
52
47
47
55
73
86
107
124
110
81
100
117
151
150
124
134
119
124
139
136
150
125
114
127
132
151
164
158
164
131
122
176
176
157
144
122
100
96
92
89
83
75
59
53
49
46
47
55
50
59
67
50
42
42
42
53
122
119
124
120
136
122
86
72
39
53
79
100
59
21
21
21
21
20
30
68
61
47
40
50
29
20
26
58
37
32
70
110
56
37
24
44
110
65
42
68
46
36
24
29
39
25
73
160
125
141
127
134
125
109
119
150
201
185
178
185
180
181
190
172
162
148
125
141
148
148
150
143
131
129
153
180
164
124
122
112
89
79
78
91
78
78
58
49
53
61
78
84
73
59
75
72
55
44
40
47
143
100
112
105
129
141
114
79
44
39
55
91
70
21
21
21
21
21
91
115
117
75
102
87
36
26
92
102
32
32
50
43
47
26
30
89
127
89
132
83
81
43
26
59
50
39
105
158
172
164
155
158
150
146
167
196
209
180
185
171
171
185
176
158
131
129
141
148
160
148
136
127
110
150
171
190
150
119
110
110
110
83
68
78
72
59
53
52
78
83
86
73
67
67
76
62
61
40
40
40
146
102
84
114
148
134
109
97
78
36
37
75
73
21
24
22
21
39
76
105
132
125
122
64
26
37
81
115
49
25
33
25
30
22
49
97
158
169
129
79
155
39
25
49
72
94
102
97
114
122
127
141
117
148
157
171
207
164
160
144
157
158
158
134
115
119
134
139
155
139
124
119
148
160
178
176
155
134
105
96
107
86
75
68
62
53
59
78
75
96
89
86
73
81
78
68
50
40
39
39
139
97
76
112
136
139
117
65
42
36
40
61
73
24
24
21
21
50
70
79
97
136
120
81
52
40
109
124
91
32
32
29
40
28
61
96
131
176
144
150
144
43
30
26
28
50
83
79
117
114
115
107
109
120
146
214
196
172
144
127
155
124
151
119
105
107
137
125
137
124
119
112
132
148
164
144
127
114
104
87
79
91
92
87
67
55
72
92
92
91
96
92
87
78
64
73
53
39
39
39
114
86
83
120
119
120
119
79
56
34
34
47
32
22
22
21
33
64
47
56
110
141
119
102
73
50
84
89
131
132
125
79
114
65
42
79
109
160
183
190
129
62
44
32
24
58
64
104
105
105
94
87
94
146
153
176
199
171
148
115
134
115
124
109
100
110
129
120
110
107
109
132
160
174
165
127
115
100
94
92
81
67
70
62
58
64
87
94
86
89
84
87
87
84
65
53
47
44
39
39
89
61
105
115
94
99
99
102
56
24
24
22
20
20
21
22
28
36
50
67
94
144
144
119
79
53
124
136
150
164
160
164
134
84
56
67
92
146
164
134
122
81
61
47
29
39
70
110
86
99
73
84
127
146
120
160
185
160
136
117
102
109
109
105
92
110
119
122
84
117
141
137
153
190
171
137
119
94
81
81
79
75
72
67
58
75
92
92
78
83
72
79
83
81
78
67
65
59
44
39
55
78
109
112
86
64
94
81
44
20
21
28
29
33
22
24
44
68
96
104
119
151
146
110
61
59
91
112
120
115
143
183
190
136
73
100
127
164
148
110
86
87
68
64
36
25
72
87
73
72
64
107
146
129
104
136
167
148
134
114
86
100
96
100
91
110
110
92
91
146
153
164
181
192
190
143
115
102
104
119
109
96
78
67
67
81
89
79
79
68
73
64
70
73
78
73
72
72
55
40
39
92
115
107
97
49
92
64
25
20
21
30
33
42
55
30
65
105
114
127
144
162
144
112
75
64
68
132
144
141
171
198
207
137
86
114
174
180
158
131
97
94
86
75
52
30
44
67
49
65
96
124
124
109
91
125
136
125
120
112
78
94
81
89
78
83
84
86
127
172
178
190
181
172
194
153
124
120
115
110
99
79
73
86
86
75
73
72
68
61
73
62
53
68
76
70
62
61
56
40
44
102
97
87
79
40
78
72
17
21
21
20
44
49
46
52
78
89
100
109
132
158
143
122
94
91
72
117
129
131
151
178
199
183
139
110
176
207
196
151
139
109
84
65
65
40
36
46
75
94
105
104
99
87
83
124
131
104
99
99
76
84
73
64
67
87
99
124
194
198
169
178
155
167
201
167
143
129
109
92
91
83
86
110
99
68
61
61
56
61
56
53
46
56
75
64
53
46
46
37
61
91
79
65
65
34
89
91
17
21
22
20
58
75
43
37
49
72
97
107
136
151
158
132
99
107
99
122
112
148
167
181
203
189
169
153
169
198
178
148
115
94
78
76
86
39
32
33
68
94
91
89
99
67
86
120
110
96
76
87
72
70
73
55
105
143
146
183
199
223
178
155
141
185
187
171
162
127
99
104
94
105
104
120
96
65
55
52
47
47
43
40
40
44
64
67
47
42
43
37
47
79
53
42
36
44
87
75
24
20
21
28
49
109
76
87
70
70
112
139
151
169
169
137
110
112
122
139
144
160
192
199
192
178
158
162
158
181
192
158
124
102
79
64
52
34
33
36
36
72
79
75
91
56
78
99
76
76
64
73
76
55
56
84
176
187
164
190
178
210
187
146
136
169
194
165
144
129
112
120
112
129
134
131
96
78
61
53
53
46
47
59
56
39
55
68
58
53
42
36
43
81
33
22
21
37
84
61
26
18
21
24
33
107
117
115
109
89
107
144
164
167
180
158
124
144
158
164
187
180
172
176
172
165
143
150
137
167
178
180
141
112
79
86
78
52
50
56
34
30
55
53
53
44
46
42
44
44
40
46
61
53
61
160
216
183
151
171
157
205
183
144
131
158
169
164
141
131
134
131
139
141
157
139
110
97
68
70
67
52
49
56
59
37
42
64
61
49
39
34
75
92
32
30
40
32
76
36
25
22
21
20
33
81
81
112
129
110
120
151
148
162
169
169
153
144
144
153
169
160
148
164
150
150
143
137
136
151
171
181
127
99
114
94
68
58
73
76
36
26
29
30
30
29
37
32
32
34
39
43
43
47
91
176
201
171
139
160
148
199
171
136
129
134
157
155
137
120
120
134
150
150
148
146
144
119
91
114
89
65
49
42
52
42
37
53
52
40
36
36
53
76
32
47
56
24
56
29
28
21
21
21
24
39
87
102
117
139
141
136
132
153
169
180
158
131
122
132
132
134
150
148
125
143
131
115
122
146
178
196
172
143
120
109
96
86
91
81
37
44
33
59
83
75
73
64
46
58
50
58
73
89
155
231
189
160
132
151
137
181
157
137
114
124
143
139
124
117
114
136
139
137
124
132
139
119
115
124
102
56
49
42
37
36
34
37
37
39
52
56
72
78
49
33
46
26
25
26
22
21
21
22
40
81
81
70
94
132
150
110
127
148
172
169
144
119
105
109
110
124
141
136
115
131
110
100
139
153
176
187
192
144
129
124
115
97
83
64
44
56
32
59
89
124
114
104
110
96
65
65
78
114
176
218
192
148
127
129
129
160
148
141
120
110
124
124
107
107
117
129
129
115
117
132
136
92
94
91
72
50
43
39
36
34
34
40
53
56
59
50
17
47
68
18
18
53
39
47
28
21
26
50
89
62
94
119
132
134
119
107
146
148
171
172
158
139
105
92
112
127
120
129
109
109
83
102
119
129
143
189
185
137
115
86
84
75
61
43
73
61
34
42
67
107
94
131
136
141
91
72
89
119
189
229
192
180
150
114
119
132
134
127
134
102
107
112
97
104
125
119
114
107
124
136
137
100
61
64
58
47
43
39
36
33
34
44
39
43
49
37
5
13
20
12
36
67
81
44
24
36
76
79
110
100
134
141
129
119
89
120
136
137
160
158
153
143
127
94
79
105
114
122
94
81
102
131
151
146
150
178
187
137
109
104
99
107
92
53
87
65
44
33
42
53
73
117
104
143
129
97
100
131
199
220
216
205
192
139
102
122
127
119
129
115
89
102
94
114
117
105
99
124
141
136
132
81
53
52
47
43
40
37
34
34
33
32
33
33
33
34
26
1
2
25
37
46
70
61
39
84
115
131
114
124
141
127
110
87
91
112
136
151
151
141
144
141
115
97
84
89
105
97
70
84
119
115
141
162
178
196
185
160
139
146
127
112
81
70
102
83
61
37
29
28
49
59
96
162
176
162
157
183
220
196
164
157
165
174
110
102
120
112
117
122
91
87
94
117
102
94
115
117
136
122
99
67
52
46
47
42
37
36
33
33
33
30
30
33
34
34
29
13
6
29
32
72
78
89
83
99
105
100
91
112
134
120
91
72
112
141
148
131
122
124
132
137
131
104
75
64
68
68
96
136
157
158
158
164
185
209
199
180
180
144
115
89
68
104
122
86
64
50
44
33
33
44
79
107
132
190
176
190
164
216
180
129
129
143
120
89
107
104
105
104
102
84
84
99
91
114
141
131
127
94
65
70
55
44
47
43
42
42
32
32
32
30
30
32
32
32
25
49
11
4
11
52
53
104
110
109
83
65
94
112
117
107
79
72
114
124
117
107
96
107
115
125
119
92
58
64
68
83
115
125
157
189
189
190
199
205
205
201
162
129
105
91
99
132
115
102
89
59
65
43
33
39
62
104
150
172
162
127
160
212
214
176
132
109
114
96
92
97
94
91
89
81
75
83
92
120
125
129
112
70
53
72
56
42
39
40
50
52
32
30
29
29
29
29
28
30
65
70
40
12
3
11
21
58
86
75
55
73
117
104
91
86
62
84
97
94
86
81
86
97
97
124
114
89
53
64
102
109
143
151
172
169
180
180
198
178
194
201
155
139
119
129
153
144
114
112
94
56
76
59
33
36
56
102
131
127
127
91
158
221
240
203
150
124
99
89
83
91
83
78
76
73
78
94
112
97
92
94
92
61
49
61
52
40
36
42
56
42
29
29
29
28
29
29
29
30
79
53
46
10
1
2
3
22
43
39
47
87
109
96
75
50
50
84
64
84
72
67
72
62
84
127
122
70
42
86
97
117
136
150
158
157
162
169
181
158
198
205
190
171
148
171
151
112
104
94
78
81
81
62
37
34
43
67
110
117
78
115
153
162
210
199
144
114
109
75
75
84
75
67
65
83
105
110
129
99
72
59
70
50
46
47
46
36
34
43
46
32
28
28
29
29
30
30
30
30
64
37
32
21
21
4
2
17
9
28
72
86
94
73
50
36
72
43
30
72
56
44
52
92
100
117
109
67
30
58
89
107
119
125
129
144
148
178
150
172
176
198
212
196
178
180
137
164
169
105
96
117
94
76
49
33
36
52
83
97
65
112
164
194
221
174
129
115
97
89
70
76
68
61
84
120
117
132
129
99
59
46
49
44
40
39
46
32
36
40
33
29
28
28
28
30
30
30
32
32
55
58
42
16
9
4
4
4
44
79
81
70
70
53
30
44
28
15
11
25
28
30
76
78
76
92
75
46
47
104
78
67
86
107
132
120
158
164
132
139
174
190
207
210
212
194
198
165
125
107
157
134
104
83
55
37
36
40
55
61
86
122
185
151
183
178
139
104
86
92
72
67
61
79
105
132
134
132
132
105
59
43
44
39
36
34
34
30
39
36
28
28
28
29
28
28
29
30
30
30
73
49
30
28
20
17
4
5
64
78
53
44
25
20
52
10
10
10
18
11
17
26
43
52
53
58
62
26
58
104
104
87
105
139
102
119
146
129
124
157
171
185
190
199
207
221
205
196
153
158
155
127
117
92
59
44
47
39
39
53
79
110
109
141
124
107
100
94
97
76
68
62
59
79
114
112
114
97
97
75
43
42
40
36
33
30
30
30
33
28
28
28
28
28
28
28
28
28
29
28
72
44
49
43
32
16
2
4
42
79
58
16
32
11
11
8
13
43
72
28
12
18
29
39
42
43
25
28
34
50
44
52
83
110
91
124
115
102
137
151
160
172
192
178
192
203
221
214
209
196
176
150
114
81
56
53
64
47
43
43
53
67
109
124
59
50
67
72
78
67
64
59
59
87
117
97
96
76
64
49
36
37
34
32
30
29
28
29
28
28
28
28
28
28
28
28
28
29
28
28
58
53
67
59
26
2
2
17
62
61
50
25
16
6
11
15
43
81
97
79
39
18
15
16
20
20
25
34
42
72
56
40
53
78
83
110
91
114
117
141
155
183
171
158
187
207
218
203
165
146
134
94
91
78
61
76
73
76
56
47
43
42
43
46
53
61
52
53
58
59
58
59
83
97
107
87
75
55
43
37
34
33
33
32
28
28
28
28
28
28
28
28
28
28
28
28
28
28
28
28
87
86
91
72
25
2
4
16
28
29
20
21
9
10
50
56
55
58
68
96
117
50
32
28
37
44
55
92
89
96
81
55
47
53
64
73
73
89
102
109
155
169
150
162
190
199
220
210
218
189
146
114
167
158
96
97
109
136
78
59
56
56
52
64
81
78
68
53
58
61
59
67
83
92
94
94
65
50
43
34
33
30
29
28
26
24
25
28
26
28
28
28
28
28
26
26
28
28
26
28
122
110
92
42
17
2
8
5
3
4
2
15
6
13
32
59
91
99
100
114
125
76
89
81
104
114
119
134
119
100
109
104
81
64
65
72
96
117
146
119
127
139
157
192
201
210
218
223
225
187
164
167
174
146
107
134
164
165
107
73
76
65
73
75
96
92
97
78
83
91
78
70
78
86
102
112
104
87
55
34
34
30
28
28
25
24
26
28
28
26
26
26
26
26
26
26
26
26
28
28
91
94
62
15
10
21
12
4
1
1
6
6
8
37
43
36
61
73
81
102
119
100
117
131
144
141
143
136
124
120
122
148
155
115
125
124
125
129
160
174
146
141
174
190
198
207
216
210
225
210
194
198
192
127
162
144
194
172
115
97
94
70
91
83
84
114
136
122
122
107
89
92
81
83
100
112
132
104
49
34
32
29
28
26
24
24
24
25
25
24
24
25
28
28
26
24
25
25
26
28
61
67
43
4
32
44
37
42
21
30
36
29
40
47
78
50
52
78
87
96
105
124
136
151
151
146
137
125
129
137
141
160
167
155
165
167
157
150
160
185
181
178
181
190
190
203
209
203
220
221
220
220
183
167
199
174
198
153
148
157
104
68
100
125
94
115
171
141
124
100
104
105
87
65
76
91
117
89
46
32
29
28
26
24
22
22
22
24
24
24
24
24
25
24
24
24
24
24
25
25
34
47
52
29
15
11
12
42
73
87
86
62
70
62
86
97
81
114
129
132
129
134
144
150
139
141
134
124
115
124
129
146
164
171
171
181
174
176
172
181
194
192
189
187
185
198
192
205
216
216
223
227
199
189
212
209
196
162
190
160
99
96
112
158
134
107
180
172
132
110
99
91
84
62
55
78
94
68
40
29
25
24
24
21
21
21
21
22
22
24
24
24
24
24
24
24
24
24
24
24
40
22
36
52
40
15
5
8
49
87
75
81
96
91
86
122
119
122
131
137
136
148
143
137
137
127
125
120
99
104
114
137
155
157
172
162
169
180
189
192
199
192
187
180
183
185
194
205
207
205
220
220
218
214
221
221
203
199
196
162
139
136
127
181
189
125
165
201
158
112
75
72
70
49
52
75
76
56
34
30
24
21
21
21
21
21
21
21
21
22
24
24
24
22
24
24
24
24
24
24
