P2
# CREATOR: GIMP PNM Filter Version 1.1
80 80
255
0
0
0
0
0
0
0
0
0
0
0
0
0
0
0
0
0
0
0
0
0
0
0
0
0
0
0
0
0
0
0
0
0
0
0
0
0
0
0
0
0
0
0
0
0
0
0
0
0
0
0
0
0
0
0
0
0
0
0
0
0
0
0
0
0
0
0
0
0
0
0
0
0
0
0
0
0
0
0
0
0
0
0
0
0
0
0
0
0
0
0
0
0
0
0
0
0
0
0
0
0
0
0
0
0
0
0
0
0
0
0
0
0
0
0
0
0
0
0
0
0
0
0
0
0
0
0
0
0
0
0
0
0
0
0
0
0
0
0
0
0
0
0
0
0
0
0
0
0
0
0
0
0
0
0
0
0
0
0
0
0
0
0
0
0
0
0
0
0
0
0
0
0
0
0
0
0
0
0
0
0
0
0
0
0
0
0
0
0
0
0
0
0
0
0
0
0
0
0
0
0
0
0
0
0
0
0
0
0
0
0
0
0
0
0
0
0
0
0
0
0
0
0
0
0
0
0
0
0
0
0
0
0
0
0
0
0
0
0
0
0
0
0
0
0
0
0
0
0
0
0
0
0
0
0
0
0
0
0
0
0
0
0
0
0
0
0
0
0
0
0
0
0
0
0
0
0
0
0
0
0
0
0
0
0
0
0
0
0
0
0
0
0
0
0
0
0
0
0
0
0
0
0
0
0
0
0
0
0
0
0
0
0
0
0
0
0
0
0
0
0
0
0
0
0
0
0
0
0
0
0
0
0
0
0
0
0
0
0
0
0
0
0
0
0
0
0
0
0
0
0
0
0
0
0
0
0
0
0
0
0
0
0
0
0
0
0
0
0
0
0
0
0
0
0
0
0
0
0
0
0
0
0
0
0
0
0
0
0
0
0
0
0
0
0
0
0
0
0
0
0
0
0
0
0
0
0
0
0
0
0
0
0
0
0
0
0
0
0
0
0
0
0
0
0
0
0
0
0
0
0
0
0
0
0
0
0
0
0
0
0
0
0
0
0
0
0
0
0
0
0
0
0
0
0
0
0
0
0
0
0
0
0
0
0
0
0
0
0
0
0
0
0
0
0
0
0
0
0
0
0
0
0
0
0
0
0
0
0
0
0
0
0
0
0
0
0
0
0
0
0
0
0
0
0
0
0
0
0
0
0
0
0
0
0
0
0
0
0
0
0
0
0
0
0
0
0
0
0
0
0
0
0
0
0
0
0
0
0
0
0
0
0
0
0
0
0
0
0
0
0
0
0
0
0
0
0
0
0
0
0
0
0
0
0
0
0
0
0
0
0
0
0
0
0
0
0
0
0
0
0
0
0
0
0
0
0
0
0
0
0
0
0
0
0
0
0
0
0
0
0
0
0
0
0
0
0
0
0
0
0
0
0
0
0
0
0
0
0
0
0
0
0
0
0
0
0
0
0
0
0
0
0
0
0
0
0
0
0
0
0
0
0
0
0
0
0
0
0
0
0
0
0
0
0
0
0
0
0
0
0
0
0
0
0
0
0
0
0
0
0
0
0
0
0
0
0
0
0
0
0
0
0
0
0
0
0
0
0
0
0
0
0
0
0
0
0
0
0
0
0
0
0
0
0
0
0
0
0
0
0
0
0
0
0
0
0
0
0
0
0
0
0
0
0
0
0
0
0
0
0
0
0
0
0
0
0
0
0
0
0
0
0
0
0
0
0
0
0
0
0
0
0
0
0
0
0
0
0
0
0
0
0
0
0
0
0
0
0
0
0
0
0
0
0
0
0
0
0
0
0
0
0
0
0
0
0
0
0
0
0
0
0
0
0
0
0
0
0
0
0
0
0
0
0
0
0
0
0
0
0
0
0
0
0
0
0
0
0
0
0
0
0
0
0
0
0
0
0
0
0
0
0
0
0
0
0
0
0
0
0
0
0
0
0
0
0
0
0
0
0
0
0
0
0
0
0
0
0
0
0
0
0
0
0
0
0
0
0
0
0
0
0
0
0
0
0
0
0
0
0
0
0
0
0
0
0
0
0
0
0
0
0
0
0
0
0
0
0
0
0
0
0
0
0
0
0
0
0
0
0
0
0
0
0
0
0
0
0
0
0
0
0
0
0
0
0
0
0
0
0
0
0
0
0
0
0
0
0
0
0
0
0
0
0
0
0
0
0
0
0
0
0
0
0
0
0
0
0
0
0
0
0
0
0
0
0
0
0
0
0
0
0
0
0
0
0
0
0
0
0
0
0
0
0
0
0
0
0
0
0
0
0
0
0
0
0
0
0
0
0
0
0
0
0
0
0
0
0
0
0
0
0
0
0
0
0
0
0
0
0
0
0
0
0
0
0
0
0
0
0
0
0
0
0
0
0
0
0
0
0
0
0
0
0
0
0
0
0
0
0
0
0
0
0
0
0
0
0
0
0
0
0
0
0
0
0
0
0
0
0
0
0
0
0
0
0
0
0
0
0
0
0
0
0
0
0
0
0
0
0
0
0
0
0
0
0
0
0
0
0
0
0
0
0
0
0
0
0
0
0
0
0
0
0
0
0
0
0
0
0
0
0
0
0
0
0
0
0
0
0
0
0
0
0
0
0
0
0
0
0
0
0
0
0
0
0
0
0
0
0
0
0
0
0
0
0
0
0
0
0
0
0
0
0
0
0
0
0
0
0
0
0
0
0
0
0
0
0
0
0
0
0
0
0
0
0
0
0
0
0
0
0
0
0
0
0
0
0
0
0
0
0
0
0
0
0
0
0
0
0
0
0
0
0
0
0
0
0
0
0
0
0
0
0
0
0
0
0
0
0
0
0
0
0
0
0
0
0
0
0
0
0
0
0
0
0
0
0
0
0
0
0
0
0
0
0
0
0
0
0
0
0
0
0
0
0
0
0
0
0
0
0
0
0
0
0
0
0
0
0
0
0
0
0
0
0
0
0
0
0
0
0
0
0
0
0
0
0
0
0
0
0
0
0
0
0
0
0
0
0
0
0
0
0
0
0
0
0
0
0
0
0
0
0
0
0
0
0
0
0
0
0
0
0
0
0
0
0
0
0
0
0
0
0
0
0
0
0
0
0
0
0
0
0
0
0
0
0
0
0
0
0
0
0
0
0
0
0
0
0
0
0
0
0
0
0
0
0
0
0
0
0
0
0
0
0
0
0
0
0
0
0
0
0
0
0
0
0
0
0
0
0
0
0
0
0
0
0
0
0
0
0
0
0
0
0
0
0
0
0
0
0
0
0
0
0
0
0
0
0
0
0
0
0
0
0
0
0
0
0
0
0
0
0
0
0
0
0
0
0
0
0
0
0
0
0
0
0
0
0
0
0
0
0
0
0
0
0
0
0
0
0
0
0
0
0
0
0
0
0
0
0
0
0
0
0
0
0
0
0
0
0
0
0
0
0
0
0
0
0
0
0
0
0
0
0
0
0
0
0
0
0
0
0
0
0
0
0
0
0
0
0
0
0
0
0
0
0
0
0
0
0
0
0
0
0
0
0
0
0
0
0
0
0
0
0
0
0
0
0
0
0
0
0
0
0
0
0
0
0
0
0
0
0
0
0
0
0
0
0
0
0
0
0
0
0
0
0
0
0
0
0
0
0
0
0
0
0
0
0
0
0
0
0
0
0
0
0
0
0
0
0
0
0
0
0
0
0
0
0
0
0
0
0
0
0
0
0
0
0
0
0
0
0
0
0
0
0
0
0
0
0
0
0
0
0
0
0
0
0
0
0
0
0
0
0
0
0
0
0
0
0
0
0
0
0
0
0
0
0
0
0
0
0
0
0
0
0
0
0
0
0
0
0
0
0
0
0
0
0
0
0
0
0
0
0
0
0
0
0
0
0
0
0
0
0
0
0
0
0
0
0
0
0
0
0
0
0
0
0
0
0
0
0
0
0
0
0
0
0
0
0
0
0
0
0
0
0
0
0
0
0
0
0
0
0
0
0
0
0
0
0
0
0
0
0
0
0
0
0
0
0
0
0
0
0
0
0
0
0
0
0
0
0
0
0
0
0
0
0
0
0
0
0
0
0
0
0
0
0
0
0
0
0
0
0
0
0
0
0
0
0
0
0
0
0
0
0
0
0
0
0
0
0
0
0
0
0
0
0
0
0
0
0
0
0
0
0
0
0
0
0
0
0
0
0
0
0
0
0
0
0
0
0
0
0
0
0
0
0
0
0
0
0
0
0
0
0
0
0
0
0
0
0
0
0
0
0
0
0
0
0
0
0
0
0
0
0
0
0
0
0
0
0
0
0
0
0
0
0
0
0
0
0
0
0
0
0
0
0
0
0
0
0
0
0
0
0
0
0
0
0
0
0
0
0
0
0
0
0
0
0
0
0
0
0
0
0
0
0
0
0
0
0
0
0
0
0
0
0
0
0
0
0
0
0
0
0
0
0
0
0
0
0
0
0
0
0
0
0
0
0
0
0
0
0
0
0
0
0
0
0
0
0
0
0
0
0
0
0
0
0
0
0
0
0
0
0
0
0
0
0
0
0
0
0
0
0
0
0
0
0
0
0
0
0
0
0
0
0
0
0
0
0
0
0
0
0
0
0
0
0
0
0
0
0
0
0
0
0
0
0
0
0
0
0
0
0
0
0
0
0
0
0
0
0
0
0
0
0
0
0
0
0
0
0
0
0
0
0
0
0
0
0
0
0
0
0
0
0
0
0
0
0
0
0
0
0
0
0
0
0
0
0
0
0
0
0
0
0
0
0
0
0
0
0
0
0
0
0
0
0
0
0
0
0
0
0
0
0
0
0
0
0
0
0
0
0
0
0
0
0
0
0
0
0
0
0
0
0
0
0
0
0
0
0
0
0
0
0
0
0
0
0
0
0
0
0
0
0
0
0
0
0
0
0
0
0
0
0
0
0
0
0
0
0
0
0
0
0
0
0
0
0
0
0
0
0
0
0
0
0
0
0
0
0
0
0
0
0
0
0
0
0
0
0
0
0
0
0
0
0
0
0
0
0
0
0
0
0
0
0
0
0
0
0
0
0
0
0
0
0
0
0
0
0
0
0
0
0
0
0
0
0
0
0
0
0
0
0
0
0
0
0
0
0
0
0
0
0
0
0
0
0
0
0
0
0
0
0
0
0
0
0
0
0
0
0
0
0
0
0
0
0
0
0
0
0
0
0
0
0
0
0
0
0
0
0
0
0
0
0
0
0
0
0
0
0
0
0
0
0
0
0
0
0
0
0
0
0
0
0
0
0
0
0
0
0
0
0
0
0
0
0
0
0
0
0
0
0
0
0
0
0
0
0
0
0
0
0
0
0
0
0
0
0
0
0
0
0
0
0
0
0
0
0
0
0
0
0
0
0
0
0
0
0
0
0
0
0
0
0
0
0
0
0
0
0
0
0
0
0
0
0
0
0
0
0
0
0
0
0
0
0
0
0
0
0
0
0
0
0
0
0
0
0
0
0
0
0
0
0
0
0
0
0
0
0
0
0
0
0
0
0
0
0
0
0
0
0
0
0
0
0
0
0
0
0
0
0
0
0
0
0
0
0
0
0
0
0
0
0
0
0
0
0
0
0
0
0
0
0
0
0
0
0
0
0
0
0
0
0
0
0
0
0
0
0
0
0
0
0
0
0
0
0
0
0
0
0
0
0
0
0
0
0
0
0
0
0
0
0
0
0
0
0
0
0
0
0
0
0
0
0
0
0
0
0
0
0
0
0
0
0
0
0
0
0
0
0
0
0
0
0
0
0
0
0
0
0
0
0
0
0
0
0
0
0
0
0
0
0
0
0
0
0
0
0
0
0
0
0
0
0
0
0
0
0
0
0
0
0
0
0
0
0
0
0
0
0
0
0
0
0
0
0
0
0
0
0
0
0
0
0
0
0
0
0
0
0
0
0
0
0
0
0
0
0
0
0
0
0
0
0
0
0
0
0
0
0
0
0
0
0
0
0
0
0
0
0
0
0
0
0
0
0
0
0
0
0
0
0
0
0
0
0
0
0
0
0
0
0
0
0
0
0
0
0
0
0
0
0
0
0
0
0
0
0
0
0
0
0
0
0
0
0
0
0
0
0
0
0
0
0
0
0
0
0
0
0
0
0
0
0
0
0
0
0
0
0
0
0
0
0
0
0
0
0
0
0
0
0
0
0
0
0
0
0
0
0
0
0
0
0
0
0
0
0
0
0
0
0
0
0
0
0
0
0
0
0
0
0
0
0
0
0
0
0
0
0
0
0
0
0
0
0
0
0
0
0
0
0
0
0
0
0
0
0
0
0
0
0
0
0
0
0
0
0
0
0
0
0
0
0
0
0
0
0
0
0
0
0
0
0
0
0
0
0
0
0
0
0
0
0
0
0
0
0
0
0
0
0
0
0
0
0
0
0
0
0
0
0
0
0
0
0
0
0
0
0
0
0
0
0
0
0
0
0
0
0
0
0
1
0
1
0
0
0
0
0
0
0
0
0
0
0
0
0
0
1
0
0
0
0
0
0
0
0
0
0
1
0
1
0
0
0
0
0
0
0
0
0
0
0
0
0
0
0
0
0
0
0
0
0
0
0
0
0
0
0
0
0
0
0
0
0
0
0
0
0
0
0
0
0
0
0
0
0
0
0
0
0
1
1
1
0
0
0
0
0
0
0
0
0
0
0
0
2
3
3
1
0
0
0
0
0
1
0
0
0
1
5
1
0
1
0
0
0
0
0
0
0
0
0
0
0
0
0
0
0
0
0
0
0
0
0
0
0
0
0
0
0
0
0
0
0
0
0
0
0
0
0
0
0
0
0
0
0
0
0
0
1
1
3
1
1
1
2
0
0
0
0
0
0
0
0
3
7
9
10
6
2
4
1
0
1
1
1
1
3
7
17
9
2
1
1
0
0
0
0
0
0
0
0
0
0
0
0
0
0
0
0
0
0
0
0
0
0
0
0
0
0
0
0
0
0
0
0
0
0
0
0
0
0
0
0
0
0
0
1
1
2
17
15
19
10
7
5
2
1
1
0
1
0
0
1
5
9
11
13
14
8
11
6
6
7
2
5
8
13
15
17
12
3
1
0
0
0
0
0
1
0
0
0
0
0
0
0
0
0
0
0
0
0
0
0
0
0
0
0
0
0
0
0
0
0
0
0
0
0
0
0
0
0
0
0
0
0
1
2
3
26
46
33
62
34
32
15
6
2
2
6
4
0
0
2
4
6
11
12
15
11
14
13
11
12
4
10
13
15
17
17
8
5
8
7
2
1
2
1
1
0
0
0
0
0
0
0
0
0
0
0
0
0
0
0
0
0
0
0
0
0
0
0
0
0
0
0
0
0
0
0
0
0
0
0
0
0
1
6
16
46
61
53
88
52
32
12
9
7
7
19
8
0
0
1
2
2
4
4
11
18
15
17
16
12
8
16
15
15
17
12
9
14
15
13
8
6
7
4
2
0
0
0
0
0
0
0
0
0
0
0
0
0
0
0
0
0
0
0
0
0
0
0
0
0
0
0
0
0
0
0
0
0
0
1
1
2
12
35
20
54
71
90
97
49
21
12
21
9
10
15
4
1
1
1
2
2
2
3
5
17
17
17
17
11
15
16
17
15
16
16
16
18
18
15
12
12
10
8
5
4
0
0
0
0
0
0
0
0
0
0
0
0
0
0
0
0
0
0
0
0
0
0
0
0
0
0
0
0
0
0
0
0
1
2
6
20
48
57
29
53
98
118
98
48
18
23
27
9
17
14
5
6
6
1
3
5
9
14
5
12
20
21
18
15
15
16
15
15
18
18
18
21
21
20
19
17
14
13
12
8
1
0
0
0
0
0
0
0
0
0
0
0
0
0
0
0
0
0
0
0
0
0
0
0
0
0
0
0
0
0
0
1
2
13
23
47
91
99
41
63
118
127
82
44
18
33
30
11
24
21
11
22
14
3
8
9
24
28
8
9
23
22
20
18
16
18
17
17
21
22
22
24
25
26
24
21
18
17
15
7
3
2
0
0
0
0
0
0
0
0
0
0
0
0
0
0
0
0
0
0
0
0
0
0
0
0
0
0
0
0
0
2
15
37
46
82
145
141
61
82
142
131
70
38
18
38
26
13
32
31
21
29
16
9
14
19
40
38
13
10
25
24
24
20
19
21
18
19
22
23
24
26
29
30
26
23
21
15
10
9
12
10
4
0
0
0
0
0
0
0
0
0
0
0
0
0
0
0
0
0
0
0
0
0
0
0
0
0
0
1
2
15
41
86
103
141
176
164
111
125
141
109
60
32
22
46
29
17
45
36
35
38
29
18
14
30
46
36
14
13
29
27
27
21
25
22
21
26
23
25
27
32
34
33
29
24
22
19
13
15
17
13
10
1
0
0
0
0
0
0
0
0
0
0
0
0
0
0
0
0
0
0
0
0
0
0
0
0
0
5
15
44
92
143
169
172
189
174
157
151
86
61
44
24
39
70
45
22
58
56
56
65
52
29
24
46
56
30
13
18
31
32
26
26
26
22
24
30
26
27
32
38
41
38
30
28
30
25
20
17
15
12
8
2
0
0
0
0
0
0
0
0
0
0
0
0
0
0
0
0
1
0
1
1
0
1
1
5
12
31
26
39
75
142
191
188
191
173
178
125
70
38
31
39
74
97
63
29
61
82
77
108
87
46
35
73
80
36
21
26
41
35
22
29
27
25
26
30
27
31
36
44
47
40
44
43
45
43
41
25
13
11
7
3
0
0
0
0
0
0
0
0
0
0
0
0
0
0
0
1
1
1
1
2
3
9
12
33
57
79
48
43
60
110
184
195
195
188
181
98
55
38
61
80
123
141
78
38
49
99
123
153
103
54
46
87
79
34
20
42
46
31
33
36
33
29
30
35
34
35
41
47
49
47
56
62
59
66
60
40
19
13
11
5
0
1
0
0
0
0
0
0
0
0
0
0
0
0
0
0
1
2
11
20
26
56
56
47
108
132
84
68
70
105
168
203
201
205
187
111
67
44
56
97
150
166
106
53
37
75
122
154
102
57
53
91
65
29
23
50
49
34
48
58
53
42
41
47
59
49
45
52
55
53
53
64
73
82
66
40
34
16
9
6
2
1
0
0
0
0
0
0
0
0
0
0
0
0
0
1
11
37
42
42
57
111
125
99
112
173
141
136
104
108
177
209
207
210
202
144
94
67
46
78
141
185
135
71
41
50
80
118
130
92
82
95
67
32
31
56
51
37
47
67
79
66
62
66
89
73
59
59
59
49
41
48
55
77
68
60
48
20
9
7
2
0
0
0
0
0
0
0
0
0
0
0
0
0
5
26
59
93
87
60
83
132
152
165
168
190
198
204
171
157
199
204
205
208
207
182
124
94
60
61
122
171
170
104
61
44
57
81
138
164
151
106
68
36
28
57
61
46
49
61
80
102
100
101
102
84
77
60
49
40
34
31
30
40
46
60
56
25
11
6
1
0
0
0
0
0
0
0
0
0
0
0
0
3
29
56
82
99
111
120
134
150
160
173
187
202
209
213
204
196
200
195
200
201
203
203
189
143
76
54
83
147
196
153
97
62
49
74
148
210
189
114
75
44
29
57
63
63
46
58
73
105
114
104
99
90
77
57
47
42
37
33
31
27
25
28
37
30
11
4
3
2
0
0
0
0
0
0
0
0
0
0
1
19
69
81
88
99
116
134
149
160
172
177
189
206
209
206
195
194
194
186
193
192
195
203
208
189
121
69
68
125
191
203
128
74
55
86
162
217
200
127
82
45
32
58
65
73
63
50
61
85
97
98
92
79
68
64
55
50
43
37
34
31
26
23
20
19
11
7
7
5
1
0
0
0
0
0
0
0
0
0
3
45
61
84
101
110
119
134
149
162
173
182
192
204
198
194
189
189
186
183
188
191
198
208
208
207
170
102
65
101
162
198
143
85
60
84
138
209
204
133
80
51
30
45
52
73
79
68
55
69
87
114
100
76
68
60
52
49
45
40
35
30
30
28
23
16
13
14
11
7
2
0
0
0
0
0
0
0
0
0
5
67
82
83
97
118
130
143
154
167
178
185
192
192
189
192
180
181
182
185
191
195
199
200
206
213
201
144
84
80
125
163
160
103
69
76
116
173
198
139
76
53
34
46
50
76
86
87
65
76
97
119
113
78
63
54
47
45
42
40
37
34
32
29
24
21
17
15
12
8
2
0
0
0
0
0
0
0
0
0
15
71
88
104
112
116
128
141
157
167
179
188
190
186
188
193
173
166
179
187
195
194
196
200
205
212
215
193
117
78
87
121
158
133
88
76
93
122
172
156
94
61
36
55
60
78
91
96
79
90
128
147
131
99
87
69
53
43
36
34
32
28
26
26
23
21
16
13
10
6
0
0
0
0
0
0
0
0
0
1
26
53
65
83
94
110
131
148
159
170
179
186
186
181
189
188
161
145
178
187
190
192
193
195
202
207
212
210
169
126
95
87
126
154
120
94
85
103
142
181
137
86
42
47
66
81
93
101
93
107
147
159
144
127
107
81
64
51
42
35
32
26
20
16
18
19
15
12
7
4
0
0
0
0
0
0
0
0
0
3
49
76
80
77
82
113
132
148
161
172
183
181
179
182
191
165
115
138
169
181
182
188
189
195
195
200
207
205
201
188
135
97
95
128
143
131
102
101
122
163
117
82
49
46
65
85
97
103
103
124
139
154
138
110
111
87
67
50
38
29
23
19
15
11
17
16
14
12
7
4
0
0
0
0
0
0
0
0
1
9
46
66
85
102
116
129
141
153
163
173
180
162
172
183
163
115
115
160
183
177
174
177
180
178
163
175
189
198
207
213
184
137
94
104
119
153
137
129
134
139
101
74
54
49
67
88
100
91
95
115
107
130
116
76
80
59
50
38
30
28
23
18
13
11
11
12
12
9
7
3
0
0
0
0
0
0
0
0
1
23
53
68
85
102
119
130
141
153
165
174
153
117
158
145
106
96
147
169
174
141
125
132
143
156
182
194
198
207
213
214
214
170
103
115
130
141
177
202
155
113
92
73
64
56
85
98
93
74
78
86
81
88
88
70
51
35
29
25
22
20
18
16
16
13
10
6
9
8
5
2
0
0
0
0
0
0
0
0
4
45
68
78
92
105
116
129
143
154
164
174
150
99
120
116
80
108
154
152
122
103
128
156
174
183
195
206
211
212
216
220
219
202
140
112
122
149
191
224
168
116
95
92
74
66
97
94
77
61
56
63
66
65
56
56
44
31
25
24
23
21
19
17
16
15
14
8
3
3
2
0
0
0
0
0
0
0
0
2
11
44
57
67
82
97
115
126
139
151
161
172
170
107
86
88
83
115
139
112
91
132
164
186
199
204
206
208
209
216
219
221
222
222
208
173
138
158
215
230
177
128
105
90
74
81
95
82
66
66
56
50
56
58
49
43
38
34
28
25
21
19
19
15
14
14
11
10
8
4
1
0
0
0
0
0
0
0
2
2
15
47
63
81
96
103
114
126
139
150
158
168
172
133
83
64
98
105
88
93
100
137
167
186
198
203
200
199
203
209
217
220
224
228
230
226
212
199
227
240
208
138
115
93
96
94
79
79
66
56
50
46
43
51
46
41
39
34
29
25
23
20
17
13
11
11
9
7
6
4
0
0
0
0
0
0
0
1
4
6
29
49
64
75
87
103
117
128
141
153
158
162
172
165
105
63
74
69
87
121
133
147
168
186
187
189
194
203
209
211
217
220
225
229
230
236
238
234
239
245
239
184
136
127
107
75
67
73
68
50
41
44
37
44
41
35
34
28
28
26
21
19
16
12
10
9
9
6
3
1
0
1
0
0
0
0
1
2
3
12
54
67
69
82
93
104
114
129
140
149
156
163
169
168
121
74
58
73
105
138
163
156
165
175
183
188
199
208
215
217
221
224
228
232
233
237
241
243
243
252
247
210
171
146
104
77
60
61
64
55
42
38
34
41
40
31
30
26
24
23
19
18
16
11
10
7
6
3
2
0
0
0
0
0
1
2
2
2
2
21
57
65
73
84
96
106
117
127
133
146
152
158
164
167
144
88
52
78
100
121
124
118
155
180
192
197
205
212
213
214
216
220
228
230
234
237
237
241
247
253
232
185
144
122
109
88
59
49
50
51
49
39
31
37
35
30
25
28
23
20
20
19
27
14
8
6
4
2
0
0
0
0
0
0
2
4
3
2
4
22
45
66
77
86
97
105
115
122
132
137
143
148
155
161
147
97
52
69
74
76
105
129
161
180
192
199
202
205
205
206
211
217
226
227
221
194
214
221
239
252
189
115
94
80
80
80
56
45
41
39
41
39
33
30
29
29
25
23
22
20
18
21
36
23
6
4
3
1
1
1
0
0
0
0
1
3
3
3
5
31
55
67
77
85
94
100
106
112
122
125
135
143
150
156
135
82
63
51
63
65
110
130
154
171
184
193
196
193
191
202
208
209
211
219
178
130
150
154
194
248
211
159
106
81
68
62
51
46
41
37
35
36
34
30
30
27
26
23
18
19
17
26
41
20
6
3
3
2
1
0
0
0
0
0
1
2
2
3
5
39
62
66
70
80
88
93
94
102
114
123
130
139
145
149
137
99
85
54
56
79
101
117
131
158
178
190
185
172
183
188
182
172
190
201
133
113
139
168
191
233
233
181
123
92
75
61
51
46
41
39
38
38
34
30
27
25
24
21
17
17
19
34
32
11
6
4
3
1
0
0
0
0
0
0
1
2
2
2
5
39
53
59
70
79
80
80
96
108
112
117
125
132
137
143
144
121
83
49
79
97
105
104
121
149
170
176
165
164
160
140
137
142
168
149
108
149
182
201
200
202
177
125
140
122
97
70
57
50
43
37
36
35
33
30
27
24
22
20
18
15
14
23
16
5
5
3
1
0
0
0
0
0
0
0
1
2
2
2
5
24
37
47
51
59
68
81
93
98
106
114
119
123
129
135
129
118
76
45
85
95
93
101
121
145
163
157
143
140
119
108
122
128
112
101
117
176
198
177
164
176
137
101
104
103
81
63
54
43
41
37
33
33
32
29
28
25
23
21
21
22
13
9
9
6
4
2
0
0
0
0
0
0
0
0
2
2
2
2
4
14
29
37
55
70
78
87
96
101
104
106
109
112
120
131
116
86
73
45
77
90
86
101
112
128
140
136
125
102
95
117
108
94
104
137
158
181
173
138
144
163
127
107
95
75
62
57
48
40
35
35
31
32
31
29
26
23
20
20
20
23
14
9
20
11
5
2
0
0
0
0
0
0
0
0
2
2
2
2
3
12
39
54
63
71
79
86
97
97
94
99
102
109
119
112
89
55
47
48
75
83
89
94
93
99
111
93
89
84
112
107
81
107
134
164
193
177
139
119
138
156
113
84
84
79
70
57
48
42
34
30
30
30
30
28
26
23
21
20
17
17
9
14
22
16
5
2
0
0
0
0
0
0
0
0
2
2
2
2
4
10
38
50
58
66
72
79
83
84
82
88
97
106
109
85
48
30
31
54
74
82
86
76
72
73
74
73
73
100
92
75
101
142
167
186
190
149
116
107
128
149
119
85
64
62
68
58
49
43
39
33
31
31
27
25
26
25
23
21
17
15
13
16
20
10
2
1
0
0
0
0
0
0
0
0
2
2
2
2
1
4
27
42
56
59
70
73
72
68
71
85
95
99
88
62
27
32
50
70
74
79
73
63
69
55
57
62
72
75
74
105
141
175
191
184
153
119
98
107
126
147
109
81
62
51
51
52
49
44
38
34
35
33
29
25
27
26
24
23
19
17
18
17
20
12
2
0
0
0
0
0
0
0
0
0
2
2
2
3
2
3
20
41
46
56
62
66
54
59
70
82
87
92
69
41
23
45
65
71
76
68
53
54
43
48
58
60
73
92
115
138
165
175
172
151
113
88
92
107
144
141
95
70
67
61
51
47
43
43
35
37
38
38
33
31
27
23
22
21
19
17
18
15
20
17
3
0
0
0
0
0
0
0
0
0
0
2
3
3
2
2
7
27
44
51
59
46
46
56
70
76
82
84
59
26
25
47
63
60
72
52
42
42
61
63
79
102
119
128
134
147
157
160
149
135
96
78
97
111
132
146
104
82
88
80
65
50
40
39
38
42
43
43
39
31
27
25
22
20
18
18
17
15
21
15
3
1
0
0
0
0
0
0
0
0
0
1
2
3
2
2
2
16
37
42
48
35
43
58
62
71
73
76
39
19
35
46
52
58
61
34
32
55
68
81
96
106
120
116
127
143
135
134
123
120
89
75
96
97
114
142
115
102
94
73
60
48
40
39
44
45
47
46
42
37
30
26
21
19
17
17
14
15
18
9
3
1
0
0
0
0
0
0
0
0
0
0
2
3
2
2
3
5
19
37
30
31
40
51
60
63
68
66
26
23
35
40
51
64
47
21
43
62
75
83
85
90
97
113
138
136
108
103
110
108
77
77
88
94
118
145
118
92
78
65
55
50
42
42
46
47
49
48
45
37
33
27
21
18
17
16
13
16
16
6
3
1
0
0
0
0
0
0
0
