P2
# CREATOR: GIMP PNM Filter Version 1.1
75 75
255
93
90
77
68
60
56
54
48
47
46
46
47
45
45
45
45
46
48
49
51
56
56
57
59
62
64
67
69
75
78
74
72
75
68
67
62
60
61
73
77
68
77
84
91
98
98
86
86
80
77
79
73
67
62
60
58
58
54
53
51
46
42
38
38
46
35
42
43
34
38
40
37
39
40
37
85
84
83
72
63
58
51
49
49
50
52
48
48
47
48
47
49
51
50
52
58
63
65
64
63
67
69
71
74
74
66
66
71
66
62
62
58
60
67
73
63
74
84
93
94
80
82
74
73
70
75
74
70
71
67
56
54
51
48
50
46
47
41
34
29
32
30
45
36
26
37
31
37
35
36
85
68
74
61
59
53
55
51
51
52
55
56
52
50
50
50
50
53
53
59
62
68
67
60
60
60
63
69
67
70
69
61
67
58
58
57
56
58
76
63
64
70
84
76
66
69
68
63
66
71
69
65
74
70
67
64
60
53
46
44
47
49
38
32
31
28
37
30
39
23
26
26
30
28
27
84
83
63
55
57
60
56
55
55
55
54
55
52
47
47
49
47
50
54
58
56
59
62
56
54
59
61
64
62
67
58
61
65
66
53
54
54
64
91
63
74
86
79
57
62
66
57
63
62
60
58
64
69
68
63
63
63
58
49
53
55
53
44
40
36
31
20
21
25
23
17
13
9
9
12
86
76
68
68
61
61
59
60
59
54
51
53
52
51
51
48
49
50
55
53
52
55
61
54
52
54
60
59
62
67
52
64
61
68
67
49
44
58
62
52
56
68
46
49
52
54
54
50
50
59
67
73
75
73
66
61
58
55
55
56
54
53
46
37
30
25
23
16
18
17
12
9
16
19
22
88
81
82
76
68
62
60
57
57
57
54
48
46
45
44
45
43
47
50
51
48
56
66
49
46
51
56
54
71
62
49
56
59
65
68
57
42
48
51
39
54
44
37
39
52
50
47
46
49
53
66
71
75
73
68
64
62
63
63
58
59
58
48
42
43
36
22
20
12
13
19
31
28
30
28
81
74
68
69
64
56
57
57
56
59
61
55
54
50
44
40
44
53
50
50
49
64
63
58
46
41
55
62
82
68
49
55
64
65
65
58
52
42
52
35
40
32
32
39
41
44
49
51
62
69
71
78
78
71
67
62
56
56
57
60
50
48
45
36
33
29
26
16
17
29
41
42
40
41
40
86
81
77
73
67
62
58
55
55
60
58
59
56
52
45
40
45
49
48
42
49
63
55
56
57
39
47
61
61
54
44
58
62
61
61
60
48
30
40
28
29
27
30
32
36
44
51
64
68
76
78
79
79
79
71
65
56
48
46
42
44
44
48
44
31
26
21
14
25
31
43
44
42
45
42
74
71
68
66
64
60
59
58
56
61
66
64
59
55
49
39
41
41
45
50
41
59
55
48
50
36
45
49
47
42
52
56
58
56
58
57
39
29
31
24
23
24
27
35
58
51
83
74
77
82
70
74
76
75
69
68
65
63
70
61
53
41
36
34
33
28
24
22
27
30
42
47
47
48
48
79
77
72
68
63
63
66
64
60
60
61
58
55
49
55
51
46
37
48
52
36
52
51
40
42
30
44
31
40
48
41
46
55
52
53
45
30
24
23
19
20
24
32
50
74
78
73
77
68
55
59
79
72
73
67
60
59
74
65
62
57
52
40
32
29
25
15
22
26
29
35
42
47
48
47
79
75
72
70
69
67
69
66
66
66
59
53
51
50
49
50
47
44
36
39
37
38
40
38
35
24
31
22
21
25
23
25
33
46
43
21
15
16
15
17
20
25
36
68
98
86
79
74
51
49
53
70
72
61
63
55
60
67
55
54
51
46
42
36
29
18
18
25
27
29
32
35
41
45
44
74
69
66
64
62
59
65
64
62
63
67
65
65
52
53
50
47
41
30
41
46
35
29
25
23
16
13
14
14
14
14
21
47
20
13
14
14
14
14
14
19
33
49
60
94
117
81
47
44
45
54
58
56
52
52
49
57
58
53
46
44
42
40
35
30
20
21
25
28
31
34
34
40
41
40
67
67
60
61
59
59
58
63
62
53
57
61
62
57
53
40
46
43
28
41
44
44
33
16
14
14
14
14
14
14
14
44
31
14
14
14
14
14
14
19
36
46
82
84
92
77
60
41
39
53
54
47
44
44
45
45
63
55
49
43
39
36
34
31
28
23
19
21
26
31
34
40
45
49
43
59
61
57
57
55
57
55
56
55
63
58
56
49
48
45
43
30
17
13
31
36
36
34
14
14
14
14
14
14
14
14
26
19
14
14
14
14
14
14
39
70
82
77
69
64
30
34
32
32
38
38
39
38
39
39
45
58
49
45
37
32
30
28
22
19
19
19
26
27
31
34
37
41
45
51
58
54
59
60
58
55
52
61
54
50
51
60
57
54
48
31
13
14
14
14
13
13
14
14
14
14
14
14
14
14
14
14
14
14
14
14
14
15
31
73
93
84
53
29
39
14
19
22
29
30
31
31
33
39
52
56
50
39
32
28
26
24
20
17
22
24
26
29
30
33
37
40
47
49
89
57
59
56
58
62
62
55
47
46
49
44
50
49
48
43
20
14
14
14
14
14
14
14
14
14
14
14
14
14
14
14
14
14
14
14
14
17
61
54
65
51
25
29
14
14
14
14
23
25
27
30
27
32
59
64
58
44
31
25
22
20
16
14
14
17
20
24
29
33
37
40
43
48
54
80
51
53
53
50
55
65
66
51
54
49
49
38
33
45
44
14
14
14
14
14
14
14
14
14
14
14
14
14
14
14
14
14
14
14
14
14
30
88
76
57
43
14
14
14
14
14
18
40
43
45
46
39
52
57
55
46
35
24
18
15
14
14
14
14
14
15
21
29
32
36
39
43
49
55
64
55
55
51
51
63
60
61
64
62
61
57
53
48
37
36
25
14
14
14
14
14
14
14
14
14
14
14
14
14
14
14
14
14
14
14
14
13
18
21
38
20
14
14
14
14
15
58
57
34
32
40
60
65
56
53
44
45
26
14
14
14
14
14
14
14
14
16
26
29
32
36
42
46
54
61
61
59
59
56
50
49
55
53
55
50
54
52
48
36
20
13
14
14
14
14
14
14
14
14
14
14
14
14
14
14
14
14
14
14
14
14
14
14
14
14
14
14
14
14
14
14
52
43
18
22
51
83
70
66
50
39
23
13
14
14
14
14
14
14
14
14
15
23
33
36
41
45
50
54
57
62
64
60
50
52
54
43
24
29
22
30
42
41
24
14
14
14
14
14
14
14
14
14
14
14
14
14
14
14
14
14
14
14
14
14
14
14
14
14
14
14
14
14
14
14
14
14
14
14
54
69
64
58
56
49
30
19
14
14
14
14
14
14
14
14
16
20
24
30
37
44
47
51
55
59
72
70
65
66
70
65
60
53
49
34
19
14
14
14
14
14
14
14
14
14
14
14
14
14
14
14
14
14
14
14
14
14
14
14
14
14
14
14
14
14
14
14
14
14
14
14
14
14
14
16
13
15
24
43
39
28
16
14
14
14
14
14
14
14
15
20
23
27
32
37
41
46
50
53
56
63
63
66
61
62
63
61
55
50
50
49
16
14
14
14
14
14
14
14
14
14
14
14
14
14
14
14
14
14
14
14
14
14
14
14
14
14
14
14
14
14
14
14
14
14
14
14
14
14
14
14
14
14
19
35
38
14
14
14
14
14
14
14
14
19
22
25
30
33
39
42
44
47
50
56
71
70
68
68
64
62
55
59
56
52
41
12
14
14
14
14
14
14
14
14
14
14
14
14
14
14
14
14
14
14
14
14
14
14
14
14
14
14
14
14
14
14
14
14
14
14
14
14
14
14
14
14
14
14
29
21
14
14
14
14
14
14
15
20
21
23
26
30
33
38
41
47
55
56
59
63
60
56
61
64
61
60
56
53
49
38
13
14
14
14
14
14
14
14
14
14
14
14
14
14
14
14
14
14
14
14
14
14
14
14
14
14
14
14
14
14
14
14
14
14
14
14
14
14
14
14
14
14
14
14
14
14
14
14
14
14
14
14
17
23
26
27
33
34
38
43
45
49
53
57
67
63
58
53
50
49
47
44
39
29
13
14
14
14
14
14
14
14
14
14
14
14
14
14
14
14
14
14
14
14
14
14
14
14
14
14
14
14
14
14
14
14
14
14
14
14
14
14
14
14
14
14
14
14
14
14
14
14
14
14
14
14
14
14
19
24
28
31
36
40
44
48
50
54
57
65
61
60
51
49
40
39
34
48
33
14
14
14
14
14
14
14
14
14
14
14
14
14
14
14
14
14
14
14
14
14
14
14
14
14
14
14
14
14
14
14
14
14
14
14
14
14
14
14
14
14
14
14
14
14
14
14
14
14
14
14
14
14
14
18
22
27
31
34
39
43
46
48
51
55
67
61
60
56
66
64
58
52
49
31
15
14
14
14
14
14
14
14
14
14
14
14
14
14
14
14
14
14
14
14
14
14
14
14
14
14
14
14
14
14
14
14
14
14
14
14
14
14
14
14
14
14
14
14
14
14
14
14
14
14
14
14
14
14
16
20
26
30
35
37
39
42
46
48
51
67
63
62
63
60
57
54
49
42
42
20
14
14
14
14
14
14
14
14
14
14
14
14
14
14
14
14
14
14
14
14
14
14
14
14
14
14
14
14
14
14
14
14
14
14
14
14
14
14
14
14
14
14
14
14
14
14
14
14
14
14
14
14
14
15
19
24
28
31
35
37
41
42
45
47
64
58
52
53
52
50
56
51
44
29
14
14
14
14
14
14
14
14
14
14
14
14
14
14
14
14
14
14
14
14
14
14
14
14
14
14
14
14
14
14
14
14
14
14
14
14
14
14
14
14
14
14
14
14
14
14
14
14
14
14
14
14
14
14
14
18
19
23
30
32
35
36
40
43
46
63
60
61
58
59
52
45
49
44
13
14
14
14
14
14
14
14
14
25
13
14
14
14
14
14
14
14
14
14
14
14
14
14
14
14
14
14
14
14
14
14
14
14
14
14
14
14
14
14
14
14
14
14
14
14
14
14
14
14
14
14
14
14
14
14
16
18
22
22
28
33
37
39
42
45
66
65
61
63
59
52
48
41
19
14
14
14
14
14
14
14
14
16
40
36
22
13
14
14
14
14
14
14
14
14
14
14
14
14
14
14
14
14
14
14
14
14
14
14
14
14
14
14
14
14
14
14
14
14
14
14
14
14
14
14
14
14
14
14
14
16
19
23
26
30
34
35
37
40
41
74
68
59
56
52
51
45
34
42
36
30
21
14
14
14
14
14
27
57
65
85
54
13
14
14
14
14
14
14
14
14
14
14
14
14
14
14
14
14
14
14
14
14
14
14
14
14
14
14
14
14
14
14
14
14
14
14
14
14
14
14
14
14
14
15
16
20
28
31
32
34
33
35
39
42
73
68
66
62
54
49
52
52
43
36
42
39
26
16
21
30
40
56
58
77
88
39
15
14
14
14
14
14
14
14
14
14
14
14
14
14
14
14
14
14
14
14
14
14
14
14
14
14
14
14
14
14
14
14
14
14
14
14
14
14
14
14
14
14
16
18
25
29
30
35
37
37
39
39
43
81
79
69
61
58
56
48
48
48
50
46
38
32
47
52
54
58
60
63
66
71
68
53
12
14
14
14
14
14
14
14
14
14
14
14
14
14
14
14
14
14
14
14
14
14
14
14
14
14
14
14
14
14
14
14
14
14
14
14
15
14
14
14
16
26
31
29
24
32
35
38
40
42
44
45
83
75
67
62
55
55
61
58
57
53
51
51
47
54
57
59
62
62
62
59
53
62
61
38
13
14
14
14
14
14
14
14
14
14
14
14
14
14
14
14
14
14
14
14
14
14
14
14
14
14
14
14
14
14
14
14
14
14
14
34
25
16
16
34
31
36
35
35
29
37
39
42
44
46
49
80
65
56
64
68
67
66
66
62
58
57
56
55
57
60
61
62
60
58
52
46
35
23
13
14
14
14
14
14
14
14
14
14
14
14
14
14
14
14
14
14
14
14
14
14
14
14
14
14
14
14
14
14
14
14
14
14
14
13
46
44
33
31
41
37
39
35
27
35
40
41
42
45
48
51
68
63
52
46
59
63
67
63
64
63
62
60
57
56
54
54
56
58
56
53
44
31
14
14
14
14
14
14
14
14
14
14
14
14
14
14
14
14
14
14
14
14
14
14
14
14
14
14
14
14
14
14
14
14
14
14
14
14
16
48
48
46
45
42
41
40
32
34
39
41
44
44
47
50
53
49
45
42
43
41
51
61
61
55
50
56
51
51
49
48
48
48
52
56
53
45
39
14
14
14
14
14
14
14
14
14
14
14
14
14
14
14
14
14
14
14
14
14
14
14
14
14
14
14
14
14
14
14
14
14
14
14
14
41
47
52
50
45
46
44
39
33
35
38
42
45
47
47
50
55
47
45
41
40
38
37
48
53
51
51
42
42
40
43
43
43
43
47
53
50
39
14
14
14
14
14
14
14
14
14
14
14
14
14
14
14
14
14
14
14
14
14
14
14
14
14
14
14
14
14
14
14
14
14
14
14
14
20
53
68
54
51
49
47
46
43
40
37
39
40
47
50
55
51
56
47
45
43
40
40
34
37
37
35
33
32
33
35
36
37
35
36
37
44
49
45
12
14
14
14
14
14
14
14
14
14
14
14
14
14
14
14
14
14
14
14
14
14
14
14
14
14
14
14
14
14
14
14
14
14
14
15
42
55
74
58
50
48
49
49
46
45
41
35
37
45
48
51
55
68
47
42
45
40
38
32
31
30
28
27
28
27
33
32
34
33
30
30
31
39
18
14
14
14
14
14
14
14
14
14
14
14
14
14
14
14
14
14
14
14
14
14
14
14
14
14
14
14
14
14
14
14
14
14
14
14
16
34
45
62
66
50
49
51
49
51
50
45
45
39
38
41
46
46
48
45
44
51
55
56
54
53
51
48
44
36
28
24
26
30
31
28
24
22
17
14
14
14
14
14
14
14
14
14
14
14
14
14
14
14
14
14
14
14
14
14
14
14
14
14
14
14
14
14
14
14
14
14
14
14
15
17
31
43
49
54
50
51
54
55
53
56
52
48
47
43
48
38
45
50
52
43
48
45
42
50
52
44
39
36
40
37
32
31
22
24
20
17
14
14
14
14
14
14
14
14
14
14
14
14
14
14
14
14
14
14
14
14
14
14
14
14
14
14
14
14
14
14
14
14
14
14
14
14
20
28
30
35
26
25
46
53
59
61
60
57
59
61
63
57
46
48
54
44
48
51
41
40
39
38
38
39
43
48
43
33
34
32
34
45
61
19
14
14
14
14
14
14
14
14
14
14
14
14
14
14
14
14
14
14
14
14
14
14
14
14
14
14
14
14
14
14
14
14
14
14
14
14
14
17
34
40
47
41
39
30
29
55
63
64
60
64
65
66
66
54
49
52
57
55
49
40
40
40
40
40
37
37
39
33
31
28
30
35
62
62
15
14
14
14
14
14
14
14
14
14
14
14
14
14
14
14
14
14
14
14
14
14
14
14
14
14
14
14
14
14
14
14
14
14
14
14
14
15
20
31
47
48
50
47
50
36
57
59
62
65
68
69
71
72
60
58
56
61
63
47
40
41
47
53
51
49
46
40
32
29
28
25
30
57
66
12
14
14
14
14
14
14
14
14
14
14
14
14
14
14
14
14
14
14
14
14
14
14
14
14
14
14
14
14
14
14
14
14
14
15
23
26
36
52
49
46
62
62
52
60
32
43
44
60
68
71
75
75
80
81
63
57
63
67
39
51
69
68
62
58
55
47
39
30
28
23
19
19
36
45
14
14
14
14
14
14
14
14
14
14
14
14
14
14
14
14
14
14
14
14
14
14
14
14
14
14
14
14
14
14
14
20
20
43
52
61
68
68
62
67
71
58
65
66
66
53
51
56
42
52
68
82
83
82
89
74
76
60
68
44
53
76
73
66
67
60
52
64
70
46
35
31
25
16
14
14
14
14
14
14
14
14
14
14
14
14
14
14
14
14
14
14
14
14
14
14
14
14
14
14
14
14
14
16
20
20
38
44
37
53
67
70
75
73
75
76
78
74
78
64
69
47
55
53
54
55
52
71
87
89
76
76
63
63
61
69
80
72
71
65
57
48
81
90
54
35
26
20
19
15
14
14
14
14
14
14
14
14
14
14
14
14
14
14
14
14
14
14
14
14
14
14
14
14
14
14
14
14
23
30
42
47
46
57
61
49
70
75
79
80
81
79
79
83
80
71
71
53
54
56
57
53
52
72
96
92
83
62
60
83
84
82
77
68
57
52
49
50
55
45
32
27
21
14
14
14
14
14
14
14
14
14
14
14
14
14
14
14
14
14
14
14
14
14
14
14
14
14
14
14
14
14
16
26
38
45
50
61
63
66
58
54
59
63
78
84
86
86
86
91
76
84
56
56
59
61
59
54
53
66
87
96
65
65
90
85
76
71
57
48
46
42
42
40
41
32
29
16
14
14
14
14
14
14
14
14
14
14
14
14
14
14
14
14
14
14
14
14
14
14
15
14
15
15
18
21
22
29
30
44
53
59
59
66
71
72
74
56
79
74
81
90
92
93
93
81
81
74
61
69
68
64
55
55
60
62
92
70
88
88
73
66
58
54
54
50
44
43
53
51
50
23
14
14
14
14
14
14
14
14
14
14
14
14
14
14
14
14
14
14
14
14
14
14
15
15
16
18
19
20
22
33
42
41
50
52
62
67
71
74
77
79
74
61
80
81
86
92
97
98
96
88
87
89
80
71
73
55
57
60
61
68
81
83
95
92
77
67
67
63
51
46
60
58
52
40
24
14
14
14
14
14
14
14
14
14
14
14
14
14
14
14
14
27
30
14
14
14
14
15
15
17
19
20
24
26
31
33
37
50
59
65
69
75
78
78
82
85
69
70
73
83
88
96
101
99
96
89
94
95
91
63
59
64
61
62
65
66
69
97
101
120
117
96
72
55
53
70
66
61
52
48
12
14
14
14
14
14
14
14
14
14
14
14
14
14
14
14
31
20
14
14
14
16
15
16
16
20
23
26
32
34
39
43
42
45
61
65
69
69
74
84
88
76
81
70
76
90
93
98
101
96
92
95
79
63
59
65
64
69
65
64
68
69
82
119
157
157
138
75
58
64
73
72
62
52
38
14
14
14
14
14
14
14
14
14
14
14
14
14
14
14
14
14
14
14
15
17
18
20
19
19
19
23
33
32
35
41
52
57
61
57
68
64
68
69
74
87
92
78
76
80
77
86
97
98
99
96
97
63
60
61
63
69
71
72
65
65
74
84
122
164
178
126
75
72
82
71
68
59
48
14
14
14
14
14
14
14
14
14
14
14
14
14
14
14
14
15
15
18
29
35
26
26
30
25
24
22
20
23
37
43
43
43
52
64
65
63
76
82
83
74
76
80
84
87
79
78
80
82
88
97
87
69
63
60
61
65
64
66
69
70
73
74
92
96
105
113
103
85
89
83
71
60
56
19
14
14
14
13
14
14
14
14
14
14
14
14
14
14
14
14
16
30
17
30
38
34
32
37
32
33
32
25
25
22
31
37
42
49
56
68
74
78
82
84
88
88
83
83
87
91
84
82
84
89
92
97
75
63
67
63
63
60
65
70
72
77
84
100
102
114
116
122
121
107
89
81
71
45
15
14
14
14
14
14
14
14
14
14
14
14
14
14
14
14
16
17
15
16
18
22
39
41
41
37
40
41
36
39
29
27
30
42
45
50
51
68
63
75
77
84
76
77
75
84
92
96
90
87
88
89
76
68
68
76
69
69
72
72
72
77
80
86
117
121
136
139
149
137
115
105
102
70
40
27
18
14
14
15
14
14
14
14
15
15
15
15
15
15
15
16
16
16
17
17
19
29
42
48
48
51
38
35
47
32
34
38
38
44
50
55
58
66
66
59
58
57
60
64
69
75
80
86
95
95
81
78
72
72
74
75
80
80
77
79
81
87
90
141
157
174
177
169
147
127
119
98
85
55
63
56
26
14
14
15
14
14
15
15
15
15
15
15
15
16
17
19
26
29
19
20
21
28
37
46
49
52
42
43
39
41
38
42
40
54
49
47
53
53
57
58
60
64
72
83
77
77
81
91
99
83
81
83
74
77
80
82
87
91
83
87
93
96
152
192
208
215
183
164
138
131
106
91
86
77
68
32
18
14
15
14
14
15
15
16
17
17
16
16
17
19
36
33
34
37
28
24
22
26
37
47
56
44
41
53
44
46
42
49
48
44
53
53
58
68
62
66
76
79
80
94
98
95
91
97
102
92
82
77
84
86
90
88
88
83
93
98
111
161
192
223
225
189
166
148
149
126
111
116
100
70
50
29
19
26
15
14
15
15
16
15
17
19
17
18
20
32
44
42
50
41
43
35
25
31
36
50
60
50
51
66
47
47
51
51
45
50
55
56
61
67
75
79
82
84
83
85
88
91
97
103
94
85
86
87
92
91
86
89
86
88
106
111
154
179
206
212
186
174
178
174
156
148
139
105
93
73
51
19
15
14
14
15
16
17
18
19
27
22
19
19
23
33
47
48
54
40
54
35
33
36
42
57
67
49
63
61
48
57
62
69
49
60
64
68
69
66
69
73
74
77
81
84
85
90
94
103
96
91
92
95
95
92
104
100
86
97
104
155
181
195
179
166
191
169
168
171
174
144
121
96
71
51
33
16
15
14
17
17
18
18
20
29
36
22
19
22
32
41
46
52
53
54
38
33
35
44
46
53
63
61
76
62
58
61
62
59
48
61
71
71
74
74
75
78
82
88
90
92
93
95
96
100
100
99
100
95
99
107
117
105
103
104
128
157
163
150
161
170
172
175
195
199
160
122
90
69
57
46
32
19
26
19
20
21
19
20
24
31
35
21
22
28
32
34
35
41
49
38
45
39
38
47
53
63
65
70
74
63
67
69
68
71
55
60
52
54
79
81
83
87
92
93
98
100
103
110
103
107
116
112
110
105
106
109
109
112
115
115
138
137
137
155
174
191
170
167
160
129
108
86
67
58
52
38
26
27
22
21
24
21
22
23
27
35
33
25
26
34
40
47
40
47
54
58
64
48
54
53
56
64
66
74
80
72
73
75
80
77
72
63
72
60
85
90
92
96
103
108
108
122
116
113
114
133
133
126
111
113
118
123
135
162
109
114
114
123
136
134
152
153
137
138
116
101
83
74
66
55
36
32
24
24
24
25
22
24
25
27
31
35
28
27
29
31
36
41
43
56
74
73
67
65
66
65
65
66
75
86
88
78
78
82
84
80
72
83
86
71
89
96
108
122
121
125
144
122
140
142
141
130
114
109
115
130
158
169
151
72
75
76
90
103
95
115
123
107
101
139
141
109
105
90
60
56
41
36
33
27
26
24
26
25
28
32
40
32
31
30
31
33
35
40
50
63
82
78
76
78
78
62
74
75
85
92
85
93
89
95
94
93
91
95
84
82
87
99
121
139
145
147
149
165
136
125
118
123
127
126
139
174
165
138
69
69
69
71
74
74
76
80
84
108
129
147
124
116
104
96
81
66
52
40
31
27
25
27
28
29
30
32
35
32
31
35
38
39
41
47
66
90
93
101
97
84
76
79
89
87
90
90
98
104
105
107
114
102
96
81
78
96
109
136
114
110
132
147
157
140
124
129
136
154
160
147
181
168
154
68
68
67
67
66
66
66
75
106
103
103
105
108
117
124
131
120
98
81
58
38
31
26
27
29
30
33
37
41
38
34
36
41
44
43
49
74
98
101
116
98
83
77
90
94
98
95
98
94
120
126
119
118
109
92
101
91
83
97
109
96
91
104
107
129
131
133
139
160
194
203
198
191
176
189
69
67
67
66
66
67
67
94
140
126
109
119
134
151
167
173
164
150
120
81
56
40
30
28
32
33
32
34
40
39
39
38
38
45
48
49
71
65
107
114
99
91
89
93
89
96
101
106
109
102
118
128
127
117
108
114
114
105
92
95
99
111
89
119
124
130
141
144
163
140
144
146
155
170
213
70
67
66
66
66
66
69
109
120
135
123
130
159
188
214
209
211
192
153
99
65
46
34
29
33
36
37
35
36
37
40
41
40
41
45
50
67
96
116
128
127
120
113
100
98
101
93
119
138
129
120
129
142
148
148
141
137
128
150
139
138
110
100
103
102
105
115
111
113
114
129
159
171
162
151
72
70
67
66
66
66
67
78
126
142
125
135
161
200
226
239
214
207
163
110
73
50
36
32
34
35
39
38
39
39
40
41
44
49
55
69
70
95
117
128
133
138
134
126
119
129
125
107
100
137
144
144
148
153
171
158
133
175
146
119
117
142
122
106
130
126
119
140
146
131
116
124
126
150
181
80
78
75
70
66
66
66
66
80
108
98
112
137
161
182
202
194
161
141
107
73
50
38
33
36
38
36
41
42
43
40
44
48
48
61
68
61
91
97
113
125
128
139
126
140
146
165
150
111
117
151
168
164
153
155
168
147
174
139
151
154
173
139
106
150
186
144
144
188
163
122
127
155
159
155
87
83
79
71
66
66
66
66
66
73
69
75
93
113
131
150
150
132
100
84
66
53
43
39
41
40
41
42
45
48
46
49
57
56
55
58
63
75
70
96
98
119
131
110
125
136
164
155
153
117
116
121
151
171
187
196
193
184
170
222
203
176
147
124
139
190
202
200
170
140
122
128
132
143
152
