P2
# CREATOR: GIMP PNM Filter Version 1.1
100 100
255
20
20
20
20
20
21
25
26
28
26
24
24
25
27
27
26
28
29
31
32
36
42
55
69
63
58
58
71
72
71
72
83
97
88
81
73
73
76
83
89
98
100
91
94
102
109
110
105
93
100
108
100
88
91
86
90
102
110
119
121
118
113
113
101
89
79
73
66
66
64
62
56
54
54
51
55
56
55
50
55
53
48
49
40
38
39
39
43
54
67
71
70
71
65
65
60
56
53
54
57
20
20
21
23
23
26
29
30
29
27
25
26
27
27
28
31
29
31
35
39
41
50
61
76
76
70
62
69
80
85
83
87
95
97
88
80
81
85
90
98
104
100
98
102
107
111
117
105
103
100
110
101
95
104
98
93
95
106
118
119
113
103
99
96
87
79
66
60
57
55
52
50
49
51
49
50
53
49
47
51
46
43
44
39
41
48
43
41
52
53
56
65
62
56
54
49
52
59
60
60
21
21
22
27
29
30
33
33
30
29
26
29
29
29
32
36
37
40
40
49
49
53
64
77
88
78
70
76
82
94
95
90
86
89
90
88
91
98
99
108
113
113
113
113
121
120
119
116
111
108
111
101
105
113
113
104
101
107
116
115
116
102
96
87
85
74
70
68
68
59
54
49
47
47
46
44
44
43
42
41
41
41
40
41
42
52
46
39
40
41
47
53
50
45
44
45
54
54
56
55
23
22
23
33
39
41
38
37
33
33
33
33
37
36
36
48
55
46
51
57
64
56
72
79
92
87
88
86
89
89
92
86
78
84
86
86
91
92
97
98
106
106
107
115
112
112
111
112
116
119
116
109
115
121
123
118
113
115
114
110
117
112
109
100
86
82
83
77
76
65
57
52
54
52
48
47
47
47
44
41
41
41
41
43
42
45
48
45
42
42
41
44
42
45
52
50
46
47
48
53
28
26
24
33
44
46
47
44
41
40
43
45
45
45
47
54
61
57
58
67
72
66
74
89
98
96
93
83
80
83
82
80
74
74
75
76
79
82
87
90
98
98
98
101
102
104
106
111
119
129
128
120
121
113
111
108
105
105
103
109
119
127
123
106
98
95
93
86
75
70
59
57
61
56
54
52
53
48
45
45
45
42
43
50
47
42
44
48
50
53
44
43
48
53
61
57
57
59
51
61
37
39
38
27
33
33
33
47
52
55
59
54
54
56
64
70
73
73
68
75
81
81
84
95
97
88
86
84
73
74
71
70
69
76
81
80
79
82
83
85
86
89
93
95
100
105
111
119
124
133
132
120
113
103
101
97
94
99
106
116
124
134
133
122
115
112
106
90
80
67
62
61
58
55
52
49
50
47
50
49
45
43
47
51
47
42
43
46
51
52
48
50
55
59
66
67
61
57
54
59
44
52
42
36
41
43
37
35
40
54
66
67
67
70
75
70
73
69
71
71
73
84
96
97
86
87
79
74
67
62
66
71
74
76
84
88
85
92
92
93
92
95
100
105
107
115
123
128
120
118
126
113
102
94
93
88
98
104
113
122
132
129
125
115
113
111
104
93
78
69
65
63
67
61
55
53
55
53
50
48
43
44
50
44
44
46
51
47
47
50
51
52
54
58
63
68
67
59
65
66
48
58
52
53
49
54
47
44
40
53
58
64
72
70
74
66
62
59
60
59
74
83
90
94
82
72
69
65
62
76
80
84
79
80
84
90
92
93
101
97
99
102
106
115
119
124
113
113
106
105
116
112
98
94
83
87
101
105
109
119
128
122
107
103
97
92
89
84
72
63
62
60
61
56
49
47
46
45
45
44
44
48
45
48
47
55
51
50
53
58
57
59
60
61
64
74
71
65
64
73
54
66
69
72
63
70
66
54
38
43
58
71
71
60
64
62
51
48
48
61
69
76
81
86
72
60
60
61
65
77
85
92
85
81
92
101
104
98
108
108
108
114
117
124
123
115
105
97
94
97
109
105
92
87
81
89
97
99
107
114
121
120
104
93
85
82
75
73
67
63
58
55
55
51
48
48
47
47
47
46
48
47
48
55
49
53
54
56
62
69
66
68
71
67
68
76
81
70
70
82
49
60
73
81
80
80
73
63
50
38
48
67
64
50
55
46
45
54
50
49
52
60
69
77
60
65
77
79
69
67
73
85
89
87
99
114
117
108
117
121
117
114
109
113
106
100
100
91
86
99
105
95
89
83
77
86
89
97
104
110
115
119
102
90
80
74
68
66
65
64
64
57
50
50
50
49
50
54
50
49
53
49
50
57
52
55
61
65
71
83
74
78
79
76
75
78
78
69
70
78
54
70
81
82
88
86
84
73
61
51
37
43
45
40
41
44
50
61
56
57
51
49
51
56
55
66
69
77
76
75
76
81
96
99
101
118
126
119
125
116
107
100
96
97
95
92
88
84
81
95
94
85
80
75
74
77
87
95
98
106
111
115
99
84
75
70
65
59
60
60
57
52
52
50
50
49
55
58
57
54
57
53
49
53
57
62
70
80
79
92
82
85
90
85
89
86
80
77
81
82
61
72
77
77
77
88
81
72
70
59
48
47
45
50
49
58
58
69
70
69
67
62
56
51
56
65
73
80
91
86
88
87
101
112
107
117
128
127
117
108
98
91
85
83
82
81
79
75
75
80
84
82
74
73
73
76
83
84
91
94
107
106
90
77
72
70
66
62
56
56
53
52
53
54
52
50
59
71
66
61
62
60
54
53
53
65
77
83
90
100
94
93
100
96
99
94
88
86
90
94
67
66
62
67
70
82
89
89
83
72
62
62
62
63
61
70
71
72
85
83
84
78
63
59
65
70
77
84
95
101
99
93
101
115
119
123
128
124
114
109
106
103
96
85
77
74
73
73
72
72
75
75
72
72
72
73
76
81
88
99
106
95
83
74
70
66
68
62
58
54
54
55
59
67
59
50
62
73
74
72
69
62
59
62
62
57
69
72
81
87
99
105
110
109
111
107
102
99
102
103
56
52
58
63
72
82
96
99
93
85
76
78
80
82
80
81
84
88
95
99
91
79
67
64
73
77
86
91
96
104
108
108
111
120
127
130
117
120
124
112
112
110
101
90
85
81
75
73
72
72
72
72
72
72
72
74
82
88
98
102
93
88
82
73
68
63
59
57
56
55
57
62
71
74
64
53
54
60
66
70
70
66
68
70
66
55
61
65
71
79
88
95
102
109
111
109
106
103
96
91
55
45
59
70
82
89
91
94
90
92
89
92
90
92
90
91
91
92
92
92
82
72
65
70
90
90
99
105
112
120
121
120
112
111
117
124
104
103
116
101
101
100
89
82
83
80
78
76
73
72
72
72
72
73
77
84
86
93
96
91
88
79
75
70
66
61
59
57
57
60
68
72
84
76
62
56
53
55
60
67
76
79
80
73
61
63
61
63
64
71
79
86
90
93
100
97
94
89
83
80
46
46
56
63
78
77
77
88
83
79
84
91
77
77
72
76
79
84
95
99
88
79
79
76
86
101
110
111
118
117
103
102
97
99
103
108
95
94
104
95
92
93
81
76
75
73
72
72
72
72
72
72
72
73
73
78
85
95
86
85
94
83
73
67
64
62
60
59
62
69
81
89
86
72
63
63
60
54
58
70
85
94
82
69
64
69
69
69
68
68
73
77
82
86
91
88
81
79
75
69
41
48
58
71
78
69
64
71
80
71
78
85
75
64
62
64
73
80
88
99
101
95
84
85
97
106
104
97
103
110
96
90
88
90
95
101
86
90
91
84
84
83
75
72
72
72
72
73
73
73
73
73
72
72
72
78
85
92
82
77
88
81
77
72
67
63
60
62
70
77
88
99
86
72
67
69
65
62
58
68
79
94
84
75
71
75
78
78
74
74
76
79
85
91
95
89
80
73
67
62
38
47
58
72
68
57
56
74
80
71
68
83
69
57
71
69
70
78
89
103
111
100
95
99
105
95
95
88
94
100
92
82
79
87
89
88
81
80
79
77
80
80
78
73
72
72
73
74
74
74
74
74
73
72
77
87
91
83
81
72
78
71
67
65
64
63
66
69
79
89
93
97
85
74
74
77
78
71
64
63
80
95
95
82
80
86
87
85
80
78
83
89
95
100
91
88
81
71
63
65
36
42
49
62
64
50
60
63
62
59
63
71
66
58
68
70
80
92
92
101
97
90
91
100
96
90
85
84
85
92
85
82
79
80
78
77
77
77
77
78
83
90
88
78
77
77
78
76
75
75
74
74
74
74
75
78
81
73
70
68
69
65
64
64
64
63
67
73
81
84
84
90
85
80
84
87
91
84
82
68
74
93
97
94
91
101
98
93
88
88
91
97
100
91
84
77
72
66
64
72
35
39
50
52
51
45
45
46
50
48
53
59
54
53
62
72
84
93
98
94
90
82
83
96
96
85
83
81
81
84
80
80
79
78
79
77
77
77
81
82
91
102
94
93
89
81
76
76
76
76
76
75
74
74
74
74
75
70
68
68
66
65
65
65
65
64
64
67
69
73
78
90
98
90
96
104
103
101
88
73
70
83
98
101
104
115
110
99
101
100
101
93
88
83
76
70
65
65
66
71
41
50
52
49
40
37
45
45
46
48
47
48
54
55
62
75
82
82
94
92
81
78
83
93
89
95
93
85
82
82
80
80
80
80
79
79
80
81
90
95
103
102
101
91
86
80
78
78
76
76
76
75
75
74
74
73
73
71
69
68
67
66
66
66
66
66
65
65
68
74
81
90
98
102
103
113
117
108
94
78
68
79
87
94
105
116
119
109
103
97
93
86
80
75
69
66
68
72
71
69
49
52
42
39
33
41
52
42
52
61
61
61
62
68
60
65
70
84
100
94
82
77
79
83
79
83
84
85
82
82
81
81
81
80
79
81
95
94
99
95
92
91
92
83
79
79
79
79
77
77
76
76
75
75
74
73
72
71
70
68
68
67
66
67
67
69
70
72
78
83
90
99
107
113
118
120
121
108
92
78
70
76
80
88
97
111
127
120
103
90
84
79
75
70
67
72
77
85
77
71
43
41
38
30
34
40
42
48
65
74
76
74
72
82
73
64
72
83
97
98
84
78
78
78
81
81
81
82
82
83
83
83
81
81
85
89
93
88
91
86
83
83
84
82
81
80
80
79
79
77
77
76
75
75
75
74
72
71
70
70
69
68
67
67
67
68
71
82
88
94
94
102
115
120
118
121
113
103
93
82
72
75
83
94
105
118
126
114
100
89
81
76
71
70
74
80
87
84
76
78
29
28
29
34
38
39
51
59
67
72
71
70
82
88
82
81
86
91
92
98
92
80
79
80
81
81
82
82
83
83
84
85
84
84
86
86
84
84
84
84
83
83
84
83
82
82
81
80
79
78
78
77
77
77
75
74
74
72
72
71
70
69
69
68
71
74
72
75
81
84
89
99
106
107
106
106
108
102
94
83
75
84
94
98
105
113
116
105
96
88
80
73
73
77
80
86
89
82
86
87
47
37
37
46
35
39
46
44
52
55
54
61
70
79
88
85
85
85
79
91
95
81
79
80
81
82
82
83
84
84
85
87
87
87
87
86
86
84
84
84
84
84
85
84
84
83
82
82
81
79
79
78
78
78
77
76
75
74
73
72
71
71
70
70
76
84
82
76
78
84
96
101
99
98
99
97
100
99
93
85
77
85
91
91
99
112
111
98
90
82
76
75
78
85
93
92
86
86
95
97
51
45
40
40
35
36
41
49
51
53
60
70
74
86
82
76
77
77
77
80
85
84
81
81
81
82
82
84
84
85
87
88
88
88
87
87
87
86
85
85
85
86
85
85
86
86
83
84
82
83
81
80
79
79
78
77
76
75
75
73
72
72
71
75
81
88
85
82
84
88
94
96
91
91
90
91
97
100
97
89
79
80
84
90
94
104
106
93
86
81
77
81
87
87
98
97
93
91
95
98
33
37
33
37
48
48
46
48
53
60
65
76
89
91
82
77
77
77
77
78
79
79
81
81
81
82
84
86
86
87
88
89
90
90
89
88
88
87
86
87
86
86
87
87
87
87
86
85
84
84
82
81
82
80
80
79
78
76
76
75
75
72
72
75
85
91
88
86
82
84
87
89
87
86
86
91
99
98
90
85
80
83
89
95
102
107
103
94
84
81
83
86
90
96
100
104
98
95
87
84
31
32
34
50
59
64
58
50
55
65
76
84
96
87
79
77
77
77
77
78
79
80
81
82
83
84
85
87
88
89
90
91
91
91
91
90
90
89
88
89
88
88
89
89
89
89
88
87
86
87
84
83
83
83
81
80
79
78
77
76
75
74
74
75
81
87
82
81
80
80
81
82
82
83
85
90
94
97
95
87
86
83
87
91
96
105
98
91
84
85
90
96
100
102
100
104
107
95
84
77
40
44
43
50
63
72
69
63
69
64
76
85
93
84
77
77
77
77
77
77
79
80
81
83
84
85
85
88
89
90
90
92
92
92
93
92
91
92
91
92
92
91
92
91
91
90
90
90
89
88
87
85
85
83
83
81
81
80
79
80
77
76
75
77
80
84
80
80
80
80
80
80
80
82
82
85
88
92
98
91
93
91
95
98
99
107
104
93
86
89
97
102
98
94
93
98
102
93
86
79
36
37
41
45
51
61
70
75
80
72
78
90
92
82
77
78
79
80
79
78
78
79
84
84
85
86
87
89
90
91
92
93
93
94
95
95
94
94
95
93
94
94
94
94
94
92
91
91
91
90
88
87
86
85
84
84
82
81
80
80
79
78
79
82
81
81
80
80
80
80
80
81
81
81
82
82
85
88
94
98
101
99
105
105
105
103
97
90
90
97
100
93
88
86
92
87
96
89
82
76
47
51
52
49
55
54
59
71
86
87
88
99
98
82
78
87
94
98
91
81
82
82
83
84
85
87
89
91
92
93
93
94
95
96
97
97
98
98
99
96
96
97
96
96
96
94
94
94
93
92
90
89
88
86
86
85
84
83
83
82
81
80
81
81
82
82
82
82
80
80
81
81
81
81
82
82
86
91
94
100
108
110
112
107
99
98
94
94
98
99
90
81
80
80
84
80
90
92
85
76
55
62
64
64
65
61
58
65
80
94
99
106
93
81
81
98
112
114
102
93
90
85
84
84
87
88
90
92
95
96
96
98
97
99
98
100
100
101
102
100
100
100
99
99
99
98
97
96
95
94
92
91
90
89
88
87
86
86
85
85
83
83
82
83
83
83
82
82
81
80
81
81
81
82
85
86
89
90
97
103
105
105
103
100
94
92
91
97
99
91
84
78
74
73
78
76
80
84
78
78
61
75
80
82
86
73
66
66
80
91
104
104
89
85
90
105
114
104
95
88
83
84
84
85
86
88
90
93
96
99
106
106
103
103
103
102
104
104
104
104
103
103
103
102
102
100
99
98
97
95
94
92
91
91
91
90
89
88
87
87
85
84
85
84
84
84
83
83
82
81
82
82
84
86
92
93
93
94
100
103
96
96
96
92
89
88
92
95
91
96
84
74
69
72
71
70
75
77
70
72
70
84
97
105
102
86
83
70
80
95
108
113
100
97
100
99
98
95
87
82
82
83
84
85
86
88
91
94
97
104
115
108
104
104
105
106
107
107
108
107
107
107
106
105
104
103
102
100
99
98
96
95
94
93
92
91
91
91
90
88
87
87
87
86
86
86
85
84
83
82
82
84
88
91
94
100
101
100
99
98
93
91
92
89
87
90
93
86
84
89
84
75
69
64
65
69
71
71
67
68
60
70
90
109
113
109
102
84
82
95
113
128
120
111
96
87
86
94
91
83
84
85
86
86
88
91
92
94
95
104
110
105
104
105
107
112
111
112
112
112
111
110
108
107
106
105
104
103
101
99
98
97
97
95
95
94
94
93
92
91
89
89
88
88
88
87
86
85
84
83
85
88
90
95
93
95
99
98
94
91
90
88
88
86
87
92
90
81
76
80
79
80
76
65
60
66
64
69
71
61
74
74
81
96
116
126
117
107
93
111
120
134
123
110
101
86
81
83
84
84
85
86
87
88
90
90
92
94
96
98
102
105
105
107
109
111
113
117
115
115
113
113
112
110
108
108
107
105
103
102
100
99
99
98
98
97
97
96
95
93
92
92
91
90
90
89
87
86
85
84
86
89
88
90
88
90
92
92
91
87
87
86
86
86
88
94
89
82
76
71
72
74
72
67
59
61
71
74
72
64
91
92
99
95
107
124
129
116
102
121
133
135
118
103
94
85
80
82
82
83
84
85
86
88
89
90
91
93
96
99
101
106
107
110
112
115
119
118
120
119
118
116
115
113
112
110
109
107
106
105
103
102
102
101
101
100
100
98
97
96
95
93
93
92
91
90
89
87
86
85
84
84
85
85
85
88
88
90
87
85
84
85
85
85
87
89
87
83
75
70
67
65
63
61
57
69
68
64
64
67
100
114
118
104
113
129
134
116
114
130
144
138
125
109
90
80
79
79
80
82
83
84
86
88
89
90
91
93
98
100
103
106
112
114
115
120
122
122
123
123
121
119
119
117
115
114
112
110
108
107
106
105
105
104
104
103
103
101
100
98
97
96
95
94
93
91
90
89
87
84
83
83
83
83
83
84
85
88
86
84
84
84
84
85
86
86
88
81
77
81
77
72
66
54
61
66
61
56
55
65
105
118
121
120
130
140
134
126
132
139
135
127
117
101
91
80
77
78
79
80
83
84
85
87
89
90
93
94
98
100
103
108
111
113
116
121
123
125
126
125
126
124
123
121
119
118
115
113
111
109
109
109
108
107
108
107
106
104
102
101
100
99
97
96
95
92
91
90
87
85
84
83
83
83
83
83
84
85
84
83
84
84
85
86
89
92
89
86
85
82
76
71
63
52
56
62
55
53
60
63
101
100
107
116
122
132
139
140
146
141
127
113
110
95
79
76
76
77
77
80
82
84
86
87
88
90
93
95
99
102
104
107
110
113
117
121
125
127
128
128
129
128
128
125
123
122
119
116
113
113
113
113
112
111
110
111
108
107
105
103
102
101
100
98
96
93
91
90
88
86
84
84
83
83
83
83
83
83
83
83
84
85
88
92
94
100
89
79
77
74
69
66
61
55
51
61
59
51
57
60
85
82
88
94
108
123
140
144
137
135
125
109
97
95
86
77
76
77
78
79
81
83
85
86
87
89
92
94
98
101
104
107
110
114
118
123
128
131
131
131
135
133
132
130
127
127
125
120
117
119
118
118
117
115
115
115
112
111
108
106
105
103
102
100
97
95
93
90
88
87
86
84
84
83
83
83
83
83
84
85
86
88
92
100
101
96
85
76
72
69
64
60
61
55
48
47
44
46
43
42
66
72
87
101
116
133
138
130
119
114
114
99
82
78
83
77
76
76
76
79
81
83
83
84
87
89
92
95
99
102
104
107
110
115
118
125
129
133
134
136
138
138
138
136
134
134
132
130
126
126
124
122
122
121
119
118
116
113
110
108
107
106
103
100
98
95
92
91
89
88
86
86
84
84
84
84
84
85
86
87
89
90
94
99
94
86
81
75
70
66
63
64
65
60
63
56
51
48
42
47
66
84
96
107
118
127
122
113
108
96
95
84
74
72
73
73
75
76
77
79
81
81
82
84
86
89
92
95
98
102
106
109
113
116
121
126
130
135
139
140
142
143
143
142
142
140
144
142
139
135
130
128
127
126
124
122
119
116
114
112
109
107
104
101
99
95
93
91
90
88
88
88
87
87
86
86
87
87
89
91
93
93
95
97
89
84
78
74
70
68
73
76
77
71
72
65
62
59
57
59
60
68
80
93
105
113
116
104
97
84
77
73
72
71
71
72
74
76
77
78
79
79
80
84
86
88
92
95
98
101
105
110
117
118
123
127
132
140
143
147
148
150
149
150
151
151
157
155
149
142
136
135
132
131
129
126
123
119
117
114
111
108
105
102
99
96
94
92
91
90
91
90
90
89
89
89
89
91
92
96
102
102
104
106
100
91
84
80
75
78
79
82
82
78
71
61
56
62
60
63
64
80
82
84
93
108
121
109
98
89
80
75
74
71
72
73
74
75
76
77
76
77
80
83
85
87
92
94
97
102
106
109
114
118
124
128
134
141
147
153
156
155
156
157
160
162
167
161
154
148
144
142
139
135
132
130
125
122
119
116
113
111
108
104
101
98
96
94
93
95
95
94
92
91
92
93
93
96
97
99
107
106
105
95
87
83
73
74
72
73
70
71
66
65
63
59
52
56
54
63
72
93
100
82
91
103
116
112
108
102
95
87
76
71
72
73
73
75
76
76
76
78
79
82
85
86
89
93
97
103
106
110
114
120
126
130
135
142
149
156
163
162
164
165
167
172
175
168
162
157
154
150
144
140
136
132
127
126
122
119
116
112
109
106
103
100
97
96
96
99
99
97
95
94
96
99
97
98
105
106
102
94
90
87
75
71
68
65
64
63
59
66
58
56
55
55
48
54
50
59
84
95
107
92
90
104
121
119
104
90
90
85
71
70
71
72
74
74
76
75
77
77
79
82
84
86
90
93
96
101
106
109
113
120
126
130
135
144
151
159
164
169
170
174
176
182
184
181
173
168
164
157
149
144
141
136
130
129
125
122
118
114
111
108
104
101
99
100
98
102
100
98
93
94
100
105
104
105
109
100
93
80
80
87
74
64
62
57
62
63
54
63
62
51
47
49
42
44
44
55
103
106
115
101
94
105
113
106
93
80
78
87
72
69
70
71
72
74
75
75
75
77
78
81
83
86
90
93
97
100
103
109
114
120
125
130
136
144
154
161
168
175
178
183
186
192
195
192
184
179
170
162
158
151
144
138
136
132
128
124
120
116
112
108
105
103
103
103
98
98
92
92
86
95
104
108
105
106
102
91
80
73
75
79
73
65
59
54
53
55
51
58
57
49
43
40
36
38
45
52
106
119
124
113
107
115
105
94
81
71
67
76
73
70
68
69
69
72
73
73
73
75
76
79
82
86
89
94
96
98
102
108
114
118
124
130
138
146
155
164
174
181
187
192
198
203
207
203
196
186
178
171
164
158
149
142
138
136
130
125
120
116
113
110
106
107
108
100
91
85
81
81
86
99
106
105
93
90
89
89
79
68
66
69
67
61
60
54
49
51
48
51
49
45
41
37
32
33
40
46
96
109
120
113
113
116
107
97
86
78
65
65
66
66
66
67
69
69
70
71
72
71
74
76
80
85
87
91
93
97
102
107
112
116
123
129
138
146
155
163
175
187
195
204
208
216
219
216
205
198
189
180
171
162
153
148
144
137
132
127
122
117
115
112
111
111
109
103
95
83
77
75
84
94
98
99
88
78
76
76
72
65
60
60
61
58
54
51
49
46
44
45
43
42
36
36
30
32
36
43
84
103
116
102
102
108
104
88
82
77
66
63
63
64
65
66
67
67
67
69
68
69
72
75
78
82
86
88
93
97
101
105
110
115
121
128
136
145
154
165
176
188
201
212
221
229
232
225
217
207
197
186
177
167
158
152
148
141
134
127
121
115
112
110
113
109
101
98
94
85
75
74
78
85
87
91
83
74
66
66
63
59
58
57
56
53
51
48
48
43
41
42
41
40
33
32
28
29
36
40
93
108
107
93
93
105
99
85
72
67
63
62
62
63
65
65
65
65
65
66
67
67
70
74
77
79
83
86
90
95
98
103
109
114
121
127
133
141
151
164
176
190
204
218
232
243
245
235
226
214
202
190
180
170
161
154
146
139
132
126
119
113
109
105
107
102
94
89
88
82
75
73
75
78
76
79
77
73
66
61
58
57
54
54
53
51
49
46
43
41
41
42
42
41
34
29
26
27
32
35
93
108
102
86
92
104
95
81
77
70
67
61
60
61
63
64
63
63
63
65
65
65
68
72
74
77
80
84
87
91
96
101
108
115
122
126
131
139
150
162
175
190
205
221
236
250
248
244
231
216
203
191
180
170
162
154
145
139
131
125
118
112
106
102
100
95
91
85
82
78
75
73
72
71
70
70
68
70
66
62
57
54
52
50
50
49
46
44
42
42
41
42
40
41
39
34
29
25
28
28
99
104
93
83
97
106
99
92
88
80
73
62
60
60
61
63
61
61
62
64
64
64
67
70
73
75
79
83
86
90
96
102
107
112
116
122
127
136
147
158
171
185
201
217
236
250
249
244
229
215
203
190
179
170
161
152
145
136
130
124
117
111
105
101
97
93
90
86
82
79
76
73
71
68
67
67
65
66
63
57
54
53
54
52
49
47
46
44
41
40
40
41
40
40
37
33
27
24
22
22
95
94
82
80
94
102
93
86
77
69
64
62
59
59
60
61
59
59
60
60
61
62
65
67
70
73
77
81
85
90
95
101
105
110
114
119
125
133
144
157
170
187
203
219
234
244
245
238
225
213
202
190
179
169
159
150
142
135
128
122
115
110
104
99
95
92
89
85
82
79
77
74
71
69
67
66
65
64
61
56
55
57
57
52
49
47
45
43
41
41
38
40
37
35
32
28
26
25
30
27
87
82
72
79
89
99
95
78
68
63
62
60
60
58
60
60
58
57
59
58
59
62
64
67
69
72
75
79
84
89
95
99
104
108
113
118
124
133
143
155
168
183
196
210
222
230
232
228
220
210
199
188
177
167
156
146
139
133
126
119
114
108
103
98
94
90
87
85
81
78
76
73
71
69
67
65
63
61
59
57
54
53
51
49
48
46
46
44
42
41
38
36
35
34
33
29
25
31
39
33
75
68
63
79
94
102
92
79
82
79
72
63
59
57
58
60
60
55
56
57
59
60
63
65
68
70
74
79
83
88
94
97
101
106
112
117
124
134
143
152
163
175
188
200
209
215
217
216
208
202
195
185
175
163
154
145
137
130
124
119
113
107
102
98
95
91
87
83
81
77
76
73
70
68
66
65
62
60
58
55
53
52
51
49
47
46
44
43
41
40
39
38
38
36
35
29
26
33
40
40
60
58
73
82
90
102
97
94
87
77
68
62
59
57
57
59
60
55
54
55
57
59
63
65
68
71
73
77
82
86
91
95
99
104
110
116
122
131
139
149
157
167
177
188
196
201
203
203
194
187
193
185
174
162
151
143
135
128
122
117
112
106
102
98
94
90
88
84
81
78
75
73
70
68
65
64
61
60
58
56
54
52
50
49
47
45
44
42
40
40
39
38
37
35
34
30
27
35
43
46
53
70
86
96
98
92
104
97
80
66
60
59
59
57
55
56
57
55
53
55
57
59
61
64
66
68
70
74
79
83
88
93
98
102
108
115
120
126
135
143
151
159
169
177
183
187
190
191
184
180
187
180
169
158
148
141
134
127
121
115
110
105
101
96
93
90
86
83
80
77
74
73
70
67
65
62
61
59
58
56
54
52
50
48
46
45
44
42
40
39
38
36
36
34
32
29
27
35
42
48
50
69
85
90
91
83
100
93
75
64
61
58
56
56
53
54
53
52
52
54
55
57
59
61
63
66
68
72
77
81
86
91
95
100
105
113
118
121
128
137
146
151
158
166
171
173
177
178
177
174
175
170
162
153
147
140
133
127
121
116
109
104
101
96
91
88
84
82
79
75
73
71
69
67
64
62
60
58
57
55
53
51
49
48
46
45
44
43
40
39
38
36
35
33
32
30
30
35
39
44
57
69
78
82
73
77
96
88
77
75
71
64
60
54
52
52
51
50
52
53
54
56
57
59
62
64
67
70
75
79
83
88
92
98
104
108
113
117
121
130
138
143
150
155
159
160
167
168
165
168
164
161
154
146
144
141
135
126
121
114
109
104
100
96
92
87
82
79
78
75
73
70
67
66
63
61
59
57
56
55
53
51
49
47
46
45
44
41
40
39
38
36
35
34
33
33
29
31
37
45
59
69
72
65
68
82
100
100
86
76
70
65
61
53
51
51
50
49
51
51
53
54
55
57
59
62
65
69
73
76
81
85
91
95
100
104
109
113
117
124
132
137
141
145
147
152
157
160
155
157
158
153
149
142
137
134
131
126
120
113
107
102
98
95
92
88
81
78
76
73
71
69
66
64
63
60
58
57
56
53
52
50
49
47
45
44
43
42
39
39
38
36
35
34
35
35
30
34
38
45
47
52
57
59
77
85
87
97
82
70
65
57
54
50
51
49
49
48
49
50
51
52
53
55
58
59
63
66
71
75
79
83
88
92
97
102
107
111
114
119
126
131
133
136
140
144
147
149
148
148
148
148
143
138
133
128
124
121
116
111
106
100
96
94
90
87
82
78
75
73
69
67
65
63
61
60
58
56
55
53
51
50
48
47
45
44
43
41
40
39
38
36
35
36
36
37
31
34
39
44
39
47
56
70
82
79
72
82
84
67
58
56
52
48
49
49
48
46
47
48
48
50
52
53
55
58
61
65
69
73
78
81
86
90
95
98
103
107
112
117
122
126
130
134
137
139
138
138
141
140
140
142
137
134
129
123
119
116
112
109
106
100
95
91
87
84
81
78
74
70
68
66
64
62
60
59
57
55
54
52
50
49
47
46
45
44
43
41
40
39
38
37
37
37
37
34
33
36
38
46
45
56
68
80
75
77
64
69
79
64
56
51
48
46
49
48
47
46
46
46
47
48
49
52
53
55
60
63
67
72
74
78
82
86
91
96
100
104
110
112
117
124
127
131
133
133
132
132
134
135
135
133
132
130
125
120
115
112
108
105
100
99
94
88
87
83
79
76
73
70
66
64
63
61
59
58
57
55
53
52
51
48
47
46
44
43
42
42
40
39
38
37
38
38
38
34
36
38
41
48
41
64
72
69
67
77
60
61
68
66
57
51
49
45
46
47
46
44
44
44
45
46
48
49
51
55
58
61
65
69
72
76
79
83
87
91
96
101
105
108
113
119
123
127
129
127
127
127
129
130
130
129
127
125
121
117
114
109
106
102
99
96
93
89
85
81
78
76
72
69
66
64
61
60
59
56
55
55
53
51
50
48
47
45
44
43
42
41
40
40
39
38
38
38
36
35
37
40
45
49
35
54
63
52
68
77
61
50
57
63
65
61
50
43
44
46
46
43
42
42
43
44
45
48
50
52
55
59
63
66
69
73
75
80
84
87
92
98
101
105
109
114
117
119
120
120
120
121
123
125
125
124
121
120
118
115
112
108
105
100
96
93
91
88
86
80
77
74
71
68
66
63
61
58
57
55
54
53
51
50
49
48
47
45
43
42
42
41
40
39
39
37
37
37
37
39
40
44
49
52
37
42
48
45
61
67
60
42
52
51
60
64
50
41
43
44
45
40
40
41
42
42
44
46
48
49
53
57
60
63
65
69
73
76
79
83
88
93
99
101
105
107
110
113
112
112
113
116
119
121
121
122
119
119
117
116
110
107
103
99
94
91
89
87
85
80
75
72
70
67
65
63
60
58
55
54
53
52
50
49
47
47
46
45
43
42
41
41
39
39
38
38
38
38
41
43
47
50
51
54
38
41
53
42
44
59
58
44
40
44
54
69
54
42
43
41
40
39
39
40
40
41
43
43
45
48
50
54
58
60
63
67
69
73
77
80
86
91
94
97
100
104
106
106
107
107
110
112
114
116
118
117
116
117
115
111
107
103
101
97
93
89
87
87
85
80
75
71
67
66
65
62
60
58
56
53
51
51
49
48
46
46
45
43
42
42
41
40
39
39
38
38
39
38
43
47
52
58
56
59
44
34
49
51
38
51
61
49
35
39
51
63
49
38
42
39
36
37
38
38
39
38
40
42
43
45
47
51
55
59
61
63
66
70
73
77
82
86
89
93
97
101
104
103
102
103
106
108
109
111
114
115
115
115
112
108
104
101
98
94
91
87
86
82
82
79
73
69
67
65
64
61
59
58
55
53
51
49
48
47
46
45
43
43
42
41
40
40
40
39
39
39
40
41
45
53
58
63
63
62
45
34
53
57
38
38
54
47
32
39
57
57
43
36
40
36
34
36
35
36
36
36
39
39
41
43
45
50
52
57
59
60
61
65
69
74
77
81
84
88
92
97
99
100
99
99
101
104
106
109
110
111
112
112
110
106
102
99
95
91
90
88
84
82
78
76
73
70
68
65
64
61
59
56
54
51
50
48
46
45
45
43
42
42
41
40
40
40
39
40
40
40
42
44
48
55
65
73
70
69
46
32
40
59
44
32
38
35
32
50
52
49
40
34
34
32
33
34
34
33
33
34
35
37
38
41
43
48
51
55
56
56
57
61
65
71
76
78
81
84
88
92
94
95
95
97
97
100
101
104
105
106
106
107
105
103
103
103
95
89
88
86
84
80
77
75
72
69
67
65
63
61
56
55
52
50
49
47
45
45
43
42
42
41
40
40
39
39
40
40
40
42
44
48
52
57
63
72
79
84
63
41
32
48
47
30
22
27
39
48
40
40
37
31
31
31
31
31
33
31
31
32
33
34
37
41
44
47
51
53
51
52
55
58
63
68
70
73
77
79
85
88
90
90
93
93
94
96
98
100
100
101
101
102
100
99
99
96
91
88
89
86
82
79
76
74
72
69
67
64
62
59
56
54
52
50
48
46
45
43
42
41
41
40
39
39
38
39
40
42
42
43
48
53
55
60
65
75
86
90
63
53
33
40
43
29
23
41
50
47
38
34
30
27
30
29
30
29
32
30
29
30
31
33
35
40
44
46
47
48
48
50
51
56
61
65
67
70
73
77
81
84
88
89
89
90
91
93
95
95
95
96
97
97
96
94
93
91
88
86
89
86
81
78
76
74
72
69
66
64
62
59
56
54
52
50
49
46
43
42
41
41
39
39
38
37
38
39
42
43
45
47
52
57
64
66
71
76
84
78
51
50
35
35
37
19
26
45
51
43
32
35
24
24
27
27
27
28
29
27
27
28
29
31
34
36
41
43
41
43
46
47
49
54
58
62
63
65
69
72
77
80
85
86
86
86
86
88
90
90
91
92
92
92
92
90
90
88
86
84
86
83
80
78
75
72
71
68
66
63
61
58
55
53
51
49
48
46
43
41
40
39
38
38
37
37
37
39
46
49
52
53
57
61
67
71
78
86
76
66
42
30
30
40
34
17
26
41
42
38
28
27
20
23
26
26
26
25
25
24
25
27
28
28
30
32
33
36
39
41
43
45
49
52
55
58
60
63
66
70
73
76
80
81
81
82
82
84
86
87
88
89
89
89
89
87
85
86
85
82
82
81
79
76
74
71
69
67
64
62
60
58
56
54
50
48
47
45
43
42
39
38
37
37
36
36
37
42
47
52
57
62
64
68
76
86
88
87
72
62
24
26
43
53
39
17
20
30
36
36
25
18
19
24
25
25
26
22
21
22
23
24
25
26
27
28
30
33
35
37
40
44
47
49
52
55
57
61
63
67
70
73
74
77
77
77
78
79
81
83
84
84
85
86
85
84
84
83
84
81
80
78
77
76
74
70
68
65
63
61
58
56
55
52
48
46
46
44
42
40
38
37
36
36
36
35
36
41
48
53
59
63
69
74
80
88
92
84
72
61
36
41
58
52
34
16
17
28
37
33
21
16
18
23
23
24
25
19
19
20
21
22
23
24
24
26
29
31
33
35
39
42
45
47
50
51
54
58
60
64
65
69
69
71
71
73
75
76
78
79
80
81
82
83
83
82
81
81
81
80
79
77
75
74
72
70
67
63
61
60
56
54
52
50
47
45
44
42
40
38
37
35
34
34
34
34
36
40
47
52
58
62
66
72
79
85
81
77
67
59
42
59
66
56
36
16
14
34
36
25
17
15
18
21
23
23
22
17
16
18
18
19
20
21
23
25
27
29
31
34
36
39
43
45
47
50
53
56
58
59
62
64
65
66
68
69
71
73
75
76
77
77
79
80
80
80
78
78
78
78
77
76
75
72
72
69
66
63
60
57
55
52
50
48
46
45
43
41
40
37
35
34
33
33
33
33
36
41
47
52
57
61
66
70
77
83
70
65
60
59
22
46
54
54
39
22
13
27
31
25
16
15
18
23
25
23
18
15
15
15
17
18
19
20
22
24
26
27
29
31
32
37
39
43
46
48
51
54
54
56
59
60
61
62
64
66
68
69
72
73
75
75
76
77
78
77
76
76
77
77
76
76
75
75
71
68
64
60
56
54
53
51
49
47
45
43
41
40
39
36
34
33
33
32
33
33
36
41
48
52
56
61
65
71
77
77
67
61
59
61
13
30
35
53
49
26
12
20
29
28
16
14
17
23
23
23
18
13
13
13
15
17
17
19
20
22
23
25
27
29
29
32
36
40
44
46
48
50
51
53
55
57
58
60
62
64
64
68
69
70
72
73
73
74
75
74
76
80
79
78
79
79
81
86
78
67
62
59
56
53
51
49
48
47
44
42
40
39
37
36
34
33
32
31
31
32
36
42
47
51
56
62
67
71
78
78
65
61
60
61
20
12
25
43
40
16
16
26
36
32
15
12
15
19
21
24
22
12
11
12
13
14
15
17
19
20
22
24
25
27
30
33
34
36
40
42
44
46
47
48
51
53
55
58
59
61
62
64
66
67
70
71
71
72
73
74
76
82
87
85
85
85
84
81
72
63
61
58
55
52
50
49
47
46
42
41
39
37
36
36
34
33
31
30
31
31
38
42
45
49
54
60
60
68
77
82
67
60
60
63
20
8
21
41
34
14
27
30
36
29
19
12
13
15
19
27
22
11
10
11
12
14
14
15
17
19
20
22
24
25
27
29
32
34
37
39
41
42
44
46
47
50
52
54
56
56
58
61
63
66
67
69
70
71
72
75
80
88
97
94
92
93
87
75
67
68
65
60
56
52
49
48
45
43
42
41
38
36
35
35
34
32
30
30
30
31
34
38
41
45
54
54
61
68
78
82
69
63
61
66
12
10
26
37
30
14
21
24
36
34
25
11
13
12
18
26
22
10
9
9
10
12
12
14
15
16
18
21
21
24
26
28
29
31
34
37
39
41
42
43
44
47
50
53
54
54
56
58
61
63
65
67
67
70
74
80
85
94
107
108
104
98
84
72
75
75
71
66
60
54
51
47
44
42
40
39
37
35
34
32
32
31
29
29
29
30
31
35
40
47
48
52
60
67
76
85
73
64
64
66
6
6
17
32
27
17
9
20
32
37
29
14
11
10
16
22
22
10
8
8
9
10
11
12
13
14
15
17
18
21
24
25
28
29
32
35
36
38
39
41
43
45
47
49
52
52
54
56
59
62
64
65
66
68
77
88
97
101
113
112
104
91
79
81
84
84
79
70
62
57
54
49
43
40
37
37
37
34
32
30
31
29
27
28
28
28
31
35
41
41
45
52
59
66
74
83
74
64
64
65
11
6
12
24
21
23
8
14
23
38
34
14
8
10
15
20
22
11
7
7
8
9
9
11
12
12
12
14
17
19
21
24
25
27
30
31
33
35
37
38
40
42
44
46
48
49
51
55
57
58
60
63
69
70
73
83
94
99
103
104
94
85
83
90
93
85
73
67
60
54
49
45
42
40
34
34
34
32
30
29
27
27
26
26
26
28
33
35
34
38
45
53
61
69
75
81
76
64
63
63
15
8
5
7
10
13
7
8
18
37
32
11
6
11
15
20
23
14
7
7
7
8
8
9
10
10
10
12
15
18
19
22
23
24
27
28
30
33
34
36
38
40
42
43
44
46
49
52
54
55
57
61
72
78
81
82
86
91
99
101
93
91
94
100
98
85
78
67
59
53
52
46
42
37
33
33
33
32
30
29
27
26
25
25
25
25
28
30
35
40
47
52
59
67
71
72
72
65
63
64
16
6
6
5
6
7
5
5
14
31
30
13
6
11
14
20
24
17
7
7
6
6
7
7
8
8
9
11
13
15
17
19
20
21
24
26
29
30
31
33
35
37
39
41
41
43
47
49
50
53
57
63
72
82
86
87
89
92
93
99
98
102
107
101
91
80
71
64
63
62
57
52
47
41
35
32
31
31
29
28
26
25
24
23
24
25
29
33
36
40
46
53
58
63
63
69
77
72
66
63
24
11
6
6
9
5
6
5
12
27
32
19
7
8
13
20
25
20
10
7
6
6
6
7
7
6
7
8
11
12
14
14
17
20
22
23
26
27
28
30
33
35
36
38
39
41
43
46
48
52
57
65
74
74
74
75
80
82
91
87
86
98
110
99
86
79
75
73
74
66
60
54
48
43
38
32
29
27
27
27
26
24
23
22
23
28
30
31
34
37
43
48
52
59
65
71
78
78
66
64
12
15
8
7
6
6
15
5
7
19
28
18
8
6
15
20
22
16
12
9
7
6
6
6
6
6
6
7
9
10
10
12
15
18
19
20
22
24
26
27
33
34
34
35
36
37
39
40
43
49
57
61
63
63
65
69
73
87
96
81
79
93
106
104
97
87
79
69
65
62
59
54
49
44
38
36
31
27
23
23
23
22
22
21
22
23
25
31
35
38
44
51
57
62
69
77
86
81
73
66
10
12
11
10
12
20
29
10
4
10
18
15
12
7
14
23
17
11
12
14
10
7
6
6
6
6
6
6
7
7
9
11
14
14
15
17
20
22
23
25
28
29
30
31
32
34
35
36
41
48
51
52
54
61
73
78
80
81
79
73
82
99
102
96
92
90
81
72
62
55
52
50
48
42
39
34
29
25
21
20
20
20
20
19
20
19
25
30
34
38
42
47
54
63
72
79
86
87
78
69
18
20
15
14
21
35
40
22
4
4
7
11
11
6
9
21
17
8
12
14
12
9
7
6
6
5
5
6
6
6
8
9
10
11
13
15
18
19
20
24
25
24
28
28
28
30
32
35
40
41
43
48
59
70
76
72
76
69
65
79
95
100
95
90
86
80
82
74
65
58
51
44
42
41
37
32
29
26
22
17
18
17
18
17
17
20
24
28
31
35
40
48
56
63
69
75
75
79
78
68
25
24
17
21
23
34
42
36
16
4
4
8
8
6
7
20
16
7
10
13
11
9
7
8
6
6
4
5
5
6
6
6
7
9
12
13
15
17
20
21
22
20
23
24
25
27
28
30
31
38
48
58
65
69
63
60
66
56
65
79
86
94
93
84
78
74
72
73
66
60
54
48
42
35
30
27
24
22
21
18
16
15
15
16
17
19
24
27
33
39
43
48
56
61
60
64
71
78
73
65
31
30
21
15
19
27
30
19
13
6
4
6
6
7
9
18
11
6
7
10
9
9
6
10
8
6
5
4
5
5
6
6
6
7
9
12
13
15
17
17
17
17
19
22
23
24
24
27
33
43
49
51
58
60
52
52
50
57
72
72
77
93
91
81
74
66
61
71
68
59
52
48
44
40
35
30
25
19
17
15
15
14
14
14
15
19
22
27
31
37
43
46
51
52
57
66
72
79
78
70
22
26
18
12
11
13
19
7
9
5
4
5
5
7
8
8
8
5
5
7
9
7
6
9
7
8
6
4
4
5
5
5
6
6
8
9
11
14
15
14
13
15
17
18
20
20
21
26
33
38
44
48
51
49
42
43
52
64
65
65
78
90
91
82
71
65
56
61
66
58
51
44
40
36
34
30
27
24
21
16
14
14
13
14
15
15
19
23
29
34
38
41
45
51
61
63
71
79
83
80
15
17
13
19
19
18
13
11
17
6
5
9
4
5
4
4
5
4
4
4
5
4
9
8
8
9
7
5
4
4
4
4
5
6
6
7
9
12
12
11
10
11
13
16
17
17
19
25
31
38
39
38
40
33
36
48
58
55
55
66
76
86
82
77
67
59
53
49
57
54
48
43
38
34
30
25
22
20
17
15
12
12
12
13
12
15
21
25
28
32
32
37
45
53
55
63
69
74
77
82
23
19
15
26
28
18
23
23
17
5
8
13
8
6
6
8
6
4
4
3
3
4
9
7
8
7
8
6
4
4
4
4
5
5
6
6
7
7
7
7
7
7
10
12
12
10
17
26
32
32
28
28
25
30
43
46
50
46
57
66
65
72
72
67
60
52
48
41
48
48
45
40
35
31
31
28
25
20
17
11
10
10
11
11
11
16
21
23
26
25
31
39
44
49
50
57
67
66
71
77
22
19
20
29
25
18
25
23
11
5
8
9
16
17
18
13
5
4
4
4
4
4
11
5
6
8
7
5
4
4
4
4
4
4
5
6
6
6
6
6
6
6
8
9
10
8
16
21
25
19
17
20
29
39
42
39
40
41
55
58
58
63
62
60
52
46
42
41
39
44
40
37
33
27
28
27
24
21
19
14
9
9
10
10
10
14
18
18
20
26
32
36
43
41
46
54
60
60
68
71
33
24
22
30
26
20
23
18
7
7
16
16
18
24
23
14
9
8
6
4
4
3
5
5
5
9
8
5
3
3
3
3
4
4
4
4
4
4
5
5
5
5
6
8
8
7
11
16
17
9
21
28
32
37
35
29
32
39
46
47
51
53
52
53
49
42
37
40
33
36
35
33
31
26
22
23
21
19
16
14
9
8
8
9
9
12
16
15
18
23
28
34
37
34
40
46
51
56
65
70
41
25
22
29
23
16
12
9
6
9
20
25
19
29
23
15
21
12
6
4
4
5
6
4
8
11
6
4
3
3
3
3
3
4
4
4
4
4
4
4
5
4
5
6
6
5
7
11
8
11
23
23
27
30
29
26
30
33
39
40
43
43
43
47
43
41
33
33
36
29
30
28
27
26
22
17
19
17
15
13
9
7
8
8
9
11
10
13
16
21
27
30
28
34
43
47
53
57
63
67
