P2
# CREATOR: GIMP PNM Filter Version 1.1
100 100
255
79
79
80
80
81
81
81
82
85
87
91
99
108
113
115
120
126
131
129
131
136
135
131
126
127
134
142
147
148
153
163
164
162
155
149
144
138
133
130
125
118
111
106
104
113
118
118
122
133
142
136
129
122
120
120
116
115
113
108
103
102
100
97
98
94
88
88
82
85
88
86
82
81
80
79
75
69
63
58
50
42
41
40
37
35
33
29
25
19
14
12
14
15
13
10
7
5
4
5
4
79
80
80
81
82
82
83
85
87
90
94
100
109
117
123
129
133
139
139
137
141
144
137
132
132
138
145
153
158
160
165
161
154
147
141
137
132
129
124
120
114
110
105
106
115
122
126
128
134
141
136
130
127
126
124
120
119
115
111
110
111
108
105
102
95
94
93
88
92
94
88
85
85
84
81
75
70
63
56
48
45
46
45
42
38
35
29
24
19
16
17
17
17
14
10
7
7
7
7
5
79
80
81
82
82
84
85
86
88
92
95
99
106
113
122
131
139
145
149
147
148
148
142
139
140
144
150
156
163
169
166
157
149
143
136
131
127
123
119
116
113
114
110
108
114
121
129
136
142
143
137
134
133
133
129
125
123
118
118
120
122
118
111
105
103
102
95
94
99
97
92
89
87
85
80
74
66
58
52
51
52
51
51
46
40
33
28
23
20
20
20
18
17
16
14
12
9
8
6
5
80
80
81
82
83
85
87
89
91
94
99
103
106
111
117
125
132
142
151
157
157
154
151
146
150
157
161
165
172
179
175
164
153
144
137
133
128
124
119
119
121
121
116
111
119
124
132
143
147
143
141
140
139
137
132
131
127
125
126
131
134
127
116
113
113
104
99
102
106
101
97
93
87
80
74
67
60
56
58
60
59
57
55
48
42
35
29
24
21
23
21
19
17
15
14
14
11
8
6
4
81
81
82
83
84
85
89
92
94
95
100
105
110
114
117
122
128
135
145
156
165
166
159
154
162
173
180
180
186
196
189
172
158
149
142
137
131
126
122
125
128
125
118
114
122
128
134
144
148
146
147
146
144
140
139
137
134
133
136
142
141
130
121
121
118
107
108
112
111
106
100
92
82
74
69
66
64
64
67
66
62
58
53
46
39
33
28
25
24
23
21
18
15
12
11
11
9
9
8
5
81
82
84
84
85
88
91
95
97
99
102
105
110
115
121
127
132
138
143
151
164
173
166
163
175
190
196
195
196
203
198
180
165
155
146
139
133
128
128
130
132
128
122
117
122
127
134
142
149
151
153
150
148
147
145
146
144
143
147
149
142
132
128
123
118
114
118
117
110
102
95
86
78
73
74
76
74
72
70
67
60
52
46
40
34
31
28
27
25
23
19
17
14
12
11
10
8
7
6
4
82
83
85
86
89
94
96
100
101
103
104
108
111
116
122
128
136
143
150
155
163
174
173
174
184
192
190
185
183
186
190
184
170
157
147
141
135
134
132
133
135
135
127
121
124
131
136
142
150
155
158
156
156
157
155
159
157
156
157
152
144
138
133
128
125
123
120
112
102
93
87
82
78
77
78
79
74
67
64
62
57
49
43
38
34
31
30
29
25
21
18
15
14
14
15
13
11
7
6
4
84
85
86
88
92
99
102
106
107
107
109
110
113
119
125
129
135
143
152
161
169
179
184
188
191
182
173
169
166
167
176
180
171
161
154
146
140
138
134
136
140
138
132
125
124
133
140
147
154
160
163
162
165
165
163
170
171
168
163
157
152
148
143
138
130
122
114
105
97
91
89
88
85
81
76
71
65
60
56
53
51
48
41
38
36
34
32
30
25
21
20
18
17
16
15
12
10
9
7
6
85
87
89
90
94
99
106
111
114
112
114
117
117
120
126
130
135
142
150
158
167
179
191
197
192
174
161
157
155
156
163
169
171
166
157
148
143
141
138
141
148
144
137
129
127
133
140
148
158
166
171
170
173
173
173
180
180
174
168
162
158
155
150
141
130
121
112
102
100
101
98
96
90
81
74
68
63
59
57
53
49
45
42
42
42
39
34
29
25
22
24
21
20
17
14
12
11
9
8
8
85
88
91
94
96
99
105
115
121
121
119
121
124
126
129
132
137
142
149
158
168
181
191
191
183
171
155
147
147
147
152
157
161
161
155
151
150
146
142
147
155
149
140
134
130
135
141
149
156
165
176
178
180
182
184
189
186
182
175
168
162
158
153
144
133
123
112
107
111
110
103
95
89
82
75
69
64
65
65
60
52
48
47
49
45
39
35
31
27
25
27
25
22
19
18
15
13
11
10
10
88
92
93
97
101
102
106
116
125
129
128
125
129
134
136
138
141
145
151
160
169
181
183
175
166
162
153
142
139
140
147
150
151
154
155
159
159
151
147
151
157
152
145
139
135
137
144
152
157
165
178
186
188
191
196
199
194
188
181
172
166
158
150
141
132
122
114
116
118
112
103
96
90
84
77
70
70
75
74
66
57
54
55
54
48
44
42
37
33
29
30
28
24
23
23
19
15
13
14
13
92
95
97
100
106
109
109
113
122
131
135
133
133
138
146
147
147
152
159
166
174
175
169
161
152
150
145
138
133
137
146
146
142
145
151
158
163
156
151
156
158
152
147
143
140
142
146
152
159
166
176
184
186
189
194
199
200
194
185
175
166
158
148
138
129
123
122
121
114
108
101
94
87
81
75
72
76
82
79
69
61
61
62
58
54
51
46
41
35
32
33
30
28
27
25
22
18
17
18
18
97
101
102
102
108
115
114
114
119
126
133
137
138
140
147
154
156
161
170
177
179
167
154
148
142
140
136
132
128
133
142
141
134
135
141
150
159
157
156
159
159
156
153
149
146
148
155
160
165
167
171
173
172
175
181
192
201
198
189
182
173
164
151
141
137
133
127
120
111
104
97
91
86
81
77
76
81
86
79
70
67
67
64
58
54
49
44
40
38
37
36
33
30
28
25
23
22
21
21
20
101
105
109
107
109
116
120
119
124
128
133
138
142
146
149
156
164
171
180
183
177
162
147
139
135
133
130
126
125
129
136
132
128
128
134
143
150
150
151
156
162
161
159
157
154
157
163
168
167
165
163
162
162
165
174
184
197
200
194
186
175
165
156
149
142
133
124
116
109
103
98
95
91
86
84
84
86
86
81
75
72
69
63
58
52
49
46
45
43
39
35
31
29
27
25
23
22
22
21
20
109
110
116
114
115
119
124
125
130
139
141
147
153
154
156
162
172
182
188
184
168
155
143
135
130
128
126
122
122
124
126
124
123
124
130
138
139
139
142
148
156
159
162
163
162
165
169
168
161
157
155
154
156
161
171
181
191
198
194
186
175
169
161
149
139
129
122
116
111
107
105
101
95
92
93
91
91
85
78
72
68
65
63
59
55
51
50
46
42
38
32
28
26
25
24
22
20
19
18
18
116
119
124
123
121
127
129
133
136
144
153
159
167
169
167
170
179
191
193
180
164
150
140
132
127
124
122
120
120
120
120
119
119
120
125
129
130
131
137
143
147
150
157
165
169
170
170
166
157
151
148
147
151
160
168
173
181
192
195
189
180
169
158
147
138
132
127
124
119
115
110
103
98
96
94
92
90
82
75
69
63
58
56
54
51
48
47
43
37
33
29
26
24
22
20
19
18
16
14
14
118
122
127
130
129
133
134
138
144
149
162
170
177
183
182
181
188
194
187
176
162
148
138
130
125
122
120
119
118
118
118
117
117
118
120
121
124
128
134
138
140
146
154
164
168
166
165
165
160
149
141
141
146
153
157
163
174
185
191
188
180
167
157
150
147
141
140
137
128
120
112
105
96
92
89
85
84
82
77
70
62
56
51
47
45
41
39
35
31
28
26
24
23
21
20
20
18
16
15
14
120
124
127
132
136
140
143
144
150
154
163
173
181
190
193
191
194
193
179
167
157
146
137
129
125
121
119
118
118
117
117
116
116
116
117
118
122
126
129
131
136
144
149
158
162
159
158
160
156
147
139
136
139
143
149
156
165
176
177
178
180
172
164
157
153
148
145
141
132
121
111
101
93
87
82
79
77
75
73
68
62
54
47
43
41
37
34
31
30
28
26
25
23
22
24
24
22
21
20
16
126
129
130
133
136
140
148
149
153
157
163
169
178
187
190
194
199
194
177
164
156
149
141
131
124
120
118
117
117
116
116
115
115
115
115
117
120
121
124
128
134
138
142
148
153
154
149
150
151
149
142
133
131
135
143
146
154
161
161
164
170
169
160
150
143
138
135
133
128
118
109
100
94
85
78
75
71
68
65
61
56
52
46
43
39
37
34
33
31
31
29
28
27
28
29
28
25
23
20
16
126
128
129
131
135
140
146
151
156
161
166
170
176
181
187
194
199
193
181
173
166
156
144
131
122
119
118
117
116
115
115
115
114
114
115
116
118
119
124
130
134
134
137
141
145
148
144
143
146
147
142
132
126
128
133
137
143
150
151
152
157
159
152
145
139
130
124
120
116
111
106
99
92
86
78
71
66
63
59
56
52
48
43
40
39
38
38
37
36
35
35
35
33
34
33
27
23
19
18
14
123
127
129
133
136
141
145
151
156
162
167
172
176
182
188
190
188
184
180
172
164
153
139
126
119
118
117
116
115
115
115
114
114
114
115
116
117
119
123
130
133
130
130
134
139
139
136
137
141
141
134
127
120
121
125
129
134
140
141
141
148
154
148
141
134
126
119
113
108
104
101
95
88
82
76
69
64
60
56
53
49
47
45
43
43
43
43
43
43
44
45
43
41
37
32
26
22
18
15
11
123
126
129
133
137
140
143
148
152
158
165
169
174
181
187
181
171
172
173
164
152
143
133
122
117
117
116
116
115
115
115
115
115
115
115
115
115
117
120
123
125
126
125
129
133
133
131
135
142
138
129
121
116
116
120
122
124
128
131
133
140
148
148
141
132
122
115
109
103
99
95
90
84
77
71
66
64
63
61
57
52
50
50
50
49
50
51
51
52
52
51
46
42
36
29
25
21
18
14
12
122
124
127
131
134
137
140
144
149
156
161
168
174
179
179
170
161
157
160
156
143
134
126
120
118
117
116
116
115
115
115
115
115
115
115
115
115
115
116
117
118
119
121
124
126
127
128
136
141
133
122
114
111
112
115
116
116
119
123
126
131
141
148
144
134
123
113
107
101
94
89
85
80
75
71
69
69
69
66
59
55
54
57
57
57
58
60
61
61
57
52
46
39
34
28
25
21
17
15
16
121
123
126
128
131
134
139
143
149
154
160
167
174
177
169
160
154
147
146
143
135
127
122
119
117
117
117
116
116
116
115
116
117
117
118
119
118
118
118
116
113
115
118
120
123
124
126
136
138
132
120
109
107
109
110
109
111
114
117
121
126
136
146
143
131
124
117
112
104
95
89
86
84
80
77
77
76
73
66
60
61
62
64
64
66
67
68
67
64
58
54
50
43
36
29
25
21
17
17
20
119
121
125
127
130
134
139
143
148
152
158
166
174
175
164
151
145
140
136
131
126
122
120
118
118
118
117
117
116
116
117
119
121
122
122
123
122
121
122
124
119
114
114
118
121
121
124
128
128
125
117
107
102
105
106
106
106
109
112
116
122
131
143
144
137
130
123
116
107
99
96
94
92
89
87
83
77
70
66
67
70
70
71
74
75
75
71
66
59
55
54
51
44
36
28
24
21
19
20
24
118
121
125
129
132
135
138
141
145
150
157
165
172
172
161
148
138
133
129
125
122
120
119
119
119
120
119
118
117
118
120
123
127
129
131
130
128
126
132
138
134
121
111
113
116
115
117
117
113
112
112
105
99
102
102
101
103
105
108
113
120
130
142
150
145
133
121
115
110
109
107
104
99
93
86
79
74
71
73
77
79
79
80
82
80
75
67
60
53
48
46
43
38
31
26
22
21
22
24
25
119
123
126
129
132
134
138
141
145
149
155
161
167
168
157
145
135
129
126
123
121
120
119
120
121
121
120
120
120
122
125
130
135
140
144
142
135
131
139
145
140
126
114
107
105
105
105
103
99
101
106
103
97
98
99
97
98
101
106
111
119
130
142
151
144
134
128
121
118
121
116
109
99
89
83
81
80
79
80
84
87
87
86
81
76
69
62
56
49
44
40
37
33
28
26
24
24
26
27
26
119
123
126
128
132
136
138
143
149
153
157
161
166
162
151
142
135
129
124
122
121
120
120
121
122
123
121
121
125
130
136
140
146
152
155
149
140
136
138
140
134
125
118
110
105
101
98
97
94
93
96
98
92
92
93
92
93
98
103
110
121
131
142
151
145
142
138
129
128
126
116
107
98
91
90
89
88
88
87
90
87
83
79
74
69
66
58
53
47
41
37
34
31
28
29
29
29
29
28
26
118
121
126
130
136
140
144
147
153
160
163
166
169
159
145
137
133
130
125
123
121
120
121
122
123
124
123
124
131
141
150
155
160
167
165
155
145
139
137
134
130
124
117
115
113
109
104
102
99
94
90
89
88
87
87
88
90
95
100
109
125
139
148
156
155
152
145
138
136
128
115
105
98
96
99
100
99
98
96
92
82
75
70
66
62
60
55
49
45
40
37
34
33
33
31
32
32
30
28
25
118
122
127
132
136
141
144
148
156
164
165
166
168
160
143
134
129
126
125
123
121
121
121
122
124
125
125
126
134
148
159
165
172
180
177
166
152
143
139
135
130
124
122
121
117
112
110
108
104
97
94
90
88
85
84
84
86
90
96
106
121
136
147
155
157
156
151
143
138
127
115
108
106
104
108
107
105
101
96
88
78
70
64
60
56
53
50
46
43
40
38
37
36
35
33
32
30
28
26
23
118
124
129
131
134
137
138
143
152
157
159
162
168
162
147
136
129
125
123
122
121
121
122
123
125
128
128
129
135
145
154
166
176
180
178
170
157
148
143
139
132
128
127
124
120
117
115
110
106
104
102
98
94
87
83
82
84
87
93
103
116
127
134
141
144
148
148
139
131
122
115
114
114
112
113
108
101
93
88
81
75
69
64
60
55
52
49
46
44
44
43
41
37
35
33
33
30
28
24
22
119
125
127
127
131
133
134
138
144
150
154
163
171
170
156
141
129
125
122
121
121
122
122
124
126
129
131
132
135
142
153
166
172
171
169
165
158
153
147
142
137
133
131
127
123
122
116
113
111
110
107
103
99
95
88
84
82
85
90
102
111
116
118
121
128
140
146
139
131
124
120
122
121
119
114
105
97
91
85
81
77
75
69
64
58
53
50
50
49
49
47
42
38
34
32
32
31
27
24
21
119
124
124
124
126
127
130
135
140
147
155
164
174
174
159
142
130
125
122
121
121
122
123
124
126
130
134
137
138
141
150
158
163
166
166
163
159
155
151
151
147
140
135
131
129
126
120
116
116
114
110
106
102
98
95
89
83
84
90
95
97
99
102
106
116
129
139
137
132
129
126
128
127
120
111
102
98
97
95
90
84
77
70
65
59
56
59
57
56
54
48
42
37
32
28
29
27
23
21
18
118
119
119
118
120
124
129
136
143
149
159
168
177
175
158
142
132
125
122
122
122
121
122
124
126
131
137
140
141
142
146
153
160
166
167
165
163
158
156
158
154
145
140
136
134
130
124
122
120
117
112
107
103
99
96
90
83
82
87
87
86
85
91
100
107
117
124
122
122
122
117
120
124
117
110
106
104
104
101
94
85
78
70
64
61
63
66
64
61
55
48
42
36
31
27
24
20
16
17
15
115
115
115
115
119
124
132
140
148
154
161
170
179
174
157
143
136
130
124
123
123
123
122
124
131
136
140
144
145
146
149
153
159
166
170
170
167
164
163
163
158
153
149
144
139
133
129
127
124
119
114
109
105
100
94
89
82
79
81
79
75
76
86
93
96
104
108
103
105
110
103
106
114
117
116
113
109
102
97
91
83
74
68
66
67
71
70
66
61
54
46
40
34
31
25
20
15
13
13
13
111
110
111
113
118
125
133
140
148
157
164
169
174
171
157
145
137
134
129
125
124
124
124
127
133
138
143
146
148
150
153
155
160
167
172
174
172
171
170
168
162
164
160
150
145
139
136
131
126
121
115
110
105
100
96
92
84
76
73
69
67
69
75
80
84
91
93
89
92
98
91
91
100
112
117
113
104
96
91
85
79
74
74
74
75
76
72
64
57
50
45
38
32
28
23
18
13
10
9
9
105
104
108
112
119
125
131
135
142
150
157
164
171
173
162
148
137
133
130
127
126
126
126
128
130
136
143
148
151
153
154
157
162
170
173
175
177
178
178
171
167
173
170
163
156
150
143
135
128
121
116
113
108
104
99
97
90
81
76
72
69
65
63
66
74
79
81
79
81
85
80
80
87
99
109
103
95
90
88
84
82
81
82
83
82
78
70
62
54
46
40
36
32
26
22
17
12
10
7
6
99
101
106
111
116
122
128
133
140
146
152
160
169
176
169
153
139
133
130
128
128
128
129
129
131
136
141
146
149
152
156
158
161
169
175
177
179
182
182
174
173
182
187
181
171
161
148
138
130
124
120
116
113
109
103
98
94
88
82
77
76
71
63
60
64
70
71
69
70
71
68
71
79
92
100
94
84
82
87
90
91
89
90
86
80
74
66
59
52
44
37
32
27
22
19
15
12
9
7
7
96
99
106
111
117
124
132
138
144
151
158
165
175
181
174
157
143
134
131
129
130
131
132
134
135
137
141
143
146
150
155
158
162
167
173
177
181
184
183
181
186
197
205
195
180
164
152
143
134
129
125
121
115
109
102
98
94
89
84
85
85
81
72
61
58
63
63
57
58
60
61
70
78
83
91
90
79
73
82
89
94
95
92
83
75
68
62
55
49
43
36
31
25
21
15
12
10
8
9
12
95
101
107
115
123
129
133
138
146
154
162
168
177
182
177
162
148
139
134
130
131
132
134
135
136
138
140
142
145
149
154
160
165
170
173
178
183
186
189
194
201
210
210
195
179
172
165
152
141
136
129
123
114
108
103
98
94
89
88
97
102
95
82
70
60
55
53
50
50
51
56
65
71
72
85
89
79
68
69
77
87
89
89
82
73
67
60
51
45
40
35
29
24
19
14
10
9
11
15
21
96
101
109
116
122
124
126
133
141
147
152
160
168
172
175
168
157
146
136
131
131
132
133
134
136
137
138
139
142
147
154
162
168
173
177
185
192
194
196
204
214
219
211
196
189
187
177
160
147
142
133
122
114
109
104
100
96
92
94
107
115
107
94
82
69
60
54
54
51
47
48
55
60
67
80
84
78
66
59
68
75
74
79
81
75
66
58
50
46
41
36
31
24
17
11
9
10
13
21
28
95
101
107
111
114
117
123
128
135
139
145
153
160
166
172
166
154
143
134
130
129
131
131
132
133
134
135
136
140
145
156
169
177
183
185
193
203
205
206
212
222
226
217
207
200
193
181
164
154
145
132
121
114
110
105
102
99
98
105
116
126
122
108
92
78
69
62
61
58
52
46
48
54
62
69
69
69
65
54
58
64
60
68
77
72
63
53
48
45
41
34
27
19
13
10
11
15
16
24
35
95
100
104
108
114
120
126
132
138
145
150
156
163
170
171
159
145
136
131
129
129
129
129
130
130
131
132
135
140
148
158
173
189
198
198
199
210
220
224
225
232
230
219
209
202
192
179
167
158
149
134
124
118
112
107
103
103
110
120
130
135
130
115
98
86
77
72
68
62
57
49
44
48
55
54
52
54
56
48
48
52
49
57
67
65
57
47
41
40
37
27
18
13
11
12
17
20
23
32
39
95
99
105
113
120
128
135
142
147
152
157
162
170
175
171
159
145
135
130
129
129
129
129
129
129
130
133
137
146
157
169
181
197
210
212
211
216
228
238
238
238
228
213
202
195
186
176
167
160
151
141
136
128
118
109
105
110
122
132
138
137
132
125
113
101
89
83
75
66
60
53
45
41
44
42
39
43
45
43
39
40
41
46
54
51
44
37
32
32
28
20
14
12
14
20
26
24
29
39
41
95
101
109
116
121
129
135
140
145
149
154
163
170
171
169
162
149
139
131
129
129
129
129
129
129
130
136
146
156
171
185
196
206
211
218
224
227
235
245
246
240
229
211
198
190
180
173
166
160
155
154
153
143
129
115
108
111
121
132
139
139
137
133
126
114
102
97
85
75
65
57
49
42
38
36
34
35
35
34
31
31
31
35
39
37
28
24
21
21
19
16
13
14
23
32
32
29
33
42
41
97
100
107
113
120
124
129
133
138
146
154
159
160
160
160
159
152
143
132
129
129
129
129
129
129
131
140
152
167
180
191
200
207
212
218
230
239
244
249
248
243
231
217
204
195
183
174
166
161
162
163
160
153
139
122
113
112
118
128
137
139
137
133
128
121
113
105
93
81
73
63
55
49
42
41
38
35
32
29
28
28
27
25
27
24
19
19
17
16
16
16
18
26
36
38
34
34
40
42
40
95
99
104
109
115
121
127
135
143
150
152
149
149
150
152
152
147
140
132
130
130
129
129
129
129
133
145
157
165
175
186
198
204
210
217
227
237
241
242
241
236
226
214
206
197
186
177
168
163
165
165
159
149
137
123
118
117
122
129
133
133
134
132
130
126
118
108
100
92
81
70
65
61
56
55
52
49
46
41
39
38
34
25
20
19
21
21
19
20
22
25
31
39
42
39
41
43
44
43
39
97
102
107
113
118
125
132
140
146
148
144
140
142
144
148
150
144
138
133
132
132
130
129
129
129
135
147
155
159
168
185
195
197
203
211
223
233
234
232
228
224
218
210
204
197
185
176
169
166
165
163
153
142
133
126
123
127
133
132
130
127
128
131
129
125
118
111
106
100
90
81
80
78
73
70
68
65
60
54
45
36
30
23
20
21
22
23
24
31
38
42
43
44
42
47
51
49
47
44
40
98
104
111
116
121
128
135
140
142
138
134
135
138
144
151
155
151
143
138
139
140
133
129
129
129
133
143
151
154
164
179
186
187
194
206
221
230
232
226
221
217
214
208
203
195
184
175
169
166
165
161
153
145
137
129
128
137
141
133
126
123
122
126
127
123
118
114
110
106
100
94
92
89
85
78
72
65
57
47
35
27
27
26
26
27
29
30
34
42
46
45
44
44
48
54
54
49
46
41
35
100
104
110
113
119
125
131
135
133
129
128
133
139
146
151
157
159
152
145
147
146
136
130
129
129
131
135
142
146
157
168
171
176
188
203
218
229
229
223
223
224
220
213
203
195
186
178
171
167
165
163
157
152
143
132
129
137
143
136
126
119
117
119
124
123
121
117
113
107
102
94
88
82
78
70
61
53
43
34
29
30
34
36
38
40
42
44
45
47
47
45
47
51
55
56
52
47
42
35
29
99
101
105
109
113
118
122
125
123
122
126
132
138
144
150
157
164
160
151
148
143
134
130
129
129
129
132
136
143
151
159
165
174
186
199
210
219
221
222
229
234
234
223
208
197
187
178
171
167
165
163
159
153
144
133
130
134
142
140
128
118
114
112
115
118
114
109
104
98
89
79
69
62
60
54
45
39
33
30
32
36
40
48
50
52
51
51
49
49
49
52
56
60
59
56
51
45
38
33
32
93
96
101
103
106
110
113
114
117
120
126
133
138
142
148
155
163
164
156
145
137
131
129
129
129
129
131
136
143
150
156
164
173
183
193
200
203
207
216
228
237
238
230
216
201
187
178
171
167
163
159
157
151
141
133
132
134
140
139
129
122
116
110
107
104
98
89
85
81
70
60
52
46
43
40
35
35
36
37
41
42
46
55
58
57
56
55
54
54
57
61
63
62
59
53
47
41
39
41
42
88
91
94
97
101
104
108
112
119
124
128
132
138
144
150
155
162
169
164
149
138
131
129
129
129
129
130
133
138
143
153
163
168
176
184
184
185
192
206
220
229
236
233
221
206
191
184
178
174
165
157
153
152
147
140
137
138
140
137
131
125
118
113
106
97
86
72
66
64
56
47
43
41
40
40
40
44
49
49
52
49
52
60
65
66
64
63
63
65
67
69
66
61
56
53
50
48
49
49
47
90
93
98
102
105
109
113
119
125
133
135
140
144
148
156
162
167
172
168
155
143
135
132
133
130
129
129
131
134
143
153
160
162
165
170
171
174
185
200
210
219
226
224
214
202
193
188
182
178
168
156
152
152
150
145
142
140
140
137
134
126
119
113
105
98
87
68
56
50
47
46
46
48
50
51
53
57
62
61
60
56
60
68
75
77
74
75
76
77
76
73
67
63
63
61
59
56
53
49
45
95
99
104
109
114
117
120
124
130
137
143
148
152
155
159
166
175
176
166
155
145
138
140
140
132
129
129
130
137
147
154
156
155
154
158
164
172
182
195
202
208
213
208
200
196
190
184
178
177
168
155
153
151
147
144
140
138
136
134
130
124
116
106
96
91
83
68
54
49
50
53
54
58
61
61
67
73
73
73
66
63
71
79
88
87
85
89
89
85
80
73
70
70
68
65
61
56
52
47
43
95
99
104
109
112
115
119
123
128
134
140
146
152
159
166
173
181
182
170
158
148
144
148
146
134
130
129
129
135
145
151
152
149
149
153
159
168
177
187
193
197
199
196
189
188
183
176
171
167
161
159
160
154
147
142
138
135
132
129
123
117
110
100
86
77
71
60
52
54
60
63
61
67
76
73
77
86
86
79
71
73
81
91
99
97
96
97
93
87
81
77
77
74
71
66
62
57
52
46
43
93
100
104
104
106
111
116
122
130
136
142
148
155
163
173
181
187
190
180
169
157
150
153
150
140
132
129
129
131
138
145
146
145
145
151
159
164
170
178
182
187
187
184
180
181
178
171
167
162
164
173
174
165
152
144
137
131
124
121
116
106
100
92
79
68
60
55
55
62
71
72
68
76
89
87
90
98
94
82
78
85
90
100
109
108
105
100
92
86
84
82
81
76
71
65
60
56
52
47
43
91
96
98
100
106
114
122
128
135
142
149
155
161
167
174
182
188
192
189
178
163
155
156
153
144
134
129
129
129
132
135
139
140
141
147
154
158
162
166
174
181
181
177
174
175
172
164
160
163
174
185
186
176
160
147
137
128
117
109
103
95
87
82
72
62
58
60
64
69
79
79
75
83
97
104
104
104
97
86
87
98
103
109
114
112
107
99
93
91
89
85
80
73
68
62
58
54
49
46
40
89
90
93
98
107
115
122
126
130
137
145
152
159
165
172
178
183
186
187
179
168
160
155
150
141
133
129
129
129
129
130
132
134
137
141
145
150
154
158
167
175
175
173
171
170
168
159
158
170
184
191
191
182
166
150
140
132
121
106
96
90
81
75
68
62
63
70
76
78
87
85
82
90
104
116
113
107
101
93
94
107
117
117
114
109
103
101
100
96
91
85
79
72
65
60
56
52
48
43
39
85
88
92
98
105
110
116
121
127
134
143
149
155
161
169
174
176
177
178
178
173
164
154
143
134
130
129
129
129
129
129
130
132
135
139
144
146
149
154
161
168
169
168
167
164
163
159
159
172
184
189
190
181
167
154
146
137
127
116
104
93
82
72
67
66
68
76
87
92
98
94
90
96
108
121
119
114
110
101
103
114
122
118
111
107
106
106
106
101
93
87
81
74
67
60
54
49
44
39
34
88
92
97
101
107
113
119
125
132
138
143
148
154
161
165
165
164
166
167
171
173
166
156
144
134
130
129
129
129
129
129
129
130
133
137
141
144
145
152
157
160
159
160
160
157
158
158
157
163
173
180
182
176
170
167
160
147
130
118
107
94
79
70
71
76
77
78
88
102
110
105
99
105
114
124
125
124
116
107
114
122
123
117
115
111
109
111
110
102
93
84
77
71
64
56
51
46
42
37
31
89
95
101
106
111
118
124
129
134
136
138
145
152
155
157
155
154
156
160
165
168
162
155
150
140
131
129
129
129
129
129
129
130
132
135
138
140
140
145
151
153
153
155
152
149
155
157
155
154
157
163
169
175
175
177
173
155
134
115
101
89
78
73
79
89
91
87
86
98
111
114
109
114
125
131
130
125
116
111
120
126
124
120
118
114
111
113
111
101
90
82
74
66
59
52
46
43
41
36
31
88
94
99
104
110
117
124
127
129
132
133
138
143
146
146
145
146
151
156
162
163
155
149
150
142
131
129
129
129
129
129
129
129
130
131
134
135
134
138
145
149
150
150
146
145
151
155
153
150
147
149
161
174
178
178
173
158
136
115
99
87
80
78
90
103
106
98
91
96
107
118
123
125
133
138
131
125
121
116
121
127
124
124
122
115
108
105
102
93
86
79
72
63
57
53
48
43
39
37
35
87
92
97
103
108
116
120
123
127
125
125
131
134
135
136
139
144
151
160
165
159
149
143
141
136
130
129
129
129
129
129
129
129
130
130
131
132
134
137
143
147
148
145
141
140
147
149
148
144
140
141
151
165
177
180
170
153
133
115
97
87
82
85
99
114
119
112
105
109
112
119
134
142
143
140
135
133
133
128
127
129
130
130
125
117
108
100
93
85
79
72
66
62
58
54
51
47
43
41
38
91
95
99
104
108
112
116
122
122
117
117
121
125
128
133
141
149
156
164
166
159
150
144
137
132
130
129
129
129
129
129
129
129
129
129
130
130
132
134
140
143
144
143
138
137
142
143
141
139
137
137
142
154
167
171
162
143
124
109
95
90
89
90
102
114
127
129
125
129
128
124
137
151
151
146
142
140
140
137
133
134
137
132
122
114
107
98
90
81
74
70
65
60
58
53
49
47
44
41
38
94
96
97
100
103
109
114
116
112
109
112
117
122
129
138
146
152
157
164
168
164
155
147
141
136
132
130
129
129
129
129
129
129
129
129
129
129
130
132
135
137
138
137
133
134
137
139
140
142
140
139
138
142
150
152
145
131
116
103
94
95
95
98
108
116
125
137
144
146
141
133
141
152
154
151
147
145
141
136
134
138
140
131
118
109
102
93
86
81
76
70
63
56
51
47
43
42
41
39
35
92
90
93
99
105
106
107
105
103
106
115
122
130
138
142
145
149
155
161
168
169
159
150
146
142
138
132
130
129
130
129
129
129
129
129
129
129
129
129
130
131
132
131
130
131
134
141
146
149
146
138
134
133
135
134
130
121
108
98
95
101
104
105
112
121
126
138
154
162
155
146
147
154
156
152
150
147
141
137
135
137
136
129
118
108
101
96
90
84
76
68
63
56
48
40
35
32
30
29
26
85
86
94
98
99
97
96
97
102
109
117
127
136
141
139
142
148
154
161
170
173
164
158
153
150
143
137
137
133
130
129
129
129
129
129
129
129
129
129
129
130
129
129
130
131
137
145
152
154
149
141
134
130
128
127
127
121
106
98
100
109
116
116
119
124
132
142
157
169
168
160
159
158
156
151
148
145
141
139
138
135
130
123
116
109
103
96
86
78
72
68
61
52
44
38
36
33
29
24
21
82
86
90
89
88
88
93
99
106
113
122
131
135
134
134
139
147
156
163
172
175
171
167
166
161
150
145
144
136
130
129
129
129
129
129
129
129
129
129
129
129
129
129
129
133
140
147
154
159
155
147
138
134
132
133
135
123
105
102
109
113
119
125
129
134
139
153
164
171
172
169
166
162
158
152
149
147
145
142
139
135
128
121
119
113
102
91
80
72
65
59
53
47
44
45
46
44
37
30
24
81
81
79
80
83
89
97
103
110
118
126
132
130
127
132
142
150
157
165
170
169
169
174
176
168
157
150
146
136
130
129
129
129
129
129
129
129
129
129
129
129
130
130
131
137
147
155
160
163
159
149
142
137
136
139
136
119
106
108
119
123
124
129
139
148
150
158
167
168
167
168
167
161
156
155
154
152
149
143
138
137
130
116
110
107
98
89
78
69
61
55
52
52
55
55
57
53
42
32
26
76
73
75
82
87
93
99
104
112
120
125
124
121
124
135
145
151
155
162
165
162
164
173
177
173
162
153
147
140
133
131
129
129
129
129
129
129
129
129
129
129
133
133
132
141
151
160
164
165
159
151
144
141
143
141
128
112
108
113
121
127
132
138
144
156
163
165
165
162
162
165
164
159
154
153
153
152
147
139
136
134
126
111
102
95
90
82
75
68
65
65
61
63
63
60
57
50
39
31
26
69
70
78
83
88
93
99
105
112
117
117
114
116
125
136
143
145
151
157
156
155
162
169
173
174
167
158
150
143
137
133
130
129
129
129
129
129
129
129
129
131
134
134
136
147
159
164
166
165
159
152
149
150
148
138
120
113
117
119
123
129
139
151
156
162
169
169
165
158
157
161
161
159
155
150
148
146
140
133
129
123
116
106
97
90
86
83
77
74
76
76
73
71
64
56
49
43
37
30
26
66
72
76
81
88
95
100
105
110
110
108
111
119
128
134
136
142
151
151
148
151
161
164
166
171
169
162
152
144
140
137
131
130
130
129
129
129
129
129
129
130
132
134
140
154
162
164
164
165
161
159
156
152
142
126
118
119
125
128
130
136
146
157
164
165
164
163
161
155
148
152
156
157
153
150
146
142
137
132
124
116
110
104
101
98
97
93
87
84
87
86
82
78
70
59
50
44
38
31
28
66
69
74
82
89
93
99
104
105
102
105
111
120
129
129
132
144
150
145
141
149
155
157
162
167
167
164
155
148
146
139
132
130
129
129
130
130
130
129
129
129
130
134
141
149
158
161
161
161
161
159
152
141
129
122
123
127
133
138
140
147
155
161
163
161
157
154
151
148
139
141
150
152
149
148
146
142
141
138
131
122
116
114
114
108
104
97
92
90
90
88
86
81
72
61
52
46
38
33
32
67
74
79
84
87
91
98
102
99
96
102
110
118
121
122
132
141
144
138
138
144
148
152
161
163
162
161
158
154
152
143
133
129
129
131
133
133
132
130
129
129
130
133
137
143
149
155
155
155
157
153
139
128
126
129
134
138
145
151
153
160
164
164
162
157
150
147
142
136
128
131
143
142
137
142
143
140
138
138
137
133
128
124
120
116
108
100
92
85
81
78
76
73
67
58
49
43
39
39
38
72
76
78
80
83
89
96
98
94
93
102
110
113
113
120
129
137
138
132
133
137
142
152
157
158
157
157
158
159
155
145
135
130
130
132
135
136
135
131
129
129
130
131
134
138
144
147
145
148
151
141
131
130
136
141
146
153
161
167
168
169
169
164
159
153
145
140
138
130
120
122
135
133
124
128
134
135
134
139
143
140
136
131
126
123
117
108
94
84
78
72
66
63
58
53
50
50
48
45
39
71
70
74
80
85
91
94
92
88
94
102
104
104
110
121
127
131
129
125
128
134
142
149
153
153
153
156
159
160
156
148
141
134
132
134
137
137
135
131
130
131
131
131
134
137
142
142
139
140
139
134
132
139
148
156
162
168
173
174
173
170
166
160
156
150
142
134
133
128
116
112
120
123
114
114
122
127
128
135
140
141
140
137
130
125
117
110
100
91
86
79
70
64
61
59
59
57
51
45
40
65
69
76
82
86
87
88
85
84
92
95
97
104
113
118
120
125
122
120
124
132
141
145
146
148
151
156
159
161
158
154
148
141
137
137
141
140
136
133
133
133
132
132
136
138
140
139
136
135
136
139
141
145
153
163
172
174
175
174
170
167
162
157
151
147
141
129
121
117
111
103
107
111
104
102
109
114
119
126
132
133
136
134
130
126
121
113
105
100
97
90
81
74
71
68
64
58
50
43
39
65
71
76
79
80
83
82
78
82
85
90
98
105
109
112
116
119
115
116
123
130
136
139
141
147
151
154
157
161
161
161
158
151
144
140
143
144
140
137
137
138
136
135
138
141
141
140
137
136
140
147
150
154
159
167
174
173
171
169
166
162
158
152
147
139
133
124
114
106
102
96
95
97
96
94
99
106
116
121
123
126
128
125
122
121
119
112
108
105
102
96
88
83
79
75
68
60
49
40
33
65
69
72
73
77
82
78
74
77
82
90
97
99
103
106
113
114
110
114
121
126
130
135
142
146
150
152
155
157
159
162
164
160
151
145
144
147
145
143
144
144
141
139
141
145
145
145
140
138
144
151
159
165
169
173
174
171
168
166
165
161
155
150
142
133
127
121
117
112
107
97
87
85
86
88
95
105
112
114
115
118
122
122
118
114
111
106
104
101
98
96
90
85
83
79
73
63
52
46
40
61
64
67
71
76
76
71
71
74
81
85
89
92
98
105
107
106
105
114
120
124
131
136
140
143
147
149
152
155
157
160
163
162
156
151
151
152
152
153
153
150
146
144
146
151
153
150
144
142
147
154
164
173
175
173
171
167
165
164
164
162
157
151
143
139
137
134
132
127
118
102
88
80
78
83
92
99
106
108
109
111
116
121
120
115
108
101
97
97
95
91
84
79
77
77
73
67
61
57
49
61
64
69
72
74
70
66
67
71
74
76
82
88
92
95
97
98
101
109
116
125
132
135
138
142
144
148
150
152
155
157
158
159
158
153
154
156
159
159
159
155
153
150
154
160
161
153
147
147
150
157
164
172
170
160
160
156
154
158
159
157
155
153
149
148
150
148
146
139
125
108
96
83
74
76
84
94
102
104
103
103
109
116
118
115
111
103
96
92
89
84
77
71
67
68
67
67
68
63
54
62
66
68
68
68
63
59
62
66
70
73
77
81
85
88
94
100
104
109
117
126
130
133
137
140
142
146
149
152
153
153
154
156
155
152
152
156
160
160
159
157
157
154
157
163
162
154
151
154
157
162
165
164
159
147
143
140
137
146
148
143
145
152
154
153
154
152
145
136
123
111
99
86
73
70
76
86
94
96
95
97
105
112
115
112
109
104
98
94
90
85
76
70
63
59
57
59
63
60
53
60
62
63
62
59
57
60
64
71
78
81
83
86
91
96
103
108
111
114
119
123
127
131
134
137
140
144
147
151
152
151
152
154
152
151
151
153
157
157
158
160
159
159
160
161
159
157
156
159
164
167
163
152
144
137
132
126
128
136
135
129
132
144
153
153
145
137
129
119
109
103
98
87
73
65
68
75
83
88
91
95
102
107
109
108
104
101
98
95
92
88
83
76
67
58
53
50
51
53
51
57
57
56
54
54
57
65
72
79
86
90
92
95
99
102
105
109
111
113
118
121
124
127
130
133
136
140
145
149
150
151
151
152
151
151
150
150
153
155
160
165
166
166
166
164
162
162
160
163
167
170
164
146
132
124
124
118
121
128
124
119
122
132
144
144
131
119
113
107
98
92
89
86
75
66
63
69
77
88
96
96
99
102
102
104
103
97
92
89
89
86
82
76
69
62
54
46
41
44
46
52
51
50
49
54
61
68
75
80
86
89
92
95
97
99
103
104
106
110
115
118
119
124
128
128
131
136
141
144
146
146
149
146
147
148
146
144
147
152
162
170
173
171
169
168
164
161
161
161
160
162
161
147
130
118
112
109
112
115
113
110
111
120
130
129
117
106
101
100
95
89
80
78
78
67
61
71
83
94
100
99
96
96
95
98
101
98
88
82
81
82
80
76
69
62
53
46
40
37
36
45
45
47
52
58
63
70
75
79
83
87
89
92
95
99
100
99
102
107
112
114
118
123
125
124
128
133
136
138
139
142
143
141
142
143
141
140
143
149
158
167
172
172
165
162
157
152
154
151
147
147
151
147
134
120
107
101
104
106
104
101
103
112
116
118
112
103
96
90
87
85
76
71
72
63
61
77
93
101
100
94
89
84
84
91
94
92
86
77
72
76
76
72
69
63
55
48
42
35
30
41
43
49
54
59
65
70
73
77
80
84
87
91
95
96
95
95
102
108
110
112
117
121
123
125
126
129
133
135
136
137
138
137
137
137
136
139
143
149
156
163
170
167
158
151
145
140
144
142
138
135
138
140
129
118
110
99
95
99
97
93
97
103
108
115
115
109
101
90
81
77
71
64
61
55
63
82
99
105
96
83
76
71
73
82
86
84
79
73
66
66
66
66
69
65
57
50
42
36
30
42
46
50
54
60
65
70
72
74
77
82
87
92
93
91
91
97
104
106
108
113
118
120
122
124
125
128
131
132
132
134
134
134
132
132
136
140
145
151
158
164
168
165
159
150
140
133
132
130
131
128
127
130
125
116
108
97
89
89
86
88
91
98
106
114
117
112
102
91
80
72
68
60
54
53
65
83
97
100
92
78
66
60
64
71
76
77
73
69
64
58
57
59
63
63
58
51
44
39
35
50
54
56
60
63
66
68
70
73
76
82
87
90
87
88
93
99
102
105
109
114
116
117
119
122
124
127
129
129
129
130
132
131
128
129
136
142
146
150
154
157
160
164
164
156
147
136
127
120
122
124
120
118
118
112
106
97
85
80
78
81
86
94
104
110
114
110
103
97
89
81
76
66
55
49
58
71
81
81
76
70
62
54
55
62
71
73
70
67
62
57
52
51
54
57
54
50
45
42
39
54
58
61
64
66
68
69
72
75
77
79
83
84
83
89
95
97
101
105
109
111
112
113
117
120
124
125
126
125
124
126
127
125
125
130
136
140
143
142
143
146
152
157
158
153
146
138
130
119
112
112
112
108
107
106
102
99
87
77
72
75
83
91
97
100
109
114
113
108
100
92
82
68
56
47
46
52
59
59
59
55
53
49
46
56
65
68
66
63
58
55
50
45
46
48
47
47
45
43
40
56
59
62
63
64
66
68
71
74
73
74
76
78
83
90
93
95
99
102
105
106
108
111
115
118
120
123
123
122
122
123
121
122
129
134
137
135
135
135
138
143
148
152
151
144
136
129
124
117
108
103
100
98
97
97
97
97
88
80
70
70
76
83
89
91
103
115
118
110
97
86
76
65
58
50
43
41
43
43
46
44
43
41
41
50
56
57
56
56
56
51
47
42
40
40
39
41
42
41
38
59
61
61
60
61
63
65
68
69
70
74
79
82
87
90
90
92
96
99
101
103
105
108
113
115
117
120
121
119
117
117
117
121
129
131
131
129
130
135
139
144
148
151
151
145
138
129
119
115
111
102
95
90
89
89
89
87
83
77
67
62
66
76
81
84
98
110
115
109
96
82
74
70
65
57
49
42
36
35
35
33
32
33
35
40
42
43
44
45
50
49
44
39
35
35
33
34
34
37
36
59
61
59
58
58
61
63
65
66
71
77
82
84
86
88
86
91
95
96
98
101
104
106
110
112
113
116
118
115
111
111
116
121
123
124
124
124
130
134
137
142
146
150
151
145
136
127
124
126
121
109
100
90
84
82
80
79
76
72
66
58
61
70
74
82
94
101
108
110
100
87
84
83
73
67
59
49
41
34
30
28
27
27
28
30
30
31
33
34
40
43
40
36
32
30
28
26
26
28
30
57
58
56
56
57
60
63
67
70
74
78
80
81
83
84
83
89
92
94
96
99
102
105
107
109
110
112
113
112
107
108
115
117
117
118
118
122
126
133
138
144
148
151
150
143
133
129
130
134
128
118
111
99
88
80
73
72
71
65
60
54
57
63
71
84
89
91
102
111
105
98
99
95
84
76
67
57
48
40
35
30
26
23
23
21
23
23
23
25
29
32
33
32
30
27
25
23
22
23
24
55
54
53
54
58
61
65
71
72
73
74
75
78
81
82
84
87
89
89
93
95
100
103
106
106
107
108
108
106
102
107
111
112
114
117
119
124
129
136
144
151
154
153
148
142
137
135
136
140
137
131
124
110
96
87
76
66
62
57
52
49
51
59
73
84
82
85
98
107
105
106
108
102
90
81
72
62
51
47
43
38
31
24
20
19
18
18
18
19
22
24
27
28
26
24
22
22
20
19
19
51
50
50
54
56
58
63
70
69
70
71
73
77
80
80
82
82
82
86
89
93
97
100
102
103
106
106
103
100
100
104
106
109
114
117
120
125
132
139
147
152
157
156
150
146
146
145
144
144
140
134
127
118
106
95
83
71
62
57
52
47
48
57
70
76
73
79
89
95
93
97
104
98
88
78
70
62
58
56
54
46
37
30
24
21
17
15
15
15
17
21
24
25
25
23
21
21
19
17
15
48
45
46
51
52
54
61
67
66
68
69
71
74
76
78
78
77
80
85
87
90
93
96
99
101
102
100
97
95
98
100
104
108
112
117
119
125
133
139
143
147
152
154
155
154
150
147
143
141
138
129
121
119
114
100
89
84
77
70
61
51
45
51
65
69
65
71
77
81
80
89
98
98
93
84
74
69
70
69
65
54
43
36
33
30
25
17
13
12
14
17
21
23
21
21
18
16
16
15
14
43
41
44
47
50
55
62
63
64
65
68
71
72
73
76
74
76
81
83
83
86
90
97
100
102
99
92
91
91
93
98
103
106
109
114
119
125
133
139
141
143
147
150
152
154
147
140
134
131
127
121
113
112
113
105
101
95
89
81
69
55
46
47
59
62
58
63
67
69
72
82
85
87
91
90
82
79
80
76
67
57
47
40
37
35
30
22
12
10
10
14
18
19
18
17
16
13
12
12
13
37
39
43
46
52
59
62
62
62
63
67
70
69
71
73
72
76
79
80
81
87
94
99
100
100
94
86
87
89
91
98
102
104
106
112
118
124
131
136
139
141
146
151
150
149
144
136
129
123
118
112
105
103
105
105
105
98
90
83
75
63
48
43
47
51
52
58
61
60
65
74
74
76
84
93
90
87
81
68
59
54
48
39
32
29
25
19
12
9
7
10
16
17
15
15
15
12
10
9
10
