P2
# CREATOR: GIMP PNM Filter Version 1.1
80 80
255
29
29
25
25
27
31
37
42
51
55
50
42
39
42
41
37
38
45
53
60
64
65
67
65
60
58
58
58
60
62
63
64
66
67
68
68
68
69
70
71
72
73
74
73
72
72
70
68
66
65
65
63
61
61
61
60
57
44
42
47
50
49
43
40
49
49
44
39
41
43
42
42
42
41
40
38
38
37
36
36
23
22
22
24
24
28
33
40
49
51
42
37
36
37
37
39
41
43
50
56
59
61
61
58
57
57
58
59
61
63
64
65
67
69
70
70
70
70
72
73
74
75
75
74
74
74
73
70
67
67
67
64
65
64
63
62
55
44
45
50
51
43
40
45
51
48
42
41
45
45
43
44
44
42
42
40
39
38
37
37
22
23
23
24
25
26
29
34
41
42
35
34
35
38
38
39
42
44
47
50
52
54
57
58
57
59
61
61
61
63
66
66
67
70
72
72
71
72
73
74
76
77
78
76
77
76
73
71
69
71
68
67
67
65
65
63
55
45
47
53
49
43
45
50
51
49
44
43
47
46
45
45
44
44
44
41
40
39
38
38
23
23
24
25
25
26
27
29
32
33
32
34
37
40
41
41
41
44
49
53
55
57
58
56
57
60
62
64
65
64
67
69
68
70
73
74
73
74
75
76
78
79
80
79
80
78
75
72
73
73
70
69
66
61
58
56
52
46
48
54
46
45
50
54
52
46
45
49
49
46
47
47
45
46
44
43
41
40
40
39
23
23
24
25
26
27
27
28
29
31
33
35
38
40
42
44
45
43
46
46
48
52
54
52
54
58
62
66
67
64
67
71
72
70
72
76
75
77
77
78
79
81
82
82
82
79
76
75
77
75
70
66
61
55
50
48
47
48
52
49
46
50
57
55
49
46
51
52
50
48
48
48
48
48
47
46
42
41
41
40
25
26
26
26
26
28
29
30
30
32
34
36
37
40
44
46
48
49
47
47
47
49
50
52
55
57
61
67
69
68
67
72
75
72
73
77
77
79
79
81
82
84
85
85
84
80
77
79
79
75
67
61
55
53
53
55
53
58
54
47
51
55
59
55
47
49
55
52
50
50
50
50
50
49
48
46
42
43
43
39
27
29
30
29
29
30
31
32
33
35
37
38
40
41
45
48
49
51
52
52
52
54
54
56
55
57
60
66
72
72
69
72
77
78
74
76
79
81
82
83
85
85
88
87
84
81
82
83
79
73
65
57
54
59
61
62
62
57
51
50
57
60
59
53
49
54
56
53
52
52
52
52
52
51
48
45
44
43
42
41
27
29
30
33
34
35
33
33
35
38
42
43
44
46
47
49
52
53
55
56
58
59
59
60
59
57
60
65
71
75
71
72
79
81
78
77
79
83
85
85
89
87
92
90
87
87
87
85
78
71
63
56
60
66
65
67
60
52
51
56
62
64
58
53
51
58
57
55
54
53
54
54
53
50
47
46
46
42
42
44
27
28
29
30
33
35
37
36
35
39
42
43
46
49
51
51
52
55
58
58
60
62
62
65
64
60
59
63
69
76
74
73
78
83
80
78
80
84
87
87
91
89
93
94
90
90
87
83
77
73
66
59
60
65
69
66
58
53
54
59
66
64
59
56
52
59
58
56
55
56
56
55
52
49
48
48
45
43
45
46
27
29
31
31
31
35
39
41
42
40
39
41
44
48
52
54
54
56
59
61
63
66
66
68
70
69
65
63
69
76
79
76
76
81
81
80
82
85
90
91
93
94
94
96
92
87
81
76
71
68
65
63
61
67
73
67
58
56
57
64
69
67
65
59
54
60
60
58
58
58
56
54
51
50
50
49
45
46
48
47
31
29
32
35
32
35
41
43
44
45
44
45
45
46
49
52
55
57
60
62
65
69
69
71
76
77
73
65
70
80
85
83
81
80
81
82
83
89
95
95
95
100
98
95
88
80
74
70
68
67
65
65
66
72
75
70
60
60
61
68
71
70
65
57
60
63
62
61
60
58
55
53
52
54
52
48
47
48
49
49
34
33
31
36
35
36
43
46
47
48
48
47
49
49
50
51
54
57
61
63
65
69
72
73
77
79
75
68
73
85
92
92
87
83
85
85
84
90
101
102
100
102
100
92
84
76
75
71
70
74
73
73
72
76
76
71
62
64
67
71
74
71
62
60
67
65
63
63
60
57
56
57
56
56
51
48
49
49
50
51
35
36
34
34
36
37
41
45
49
51
53
53
53
53
55
57
54
56
60
63
65
68
72
75
78
78
74
71
76
86
96
100
93
89
91
87
88
90
99
106
107
105
102
93
83
80
84
79
71
76
80
81
81
82
81
77
66
68
71
74
75
68
62
65
69
65
65
63
60
59
60
60
59
56
51
51
51
51
51
51
35
37
38
36
36
38
42
45
47
51
54
56
58
57
57
58
58
56
59
63
64
67
72
77
81
81
77
75
79
84
95
103
101
100
99
92
94
95
96
106
113
112
106
98
87
89
89
83
77
78
84
88
91
91
89
85
72
70
76
76
76
68
63
70
70
68
68
63
60
63
63
62
60
55
52
53
53
53
53
52
36
37
40
40
39
40
41
45
48
51
54
56
58
59
61
60
61
60
62
64
65
69
74
78
83
83
80
78
82
83
90
102
107
108
107
98
98
101
98
102
116
117
109
100
92
96
94
88
84
81
86
94
96
94
91
87
76
74
77
78
77
69
66
72
71
72
69
63
63
66
64
63
60
55
54
56
54
54
54
52
38
38
40
42
42
42
41
42
47
51
54
57
59
61
63
63
64
63
67
68
71
80
82
82
85
87
84
82
85
87
88
97
108
112
114
107
102
105
103
103
116
121
110
102
98
102
101
97
89
86
92
100
99
94
87
83
80
80
79
81
75
69
71
74
74
71
66
64
67
68
65
64
60
55
57
57
55
56
55
53
39
40
41
43
44
45
45
43
45
50
52
56
59
62
64
65
66
66
69
74
80
89
93
91
88
90
88
88
90
91
91
95
107
114
118
117
110
107
108
107
116
122
113
107
107
113
110
104
93
91
98
104
101
94
86
83
84
83
84
83
76
74
78
78
74
69
68
70
71
69
67
63
59
59
60
59
57
57
56
54
40
42
42
44
45
47
48
48
45
48
54
57
60
63
66
68
69
70
72
78
85
93
98
98
93
92
92
92
94
94
94
97
104
116
121
124
119
111
111
111
117
124
118
113
116
122
116
105
97
96
103
108
104
94
89
87
86
86
89
86
78
81
83
78
72
70
75
75
74
70
65
61
59
62
62
60
59
59
57
55
41
43
43
45
47
48
49
51
49
48
53
58
63
65
67
70
72
74
76
81
87
94
99
101
97
95
95
95
98
99
99
100
103
115
123
127
126
116
113
114
118
126
123
120
128
130
122
107
103
102
110
115
106
95
90
91
89
91
93
85
82
86
82
75
73
76
79
77
74
68
63
62
64
65
63
62
61
60
59
56
44
45
46
46
48
50
51
53
54
53
51
54
60
64
67
70
73
76
79
84
87
93
98
100
101
98
99
99
103
104
104
104
105
114
125
129
131
123
119
119
122
129
128
130
136
135
126
111
109
113
121
122
110
99
96
96
96
97
95
87
88
85
79
78
81
83
80
75
71
67
65
67
68
66
65
65
63
62
60
58
44
46
48
48
49
51
53
54
56
57
56
56
59
63
66
69
73
76
80
84
87
92
98
102
103
101
102
102
106
109
110
109
108
113
127
132
135
129
124
123
127
134
134
140
140
134
126
115
117
124
128
125
113
103
102
100
102
102
96
92
90
83
82
86
87
84
77
73
70
68
71
72
69
69
68
66
64
63
60
55
45
47
48
50
50
52
54
56
57
59
60
60
61
62
66
71
74
77
82
85
90
94
99
102
104
104
105
106
108
112
114
115
113
115
127
135
137
135
128
128
132
140
143
147
140
131
125
122
127
132
131
126
117
108
106
104
106
102
98
95
88
84
88
90
87
82
76
73
72
73
75
73
72
71
70
67
65
63
60
55
46
48
49
51
52
53
56
58
59
61
62
64
65
67
69
71
74
78
84
88
91
94
99
103
106
108
109
110
112
114
118
120
122
121
127
136
139
139
134
134
138
147
149
149
140
133
130
131
138
141
135
130
123
114
110
109
109
105
101
93
89
91
94
90
84
79
78
78
79
80
79
75
70
68
69
66
61
59
57
58
47
49
50
52
53
55
57
58
60
63
64
66
68
69
70
73
77
80
84
88
91
95
99
103
107
110
113
115
116
118
123
127
127
127
130
137
141
143
139
140
145
154
154
151
142
138
136
140
147
147
143
135
125
119
113
114
112
108
100
96
96
97
94
87
82
83
85
86
86
83
76
72
73
69
66
63
63
62
61
60
48
49
51
53
54
56
57
59
62
64
65
67
69
71
73
75
76
80
86
90
92
96
101
104
109
112
115
118
120
122
126
132
133
134
133
138
144
146
145
146
152
160
159
155
146
143
145
150
152
151
145
134
126
122
120
118
116
109
103
104
103
96
91
87
88
90
90
88
84
77
74
75
76
72
68
65
60
57
55
54
51
50
52
54
56
57
58
59
62
64
66
68
71
73
75
78
79
81
87
94
98
100
106
111
112
115
118
121
123
128
132
137
139
140
143
144
147
152
152
152
159
167
165
158
154
153
155
158
157
153
143
133
130
129
128
123
119
113
112
116
111
100
94
95
96
95
88
82
79
79
80
80
77
72
66
61
57
58
57
56
52
53
54
55
57
59
60
60
62
65
67
69
72
74
77
80
82
85
87
93
98
105
111
116
119
118
121
125
128
131
136
140
145
147
149
153
153
158
160
159
164
173
168
164
162
162
164
166
162
154
144
138
136
136
130
128
126
122
121
120
114
104
102
102
98
90
84
85
86
83
78
75
72
70
67
62
59
63
63
61
53
55
56
57
58
60
61
62
64
66
69
71
74
76
77
80
84
86
90
92
96
102
109
114
116
118
123
128
133
135
140
145
150
153
154
157
160
163
167
165
168
175
173
171
169
170
172
171
162
153
147
144
143
140
136
134
133
129
125
121
114
109
108
103
95
90
91
93
89
82
78
75
72
68
63
62
65
66
64
62
53
55
58
60
61
61
62
63
65
67
69
72
75
77
79
83
85
87
89
93
95
99
104
109
112
117
123
130
136
140
144
149
153
158
162
162
166
169
175
175
175
180
179
178
179
179
181
176
166
160
155
152
150
147
143
139
135
131
126
122
116
111
104
98
96
98
100
92
86
84
80
75
69
65
67
68
70
68
66
64
53
55
58
61
63
64
65
66
66
69
71
74
76
78
81
84
88
90
92
94
96
100
103
106
111
120
130
138
142
145
149
154
158
163
167
172
174
177
181
183
183
188
187
187
187
189
187
179
173
168
164
160
157
153
147
143
138
132
126
121
119
113
108
104
103
99
91
85
81
77
73
70
69
71
73
73
71
68
67
64
54
55
58
61
64
66
66
67
69
70
72
75
78
80
82
86
90
93
94
96
98
101
106
108
113
121
133
142
146
149
152
158
163
166
172
177
180
184
189
189
189
195
194
194
194
194
189
183
179
175
171
166
161
153
146
141
135
129
127
125
123
120
113
105
98
93
86
83
79
77
76
75
77
76
74
72
70
68
67
65
54
56
58
62
65
67
69
70
70
71
73
76
79
82
84
87
91
95
97
100
100
103
107
110
115
122
132
141
147
152
157
161
166
171
177
183
188
192
196
198
198
201
202
201
201
198
193
188
184
180
174
168
162
155
151
145
139
135
130
125
122
118
114
103
99
98
97
93
89
85
83
81
78
75
73
70
68
67
66
64
55
56
59
62
65
68
71
73
73
73
74
77
80
83
85
89
92
95
99
102
104
108
111
114
119
124
128
137
146
153
159
165
169
175
182
190
197
203
205
208
210
210
211
210
208
203
200
193
186
181
176
172
166
160
156
152
148
140
133
125
120
117
114
111
110
106
103
99
94
86
82
79
77
75
73
70
68
66
65
62
54
57
59
62
65
68
71
73
76
75
75
78
81
84
87
90
93
95
99
103
105
110
115
119
123
132
136
140
147
155
160
167
172
178
184
192
203
213
217
219
219
218
220
217
214
209
203
195
189
186
180
176
170
164
158
153
147
139
133
127
122
120
117
115
111
107
103
100
95
89
85
82
80
79
76
74
73
73
71
65
54
56
59
61
64
68
72
74
76
76
77
79
82
85
88
91
95
98
101
104
106
110
114
118
123
130
136
142
149
156
162
169
175
181
187
193
201
213
222
226
227
229
227
224
220
213
206
199
194
190
184
179
173
166
160
154
146
138
134
128
124
122
118
114
111
107
105
101
96
92
88
85
83
81
79
74
72
71
70
67
51
54
56
58
61
65
69
72
72
73
77
81
84
86
89
92
96
100
103
107
110
113
117
119
123
127
134
142
151
157
163
171
178
184
191
198
204
211
218
225
233
237
237
233
227
220
212
205
200
194
187
180
173
167
161
156
150
140
134
129
125
122
118
114
111
109
106
102
97
92
89
86
83
79
75
72
69
68
66
62
51
53
56
58
60
61
64
67
69
72
76
80
85
88
91
94
97
100
104
108
112
116
120
123
127
130
135
142
151
157
162
171
179
186
194
201
207
214
221
227
236
243
245
242
235
227
219
211
203
196
189
182
175
167
160
156
148
139
134
129
125
122
119
115
112
108
103
100
97
92
87
83
79
76
74
72
69
65
64
60
49
51
55
57
59
61
63
66
68
72
76
78
83
87
91
94
98
101
105
109
112
116
120
124
129
136
140
144
149
155
161
170
178
186
195
203
210
218
225
231
239
247
250
247
240
231
222
213
204
198
191
183
175
165
157
153
146
139
135
132
130
125
121
115
109
104
99
96
94
91
85
80
77
74
72
69
66
63
61
58
49
52
54
57
60
63
65
66
69
74
78
81
83
85
89
94
98
101
105
108
112
116
121
125
129
134
137
142
149
156
165
178
183
186
194
202
210
219
227
233
242
250
251
248
242
232
223
213
205
197
188
180
172
165
160
155
148
144
140
137
135
130
123
115
108
103
98
93
89
86
82
78
76
71
69
67
65
64
62
61
45
48
53
61
66
66
62
62
66
73
79
83
84
82
85
90
95
100
106
110
114
117
120
124
127
131
137
143
152
161
173
186
192
195
197
201
209
217
226
232
241
248
249
244
237
228
219
211
202
194
185
178
170
163
159
155
149
142
138
134
130
127
122
115
110
105
100
95
90
85
84
82
80
76
73
70
68
67
66
64
49
47
47
58
64
61
55
55
59
67
73
76
76
75
77
82
87
94
102
108
111
114
116
119
123
131
141
150
158
167
177
186
192
199
203
207
211
218
227
234
242
245
244
239
232
223
215
206
198
192
184
177
170
161
155
152
147
140
136
130
124
121
118
114
109
103
98
95
91
88
87
86
83
78
76
72
71
68
65
59
57
55
50
50
53
53
53
58
59
62
65
66
69
72
76
81
86
92
99
104
107
110
113
116
122
134
146
154
162
169
175
182
188
195
202
210
214
218
226
233
238
239
237
231
225
218
211
201
193
187
179
175
169
161
154
149
145
141
136
130
123
119
117
112
107
102
97
93
90
85
82
81
79
74
71
67
65
63
59
56
58
59
57
54
53
55
58
64
66
64
64
66
70
76
82
88
94
100
107
112
115
116
119
125
132
142
149
155
162
168
174
180
186
192
200
206
208
212
220
224
228
229
228
223
217
211
206
198
190
182
174
169
164
158
152
146
141
137
134
129
123
119
116
113
110
106
99
95
90
85
81
77
75
73
69
65
64
62
59
57
55
58
61
62
62
64
64
69
73
71
71
73
75
80
88
96
103
110
117
123
125
127
130
136
142
147
151
157
164
170
175
180
186
191
197
201
201
205
214
218
220
222
221
218
211
204
200
195
188
180
172
165
159
154
149
144
138
132
130
126
123
121
117
114
111
107
100
96
93
89
85
81
77
75
69
68
66
63
60
61
53
58
59
60
63
67
70
74
77
77
78
81
84
87
93
103
109
115
120
124
125
129
132
137
141
147
152
158
164
167
171
176
182
188
195
195
195
201
208
211
213
215
214
212
205
198
193
188
183
176
169
164
157
150
145
140
135
130
126
122
120
115
111
110
109
105
96
92
90
87
83
79
78
75
72
69
64
60
65
66
50
52
53
55
60
66
70
69
69
73
79
83
88
92
98
106
110
113
114
114
114
120
129
133
140
146
151
156
159
163
169
174
179
186
189
188
190
195
202
203
206
209
208
206
201
196
190
182
176
171
165
160
154
148
142
137
131
126
122
118
114
108
103
101
100
97
93
90
89
88
85
81
75
70
68
66
67
69
70
69
47
50
55
58
59
60
61
63
69
76
81
85
88
92
99
103
103
103
103
104
106
115
123
130
140
146
149
151
155
163
169
174
179
183
181
182
185
191
196
196
201
204
204
201
197
192
187
179
174
167
159
155
149
144
138
134
129
122
116
114
111
108
105
100
98
96
94
92
91
91
87
79
72
69
70
72
75
74
72
70
49
52
56
56
55
60
64
67
73
78
81
84
87
87
91
92
93
93
94
98
101
109
118
126
136
142
147
151
158
163
166
173
180
178
174
177
180
187
190
190
196
199
200
197
191
186
181
174
169
165
160
154
148
142
136
131
124
118
112
106
104
104
104
101
99
97
95
93
92
89
81
75
75
76
77
77
75
71
68
67
48
49
51
55
59
61
63
68
73
77
80
82
81
80
81
82
82
83
87
93
100
108
120
127
134
140
145
149
154
156
159
167
173
168
169
171
175
181
183
184
189
192
194
191
187
182
177
169
161
157
154
150
145
141
138
135
131
124
122
116
106
100
97
97
95
93
89
86
85
81
77
77
81
81
79
74
69
66
65
63
53
55
57
54
55
63
68
71
73
76
77
75
73
71
72
72
76
83
90
97
105
116
120
126
133
136
138
142
147
148
154
162
165
161
164
166
171
175
178
180
183
187
189
187
185
181
177
168
157
150
146
143
138
134
133
130
130
129
126
120
112
106
100
95
91
89
89
89
88
86
84
82
80
80
77
71
71
71
70
68
52
49
50
56
61
65
67
69
73
75
72
68
66
65
68
73
79
87
94
104
111
115
121
124
128
128
131
136
139
142
150
158
156
155
158
161
167
170
172
174
178
181
184
184
183
180
178
172
161
151
143
136
131
126
125
123
124
124
121
117
114
111
106
104
101
98
94
92
90
87
84
82
79
77
74
73
76
74
71
69
45
47
55
58
61
63
62
66
69
69
65
61
61
67
74
81
86
92
100
105
107
111
114
118
120
121
125
128
134
142
151
151
147
150
152
159
164
164
167
169
171
176
178
179
180
178
179
175
166
156
146
138
131
122
117
115
115
117
114
109
108
106
106
104
103
101
97
93
89
87
86
84
82
80
80
79
77
74
71
68
47
52
55
58
59
59
57
61
61
60
58
59
67
74
82
89
92
94
98
101
103
106
108
111
113
115
119
125
135
142
147
144
142
145
147
154
158
158
162
163
168
172
176
178
179
179
177
172
163
156
147
140
134
125
118
113
108
114
111
103
99
100
101
97
97
97
94
90
88
85
84
84
83
81
80
79
76
74
71
68
49
52
54
56
58
56
52
55
54
54
54
60
70
79
86
89
92
93
96
98
101
102
105
104
106
113
120
128
135
141
144
139
137
139
143
150
152
154
158
160
166
172
177
180
182
181
178
171
164
158
151
143
135
128
123
117
107
110
108
103
95
95
96
93
92
92
94
91
87
84
83
84
83
81
79
77
75
74
72
68
49
50
53
55
53
50
48
50
52
56
61
67
76
83
85
88
90
92
93
97
96
97
96
101
110
118
123
129
136
140
139
132
131
134
138
145
146
148
152
156
162
169
177
182
183
182
180
175
167
161
153
146
139
132
124
117
107
100
99
99
93
89
88
86
85
85
88
88
85
81
79
80
79
78
78
77
75
73
71
68
49
51
53
49
45
47
55
63
64
66
68
70
76
81
84
85
88
91
90
87
88
89
98
105
116
120
122
126
133
137
131
124
126
129
132
138
140
143
147
152
160
167
173
178
182
181
178
172
165
158
152
146
140
131
123
116
108
100
96
94
92
89
87
83
82
81
82
82
82
80
74
75
74
72
75
78
76
72
69
67
47
48
49
42
45
53
61
64
64
66
67
65
72
80
80
77
82
86
81
83
87
93
103
111
116
118
120
124
130
130
123
119
123
124
128
133
136
139
143
149
157
164
168
172
177
177
174
168
161
155
148
142
138
131
125
118
112
104
99
95
92
89
87
82
81
80
78
78
78
78
74
72
72
70
69
73
77
74
69
67
41
41
41
42
50
59
62
62
62
63
64
64
68
72
72
71
76
75
78
88
92
98
106
109
112
115
118
120
121
118
114
116
120
119
124
127
130
134
139
145
152
157
161
166
170
170
167
161
157
152
145
139
133
129
124
119
112
107
104
99
91
88
86
83
80
78
77
75
75
75
74
70
68
68
67
67
70
72
71
68
41
44
47
51
55
59
60
59
60
61
60
61
66
69
69
69
71
73
79
84
88
93
97
98
103
108
109
110
112
111
110
113
116
116
118
121
124
130
136
142
146
150
154
160
164
162
160
154
151
147
142
137
132
127
123
118
110
105
101
97
92
89
87
84
82
77
75
74
73
72
70
69
67
65
65
63
64
66
69
66
43
47
49
52
55
58
56
55
59
58
56
62
66
68
64
66
70
74
77
79
84
85
87
89
95
101
103
105
106
105
107
110
112
114
115
117
119
128
134
137
140
145
148
153
155
154
153
148
144
141
138
133
127
124
120
116
108
103
102
98
94
91
87
85
83
79
74
72
71
70
69
70
68
63
61
60
59
59
62
62
43
45
48
51
54
54
52
55
57
56
59
62
64
64
62
65
70
75
77
76
77
78
80
85
93
97
100
102
100
102
105
107
109
111
111
112
117
125
130
132
136
140
143
146
148
146
146
143
138
135
131
128
123
119
116
112
106
100
97
95
92
89
85
83
81
79
76
72
70
69
69
68
66
64
61
58
56
55
57
56
41
43
47
50
50
51
51
54
52
53
58
60
60
59
61
67
73
77
71
68
69
73
79
86
89
93
97
96
95
100
103
103
105
107
107
108
116
122
125
129
132
134
136
138
138
138
137
135
132
129
125
121
119
115
111
107
103
99
96
92
90
88
86
82
79
77
76
73
70
67
65
65
66
65
63
60
57
55
53
53
40
43
47
47
48
48
50
50
47
50
51
53
55
60
65
70
69
69
64
63
68
74
81
85
86
93
95
91
93
98
100
100
103
103
103
106
114
119
122
125
127
130
131
131
131
131
130
128
125
123
119
116
115
112
109
105
101
97
94
91
87
87
85
82
79
76
73
72
70
66
63
61
63
64
63
61
58
55
52
51
40
43
44
46
47
47
48
46
44
46
49
53
57
62
66
68
63
62
58
63
67
71
77
81
85
91
91
88
92
94
95
97
100
100
99
105
112
116
120
122
123
125
127
126
125
125
124
122
120
118
115
113
111
108
106
104
99
95
92
89
84
84
84
81
78
76
72
69
68
67
63
61
60
62
62
60
57
56
52
50
39
41
42
44
45
44
44
42
43
47
52
53
57
61
63
61
57
56
59
62
66
73
78
81
85
87
85
85
88
89
91
95
96
95
95
102
109
113
116
117
118
120
121
121
119
118
117
115
115
112
109
107
106
104
102
99
96
93
91
87
82
79
81
81
78
75
72
69
66
64
63
61
58
59
60
58
57
56
53
50
39
39
40
43
42
41
40
42
48
51
49
52
57
61
59
53
52
56
64
68
72
77
80
83
84
83
81
81
84
86
90
94
93
91
92
100
106
110
112
113
114
115
114
114
114
113
111
109
108
107
104
101
100
99
98
96
92
92
90
87
82
76
75
79
77
74
73
71
68
64
62
61
59
57
57
56
55
54
54
51
37
37
39
40
39
39
40
46
49
48
48
54
57
59
53
50
55
60
66
71
74
76
78
80
81
79
79
79
80
83
87
91
90
88
88
95
101
104
108
109
109
109
107
109
111
109
106
105
103
102
100
97
96
95
93
91
90
89
88
86
80
76
72
74
75
73
71
70
68
66
63
61
58
56
55
55
54
52
53
51
34
35
37
35
35
38
43
46
45
46
50
53
55
56
49
50
59
64
67
70
72
74
76
78
77
76
77
76
77
81
83
86
87
86
85
89
94
98
102
103
102
103
102
104
106
105
103
101
98
97
96
93
92
91
88
86
86
86
86
84
80
76
70
68
72
71
69
67
65
64
64
61
58
55
54
53
53
52
50
49
32
35
36
33
36
40
43
43
43
46
50
51
53
51
46
49
57
63
65
68
69
72
74
76
74
74
73
72
76
79
79
82
84
84
83
84
88
92
96
97
98
99
99
99
101
101
99
96
95
93
90
89
88
88
85
82
82
82
82
82
81
76
69
65
68
69
67
65
63
61
61
61
58
56
54
52
51
51
50
47
32
35
33
33
38
40
40
39
42
47
48
49
50
46
44
50
57
60
63
66
67
70
73
73
72
71
70
71
76
77
76
78
81
81
81
81
84
88
91
93
95
96
95
95
97
96
94
92
93
90
87
86
86
85
82
80
78
79
79
80
78
72
68
63
65
66
64
64
63
59
58
59
57
55
54
52
51
50
49
48
32
33
30
35
37
38
36
39
42
44
46
47
44
42
47
53
56
58
62
64
66
68
70
70
69
67
66
71
74
74
74
76
78
78
76
77
81
84
87
89
92
92
91
91
92
91
89
88
88
86
83
83
83
82
80
78
75
75
74
74
73
68
64
63
60
62
63
61
61
59
55
56
56
54
52
50
50
49
48
47
28
25
29
34
34
34
37
40
41
42
44
42
39
43
49
52
54
56
59
63
64
66
68
66
67
63
63
70
71
69
71
74
75
75
72
74
78
80
83
85
87
87
88
86
88
86
84
83
83
82
81
81
81
78
77
74
73
71
69
67
69
65
62
60
57
59
61
60
59
57
55
53
53
52
51
48
48
49
47
45
22
24
32
31
30
34
37
39
39
41
41
38
41
46
49
51
53
55
57
60
62
64
65
64
64
60
62
68
68
66
68
72
74
74
71
72
76
76
78
82
82
85
86
83
84
81
80
80
80
79
78
80
79
76
75
72
70
70
68
65
68
65
62
57
55
57
59
59
57
56
55
52
50
50
50
47
48
49
47
44
25
27
31
28
28
34
36
37
38
38
36
39
44
46
46
48
51
53
55
57
59
61
61
63
59
57
63
66
64
64
67
71
72
72
69
70
72
72
73
76
79
81
82
81
79
77
76
76
76
74
74
75
76
74
71
69
67
66
65
62
65
66
61
58
55
55
56
57
56
55
53
52
49
49
49
47
47
46
45
43
27
28
27
26
30
33
34
36
36
34
37
40
42
42
44
46
50
52
54
56
58
60
58
58
54
57
62
62
60
63
67
69
70
68
64
68
68
69
70
73
77
78
79
79
77
74
72
72
71
71
71
71
71
70
69
67
64
63
63
59
60
64
59
56
55
52
53
54
56
57
52
50
49
48
48
47
45
43
42
43
25
26
24
26
30
31
33
34
34
33
36
39
38
41
44
47
49
50
52
55
57
58
56
56
52
58
61
58
59
62
64
67
67
64
62
64
65
68
69
71
73
74
76
76
74
72
71
71
67
67
69
69
68
67
66
65
62
61
60
58
57
60
58
53
53
51
52
52
56
58
52
49
49
45
46
45
44
43
40
40
23
23
22
26
28
30
32
32
32
32
35
37
40
42
44
45
47
49
52
54
54
54
53
55
51
57
58
56
58
61
62
64
64
61
59
62
65
65
67
68
68
70
70
71
70
69
67
67
63
63
66
66
65
64
64
63
62
60
59
56
56
54
55
53
51
50
49
51
55
58
52
48
47
46
44
44
43
43
41
38
22
21
23
25
27
29
30
29
29
31
35
37
39
41
42
43
45
47
50
52
52
52
51
52
50
55
55
54
58
61
61
61
61
59
56
59
61
63
65
66
65
66
67
66
66
63
63
62
59
60
62
62
59
60
61
61
60
58
57
55
54
53
51
50
49
48
47
48
51
54
50
46
46
45
44
41
42
41
40
38
18
20
22
25
27
28
28
27
29
33
35
36
38
39
40
43
44
46
48
50
50
50
49
49
46
53
52
54
58
60
59
58
57
57
55
57
59
61
62
63
63
64
63
63
63
60
59
59
57
56
57
57
56
56
58
57
56
56
55
54
52
52
50
48
47
47
46
46
48
48
46
45
45
44
44
42
40
40
39
38
19
20
23
24
26
26
26
27
30
33
33
35
37
38
39
42
43
45
46
47
47
47
47
47
43
51
50
52
57
58
56
54
54
54
52
56
57
59
60
59
61
62
61
61
60
58
57
57
57
54
54
55
54
54
56
55
54
54
53
52
51
51
49
48
46
45
44
45
46
44
43
43
44
43
43
42
39
38
38
37
