P2
# CREATOR: GIMP PNM Filter Version 1.1
100 100
255
140
135
115
92
79
76
80
104
119
121
137
135
123
141
141
147
137
127
117
115
112
104
118
114
94
91
68
64
64
64
63
61
86
121
105
143
183
173
132
85
67
61
55
55
55
69
111
175
210
236
213
220
239
229
224
212
224
214
201
176
172
169
165
163
149
141
147
141
152
149
139
126
110
95
78
96
101
108
107
120
133
148
157
158
144
132
129
132
121
123
124
115
131
123
114
120
120
121
119
128
155
135
108
100
91
77
78
100
126
122
131
136
129
123
115
120
118
123
122
112
105
102
96
94
98
88
67
64
64
64
64
63
78
123
114
117
145
137
110
78
68
63
56
55
54
94
146
140
172
197
179
151
177
181
170
169
184
205
203
178
178
176
168
152
139
121
134
127
153
145
141
122
103
86
94
114
118
119
119
127
139
149
157
147
132
118
132
125
110
110
108
124
132
128
112
107
113
123
133
134
143
127
114
104
91
80
72
79
98
94
108
125
135
131
124
120
109
106
100
95
93
92
91
78
80
75
65
64
64
64
64
63
69
99
101
106
119
109
101
96
82
67
61
55
53
86
131
131
130
113
152
105
103
101
101
110
111
141
158
144
156
141
153
152
129
107
106
113
133
122
117
113
77
84
126
141
142
142
133
134
144
150
150
144
133
112
110
109
109
99
115
127
130
132
118
105
118
125
129
130
137
126
117
110
92
85
85
80
73
82
107
119
111
120
130
130
127
126
121
109
99
87
86
81
79
71
63
62
64
64
64
61
65
89
100
118
110
98
89
93
91
73
66
58
55
56
61
66
64
59
61
57
56
55
56
57
56
61
66
71
87
96
142
132
125
136
118
93
107
91
96
101
83
72
96
114
129
138
136
136
141
145
144
134
124
117
109
102
101
95
114
123
126
121
103
95
108
119
122
127
149
141
126
113
105
108
94
84
78
75
93
102
94
104
106
113
109
112
116
126
114
107
108
110
104
76
62
62
63
64
62
60
61
87
122
125
100
94
85
83
78
76
71
63
56
55
55
55
56
57
55
54
54
54
54
54
55
54
54
52
52
55
73
95
111
147
126
117
96
72
73
72
72
85
100
93
107
121
123
128
137
144
144
130
112
113
114
94
86
104
115
118
118
98
95
108
114
114
120
124
134
133
119
111
106
102
99
98
90
75
74
76
76
81
85
93
94
99
105
105
104
99
92
97
89
71
61
61
63
63
60
59
57
75
110
106
122
113
103
100
88
97
80
70
63
57
55
55
58
56
55
54
53
56
58
56
56
58
57
56
57
56
53
53
73
96
134
157
132
93
61
86
97
107
134
121
120
121
118
131
142
141
136
123
111
106
103
87
87
102
108
115
104
83
100
109
104
112
117
120
141
131
123
130
113
94
91
91
85
79
73
71
73
70
74
78
87
104
108
94
89
97
81
79
76
64
60
59
60
59
59
59
58
58
78
100
121
132
127
105
103
96
92
90
78
67
63
59
57
55
54
54
55
58
58
58
59
60
60
60
61
60
60
58
55
55
65
81
90
77
58
61
69
94
115
124
126
131
135
135
138
132
126
119
113
105
91
80
94
102
106
102
94
79
97
100
102
108
114
115
155
146
141
138
117
104
96
93
91
80
84
98
91
84
69
70
83
105
99
93
77
78
70
71
70
64
60
59
59
59
59
59
59
57
60
107
115
108
131
126
117
112
117
99
86
78
70
63
57
55
55
56
60
61
61
61
62
62
62
62
59
58
58
59
59
59
57
55
55
55
55
54
54
56
59
79
122
139
139
140
146
149
142
123
104
93
85
74
88
97
93
88
83
77
86
95
101
107
111
109
135
136
129
131
126
125
122
115
108
108
107
110
96
82
72
68
71
81
82
78
70
72
74
76
85
74
61
59
59
59
59
59
59
59
54
63
85
91
116
143
135
117
99
92
91
93
90
77
59
54
54
57
61
62
62
63
64
64
61
59
57
58
58
60
59
59
59
60
58
58
58
59
56
54
54
53
62
93
102
125
142
139
138
125
113
95
80
70
85
90
85
78
74
86
97
101
105
106
107
101
110
116
128
113
100
105
110
123
125
121
120
112
103
94
89
78
67
74
77
65
75
80
78
80
86
81
62
60
60
59
60
60
60
59
56
54
62
96
118
135
144
126
118
122
118
104
92
80
57
54
56
60
63
64
65
64
62
57
56
56
57
57
57
59
61
61
62
62
61
60
60
60
58
56
56
54
53
52
68
116
136
112
120
117
105
105
88
71
75
83
73
72
85
97
104
105
104
101
102
97
129
103
101
94
85
88
90
93
96
92
91
83
82
92
88
77
66
76
74
72
84
92
85
92
85
87
71
61
60
60
61
62
61
59
59
57
54
75
102
108
131
146
146
119
99
90
88
62
54
55
60
64
65
65
65
62
59
56
59
60
60
61
63
64
64
64
61
57
54
53
56
59
59
58
59
58
56
54
53
58
84
87
103
94
93
101
93
85
65
68
70
83
96
105
110
109
104
100
99
93
145
117
112
102
106
100
82
80
83
84
86
78
76
71
70
71
68
66
66
87
95
101
92
107
101
94
86
65
62
61
61
61
61
59
60
60
58
55
61
79
100
130
117
109
108
84
61
55
55
59
63
65
65
64
64
64
58
59
60
61
59
62
63
64
64
61
55
59
61
56
50
53
59
59
59
59
58
55
55
54
54
53
54
57
62
67
70
69
59
60
79
103
104
105
110
112
107
103
94
85
140
127
131
123
125
117
99
103
116
118
110
101
88
82
82
72
70
74
70
81
111
115
107
114
118
106
97
77
63
62
61
61
60
59
61
60
60
59
56
56
72
97
90
75
73
58
54
55
59
61
63
65
64
65
66
66
63
60
59
59
60
61
62
64
63
57
59
72
71
65
59
54
52
57
59
59
59
58
56
56
54
51
49
47
50
55
57
57
58
60
64
71
79
93
105
109
108
99
93
81
125
130
131
120
116
112
120
125
125
127
117
104
89
90
99
92
81
87
94
98
120
129
130
127
120
108
98
89
71
63
62
61
61
59
59
59
59
59
59
55
53
53
56
55
54
55
56
58
62
64
64
65
65
66
66
65
64
64
64
62
61
60
60
60
61
55
78
124
125
98
83
73
53
49
52
57
59
59
59
58
56
55
54
53
49
48
53
54
57
59
63
63
64
70
93
112
101
93
89
83
141
136
140
138
137
138
145
133
121
112
107
101
95
97
117
106
99
103
119
118
125
139
129
121
118
107
90
88
79
69
64
63
61
60
59
59
59
59
59
57
56
55
55
56
57
58
60
62
64
64
65
65
65
65
64
63
61
61
62
65
64
61
60
60
61
53
82
129
134
117
102
88
79
71
53
52
57
59
58
59
58
57
57
56
53
50
49
48
49
54
60
62
65
64
72
103
93
83
82
77
170
160
163
166
160
155
143
128
134
124
120
119
107
105
114
127
115
109
132
143
140
139
130
119
109
116
108
100
82
73
66
65
63
61
60
59
59
60
59
59
58
56
56
56
56
57
60
62
65
65
65
66
67
65
61
60
62
62
62
62
61
61
59
60
58
62
125
134
118
106
98
99
102
105
95
72
55
55
56
57
56
56
55
55
54
54
53
52
49
48
57
59
64
66
64
78
82
74
76
80
191
178
185
175
156
149
149
154
144
141
142
123
121
125
117
130
133
126
134
155
145
126
113
117
98
112
118
100
81
77
82
79
67
63
62
60
61
61
61
59
59
58
56
56
55
57
59
63
65
66
67
67
69
63
60
62
62
62
62
61
61
59
59
58
65
124
133
118
104
101
108
112
103
108
109
103
78
66
54
52
53
53
52
53
51
52
51
52
50
48
57
60
59
64
64
63
68
80
82
83
195
190
189
177
172
175
167
159
153
149
136
128
142
138
130
138
152
146
146
153
149
132
108
91
95
89
95
89
81
83
95
93
85
75
65
62
62
61
62
61
59
58
57
57
57
58
59
62
65
69
74
84
70
63
62
60
60
60
60
57
57
60
61
70
113
127
111
104
97
94
97
113
110
105
101
104
97
85
82
66
56
52
52
52
52
51
49
50
47
50
59
59
58
59
62
61
64
72
81
76
182
177
174
181
182
182
177
173
164
156
145
150
152
149
146
148
156
148
137
141
135
127
99
91
113
100
102
110
108
102
102
92
84
77
77
73
63
62
62
61
59
58
58
58
61
63
70
82
80
96
93
102
76
64
60
61
61
62
62
60
64
108
120
122
125
112
104
99
94
97
98
97
101
97
89
91
90
94
92
87
85
66
54
56
55
55
52
49
46
52
58
59
57
57
59
60
61
62
68
79
198
190
175
172
167
160
154
160
165
166
163
163
158
146
132
135
143
146
136
123
113
113
110
97
121
124
130
143
134
122
114
100
86
89
86
78
67
64
64
64
70
75
82
86
83
91
99
96
88
99
101
105
78
60
58
60
63
63
62
63
64
94
113
127
121
106
98
98
99
106
113
108
104
115
109
113
114
114
102
97
93
90
58
55
55
55
54
48
47
53
58
58
57
57
58
58
58
60
77
93
213
203
193
199
191
178
167
153
140
144
142
138
138
128
136
126
121
130
126
122
114
102
101
102
127
147
138
132
129
120
110
98
96
98
83
70
75
80
78
76
92
102
110
101
93
95
104
93
105
114
105
98
72
59
61
61
62
64
65
67
72
95
122
124
112
100
97
112
111
109
112
121
125
127
128
130
127
125
111
102
101
92
59
52
52
52
49
45
51
56
56
57
57
57
58
59
61
60
70
100
223
214
207
208
199
191
179
170
151
156
157
139
144
138
146
140
129
119
114
114
120
123
117
119
132
146
143
138
131
123
119
112
117
106
89
73
73
86
91
91
91
98
113
119
106
108
103
103
125
119
109
96
65
62
63
63
63
66
75
87
97
115
127
112
103
98
105
112
118
126
131
129
128
123
119
123
111
109
109
102
104
88
56
48
47
46
48
50
53
53
54
55
58
58
57
56
57
60
62
90
236
226
221
212
206
190
184
184
177
183
175
170
164
165
160
156
145
131
132
137
140
145
136
136
152
159
151
137
127
127
130
135
128
112
95
75
76
96
115
114
115
102
126
134
121
117
106
122
127
112
101
79
59
63
62
63
71
80
101
106
111
122
133
115
101
103
121
128
123
137
143
134
113
103
98
119
112
97
96
100
97
74
51
43
46
51
54
53
53
53
52
57
58
58
57
55
55
58
60
86
243
237
232
227
212
197
203
193
185
178
170
169
171
170
163
161
158
151
147
155
147
142
146
140
140
146
141
131
116
106
103
111
119
110
97
94
79
84
107
127
132
116
118
138
137
126
122
127
111
97
87
62
61
65
62
72
86
103
117
121
124
132
134
114
101
105
119
134
140
146
134
115
115
100
84
101
102
105
102
88
84
87
47
46
52
53
53
54
53
52
53
57
57
56
56
55
55
55
58
90
238
241
229
222
213
210
210
202
199
194
180
170
158
153
141
139
145
148
150
152
149
139
130
132
128
125
128
121
112
105
91
94
96
94
85
84
78
81
94
111
127
137
130
134
139
132
117
114
112
92
62
60
64
64
76
101
105
98
107
125
137
125
116
107
109
116
113
121
130
122
124
113
101
94
80
86
89
100
103
99
92
70
43
51
53
53
53
53
53
53
54
56
56
56
57
56
56
55
57
79
245
244
237
230
228
224
216
218
208
199
190
178
168
146
139
134
128
136
137
133
133
131
128
112
113
105
100
102
93
90
84
86
81
79
85
96
83
93
89
101
118
135
128
120
118
119
106
96
76
62
60
64
64
68
107
120
122
113
118
131
134
118
116
115
112
130
133
132
121
105
100
93
88
83
76
73
74
82
87
91
58
42
45
52
51
53
56
56
55
57
57
55
57
58
59
58
58
57
59
68
250
244
239
228
218
212
209
204
195
181
165
152
152
155
164
160
144
130
118
124
122
111
103
101
99
97
91
90
94
93
97
95
87
95
105
116
95
100
113
107
114
127
131
103
103
102
84
67
64
66
67
67
68
78
94
101
105
113
127
140
129
118
123
134
124
137
131
115
105
99
97
94
96
92
94
87
82
69
65
54
46
42
47
51
52
57
57
57
57
57
57
57
56
57
59
60
59
59
62
68
252
254
253
249
231
214
196
180
172
170
168
182
186
196
191
168
149
144
140
139
129
122
124
127
123
124
110
116
114
107
110
98
110
111
128
121
108
108
125
131
141
137
139
117
93
74
59
60
65
68
68
68
78
105
87
88
90
96
114
134
146
134
124
134
146
149
134
116
130
115
122
122
120
114
107
92
83
62
48
45
48
43
51
50
53
56
56
55
57
58
58
59
57
56
56
56
58
58
58
88
234
243
245
244
239
227
211
201
186
198
200
202
208
202
179
161
179
168
161
150
140
147
145
141
147
133
125
131
131
124
122
115
124
128
138
136
132
134
141
141
136
125
110
91
73
66
61
62
67
68
69
70
105
119
96
100
96
112
116
132
159
152
146
138
147
152
131
133
141
135
148
136
125
107
96
88
80
58
47
45
45
49
51
51
54
55
55
55
54
57
57
56
54
53
53
54
54
55
59
106
216
232
237
232
227
225
225
215
207
217
211
207
213
200
184
183
201
192
186
170
168
165
166
159
157
147
142
151
151
149
136
134
135
124
116
125
127
124
104
97
84
76
71
68
66
67
62
64
68
68
69
89
131
128
123
111
99
104
132
143
166
173
161
153
154
156
146
146
154
152
157
146
126
108
96
83
77
62
49
43
42
50
50
52
56
56
55
55
53
53
50
50
50
55
57
55
53
53
60
104
228
239
241
239
230
223
216
205
203
202
198
196
201
194
194
205
204
197
203
196
191
171
173
182
174
164
161
157
147
155
136
118
122
103
88
88
75
69
72
73
71
69
72
69
66
65
59
65
69
73
76
102
105
111
129
132
111
109
121
147
173
182
161
150
152
155
152
139
145
140
145
139
127
115
98
94
93
74
53
45
42
48
50
53
54
54
53
52
51
48
49
49
51
52
57
56
53
55
57
84
232
231
229
237
244
234
239
222
220
226
220
205
195
193
167
170
172
175
183
187
168
153
149
174
173
152
160
144
129
128
115
83
73
65
66
65
66
66
64
65
68
67
67
66
64
62
68
81
105
115
90
94
102
100
109
131
127
132
136
159
165
158
148
135
132
130
137
129
126
121
130
132
115
110
97
90
83
77
65
54
44
47
51
52
52
52
52
50
48
51
52
49
49
53
56
54
53
54
60
78
216
198
209
229
244
245
239
232
222
218
190
167
168
202
193
173
148
152
174
194
179
163
145
142
147
130
139
110
92
78
68
68
65
71
72
71
70
68
69
65
64
64
65
68
70
81
118
143
128
112
90
93
108
112
129
144
152
156
161
177
182
173
157
139
125
118
123
115
112
112
110
123
120
108
96
92
92
95
95
74
53
44
50
51
52
52
50
49
50
51
52
49
52
55
55
52
54
54
65
101
164
171
188
202
222
238
224
200
185
190
149
135
127
151
170
172
167
140
149
186
189
165
135
116
101
102
94
74
72
74
73
71
69
72
72
71
72
72
74
81
83
85
82
101
111
132
142
128
112
95
93
94
99
114
136
157
156
155
151
153
168
170
157
141
131
127
113
109
101
98
98
108
113
113
100
97
97
91
91
82
61
47
47
51
51
50
49
50
51
49
50
52
52
53
54
54
55
56
77
111
168
190
201
211
221
219
213
188
153
148
133
161
138
125
136
187
177
147
122
153
145
134
112
98
77
75
69
72
74
71
70
70
74
77
83
96
98
91
102
110
95
105
108
134
148
138
126
107
98
102
114
104
98
105
147
147
138
134
131
131
133
145
141
125
115
129
137
125
113
100
93
94
99
97
97
98
94
91
89
84
69
53
45
52
50
49
49
51
51
48
52
57
56
55
55
55
55
57
89
106
158
167
184
211
207
190
174
170
188
172
166
164
168
146
106
143
171
147
107
115
89
91
87
77
75
71
69
75
78
77
99
117
127
136
134
118
112
121
114
104
117
121
124
140
140
122
108
106
117
119
116
122
118
112
131
147
135
127
122
114
113
123
131
128
105
107
124
128
120
104
89
83
84
89
94
88
94
106
102
95
80
65
46
51
51
51
49
48
49
54
55
58
56
54
54
55
56
59
72
80
174
174
177
179
204
201
207
201
231
223
209
186
186
142
115
98
111
106
101
99
108
109
84
76
75
69
93
117
122
103
114
131
147
134
129
132
139
116
117
128
137
149
147
138
134
119
124
132
133
138
139
144
137
134
144
161
152
151
142
121
105
100
108
118
104
92
105
108
121
121
106
95
90
90
91
83
91
100
104
89
79
72
46
50
52
55
52
52
52
53
53
53
54
53
54
54
54
77
93
106
165
137
131
164
205
213
227
231
249
234
211
168
142
143
154
143
118
109
148
141
124
92
77
76
73
109
150
135
117
126
143
163
141
146
172
165
146
138
129
139
139
148
157
154
135
139
149
150
154
145
149
150
142
159
165
162
150
145
149
136
115
100
90
102
100
84
90
91
110
112
94
86
82
86
87
88
91
82
83
77
74
62
47
51
52
53
53
53
50
51
54
53
52
54
53
53
75
115
100
98
132
112
132
153
196
228
231
246
252
227
182
156
173
205
178
155
137
142
168
125
107
81
77
75
90
172
188
155
125
160
175
172
146
172
187
175
167
156
150
165
156
154
164
167
154
156
153
152
148
131
131
125
121
145
151
155
140
134
126
119
124
110
95
90
87
81
76
90
94
78
96
100
99
94
91
97
113
98
101
88
65
47
49
51
51
52
52
52
50
50
51
52
53
54
53
68
110
133
128
110
103
109
130
181
186
216
241
235
226
196
195
203
192
210
196
192
177
154
136
125
87
77
76
75
154
223
212
168
123
153
192
182
163
173
191
191
195
169
152
177
186
181
172
173
160
142
137
134
142
118
103
103
99
117
138
158
148
145
141
142
139
123
118
103
83
84
78
81
75
84
101
121
117
105
101
101
116
106
106
75
52
45
51
49
50
52
52
53
54
51
52
54
56
58
62
99
125
130
137
124
99
127
141
174
194
211
186
180
182
130
136
161
170
185
220
186
158
140
130
91
75
74
71
94
184
174
184
159
144
173
207
206
200
185
181
200
203
182
163
182
198
191
181
160
149
143
134
122
123
112
90
88
86
111
133
133
147
150
159
159
150
140
128
115
104
110
98
81
72
88
84
100
99
105
103
109
112
106
95
61
45
49
51
50
51
52
53
53
52
50
50
53
56
60
75
90
106
122
130
130
86
108
129
133
130
149
141
129
137
120
107
137
139
127
168
150
131
106
87
75
75
74
75
114
132
139
173
162
161
186
205
226
221
218
212
200
209
185
175
179
190
175
176
169
149
138
132
119
117
121
114
120
95
86
98
100
125
132
156
164
157
148
140
136
125
115
103
89
70
75
77
87
86
97
89
102
101
92
66
46
46
49
49
50
50
50
52
52
52
50
50
50
57
90
113
93
96
110
118
124
84
84
100
125
112
120
129
117
116
112
107
119
120
98
95
93
80
75
78
77
77
89
118
134
132
122
126
166
192
188
197
212
201
209
213
214
213
198
190
192
188
159
149
156
148
127
136
128
111
128
121
96
80
79
102
108
129
150
155
158
150
142
137
148
135
114
96
85
80
63
68
81
79
83
76
92
92
52
44
47
47
49
50
50
49
49
49
51
51
51
48
65
108
136
130
109
104
116
122
119
82
81
82
89
89
93
99
104
105
88
86
85
80
78
76
74
78
78
77
77
78
116
161
148
172
159
136
152
177
203
218
209
187
178
169
173
177
198
200
181
190
169
144
129
134
119
118
111
100
114
122
90
67
84
106
114
133
160
158
154
141
137
126
133
140
122
105
104
92
73
62
68
72
75
70
80
60
44
47
47
48
50
51
51
49
48
48
49
50
51
58
99
108
114
130
135
118
109
122
125
89
81
78
80
81
81
80
79
79
79
79
77
75
75
76
78
79
81
86
101
95
122
164
177
197
195
178
183
179
199
217
218
202
165
128
115
127
146
163
148
182
173
152
128
106
104
104
90
81
78
80
61
53
52
52
57
91
121
143
160
151
137
127
119
116
127
129
115
101
92
74
62
61
66
68
57
44
47
48
48
47
48
48
49
49
49
49
49
46
54
79
96
100
116
128
135
127
116
123
128
105
95
83
79
77
77
79
80
79
78
75
75
76
80
82
85
97
110
115
148
131
121
139
166
204
209
184
178
183
205
217
221
174
149
116
103
86
85
89
91
127
137
121
90
69
63
59
63
59
55
51
55
66
64
61
58
70
105
115
146
153
145
142
132
115
102
127
113
93
81
68
67
57
60
59
43
47
48
48
49
50
50
49
56
51
49
52
53
64
85
102
110
116
119
121
122
125
125
127
127
113
108
104
99
113
108
94
87
81
79
81
86
110
120
102
110
128
151
142
164
152
127
153
185
209
219
208
167
176
209
232
232
205
194
170
149
122
74
61
57
60
63
59
76
102
104
102
90
68
73
92
97
98
96
71
58
65
85
96
120
141
158
145
132
114
95
102
101
101
78
70
88
77
54
44
46
49
48
48
49
51
53
79
95
80
62
57
73
85
97
96
100
106
107
110
114
123
122
123
121
126
119
127
103
102
124
140
150
131
118
115
122
124
145
118
107
122
159
189
208
184
155
139
173
210
202
189
169
147
181
212
224
216
183
166
154
144
76
70
82
95
93
122
128
145
155
140
117
94
101
110
127
121
113
92
70
50
60
86
102
147
156
151
147
136
124
104
87
90
77
79
94
79
46
41
47
48
47
48
50
51
96
123
109
94
69
65
78
77
82
80
84
95
111
113
114
117
113
115
111
133
138
119
113
108
118
128
143
158
136
141
160
139
134
116
111
131
154
209
224
181
179
183
194
189
169
165
147
128
162
163
161
157
150
142
110
103
74
64
79
123
157
174
148
180
192
171
137
110
118
132
133
112
111
90
79
57
48
59
91
129
147
138
128
130
134
122
112
100
90
95
102
76
40
45
48
47
45
50
49
88
142
131
121
94
75
76
85
85
95
101
93
91
105
109
112
114
112
108
107
132
119
126
134
115
111
131
134
139
157
168
167
141
130
133
130
122
144
190
231
223
228
212
201
194
174
164
161
138
129
122
120
108
101
107
95
85
79
69
63
71
93
108
124
141
174
193
159
130
128
140
142
133
123
101
100
81
60
42
63
103
140
144
128
113
112
124
138
127
116
100
92
60
40
46
47
47
47
50
65
134
157
139
119
101
100
90
96
110
115
115
103
105
110
108
110
113
110
108
101
140
137
145
140
120
119
140
169
143
157
175
172
143
152
171
149
130
150
197
224
191
190
182
151
169
152
161
147
154
135
99
84
134
142
128
108
95
83
84
69
83
137
130
147
155
154
191
173
151
152
133
113
104
98
104
117
104
80
45
50
92
131
142
126
110
92
108
127
117
106
84
87
55
42
46
47
48
50
57
98
140
164
150
125
120
113
114
102
117
123
113
120
116
119
116
116
115
109
106
100
170
170
156
145
126
122
136
158
173
172
174
183
164
164
190
170
159
157
154
140
126
119
122
112
109
106
111
94
100
84
81
76
123
160
102
87
98
105
79
66
109
175
183
151
183
190
206
189
182
178
152
125
127
111
86
88
92
68
45
60
98
119
118
129
120
96
89
117
111
88
86
70
44
44
47
48
49
52
69
93
133
165
163
146
133
126
121
119
126
120
122
131
132
132
127
119
116
112
111
102
184
172
160
148
138
146
168
178
181
168
163
169
181
191
208
179
163
150
135
119
104
104
106
95
82
75
67
64
67
73
85
70
107
96
69
76
81
75
69
84
110
144
191
163
204
223
235
229
204
187
168
158
134
121
102
86
73
68
45
66
90
95
85
99
110
110
81
83
109
115
109
72
41
46
46
48
50
53
76
80
110
144
159
154
139
135
130
132
132
128
136
140
139
131
125
119
112
108
105
100
165
159
132
115
109
144
175
183
166
146
139
151
165
181
198
180
159
138
106
84
82
79
97
98
82
71
87
91
128
114
71
74
111
77
75
107
136
86
76
73
69
82
159
184
232
247
253
247
219
212
193
163
153
152
109
90
76
54
44
51
67
61
62
65
70
86
79
68
103
131
117
72
42
46
45
47
49
57
71
72
97
119
141
155
147
149
148
147
139
137
144
142
132
124
116
114
109
102
98
93
142
144
109
105
103
115
146
138
147
123
116
138
150
169
193
159
132
105
81
109
112
88
72
83
76
71
109
132
138
97
70
70
87
68
74
130
164
108
68
88
69
84
141
212
213
235
250
248
235
218
184
164
172
150
135
115
108
84
61
48
46
48
50
53
48
48
50
77
108
129
108
50
42
45
47
49
48
65
78
71
105
146
155
162
161
164
161
160
148
151
152
142
128
121
114
111
107
97
92
89
104
116
108
111
106
104
106
99
117
108
133
151
163
180
174
170
133
96
79
104
138
122
87
73
76
83
121
163
120
99
104
103
85
83
106
144
166
141
110
87
68
82
131
187
192
218
215
237
227
214
205
201
202
193
177
156
119
91
86
111
104
86
82
75
60
47
70
105
127
136
82
39
44
47
48
47
53
75
73
80
98
135
155
170
172
173
171
162
153
148
146
136
128
129
126
122
109
95
85
81
114
124
123
128
116
126
130
100
110
101
105
119
129
160
148
142
123
95
83
78
137
127
96
112
115
111
114
149
124
137
157
142
105
122
145
180
181
167
152
125
85
79
109
121
157
159
176
220
239
236
215
206
204
201
206
178
139
112
130
127
108
101
113
95
68
49
94
125
125
111
48
40
45
46
46
44
71
94
69
77
89
113
143
167
170
166
164
157
148
142
143
138
133
129
125
123
110
95
92
84
119
151
134
121
127
146
136
111
132
102
94
104
140
157
143
121
93
85
113
92
102
120
104
126
137
144
147
171
162
145
130
108
137
153
172
179
174
157
132
114
74
76
127
146
123
139
188
238
230
204
197
175
168
160
165
194
179
160
136
117
109
87
84
74
57
46
81
112
101
60
39
43
45
45
45
49
80
96
92
80
80
123
161
174
168
162
158
152
144
137
135
132
129
125
118
114
111
110
109
87
115
170
163
141
130
128
122
142
122
95
122
124
136
116
116
97
85
103
104
98
88
113
124
141
147
152
178
167
148
150
163
124
155
192
181
128
118
94
77
80
90
80
120
125
135
157
168
230
230
234
225
202
204
174
133
169
217
186
151
137
119
105
88
81
61
44
76
101
61
40
45
46
45
45
45
69
99
99
99
99
94
120
159
173
169
160
154
150
142
137
135
134
121
115
110
106
108
105
99
86
137
163
150
133
126
120
135
149
109
104
112
91
96
94
84
107
115
131
137
117
100
129
143
161
182
184
208
200
186
182
142
151
186
196
160
114
78
68
126
150
153
123
114
111
131
145
168
209
241
243
230
238
220
200
150
121
151
176
171
144
112
99
113
107
77
45
60
65
42
45
45
45
45
45
50
91
111
117
116
117
105
119
159
173
168
155
147
139
133
134
129
129
123
111
103
102
104
99
94
85
160
167
152
139
149
143
158
151
139
114
86
92
109
115
118
151
153
155
146
109
120
115
140
150
170
174
185
191
197
191
169
188
159
126
98
89
70
80
168
192
149
137
158
146
130
130
163
187
221
244
251
242
231
216
178
146
112
111
126
138
129
88
100
94
72
46
42
41
45
46
45
45
45
45
64
107
111
119
126
130
125
134
167
180
171
159
148
137
127
123
117
122
117
110
99
100
97
90
88
87
155
173
167
150
172
161
171
169
152
118
100
87
92
104
149
166
181
144
128
127
131
110
118
124
127
146
156
165
189
183
164
157
136
107
75
70
68
92
181
199
180
144
179
164
188
158
138
169
193
223
241
215
184
179
189
186
163
112
86
83
116
91
86
84
53
39
42
45
45
45
45
45
46
45
60
94
117
123
122
118
122
133
158
172
173
169
154
142
131
124
117
111
110
105
102
93
86
82
79
78
158
185
170
175
183
181
176
166
141
128
138
117
104
86
119
168
169
135
140
169
152
129
144
137
125
151
179
191
178
150
129
118
112
89
73
81
81
90
138
204
201
171
183
179
206
186
169
157
178
210
225
212
200
164
132
135
175
176
124
86
72
62
68
77
47
41
46
46
45
45
45
45
45
49
74
78
99
101
106
106
120
132
154
172
174
163
147
130
122
116
115
108
99
95
102
96
91
90
82
74
168
192
189
197
175
159
173
158
134
156
154
147
102
100
121
145
182
162
146
161
181
158
147
161
140
132
153
178
191
157
135
123
111
87
73
96
106
115
120
149
201
212
208
198
214
219
201
204
195
233
223
172
158
141
137
107
127
155
128
124
110
81
64
57
41
43
46
45
45
45
45
46
45
55
117
83
73
91
101
110
119
128
146
162
178
173
158
138
128
116
108
102
99
91
90
91
91
87
83
77
176
200
199
192
162
143
157
131
110
124
130
114
96
102
126
157
174
179
185
158
188
182
175
188
176
141
146
170
184
157
136
121
108
99
77
99
116
126
132
145
196
227
232
230
225
241
233
218
201
234
230
208
166
174
169
126
95
85
78
95
108
106
88
66
41
43
44
44
44
44
45
47
45
64
119
104
88
91
95
115
127
133
143
160
177
171
157
142
130
117
111
103
93
90
85
86
91
89
85
77
201
206
186
168
151
127
125
120
116
101
100
98
112
95
108
132
132
149
194
185
182
207
206
210
186
145
153
193
182
149
127
131
133
133
90
77
83
99
118
139
156
174
190
221
235
249
238
235
227
247
243
198
195
212
195
138
111
152
106
74
64
75
83
47
42
43
44
45
45
45
45
46
42
84
123
143
126
108
98
93
109
125
141
153
174
179
165
147
130
133
125
108
99
85
80
83
87
85
89
78
209
196
194
182
164
145
114
102
107
127
131
134
130
109
123
131
148
156
182
211
204
210
193
169
163
161
161
193
192
165
161
160
137
117
104
107
87
85
107
137
134
139
145
157
186
225
250
244
246
248
227
204
228
221
187
133
168
193
151
109
93
82
53
41
45
42
44
44
45
45
45
45
41
114
138
141
150
134
114
108
106
122
137
147
166
182
167
149
139
135
121
110
107
104
88
79
84
88
90
80
189
170
173
197
177
155
146
117
110
155
159
159
137
115
149
163
175
176
184
210
226
211
187
172
190
196
174
181
208
196
179
159
135
129
150
140
89
115
100
110
114
120
133
144
171
194
220
231
235
238
230
234
221
190
173
161
210
188
148
110
106
95
60
39
44
44
45
45
44
42
41
47
79
144
165
143
156
140
129
126
119
128
128
142
156
173
165
146
136
129
117
115
107
94
85
75
79
86
89
82
171
171
158
166
168
169
151
110
119
155
169
174
140
117
133
155
159
158
161
176
201
215
203
192
224
216
200
195
212
206
188
164
151
166
165
141
96
107
115
110
123
130
143
161
193
182
176
160
158
217
246
231
216
210
217
214
222
182
143
102
90
80
58
39
44
45
44
45
45
51
83
131
168
175
158
158
163
153
146
139
137
143
131
134
155
177
171
156
144
140
129
114
105
104
91
78
73
83
83
79
160
169
151
120
131
153
170
163
128
124
145
171
162
139
121
135
135
136
139
164
180
190
218
210
228
237
228
208
192
183
175
151
140
132
122
98
96
95
100
113
137
144
145
157
176
147
125
122
111
123
162
201
192
160
158
193
204
192
160
122
105
92
62
41
44
44
44
43
40
102
170
189
198
177
170
177
175
164
155
152
152
154
144
138
156
175
174
158
138
125
118
117
115
108
97
83
70
75
79
75
173
155
148
119
145
136
181
159
118
125
130
143
171
161
133
146
163
169
160
151
179
186
197
226
240
239
219
196
179
164
156
135
134
143
126
91
86
92
99
136
122
151
169
188
168
133
109
103
94
84
80
96
111
120
97
147
158
169
156
111
91
84
58
40
43
43
45
41
42
99
157
198
200
189
184
192
188
177
168
164
160
157
148
150
157
167
165
150
132
127
128
112
104
101
89
78
68
71
70
69
137
134
129
118
134
120
142
116
132
171
158
140
169
171
141
159
173
192
188
165
176
208
210
222
240
229
215
207
186
176
166
148
158
155
132
104
102
131
146
150
127
150
161
190
156
119
111
134
121
95
85
78
74
73
71
79
96
90
94
85
80
76
48
40
43
43
42
41
39
97
152
165
195
201
204
206
199
190
178
174
166
160
152
155
165
168
161
150
147
155
145
128
104
94
80
72
65
68
67
67
141
147
142
172
165
118
137
131
162
182
167
154
181
181
153
158
179
197
201
179
177
201
221
208
203
198
209
198
179
181
157
121
103
100
94
89
111
149
183
166
136
154
177
194
163
126
128
148
134
102
116
107
83
81
91
85
77
58
61
70
85
93
67
39
44
44
40
40
39
53
110
133
174
167
192
204
202
190
183
175
166
166
159
156
162
166
159
153
157
164
156
143
116
97
87
77
65
61
67
64
158
170
176
190
163
124
155
157
165
198
187
168
190
200
173
161
186
200
208
196
204
205
207
180
168
171
173
164
147
151
112
96
113
97
115
128
134
160
183
161
142
159
179
176
145
156
151
151
149
120
132
103
91
115
107
95
81
58
47
49
48
59
66
39
44
43
40
40
40
42
141
162
136
128
151
184
202
200
193
180
177
176
169
163
165
166
164
161
161
156
148
134
121
117
107
89
73
57
58
53
188
197
201
188
162
131
166
186
183
198
208
187
194
207
190
168
195
211
224
216
221
210
184
173
152
144
137
135
118
128
105
102
138
117
119
149
169
187
181
178
167
163
191
186
175
187
168
178
158
147
124
112
117
121
83
58
52
51
62
74
64
53
52
40
42
43
41
40
40
39
75
109
96
106
128
163
188
204
203
197
194
190
181
175
172
166
157
149
140
136
135
125
122
115
106
93
74
70
71
62
222
212
197
176
144
129
165
183
197
209
229
217
217
215
196
180
197
218
227
205
194
181
166
145
146
130
127
132
111
127
122
101
119
133
109
137
161
174
200
204
175
169
194
215
211
199
185
174
158
155
142
146
136
104
74
60
61
64
86
88
91
98
85
41
39
42
42
40
39
39
44
97
145
149
147
159
177
185
190
203
205
197
187
182
172
165
157
147
132
116
121
115
117
116
103
91
78
73
71
68
238
205
180
143
135
149
168
211
209
224
233
211
227
229
209
210
209
219
231
208
190
174
166
157
153
124
149
154
113
116
110
105
108
137
119
135
159
175
209
222
201
199
199
222
212
180
169
161
136
128
124
113
105
95
91
83
68
56
104
108
110
98
78
38
36
42
43
42
39
38
40
68
152
168
172
157
143
156
186
198
203
195
191
189
185
180
172
165
155
136
117
100
98
111
111
99
82
72
68
63
216
192
164
139
176
180
150
171
181
198
194
199
217
233
230
233
229
233
244
227
220
217
198
178
139
119
138
151
134
132
139
140
154
145
135
172
185
193
204
227
234
231
225
230
220
196
164
137
127
115
121
115
111
99
83
73
64
67
88
85
83
69
52
33
33
41
42
42
40
38
39
45
94
130
150
153
110
128
155
181
202
196
190
188
186
181
174
166
161
158
134
111
88
98
107
101
86
74
70
68
205
169
144
169
197
212
178
169
167
166
193
204
221
247
250
250
249
245
226
212
212
204
186
153
138
141
127
132
133
132
161
179
173
140
133
159
164
173
185
201
202
208
216
191
206
196
178
151
140
151
145
129
116
102
90
76
66
83
102
81
62
53
58
67
46
36
40
41
40
38
40
42
46
72
100
101
108
127
143
171
196
199
190
180
173
171
171
167
159
137
115
104
88
79
95
97
92
85
76
66
211
173
172
193
189
214
194
194
213
179
174
202
223
239
250
254
255
244
235
207
180
173
175
154
163
183
173
159
130
137
174
183
164
141
150
156
175
194
194
184
175
176
189
160
177
156
177
157
139
133
120
96
73
81
81
82
93
103
115
90
64
47
79
146
121
44
37
40
40
39
38
41
44
46
100
144
149
156
155
155
176
188
181
177
171
167
165
165
164
154
134
125
104
80
83
97
101
98
89
79
190
158
181
220
226
214
217
216
231
208
182
174
205
214
233
248
254
253
246
223
205
207
199
162
186
206
179
147
129
154
174
192
176
145
156
177
184
208
192
163
147
144
159
141
158
143
141
134
116
90
80
78
93
118
116
112
93
111
133
99
66
52
84
170
134
69
31
36
39
39
40
40
41
42
49
98
157
147
130
133
159
160
159
172
169
167
158
156
143
130
112
104
99
74
78
88
98
101
95
88
192
180
176
205
239
243
236
242
239
221
210
179
188
224
243
253
253
254
245
236
237
218
180
180
197
197
161
127
160
162
172
190
179
150
160
189
210
224
201
173
168
139
123
120
115
109
101
118
97
80
95
116
114
141
148
119
100
119
132
100
70
50
99
142
90
111
93
32
34
39
39
38
41
41
40
45
91
102
103
146
149
117
145
166
165
155
143
139
125
104
100
95
79
69
65
77
87
89
81
78
207
183
203
190
216
240
246
252
253
241
219
219
197
202
233
248
254
254
254
241
220
210
197
212
218
188
158
133
139
166
179
187
182
157
172
186
202
221
223
195
169
154
153
141
132
122
100
86
98
91
134
125
132
147
155
122
146
145
112
93
71
65
108
106
119
115
97
101
44
32
34
37
40
40
40
40
39
68
134
151
126
101
144
175
168
149
139
132
137
130
140
128
97
72
69
64
71
72
71
63
183
177
232
219
201
231
245
251
254
251
240
234
227
216
212
224
242
249
254
253
244
231
223
235
221
182
155
157
143
136
175
195
195
171
172
182
184
208
238
213
181
166
143
132
135
108
96
125
134
109
111
142
158
165
143
147
172
139
110
84
63
86
98
101
132
127
114
104
100
60
34
31
35
37
40
41
41
40
61
75
98
140
172
173
176
172
170
165
152
139
134
118
100
96
84
62
62
56
57
52
173
200
228
238
211
214
238
245
252
254
252
251
251
243
221
220
223
246
254
254
254
247
233
221
199
169
176
180
155
132
169
195
203
195
184
194
192
206
235
203
170
147
138
138
117
96
120
148
156
141
114
131
157
167
164
181
175
154
116
91
71
92
116
122
134
114
99
98
135
150
67
34
31
35
38
40
40
40
40
43
63
110
167
139
146
179
180
177
160
140
128
117
120
108
86
65
56
57
63
65
182
209
240
251
241
232
237
237
251
254
254
254
252
237
239
252
238
241
253
254
253
245
232
227
194
188
208
194
152
142
164
177
211
216
218
216
222
220
229
188
167
170
169
140
114
124
123
143
179
175
131
142
156
184
190
185
138
120
113
86
76
87
121
144
136
106
85
73
72
78
79
47
35
30
37
39
39
40
41
39
36
37
63
88
127
143
153
163
159
149
135
136
130
118
90
68
70
83
88
75
223
188
212
242
251
250
255
252
251
254
254
254
253
249
251
254
252
248
251
254
253
243
230
221
222
224
217
182
142
146
139
161
202
211
219
229
235
236
230
203
190
172
157
147
112
139
151
138
168
181
148
140
182
174
145
148
134
122
104
77
112
100
108
150
140
110
110
80
63
71
78
103
63
34
31
38
40
39
41
39
39
40
34
37
66
93
137
151
137
146
134
140
126
96
84
92
93
111
95
72
239
218
200
206
237
251
254
254
254
254
254
254
254
254
254
254
254
255
254
254
254
253
248
241
250
247
232
204
199
178
163
145
155
176
188
209
230
241
214
194
185
170
155
132
121
142
159
175
188
181
173
162
177
179
165
140
124
106
85
97
140
132
111
138
166
139
124
104
84
62
86
116
114
79
32
31
38
39
38
39
40
39
38
37
33
53
98
108
141
144
124
132
125
111
120
130
117
113
106
88
252
245
215
191
217
244
253
255
254
254
254
254
254
254
254
254
254
252
254
244
237
251
243
237
238
241
247
238
230
220
208
170
149
201
213
220
233
240
206
181
170
160
150
128
124
163
174
183
196
206
201
180
175
156
146
133
119
101
90
126
176
164
149
150
169
167
129
126
108
77
108
138
153
119
47
31
32
37
38
40
39
38
38
39
37
34
42
98
169
142
112
101
121
136
143
135
118
104
99
98
254
247
220
214
215
227
233
243
253
254
254
254
254
254
254
250
241
236
251
247
228
226
223
220
211
207
211
207
217
221
216
162
158
221
234
226
244
226
219
209
189
168
154
144
146
132
138
158
184
194
199
212
190
168
165
143
121
130
88
115
171
190
186
181
182
171
144
134
122
96
93
109
83
75
110
88
35
31
36
39
40
40
39
39
37
35
38
44
125
138
97
80
109
132
142
135
122
110
96
84
241
222
224
237
240
222
230
235
248
254
254
254
254
254
254
250
239
224
232
242
230
203
195
182
182
170
165
167
153
144
152
138
165
195
166
211
236
211
195
213
205
187
164
183
177
167
148
145
158
168
188
212
194
159
146
147
152
128
108
100
121
169
192
207
195
162
123
100
89
92
59
56
110
162
163
148
95
46
31
36
39
39
38
39
39
39
40
40
42
96
91
112
121
130
130
134
128
116
101
95
228
232
246
251
249
248
250
248
250
254
254
254
254
254
254
253
246
234
212
198
210
179
190
202
185
189
164
158
176
189
213
166
160
147
139
176
197
193
214
224
229
216
199
210
192
175
148
170
188
180
186
197
199
172
184
174
156
139
151
115
122
123
148
153
170
181
141
122
100
88
61
94
203
218
191
150
115
99
69
40
31
35
37
38
41
40
40
42
39
43
72
118
132
116
98
113
122
123
115
103
253
252
251
254
254
254
254
254
253
254
254
254
254
254
254
254
254
251
241
220
193
182
227
243
219
189
179
201
194
225
239
206
198
196
172
167
152
158
174
195
221
246
238
211
193
173
160
165
197
207
210
205
210
210
204
194
184
163
137
120
162
155
150
146
149
168
157
134
117
95
82
93
161
153
154
174
157
125
98
86
62
35
29
32
33
37
40
40
39
39
43
75
120
95
76
109
92
94
124
125
243
253
254
254
254
254
254
254
254
254
254
254
254
253
253
253
248
245
229
194
194
225
238
242
205
183
210
213
218
214
239
232
216
206
187
217
202
183
153
211
229
235
248
233
201
193
179
168
173
203
231
231
234
236
221
206
187
150
134
157
166
183
201
190
181
159
179
152
130
114
124
81
120
143
181
213
176
154
118
119
124
98
47
26
24
23
26
36
39
38
39
39
53
75
87
99
72
87
125
132
247
246
253
254
254
254
254
254
254
254
254
254
253
243
241
233
212
202
187
203
228
239
249
218
200
220
224
238
246
230
246
243
221
209
210
219
219
193
157
181
198
219
239
241
218
216
201
195
178
194
216
235
251
249
230
214
188
149
192
209
216
205
232
224
194
188
195
165
146
132
121
116
115
150
192
218
212
189
153
167
150
119
94
54
36
32
25
21
36
39
38
39
39
43
58
66
67
95
119
133
254
253
253
254
254
254
254
254
254
254
253
250
251
238
219
201
198
203
207
245
234
248
250
224
211
239
242
248
253
248
251
252
247
242
235
222
203
172
181
187
207
229
247
253
245
235
228
221
199
205
200
217
238
225
205
190
200
185
181
231
242
237
240
215
222
222
213
171
141
153
161
158
124
115
129
172
209
192
189
170
140
109
80
53
66
81
45
25
29
39
37
37
38
39
38
39
49
70
84
125
254
254
254
254
254
254
254
254
254
254
255
248
235
228
199
201
226
237
230
242
250
252
254
240
220
244
250
254
254
254
255
254
253
245
228
214
195
161
177
201
207
232
241
250
254
250
248
230
226
234
222
234
241
221
218
219
210
180
168
222
246
251
234
231
250
249
234
190
173
166
143
130
138
112
107
120
171
181
158
134
99
56
64
81
88
118
89
46
24
34
38
37
37
37
37
38
38
39
44
74
254
254
254
254
254
254
254
254
254
254
250
236
222
202
197
239
251
253
243
246
255
254
254
249
231
247
254
254
254
250
243
246
236
214
208
190
171
179
170
201
210
214
228
243
253
254
252
246
249
251
245
249
248
241
245
223
197
202
200
199
236
251
251
243
254
253
233
207
177
152
149
149
134
106
105
102
138
121
95
76
47
91
132
147
141
134
115
87
50
29
31
36
37
36
36
37
36
37
38
35
254
254
254
254
254
254
254
254
254
254
251
238
217
227
212
232
253
255
247
249
254
254
254
253
245
253
254
254
254
250
235
223
213
191
181
191
194
188
167
219
238
237
243
251
254
254
254
255
254
254
254
254
253
247
237
217
212
226
218
220
228
244
254
251
253
250
245
232
208
185
173
150
134
111
93
83
74
92
85
64
44
87
149
135
154
175
168
120
72
82
53
42
33
32
35
36
37
39
37
35
254
254
254
254
254
254
254
254
254
255
246
219
228
241
218
236
253
254
254
253
254
254
254
254
252
254
254
254
254
249
239
241
221
196
225
238
209
174
169
207
235
242
252
254
254
254
252
254
254
254
254
254
254
247
234
233
230
236
245
235
237
241
253
254
254
254
254
251
230
195
162
155
133
96
97
106
77
59
69
56
49
51
68
94
133
203
188
137
84
103
112
113
91
57
28
27
34
36
36
35
