P2
# CREATOR: GIMP PNM Filter Version 1.1
80 80
255
72
69
66
65
66
68
70
72
76
82
86
89
93
94
91
88
90
94
97
96
91
84
76
68
64
64
68
72
69
62
59
65
75
84
92
96
97
97
97
96
98
101
102
101
100
102
102
100
97
93
89
83
75
67
63
64
70
77
83
87
88
91
94
95
96
97
95
92
89
84
79
78
81
85
90
94
98
102
106
107
65
64
64
65
67
70
73
75
77
81
83
85
91
95
94
93
95
96
95
92
85
79
74
70
68
69
73
77
75
69
64
65
72
81
89
94
97
97
98
99
100
101
101
99
98
97
97
95
92
87
82
77
71
67
66
69
74
80
85
89
92
96
100
100
99
99
98
96
93
88
83
81
83
86
89
92
95
99
104
107
60
62
65
68
71
75
77
78
80
80
80
82
89
95
98
99
98
96
93
88
83
78
75
74
74
75
78
81
80
75
69
68
72
79
88
94
98
99
101
103
104
104
103
100
97
94
93
90
86
80
75
71
69
68
71
77
82
85
87
91
97
103
106
105
103
103
103
101
98
93
87
85
86
88
90
91
94
96
100
105
57
61
67
72
76
79
81
81
82
81
80
83
89
96
100
101
100
96
92
88
83
81
80
80
81
82
83
85
84
79
74
72
75
80
86
92
97
100
103
107
109
108
105
101
97
93
90
86
80
75
70
68
69
72
79
86
91
91
91
94
100
108
112
111
108
108
106
103
99
94
89
88
89
91
92
92
94
94
96
100
59
62
66
72
77
81
83
83
82
81
81
85
90
96
101
103
101
98
94
89
85
85
86
87
87
87
88
89
88
84
79
77
79
82
86
89
94
98
102
106
109
110
107
103
99
93
87
82
76
71
69
70
73
80
87
95
99
97
94
95
102
110
116
115
112
109
106
101
98
95
93
92
93
94
95
95
96
95
95
97
64
64
66
70
74
77
79
79
79
78
81
85
90
93
97
101
101
100
96
91
88
88
89
92
93
92
92
92
92
88
84
82
83
85
87
89
93
97
101
104
109
111
109
105
99
91
83
78
74
72
72
75
81
89
97
103
106
102
97
98
104
111
116
116
112
109
104
100
99
99
98
96
96
98
99
98
98
97
96
96
69
68
67
69
71
72
73
74
74
75
78
83
86
90
94
99
100
100
98
96
93
92
93
96
99
98
97
96
95
92
88
86
86
87
88
90
94
100
103
106
110
113
111
105
97
87
80
76
76
76
79
84
91
98
105
109
109
102
98
101
107
112
116
116
114
111
107
104
104
104
103
99
99
101
102
101
101
100
98
97
69
68
67
67
66
66
67
68
69
72
75
79
84
90
95
99
99
98
98
99
98
98
100
102
104
104
102
101
99
95
92
90
90
90
90
91
95
100
105
108
111
112
108
101
91
83
78
77
78
82
87
92
97
102
107
110
108
102
99
103
109
113
116
117
117
115
111
109
108
107
104
102
102
104
105
104
105
104
102
100
63
62
61
60
59
59
59
61
64
69
73
77
83
90
95
96
95
95
96
98
100
102
104
107
108
108
107
105
103
100
97
96
95
93
91
92
96
101
106
109
109
107
101
94
88
83
80
80
82
87
92
96
99
102
106
109
109
104
101
103
108
112
115
116
116
115
113
112
110
108
106
105
107
108
109
109
109
109
106
105
51
51
51
50
49
50
51
54
58
64
69
74
81
87
90
90
91
92
94
97
100
103
107
109
111
111
111
109
107
105
103
102
100
96
94
94
97
102
105
106
103
99
94
89
86
85
84
83
85
90
95
99
100
101
104
108
109
106
103
103
107
111
114
115
115
114
112
111
111
109
108
109
110
112
112
111
111
110
109
108
42
42
42
42
43
45
47
49
53
57
62
67
73
78
82
84
87
91
94
97
100
103
107
110
113
114
114
113
112
111
109
107
104
99
96
97
99
102
103
101
97
94
90
88
87
88
87
86
86
91
97
102
104
104
106
108
109
108
106
106
109
112
115
116
114
112
110
109
108
108
108
108
109
110
110
110
108
108
107
106
38
38
39
40
44
47
49
50
51
53
57
61
66
70
74
78
84
91
95
99
101
104
107
110
114
116
117
117
116
115
112
109
105
101
99
100
102
102
100
98
96
93
90
88
89
90
90
88
88
93
99
105
108
109
109
110
112
112
111
111
113
116
118
118
115
110
107
105
104
103
103
104
104
104
105
105
104
104
102
101
39
38
39
43
49
54
56
56
55
56
59
62
65
67
71
75
82
89
96
101
104
107
110
113
117
119
121
121
120
118
115
111
107
103
102
103
105
104
101
99
98
95
93
92
92
92
91
91
92
97
104
110
113
113
113
114
115
117
118
117
118
119
119
117
114
109
105
102
99
96
95
95
94
94
95
96
97
99
98
98
44
42
42
45
52
58
61
62
62
63
64
65
67
69
72
76
81
89
97
104
108
111
114
118
121
124
126
126
124
121
117
113
109
105
105
106
107
106
104
103
102
100
98
96
95
94
94
94
96
103
111
117
118
118
117
117
118
120
121
120
118
116
114
111
108
104
100
96
93
89
87
84
83
83
84
85
87
90
93
94
52
48
44
45
51
58
63
66
68
70
70
70
70
72
75
78
83
89
96
104
111
116
119
123
127
129
130
130
128
126
122
117
112
108
107
108
110
110
109
107
106
104
103
101
98
97
97
97
100
108
117
124
125
123
122
120
119
119
118
116
113
109
105
101
98
95
91
88
86
82
79
76
74
74
74
75
77
80
84
87
59
53
47
45
48
54
60
66
71
74
75
76
76
77
78
80
84
88
93
101
109
117
122
128
132
135
135
135
132
130
127
122
117
113
111
111
113
115
114
112
111
110
109
106
103
102
101
101
103
110
119
127
128
125
122
118
115
112
109
108
105
101
95
91
88
86
83
80
78
75
73
71
70
70
70
70
70
72
75
77
66
60
53
48
47
50
56
63
71
77
80
83
85
86
85
83
84
86
90
97
105
114
122
129
134
137
138
139
137
135
132
128
123
117
115
115
117
119
119
118
117
116
115
112
108
107
106
105
106
111
120
126
126
122
117
112
107
102
99
97
96
92
87
83
81
80
77
75
73
73
72
73
73
74
73
71
68
68
68
70
73
68
62
55
50
49
53
61
70
79
85
89
92
94
93
89
87
88
90
94
100
108
116
124
131
136
140
142
142
140
138
134
128
122
120
120
121
122
123
124
123
123
122
119
114
112
111
110
110
113
120
124
122
117
111
105
100
96
93
91
89
87
83
80
79
77
76
75
76
77
79
81
83
83
81
78
73
69
66
65
77
75
70
63
56
52
52
58
67
76
83
89
94
98
98
95
94
94
95
96
99
103
108
116
124
132
138
143
145
145
143
140
135
130
126
125
124
124
126
129
130
130
128
125
120
117
116
115
114
117
122
123
119
115
109
102
98
95
94
92
89
86
82
80
80
81
81
82
84
87
90
92
93
93
90
86
81
75
70
66
79
79
76
69
61
55
53
56
62
70
78
85
92
98
100
100
99
100
101
102
102
104
107
112
119
126
134
140
146
149
148
146
142
137
133
130
129
128
130
133
136
136
134
129
125
122
120
119
120
121
121
119
115
112
107
102
99
99
97
95
91
87
83
83
87
91
91
91
94
98
100
101
101
99
97
93
88
82
74
67
77
78
78
73
65
58
53
53
58
65
72
80
88
95
100
103
104
105
106
108
109
110
111
114
118
124
130
137
144
151
154
152
148
142
138
136
134
133
134
138
142
142
139
134
130
127
125
125
125
123
120
115
111
107
104
102
102
103
102
98
93
87
85
87
94
100
100
99
103
108
110
109
106
103
100
95
90
83
74
67
78
79
78
74
68
62
57
54
55
61
67
75
83
91
99
105
108
110
111
114
116
118
120
121
123
126
131
137
144
153
159
160
156
150
145
143
142
140
140
143
147
148
145
140
136
134
132
131
130
127
121
118
114
110
107
105
106
107
104
98
93
89
88
92
100
107
107
106
109
114
116
114
109
104
100
94
87
79
71
64
82
82
81
78
73
69
63
59
58
60
64
69
77
86
95
103
108
113
118
121
124
126
126
127
129
133
136
141
147
155
163
167
166
160
154
151
149
148
148
150
154
154
151
146
143
141
139
138
137
132
129
127
122
117
113
111
109
107
102
97
93
90
90
94
103
111
114
113
115
117
116
113
108
102
96
89
81
74
68
64
86
87
87
84
80
77
72
67
63
61
62
67
73
81
89
97
104
112
120
126
130
132
132
133
136
139
143
147
152
159
166
173
174
169
163
159
157
155
156
158
162
162
157
152
149
148
147
146
143
140
138
136
130
123
117
112
108
104
100
97
94
93
94
98
107
114
117
116
115
114
110
106
101
95
89
82
75
69
66
64
89
90
90
89
88
86
82
77
71
67
64
66
70
76
84
92
100
108
116
122
129
134
137
139
142
146
150
154
159
166
173
180
182
179
174
171
167
164
164
167
171
169
163
159
156
155
154
153
149
146
143
139
132
124
117
111
106
103
101
98
96
96
98
103
110
114
113
111
108
105
100
95
91
86
81
75
71
67
66
67
90
91
91
91
92
92
90
86
81
75
71
70
71
75
81
89
96
102
108
116
125
133
139
143
147
151
156
162
168
176
185
192
194
192
189
184
179
175
175
178
179
175
170
166
163
161
160
158
153
148
143
137
130
124
118
112
107
104
102
100
99
99
102
107
109
108
106
102
98
95
91
87
84
80
76
72
70
70
71
72
87
88
88
89
92
94
94
92
89
85
81
78
77
78
81
86
92
98
104
113
123
132
140
145
150
156
162
168
175
185
197
205
209
208
204
199
193
190
191
191
188
182
178
174
169
167
165
161
156
149
142
136
130
124
119
115
110
106
104
103
102
102
104
106
104
101
97
94
91
88
85
83
81
79
75
73
73
75
78
80
83
84
84
87
90
93
97
99
98
96
92
89
86
86
86
88
92
98
106
115
124
132
140
146
152
158
166
173
182
194
207
217
224
224
221
216
210
208
208
206
198
191
186
181
176
173
169
163
157
150
144
138
133
128
124
120
115
111
109
106
104
104
105
104
100
97
95
92
90
88
86
83
80
78
77
77
79
82
86
88
79
80
81
84
87
90
95
100
104
104
101
99
98
96
93
93
96
101
109
117
124
132
140
148
155
162
170
180
191
202
214
225
232
236
236
233
228
226
225
219
209
202
196
190
185
180
173
166
159
153
148
142
137
133
130
126
122
118
115
111
108
106
106
104
101
99
97
95
94
94
92
88
84
82
82
84
87
89
93
94
74
75
77
80
83
86
90
97
103
107
107
106
107
106
103
102
103
106
112
118
124
131
139
148
156
164
174
186
197
207
216
224
231
238
243
243
241
240
237
229
220
213
206
199
193
185
176
168
162
157
152
147
142
139
135
133
130
127
122
117
112
111
111
110
107
104
102
100
100
101
101
98
93
91
94
96
97
98
98
97
69
70
73
77
81
84
88
94
100
105
107
108
109
111
111
111
111
113
117
122
127
131
138
146
155
164
175
186
196
204
210
216
222
231
240
245
246
246
243
237
230
223
216
208
199
190
180
172
166
161
156
151
147
143
140
139
138
136
131
125
119
118
118
117
115
112
108
105
104
105
107
106
102
101
104
106
105
104
101
98
63
65
68
74
80
85
89
94
98
101
102
104
105
108
110
114
118
122
124
127
131
135
139
145
152
162
172
181
189
196
203
208
214
223
233
241
246
248
247
244
239
232
223
214
205
194
184
176
170
165
159
154
151
149
147
146
145
142
139
135
130
128
127
126
123
118
114
110
108
109
111
110
107
108
111
112
111
108
104
101
57
59
63
70
78
84
87
90
92
93
94
96
98
100
104
110
118
124
127
129
133
137
141
145
151
159
168
175
182
190
198
204
210
219
230
240
247
251
252
250
246
238
229
219
209
198
188
180
174
168
163
160
159
158
156
153
150
147
145
142
140
138
136
133
128
122
116
113
112
113
112
110
110
112
116
118
115
112
110
110
52
55
59
65
71
76
78
80
82
83
84
87
91
95
101
107
115
122
125
128
132
138
144
147
151
158
166
173
180
188
195
201
207
216
228
239
248
253
254
253
248
241
232
222
212
201
192
184
178
173
169
168
169
169
165
160
155
152
150
149
146
143
140
136
131
125
120
117
115
113
111
109
108
111
116
119
118
116
115
116
49
51
54
58
61
64
66
68
70
73
75
78
84
94
102
107
113
119
123
127
133
139
145
148
152
157
164
171
178
185
191
197
205
216
228
240
248
253
253
251
246
238
230
221
212
202
193
186
180
176
174
175
176
175
169
163
158
155
154
153
151
146
141
137
132
127
123
119
115
111
108
106
104
105
110
114
115
115
115
116
47
48
50
51
53
55
57
59
62
65
68
72
81
93
104
110
114
118
122
127
135
141
145
148
152
156
162
168
174
181
188
196
204
214
227
238
245
248
248
245
239
232
224
217
209
201
193
187
181
175
172
171
172
170
167
162
157
155
155
154
151
145
139
133
128
125
122
117
113
108
104
101
99
99
101
103
105
108
110
112
52
51
51
53
54
56
59
61
63
65
69
74
83
96
107
114
118
121
123
129
136
141
146
149
151
155
160
165
171
178
187
195
203
212
223
233
239
240
238
235
230
222
215
210
204
196
190
185
179
173
167
164
162
162
161
158
154
152
152
151
148
142
135
128
123
120
117
114
109
105
100
96
94
93
93
93
95
100
104
106
61
60
60
61
63
66
69
71
72
73
75
80
88
100
110
118
122
125
127
130
134
139
143
146
148
152
157
162
168
176
185
191
197
205
215
224
227
228
227
225
220
212
205
201
197
191
186
182
177
171
164
158
155
154
154
154
151
149
147
146
144
139
132
125
118
114
112
109
106
101
96
91
89
88
86
85
86
92
96
100
67
68
69
71
73
76
80
83
83
83
84
87
93
102
112
119
124
125
126
127
129
133
137
141
144
148
153
158
165
172
178
183
189
197
206
211
213
214
214
213
209
202
195
191
189
186
181
176
172
167
161
156
151
148
147
148
148
146
143
141
141
138
132
124
116
111
107
105
102
98
94
90
87
84
81
78
77
81
86
91
68
69
72
76
79
83
87
90
90
91
92
94
99
106
113
118
120
120
121
121
123
127
131
136
140
145
150
155
161
167
171
176
183
189
195
198
199
200
200
199
196
191
185
182
181
179
176
172
167
162
157
152
147
142
138
140
142
141
137
136
137
137
133
126
119
112
107
103
100
98
94
90
86
81
77
73
71
73
77
82
66
67
69
74
79
83
87
89
91
94
97
100
104
109
112
114
114
113
113
115
118
122
126
131
136
142
146
151
157
162
166
171
176
180
183
185
186
188
189
186
183
179
176
173
172
172
172
168
163
157
152
146
141
134
129
130
134
134
130
130
132
134
132
128
122
116
109
103
98
95
93
91
87
82
78
73
69
67
69
72
67
67
67
71
75
79
83
85
89
94
100
103
106
108
108
107
105
105
107
110
113
118
123
128
134
139
144
148
153
158
162
165
167
169
171
174
176
178
179
175
171
168
165
164
164
165
166
165
160
153
146
139
134
127
120
120
124
125
123
124
127
129
128
126
124
120
113
105
98
92
89
88
86
83
79
74
69
65
64
64
70
69
69
70
73
77
80
83
88
94
100
102
101
100
100
98
97
100
102
106
110
116
121
127
133
136
140
144
148
153
155
156
157
158
160
164
167
169
169
166
162
158
155
153
154
157
160
160
156
149
140
133
126
119
114
112
114
115
115
117
121
123
124
123
122
120
114
107
99
92
87
86
84
82
80
76
70
66
62
60
73
72
72
73
76
79
82
85
89
93
96
96
93
91
91
91
93
96
98
101
106
114
120
126
130
133
136
140
144
146
146
147
148
149
152
156
159
160
160
157
154
150
146
144
145
149
153
154
151
146
139
131
124
117
110
107
107
107
108
111
115
118
119
119
118
115
112
108
102
95
90
88
86
85
84
81
77
73
69
64
76
76
76
78
81
83
85
86
88
88
87
86
83
84
86
89
91
93
94
97
102
110
117
121
124
128
132
135
138
138
138
139
140
141
144
148
150
150
149
148
146
142
138
135
135
139
145
147
146
143
138
131
125
117
110
105
103
102
103
106
109
111
113
114
113
111
109
107
104
99
95
93
92
91
89
87
84
81
77
71
79
80
81
82
83
83
82
82
81
79
77
76
78
81
85
88
89
89
91
96
102
108
113
115
118
122
126
129
131
131
132
132
132
133
136
139
140
140
140
140
139
135
130
127
126
130
136
140
140
139
135
129
124
118
113
106
101
99
98
100
101
103
104
106
107
106
105
105
104
102
100
98
95
94
92
90
89
87
83
78
79
81
82
81
79
76
73
72
72
72
72
74
77
81
85
88
87
85
88
93
101
106
108
109
111
115
119
122
124
125
126
125
124
126
128
129
131
132
132
134
134
129
124
120
119
123
128
133
135
134
130
124
121
119
115
108
100
96
94
93
93
94
94
95
95
97
99
101
101
101
100
99
96
92
90
90
91
89
85
80
73
75
76
73
69
67
66
66
68
70
73
76
79
83
87
88
85
83
84
88
94
100
104
106
108
111
114
116
117
119
120
118
116
118
120
122
124
125
126
129
129
124
118
114
113
116
121
126
129
128
124
119
118
118
117
111
103
96
92
90
88
87
85
84
84
86
90
94
96
96
97
97
94
90
87
86
88
88
84
80
64
65
64
63
62
63
65
67
70
74
76
79
81
83
85
84
81
79
81
85
90
95
100
105
108
109
110
111
112
113
113
110
107
109
112
114
116
119
121
124
124
120
114
110
108
110
116
122
125
123
118
115
115
116
115
112
106
99
93
89
87
85
83
81
78
77
80
84
87
90
93
94
92
89
84
81
83
85
84
81
56
57
58
59
61
64
67
70
73
75
76
77
78
78
77
76
75
76
80
84
89
94
100
106
108
106
105
106
106
106
104
101
99
101
104
107
110
113
116
117
117
114
109
105
104
107
113
119
121
119
114
111
112
112
112
111
107
101
96
91
89
87
85
81
77
74
73
74
77
83
88
90
91
88
83
79
79
83
85
83
55
57
60
62
64
66
66
68
70
71
70
70
70
70
71
73
75
78
82
85
89
94
99
102
104
102
101
101
101
99
95
92
93
96
99
102
105
108
111
111
110
107
103
101
102
105
111
115
117
115
111
109
109
109
109
107
104
100
95
92
91
90
87
83
78
72
68
67
70
76
82
86
87
87
84
78
76
80
83
83
58
61
64
65
66
64
61
61
62
63
64
65
67
69
73
76
79
83
86
89
92
93
94
96
98
97
96
95
93
91
88
88
90
94
97
99
101
103
105
105
103
99
96
96
99
104
108
110
111
110
108
106
104
105
106
105
102
98
94
91
91
91
89
85
80
73
67
64
67
72
76
80
82
83
82
78
75
76
80
83
60
62
63
63
62
59
56
55
57
60
63
67
70
73
77
81
84
87
91
94
94
92
90
90
91
90
89
87
84
83
84
87
90
92
93
94
97
98
99
99
97
93
89
91
96
101
103
104
105
105
104
103
102
101
101
101
100
97
92
88
89
91
91
88
84
77
69
63
64
68
72
75
76
77
78
76
73
73
77
82
60
59
59
57
56
53
53
55
60
64
68
73
77
81
84
85
86
89
93
97
95
91
86
85
86
84
81
79
77
79
82
86
88
88
89
91
93
94
94
93
90
86
84
88
94
98
99
99
99
100
101
101
99
96
95
96
98
97
92
86
85
88
89
88
86
81
73
65
62
65
69
71
71
73
74
74
72
71
75
80
60
57
54
51
50
50
52
57
64
68
72
77
83
87
89
88
88
89
92
95
94
88
83
80
81
79
75
73
73
75
80
83
83
82
84
87
90
90
89
87
83
80
81
87
93
96
95
94
94
96
98
98
95
92
89
90
94
96
92
85
82
84
86
86
85
81
74
65
61
62
66
67
67
69
72
73
71
70
72
77
64
58
51
48
47
49
52
59
66
70
74
80
88
92
92
90
88
88
90
92
91
86
80
77
77
75
71
69
70
73
76
78
77
79
82
84
86
85
83
80
77
77
80
87
92
94
92
90
91
94
96
95
92
88
84
85
91
94
92
86
82
81
82
82
82
79
73
65
60
60
62
63
63
65
69
70
69
68
70
75
68
61
51
46
45
48
52
57
63
67
73
80
88
92
92
88
86
85
86
86
86
83
78
74
73
71
68
66
68
71
75
75
74
75
79
81
81
80
77
74
74
77
82
87
91
90
88
86
89
93
95
93
90
86
82
83
89
93
93
88
83
79
77
77
78
76
71
64
58
57
60
61
61
62
65
67
66
66
69
74
74
66
55
46
44
46
50
54
57
62
69
78
86
89
88
85
85
84
83
82
81
79
75
71
69
67
65
65
67
71
74
73
69
69
73
76
75
72
70
70
73
78
83
87
88
87
85
85
88
91
91
89
87
84
80
81
87
91
91
88
83
77
73
71
71
70
67
61
56
55
57
59
60
60
61
62
63
65
69
74
81
73
60
48
43
44
48
51
53
58
65
75
82
85
83
81
83
84
82
80
77
74
70
66
64
62
62
63
66
71
72
69
65
64
66
68
67
65
66
69
75
80
83
85
85
85
84
85
88
89
87
83
81
79
77
79
84
89
89
87
83
77
71
67
65
64
62
58
53
52
54
57
59
59
59
59
60
63
69
74
86
78
65
52
45
43
44
47
51
56
65
74
81
83
80
79
83
85
82
78
73
69
64
61
60
59
60
63
67
69
68
65
61
59
60
61
62
63
66
71
75
78
80
81
82
83
84
86
89
89
86
81
77
74
72
74
79
84
87
86
83
78
73
69
65
63
61
58
53
50
51
54
57
59
58
57
58
62
67
71
89
81
69
56
47
42
41
43
48
56
66
75
81
81
77
76
81
83
79
74
67
62
59
57
57
59
61
64
67
66
62
58
56
56
57
59
63
65
68
71
74
76
77
79
81
83
85
86
87
87
84
78
73
70
68
68
72
78
83
85
83
81
78
76
72
69
67
62
55
50
49
51
54
57
58
56
57
60
65
69
91
84
73
61
50
43
40
41
47
56
67
75
79
79
75
73
75
76
72
66
60
57
55
55
57
59
63
65
65
60
56
53
54
56
59
63
66
68
68
69
71
73
75
78
82
83
83
83
83
82
80
76
71
67
64
63
64
69
74
77
78
79
80
79
77
76
73
68
61
53
48
48
50
54
56
55
55
58
63
67
91
84
76
66
55
45
39
40
47
56
65
72
75
75
72
68
66
66
62
57
54
53
53
55
57
60
63
63
60
55
52
52
55
59
63
66
68
67
66
66
68
71
74
78
81
81
81
81
80
79
77
74
70
67
65
62
60
61
63
65
66
69
73
75
76
77
76
73
66
57
51
47
47
50
54
54
54
57
62
66
87
82
76
68
57
45
39
40
45
54
62
67
71
72
68
63
59
56
54
51
51
52
54
56
59
60
61
59
55
51
49
51
54
59
62
65
65
64
64
65
67
70
74
77
78
79
80
81
80
78
76
75
73
70
68
64
60
58
57
56
56
58
61
65
69
72
73
72
68
62
55
49
46
47
50
51
53
57
62
67
84
79
74
67
56
45
38
39
44
51
59
65
67
67
64
59
53
51
49
49
50
52
55
58
58
58
57
55
50
48
50
54
57
58
59
61
62
62
64
66
69
71
74
75
77
80
82
84
83
81
79
80
78
75
72
68
64
62
59
56
53
52
52
54
58
62
65
66
66
63
58
52
47
46
47
49
52
57
62
66
81
76
69
62
52
43
37
38
43
50
58
64
65
63
58
53
49
47
47
49
51
54
57
57
55
53
51
49
48
50
57
64
67
66
64
63
64
66
69
72
74
76
77
78
80
84
88
90
88
86
85
86
84
80
76
72
70
68
66
61
56
52
49
48
49
51
53
56
58
59
57
52
47
44
45
47
51
55
60
64
74
70
63
55
47
39
36
38
43
49
56
61
61
57
52
47
45
45
47
49
53
57
57
54
50
48
46
46
49
56
66
75
80
78
73
70
70
72
75
79
82
83
85
86
87
90
95
96
94
91
91
93
91
86
80
76
75
75
71
65
59
56
52
48
46
45
45
46
49
51
51
48
44
42
42
45
48
52
57
60
65
62
56
48
41
36
36
39
44
50
55
57
55
51
47
44
43
44
47
51
56
58
56
51
46
44
44
46
51
60
71
80
85
85
81
77
76
78
81
84
86
88
90
93
94
96
98
99
97
96
97
99
96
90
83
80
80
80
76
68
63
62
60
55
51
47
44
44
44
44
44
42
41
39
39
42
45
49
52
55
55
53
48
42
37
36
39
43
49
53
55
54
51
47
45
43
42
44
48
53
57
57
52
46
43
42
43
46
52
61
71
78
84
87
86
83
83
84
86
86
86
87
90
93
95
95
94
94
93
94
96
99
98
91
85
83
84
84
79
72
69
71
71
65
59
53
50
48
46
44
41
39
38
37
37
39
42
45
49
53
46
44
40
37
36
38
44
50
56
59
58
54
49
45
43
42
42
45
49
53
55
53
48
43
41
41
43
46
52
62
71
78
83
86
88
88
89
90
89
85
82
81
83
87
90
90
87
85
84
86
91
96
97
93
89
89
91
89
83
78
78
82
82
76
69
62
57
55
52
48
43
39
36
35
35
37
40
43
47
51
39
37
35
34
36
42
49
56
61
62
58
52
46
42
40
40
43
47
50
52
52
49
44
42
41
41
43
47
53
62
71
76
80
84
88
91
93
93
91
84
77
74
74
77
80
80
78
76
76
80
87
93
97
96
96
98
98
93
86
83
87
92
91
85
78
70
64
60
56
52
46
40
36
34
34
35
37
41
45
49
34
33
32
33
37
45
53
57
59
58
53
48
42
39
38
40
44
48
51
51
49
44
41
40
40
42
45
49
55
63
71
75
78
82
87
90
93
92
89
83
76
70
68
68
68
69
69
68
70
76
84
91
97
101
104
105
102
95
89
88
93
97
95
89
83
76
70
63
59
54
49
42
37
34
33
34
36
40
44
48
31
30
29
31
36
44
50
52
51
48
45
41
38
37
38
41
45
48
49
48
45
41
39
39
41
43
46
51
56
63
69
73
76
80
83
86
88
89
88
84
79
74
68
64
61
60
60
61
66
73
81
89
96
102
106
107
104
96
91
90
92
94
92
87
82
77
70
62
57
54
51
46
40
36
33
34
36
39
42
44
29
28
28
29
33
38
41
42
42
40
39
37
36
36
38
41
44
46
46
44
41
39
38
39
41
45
49
53
57
61
67
71
73
76
78
80
82
84
85
85
83
80
74
67
61
57
55
56
61
69
77
86
94
98
101
103
102
96
90
86
84
83
83
80
76
72
65
57
52
50
49
47
43
38
34
33
35
37
39
41
27
27
27
28
29
31
33
34
35
35
34
33
33
34
36
38
40
42
42
40
38
37
37
39
42
47
52
57
60
62
67
71
72
73
74
75
77
78
79
80
82
83
80
75
68
61
54
53
57
65
75
84
90
91
92
96
98
95
88
81
78
77
75
73
68
62
55
49
46
45
46
45
42
37
33
33
35
37
39
41
27
27
27
28
28
29
30
31
32
32
32
31
31
32
34
35
37
38
38
37
36
36
37
40
43
49
56
61
63
65
68
71
73
73
73
73
74
74
74
75
79
82
84
82
76
66
56
51
52
60
70
78
82
82
84
89
94
95
89
83
79
77
74
69
64
57
52
49
48
46
45
43
40
36
33
32
34
37
39
42
29
28
27
27
28
28
29
29
30
30
30
30
30
31
32
33
34
35
35
35
35
36
38
42
46
52
58
62
64
66
69
72
74
75
74
72
71
72
71
71
75
79
83
84
80
70
59
51
50
54
61
68
71
74
78
85
92
95
92
86
81
76
71
66
61
57
56
58
58
54
48
44
41
37
34
32
33
35
38
42
30
29
28
28
28
28
28
29
30
30
30
31
30
30
31
32
33
33
34
34
35
37
40
44
49
53
57
60
62
65
68
71
74
76
75
71
69
68
67
67
71
75
78
80
78
72
63
55
50
49
53
59
65
72
79
86
92
95
93
86
78
70
65
62
60
60
63
67
66
62
55
49
46
42
37
33
31
32
36
40
33
32
31
30
29
29
29
30
31
31
32
32
31
31
31
32
33
33
34
34
36
38
41
46
50
53
55
57
59
62
65
69
73
76
76
73
68
65
63
63
66
69
72
74
75
73
68
61
53
49
49
55
64
73
81
87
90
92
91
85
76
68
64
63
64
67
71
74
72
66
59
54
50
45
38
32
29
29
33
38
33
34
34
33
31
30
29
30
31
32
32
32
32
33
33
33
34
34
35
35
36
39
42
47
50
53
55
57
58
60
64
67
71
75
76
73
68
63
60
59
61
64
68
70
71
73
71
65
56
49
48
53
63
74
82
85
85
86
87
84
75
69
66
67
70
75
79
79
75
67
60
56
52
47
39
32
27
28
32
37
