P2
# CREATOR: GIMP PNM Filter Version 1.1
80 80
255
77
72
67
63
64
66
68
72
70
84
89
88
95
97
88
81
87
92
96
104
93
88
76
66
59
60
66
72
69
57
51
64
77
88
95
100
98
97
97
95
97
102
105
102
101
105
106
104
99
95
93
88
77
65
58
61
68
76
86
87
85
87
93
92
93
97
95
89
87
81
74
75
80
85
90
97
97
102
107
105
63
61
59
61
66
71
73
74
76
82
82
80
92
99
93
89
94
102
97
92
82
77
71
67
63
65
73
80
79
70
58
63
71
77
85
92
93
95
94
95
97
99
100
94
93
94
97
95
92
87
82
77
71
65
62
66
73
77
82
89
91
95
102
101
98
99
98
95
95
90
80
78
80
84
85
90
96
101
107
110
57
62
68
68
68
72
78
74
81
80
78
74
89
101
101
101
105
96
88
87
78
73
72
74
77
74
77
84
85
75
66
66
65
79
90
101
104
100
99
103
105
104
102
101
97
92
90
90
86
81
73
69
66
64
67
76
83
83
86
92
97
104
109
104
100
102
104
101
101
97
86
82
86
90
89
91
92
92
97
109
55
59
68
74
80
82
82
80
85
78
79
82
87
92
97
103
98
91
94
91
82
80
79
80
80
81
84
85
85
79
70
69
74
78
84
90
98
103
107
111
112
110
104
101
97
89
91
88
80
71
67
67
65
70
78
87
96
93
90
91
101
111
115
110
104
109
111
104
103
94
85
89
89
91
90
91
94
94
93
100
56
60
65
74
81
85
85
87
87
79
82
82
91
101
105
108
103
97
94
83
83
86
88
87
87
87
86
89
90
85
77
75
79
83
86
87
92
97
100
105
112
114
108
102
99
95
89
81
74
71
65
68
70
78
86
94
103
96
89
91
101
112
121
121
114
113
109
100
95
91
90
89
92
95
93
94
95
95
92
97
63
62
63
68
74
78
80
81
78
75
80
88
93
95
98
101
103
102
98
87
85
86
89
92
95
92
90
92
95
89
82
81
83
85
87
87
90
96
96
100
108
112
106
106
102
93
80
76
71
69
65
71
78
88
97
105
112
105
96
93
102
109
120
114
110
106
100
94
94
99
102
92
96
100
99
98
98
97
93
94
72
68
66
68
70
72
74
72
72
73
79
85
85
83
87
95
101
102
101
97
91
88
89
96
100
98
95
96
97
92
86
84
86
85
88
88
93
106
105
106
112
117
115
111
99
83
75
76
76
74
78
85
92
101
109
115
114
102
90
102
110
111
119
115
113
110
105
101
103
110
108
97
97
103
102
101
100
101
97
95
73
70
70
71
69
67
67
69
68
72
74
75
81
89
99
107
98
96
97
102
97
98
100
103
104
104
102
100
99
96
91
88
89
88
90
89
93
103
105
107
112
116
113
102
90
78
75
74
76
82
88
95
99
105
110
112
108
97
91
103
115
114
119
120
121
116
111
109
111
108
102
102
98
105
104
101
104
105
101
99
65
64
64
62
59
58
59
60
63
69
72
74
84
95
97
97
97
94
95
100
100
103
106
108
109
109
108
106
103
97
95
95
94
93
91
90
94
98
106
113
113
110
100
90
85
82
80
77
81
91
93
96
96
99
105
110
112
106
99
99
108
111
114
115
117
117
114
112
111
103
100
104
105
108
108
106
111
111
105
103
50
50
50
49
47
47
50
53
60
67
73
76
85
94
93
90
89
91
93
95
101
103
107
110
112
112
112
109
107
104
102
103
100
95
92
91
96
102
108
110
102
96
94
87
84
85
83
81
83
90
97
99
98
99
102
107
111
106
98
101
106
110
112
114
114
114
112
113
115
113
111
111
115
116
116
114
114
114
110
111
38
38
38
38
39
41
43
45
49
56
62
67
72
78
82
82
85
90
94
95
100
103
107
110
113
114
114
113
112
112
110
110
107
96
95
95
99
104
103
100
94
90
89
84
85
89
89
84
84
89
97
104
105
102
103
107
110
107
102
102
106
111
113
117
114
109
108
107
106
109
109
106
109
110
111
110
106
108
107
108
36
36
37
37
42
46
48
45
46
47
51
57
60
65
71
75
86
93
97
98
99
102
106
109
113
116
116
116
115
115
112
110
106
99
98
99
103
100
96
96
95
92
88
85
87
92
91
86
85
90
96
105
110
108
108
109
111
111
110
107
111
116
121
120
116
109
106
105
104
102
104
107
105
106
107
108
102
104
100
97
38
37
36
42
51
56
57
57
55
54
56
64
65
66
68
71
82
88
96
101
102
105
109
112
116
119
121
121
120
117
113
111
106
100
102
103
106
106
98
98
99
93
92
91
92
93
92
88
90
96
102
110
114
113
113
113
115
117
119
119
119
121
125
118
115
109
104
102
99
94
94
97
94
94
95
98
100
103
100
97
43
40
39
44
56
62
61
64
61
61
65
65
66
69
72
73
77
86
100
111
107
109
113
117
121
123
126
127
127
121
116
113
108
101
103
106
108
106
99
103
106
98
96
97
95
91
93
92
95
103
114
118
118
115
116
117
117
121
126
123
119
115
115
114
114
109
102
97
94
91
86
82
81
80
82
86
82
90
94
96
55
48
42
41
50
61
68
70
71
71
72
67
65
70
76
77
84
90
93
108
113
119
119
120
127
130
131
129
127
125
122
115
111
106
106
108
111
112
109
106
104
104
103
100
95
97
96
96
97
108
117
130
125
125
123
120
121
123
123
117
116
111
104
101
97
92
89
88
86
82
78
75
72
71
72
73
77
80
84
90
61
51
43
41
46
54
62
67
72
77
77
75
73
75
77
77
87
89
90
100
111
119
124
129
134
136
137
135
132
130
126
121
117
109
108
108
110
116
115
111
109
108
109
105
100
102
101
100
100
108
120
134
131
129
126
121
115
113
107
110
107
101
94
85
87
87
81
77
76
73
69
67
65
66
66
65
65
70
75
77
69
58
50
45
42
47
55
62
70
76
75
85
86
87
84
79
80
85
88
95
105
115
125
135
136
138
139
138
136
135
132
128
124
115
115
115
117
120
120
118
115
114
116
112
106
107
106
105
103
108
119
131
126
122
117
114
105
99
93
95
95
90
85
78
80
79
75
71
70
70
69
69
70
73
72
68
64
64
66
68
77
68
61
53
45
45
49
62
73
85
90
93
95
98
95
87
82
84
86
88
98
107
115
126
134
137
142
143
142
140
138
133
130
117
118
119
121
121
123
123
122
121
124
118
111
111
110
109
106
109
122
128
120
114
106
104
96
92
89
86
87
86
82
80
77
73
72
71
70
74
78
79
84
85
83
78
71
65
60
62
79
78
74
64
54
49
49
55
64
78
87
90
95
103
102
94
95
94
94
91
96
101
105
113
125
131
141
147
148
145
144
140
137
126
125
123
123
123
126
130
130
130
131
126
118
117
115
115
112
116
126
126
119
117
108
101
94
94
94
89
88
85
81
77
78
79
79
80
83
86
89
91
96
94
91
88
80
76
69
63
79
82
81
71
61
54
49
58
62
70
77
83
91
102
103
98
100
102
104
104
98
100
100
106
116
124
134
142
147
150
148
145
143
139
135
130
126
125
128
134
138
135
136
129
123
121
118
119
118
120
125
121
114
116
109
102
97
97
96
96
93
86
80
77
85
93
91
91
97
99
101
101
104
100
97
96
88
87
79
66
74
78
80
75
64
57
50
49
55
64
72
81
90
96
99
103
103
102
104
108
108
109
108
113
114
120
126
133
142
153
155
150
148
138
135
136
133
131
130
134
146
141
139
132
129
126
123
123
125
124
119
110
106
104
99
96
100
105
104
100
94
86
81
85
97
107
101
95
102
110
113
112
104
102
102
97
93
86
73
63
75
78
78
75
67
61
55
48
52
59
65
77
84
91
102
111
109
108
109
110
115
121
122
122
119
124
128
133
141
153
164
160
154
144
140
141
143
139
140
139
148
150
145
139
136
133
130
129
133
126
113
115
110
105
103
101
107
112
111
96
92
87
84
91
103
112
107
102
108
118
120
119
109
105
101
94
88
80
69
62
80
82
82
76
71
67
62
55
55
58
63
65
75
87
98
108
113
117
120
123
125
127
124
125
129
133
135
140
145
155
166
169
172
162
153
149
148
146
149
145
154
157
150
144
142
140
138
137
139
130
123
129
124
115
115
113
111
108
100
94
92
89
88
88
101
115
117
113
115
121
120
115
112
105
99
90
81
74
65
61
86
88
89
82
79
78
72
65
60
58
59
64
73
81
86
92
100
112
125
131
135
133
131
133
136
139
141
145
150
155
164
172
181
167
160
158
155
154
156
154
165
164
155
150
149
147
145
147
143
137
140
141
135
125
120
113
107
103
98
95
94
92
92
94
105
120
123
120
119
118
112
107
103
97
91
82
73
68
63
64
89
93
95
90
89
90
84
79
70
62
61
63
68
73
83
93
99
110
118
123
131
138
138
138
143
146
149
153
159
164
171
176
183
175
171
169
165
162
161
165
177
170
162
156
156
154
153
157
146
146
150
143
134
124
114
109
102
102
102
98
96
94
94
104
113
119
114
110
109
104
98
94
89
84
80
73
68
63
61
67
89
92
93
89
96
93
92
84
83
77
67
65
70
71
78
92
100
102
105
113
122
134
141
143
146
152
157
161
167
175
187
191
195
191
188
186
175
170
166
178
183
171
167
167
161
162
163
160
156
149
142
134
127
122
116
111
107
103
102
99
99
96
101
112
110
110
107
101
98
93
90
85
80
76
74
67
67
69
69
73
88
88
87
87
93
95
97
91
89
83
79
77
72
73
79
81
88
93
98
108
119
132
141
145
150
156
163
168
173
184
199
207
213
206
203
200
191
188
189
193
187
177
177
173
165
165
166
161
156
148
140
133
128
123
118
113
107
104
101
102
102
99
104
111
104
98
93
90
89
83
82
80
82
80
76
72
70
74
79
78
84
83
82
86
90
94
101
102
99
96
93
90
83
84
87
84
88
95
104
117
125
134
139
144
150
157
164
172
180
190
207
219
229
224
220
215
206
203
211
210
195
187
189
181
173
173
170
162
157
148
143
136
131
126
123
121
113
108
108
106
104
102
106
103
95
92
92
90
87
84
84
81
77
78
73
73
77
80
91
88
78
80
80
85
87
88
95
104
109
109
101
98
100
96
90
91
95
101
110
122
124
133
141
149
153
160
168
179
190
202
217
229
239
242
242
234
227
222
230
222
204
199
197
188
183
182
173
165
158
151
147
141
136
133
129
127
120
116
115
110
105
104
106
101
96
96
99
96
91
96
94
86
78
78
77
79
88
85
96
97
72
75
76
81
82
83
88
96
105
111
107
106
111
107
98
97
100
103
108
118
120
129
139
152
158
165
174
188
200
212
221
229
236
245
253
250
244
246
244
231
217
213
207
199
194
187
175
167
162
156
152
146
142
139
134
131
130
125
122
116
109
109
110
111
106
103
101
97
97
102
104
96
93
88
96
98
98
97
99
98
68
70
71
75
79
80
85
88
97
108
114
112
111
120
122
114
111
111
113
120
125
128
134
144
156
163
174
189
201
205
210
212
217
226
243
247
244
251
243
232
228
225
216
207
200
188
177
169
164
161
155
150
145
143
138
139
142
138
132
122
113
115
114
118
114
113
109
106
106
106
110
111
104
95
110
111
105
108
102
93
63
66
67
75
82
86
90
98
101
104
102
101
106
107
110
117
120
127
126
127
135
134
136
143
150
162
174
182
187
195
201
206
211
216
232
241
243
246
245
245
240
231
222
213
204
194
184
174
168
165
159
153
149
145
144
148
144
142
141
135
131
128
129
129
124
121
114
107
105
107
111
116
103
107
112
111
109
112
100
95
54
57
59
68
81
89
94
93
95
95
92
98
98
95
99
107
118
128
131
133
135
138
142
144
147
157
166
171
176
186
198
204
208
216
230
240
247
254
253
253
249
240
230
221
210
199
187
179
173
168
160
155
155
158
156
151
148
147
146
142
140
138
137
136
128
121
114
110
113
115
112
108
112
114
120
121
114
105
108
112
51
56
58
66
76
78
80
80
81
83
81
87
90
93
98
103
116
124
123
121
128
136
145
148
150
158
166
172
179
191
197
200
203
215
227
239
249
255
255
255
251
243
232
222
211
201
191
183
178
172
166
167
171
172
168
163
156
150
148
149
146
143
141
139
130
123
118
116
117
115
112
109
106
110
120
124
126
114
118
123
47
52
55
56
61
62
65
66
68
73
76
73
82
98
105
103
109
119
123
127
133
140
147
148
149
156
165
172
180
187
188
194
204
213
227
241
250
255
255
254
248
240
231
222
213
202
192
186
181
174
176
181
186
182
172
165
158
155
156
155
153
148
143
139
133
129
127
122
115
110
107
110
99
103
112
118
119
120
116
116
45
45
47
48
48
50
55
53
55
60
65
64
73
92
105
106
116
118
118
121
136
140
144
146
150
156
160
167
173
177
184
193
203
212
229
242
249
251
249
246
239
231
225
218
210
200
192
186
181
174
172
172
175
173
168
160
156
155
158
157
154
146
138
132
128
127
124
117
112
108
103
99
99
96
100
102
101
108
110
110
49
47
48
49
49
48
52
59
59
63
67
70
78
96
111
115
118
116
120
128
139
143
150
153
151
156
160
164
170
175
188
198
204
212
224
237
243
241
239
235
231
220
215
211
206
194
190
186
180
172
163
159
156
158
162
160
152
149
151
152
149
141
132
126
121
119
116
113
110
107
101
92
94
92
91
89
92
101
106
109
62
58
57
61
64
67
72
70
69
71
73
77
86
101
113
119
126
126
128
132
135
140
145
146
147
152
157
161
167
176
190
195
197
205
214
228
229
228
229
225
225
211
200
199
198
187
185
183
178
171
161
157
152
151
156
156
150
147
146
146
146
139
131
123
116
112
113
111
105
99
95
88
88
91
89
83
85
95
97
101
73
72
71
72
74
75
83
87
84
83
83
86
92
102
113
120
126
129
129
127
127
132
137
139
142
148
153
157
164
174
179
180
181
195
207
216
209
213
216
212
212
202
191
189
192
188
179
175
171
168
161
156
150
146
146
149
150
146
141
139
141
138
132
121
112
106
105
105
102
95
92
86
83
84
80
73
73
80
84
94
66
72
76
82
83
84
90
96
93
92
93
92
95
104
113
120
122
121
120
121
121
126
131
135
138
144
148
153
159
168
167
172
182
190
197
199
195
198
202
197
197
191
182
178
180
180
176
171
164
160
159
153
147
141
135
140
147
144
136
134
138
138
135
127
117
108
103
99
100
100
99
91
85
78
72
70
66
69
73
85
61
63
65
74
81
86
93
90
92
95
99
100
104
110
116
118
115
111
112
117
116
120
126
131
135
141
145
150
156
162
165
171
184
179
183
183
184
186
191
182
182
178
177
172
171
172
173
168
161
154
153
145
143
135
123
127
137
136
127
128
133
136
133
130
123
117
107
100
95
96
95
90
91
82
76
76
66
65
66
73
69
67
62
66
76
78
80
81
85
93
101
105
109
112
109
107
104
102
103
105
112
114
121
127
133
140
144
149
153
155
165
166
166
165
174
172
173
177
182
170
169
167
165
165
163
164
168
167
162
155
144
138
137
128
113
115
127
127
119
123
128
132
130
125
124
124
116
106
96
87
87
88
88
87
81
74
67
63
62
64
68
69
69
69
70
75
80
77
86
93
102
106
101
102
103
97
92
98
102
107
109
118
117
127
136
136
138
142
148
156
157
156
155
155
156
162
169
170
171
167
161
158
150
150
150
158
160
162
157
149
136
128
120
114
110
110
113
116
111
116
120
122
123
122
125
124
116
109
100
87
83
85
82
76
80
75
65
60
58
52
73
72
69
72
74
76
77
85
91
95
101
102
92
86
87
86
88
98
99
100
107
118
124
127
132
132
136
141
144
146
146
146
148
148
152
156
161
160
161
159
153
151
144
143
142
148
156
155
152
147
138
131
124
115
107
103
104
107
104
112
115
118
120
119
117
113
111
110
103
93
86
84
86
82
85
79
77
73
70
60
76
74
72
76
82
86
86
90
92
90
90
85
79
79
85
90
92
95
92
92
95
105
119
122
124
127
132
137
140
136
135
137
140
139
144
149
150
149
148
148
145
141
137
134
132
136
149
147
146
144
139
133
127
117
108
102
101
103
101
106
109
113
113
116
113
110
108
109
107
100
95
91
92
91
93
87
84
84
80
68
80
83
83
85
88
89
88
83
83
76
73
70
74
80
85
90
89
87
88
97
103
105
113
115
116
120
126
130
132
131
131
132
133
132
136
140
140
139
137
140
140
134
129
126
123
127
140
140
141
141
136
130
124
118
112
106
98
98
97
100
102
104
104
110
111
110
106
104
105
104
102
101
97
96
95
91
88
90
86
78
79
86
87
86
81
74
71
69
71
68
68
71
76
80
83
89
84
83
86
96
107
113
110
106
110
114
119
122
122
124
127
125
120
125
127
128
130
132
129
134
136
128
121
118
116
121
128
132
135
135
129
122
119
120
118
107
96
93
91
92
92
93
91
94
95
97
99
101
102
101
101
102
96
93
90
91
93
94
85
80
72
79
80
74
67
63
62
60
64
67
71
76
79
80
88
97
86
83
81
84
90
104
103
99
107
111
115
117
116
118
122
118
109
121
119
120
124
127
123
130
133
124
115
113
111
116
119
127
131
129
125
117
115
120
121
112
98
93
91
87
86
84
82
80
78
81
93
100
99
96
97
98
93
88
83
86
93
92
81
75
63
66
63
57
56
58
62
66
68
74
78
81
84
88
90
88
81
75
81
83
87
89
97
106
110
107
108
111
110
113
116
111
102
108
112
113
116
118
119
125
127
123
112
108
105
106
113
121
127
126
117
111
114
117
117
116
108
99
89
89
84
83
80
79
74
72
77
84
88
91
94
95
93
88
81
76
77
88
87
80
51
52
52
54
59
65
71
74
77
80
79
81
81
79
76
73
71
73
79
82
89
93
102
109
112
106
104
105
105
107
106
101
97
97
104
106
108
112
117
118
116
117
107
104
102
104
112
120
124
120
108
109
112
111
110
113
110
106
97
91
88
89
87
81
78
73
69
68
73
82
89
93
91
89
84
74
75
85
88
80
52
53
57
62
65
68
68
71
74
75
71
67
67
66
66
66
71
76
81
82
89
94
101
105
108
102
100
102
102
101
93
89
89
92
99
102
103
107
114
112
107
110
102
100
101
104
112
117
119
115
110
109
109
110
110
107
102
100
95
91
90
90
87
80
77
72
68
65
66
75
82
87
88
91
86
76
72
80
86
82
59
63
70
69
69
65
58
56
58
60
58
60
62
66
72
76
80
84
85
89
91
92
94
95
99
96
96
96
95
92
84
83
87
94
98
99
101
103
107
105
102
101
93
94
98
104
109
111
112
111
108
105
101
103
109
106
100
97
92
93
92
94
89
85
79
68
63
61
65
71
76
79
82
86
85
77
71
74
81
83
58
62
68
65
67
60
51
53
54
57
59
66
68
72
77
82
84
89
90
98
97
91
88
88
92
91
90
86
80
81
79
85
94
95
94
92
97
99
97
100
98
92
84
87
95
103
105
102
103
107
101
104
100
98
102
101
103
99
89
84
89
94
93
90
87
78
65
59
62
68
72
75
74
78
79
76
71
70
78
85
60
57
59
55
53
50
48
55
59
62
68
74
78
77
86
86
84
89
94
100
98
90
85
85
89
82
79
78
73
76
82
92
91
88
88
89
93
95
94
93
89
84
81
87
94
99
97
98
97
101
102
104
100
96
95
94
100
100
92
82
80
90
91
87
90
89
75
61
59
64
71
72
69
71
74
76
72
68
72
83
61
54
53
51
49
49
50
54
65
71
73
77
87
89
94
88
87
89
94
99
94
87
78
76
83
78
74
72
71
75
81
86
82
78
82
88
93
91
90
88
84
79
77
87
95
98
95
93
92
95
98
99
94
90
87
88
95
99
93
81
77
85
88
86
85
83
74
63
58
61
67
68
66
68
72
76
71
68
70
80
65
57
47
47
46
48
51
60
71
75
73
77
91
96
96
86
89
87
89
93
97
89
80
74
77
77
69
65
69
71
76
78
72
78
81
84
85
86
84
79
76
74
75
87
95
95
93
87
87
92
97
95
91
86
80
80
91
97
94
84
77
79
82
84
82
80
74
65
57
58
63
63
61
64
70
74
69
66
68
76
71
61
46
44
43
47
52
60
64
67
73
80
91
93
94
87
88
83
83
86
86
83
78
71
73
75
67
63
68
68
76
76
71
77
82
84
81
81
77
71
70
72
81
90
93
90
88
82
87
95
99
95
92
88
80
77
89
97
93
92
82
77
75
78
80
81
75
64
57
55
61
62
58
60
65
70
65
64
67
75
75
67
50
43
40
44
52
51
53
58
72
81
89
90
91
84
85
83
81
80
80
81
78
71
70
67
64
64
66
69
77
73
69
64
74
80
76
73
68
67
72
78
85
89
89
87
84
80
89
95
94
88
89
87
78
77
88
95
91
91
85
75
70
69
71
74
68
60
54
52
58
61
58
58
60
62
62
62
67
76
83
78
59
43
39
43
50
53
54
54
61
71
83
85
84
74
84
86
83
78
74
76
72
63
65
59
60
64
62
72
78
69
63
59
68
71
64
63
61
65
78
86
83
85
86
86
83
78
88
89
83
77
81
80
73
77
86
91
87
84
83
75
68
62
59
59
60
57
50
48
55
59
60
57
57
56
59
62
69
78
89
83
69
48
42
42
43
46
49
53
64
76
85
84
76
75
84
90
81
82
75
69
62
59
56
59
56
59
68
74
71
66
62
60
59
59
58
58
64
74
77
77
80
81
78
85
81
88
91
90
89
79
74
73
70
74
81
87
90
86
82
75
69
69
60
60
60
56
52
47
49
52
58
62
59
55
57
63
66
71
92
82
68
51
43
39
39
42
46
53
66
77
84
84
76
73
84
89
80
77
67
62
57
56
56
58
60
64
70
67
60
55
52
53
52
54
59
66
68
72
75
78
77
75
78
81
87
88
89
90
86
79
72
70
65
64
70
79
86
90
88
83
80
78
69
68
67
61
54
46
47
51
53
59
59
55
55
60
65
70
95
84
74
59
49
40
37
38
46
56
69
77
81
82
74
69
77
82
74
66
57
55
53
53
56
59
64
68
69
60
53
49
50
55
56
63
72
71
69
68
71
73
71
77
87
85
85
83
82
83
81
75
69
65
62
60
61
69
77
81
81
83
85
85
80
78
75
71
60
48
46
45
48
54
60
54
52
58
62
68
95
86
81
67
58
41
37
37
46
56
69
74
75
78
72
64
65
67
62
54
52
50
51
54
57
59
65
67
62
54
49
51
56
63
65
68
72
68
65
63
66
69
70
80
84
76
81
79
77
76
74
74
68
63
63
60
54
56
60
62
64
69
76
80
80
81
79
77
68
55
48
42
45
49
57
53
50
56
62
68
90
79
80
70
60
41
37
37
45
53
63
68
69
73
71
61
56
55
52
46
50
50
53
58
59
59
64
61
53
48
47
49
54
63
67
68
66
62
61
63
66
70
78
81
78
77
79
80
80
76
73
76
72
69
69
64
57
53
53
51
50
54
59
64
70
73
75
76
70
64
56
48
45
44
53
51
50
57
62
69
86
76
74
70
59
41
34
36
45
49
58
66
66
70
68
59
51
48
48
47
50
51
55
60
62
59
61
57
48
44
45
49
51
48
53
57
58
59
61
64
68
68
72
72
72
82
80
84
84
80
76
81
79
74
75
70
64
61
59
54
49
47
49
52
58
65
69
71
68
66
60
53
46
43
48
49
51
57
63
69
85
80
69
65
54
41
33
36
45
47
57
69
66
64
59
52
47
45
46
49
49
54
58
59
56
52
51
49
43
47
54
64
68
64
60
60
62
65
66
71
73
72
72
75
73
83
87
89
88
82
82
87
84
76
73
70
68
69
67
61
55
51
47
40
43
47
51
54
62
63
60
55
45
44
43
45
50
56
62
66
77
72
61
56
45
37
34
35
42
47
57
67
62
57
51
44
44
44
45
49
52
58
61
57
47
44
43
44
43
56
70
83
92
83
71
70
71
73
76
81
83
84
87
90
86
88
100
99
95
90
89
95
94
85
80
75
75
77
75
63
59
56
48
45
44
42
40
40
46
55
54
49
44
41
41
44
49
52
57
61
65
63
56
49
38
31
33
36
42
47
55
59
54
50
46
42
41
42
46
50
59
62
59
49
44
44
44
46
49
60
74
83
90
91
78
76
74
75
82
86
89
92
91
97
96
95
104
103
101
98
97
103
102
93
85
77
81
83
80
65
59
61
60
54
50
45
41
39
38
40
41
40
41
38
38
41
46
48
52
55
57
56
50
42
34
33
36
42
48
54
55
53
48
46
45
43
41
43
48
53
61
60
53
43
40
43
42
45
51
60
72
75
81
91
87
82
82
81
87
87
85
89
89
96
99
98
95
95
95
95
98
104
101
88
79
78
83
84
78
70
62
72
76
61
57
50
47
48
47
41
38
39
38
35
35
38
43
44
48
53
46
43
35
34
33
37
43
49
57
63
58
54
48
45
44
41
41
43
49
56
57
55
49
41
40
43
40
43
50
59
74
79
88
86
94
87
88
89
95
86
78
82
84
89
93
92
84
84
83
83
90
99
101
91
85
85
92
92
83
78
74
86
85
77
70
62
58
57
54
50
43
38
36
34
34
36
41
41
46
54
38
35
33
31
33
42
51
57
68
72
63
53
47
39
37
38
41
47
51
52
54
47
41
41
40
40
41
46
50
63
76
76
77
80
89
93
98
98
93
83
74
70
72
76
81
84
80
72
71
78
83
93
98
94
92
99
101
100
82
76
86
97
97
85
81
70
60
59
58
54
47
38
35
33
33
33
35
39
45
51
35
33
31
31
36
47
58
61
62
60
55
48
42
36
36
39
44
49
52
52
51
44
39
40
40
40
44
49
54
64
72
74
78
81
88
92
95
93
90
81
70
65
64
64
66
68
70
66
67
76
86
93
98
103
107
112
104
95
82
87
97
106
101
90
86
80
71
64
60
55
48
39
34
32
32
33
36
40
45
50
31
29
28
30
36
47
57
56
51
46
43
40
37
35
37
40
48
51
51
50
45
41
37
38
40
42
46
51
55
66
71
75
80
80
85
86
89
91
91
87
79
72
65
59
56
56
58
58
64
73
80
87
96
105
111
114
105
95
89
97
98
102
97
87
81
82
75
62
59
56
54
49
38
35
32
33
37
39
42
45
28
28
26
29
31
37
43
40
41
40
36
36
36
35
38
41
46
48
47
46
40
37
36
38
42
45
49
51
53
57
64
70
67
76
78
78
81
85
87
88
88
84
72
65
57
54
52
54
60
70
73
87
98
101
101
104
105
97
89
86
79
79
80
83
77
78
70
56
49
49
52
51
47
38
32
32
36
37
38
40
27
26
25
28
28
29
30
31
34
36
33
33
33
34
36
37
40
42
42
40
36
36
37
38
41
46
53
58
59
61
67
74
72
72
74
73
77
76
76
78
84
86
81
76
67
60
51
50
54
65
75
88
95
92
89
96
100
97
82
75
69
70
71
70
65
60
51
44
41
40
45
45
46
37
31
32
35
36
38
41
27
26
26
29
29
28
28
31
31
31
32
31
31
31
33
34
35
38
37
36
35
36
37
39
40
47
58
65
67
64
64
73
75
70
72
72
77
74
71
72
79
85
89
88
79
69
51
46
49
60
75
83
86
81
80
88
94
99
86
78
80
82
77
68
66
53
43
44
43
41
43
43
40
32
29
32
36
38
40
43
27
28
27
25
27
28
29
29
29
29
29
30
30
29
33
35
35
34
35
35
33
35
38
41
46
53
62
64
64
67
70
72
74
76
72
68
71
74
70
68
73
78
85
92
86
71
57
46
42
51
60
70
69
66
75
81
91
99
98
88
88
81
75
68
63
53
54
63
62
55
45
38
39
37
34
29
34
34
38
44
32
28
26
27
27
28
28
28
29
29
29
30
29
29
30
31
32
33
34
34
35
36
40
44
50
53
57
60
61
65
68
73
74
80
78
69
65
69
67
66
72
78
76
80
85
69
63
53
46
47
48
56
61
68
77
84
95
100
95
85
76
65
58
55
55
55
63
70
68
65
55
46
48
42
36
32
30
31
35
42
34
33
31
29
29
28
28
32
32
33
33
32
32
31
31
31
31
32
33
34
36
38
42
46
51
52
53
55
56
60
65
69
72
78
80
73
64
63
61
60
66
70
71
73
76
75
70
63
53
45
46
54
63
77
87
90
94
95
94
86
72
64
61
63
63
66
69
74
77
69
60
53
54
47
38
33
25
27
32
40
33
35
36
34
32
30
29
29
31
31
33
32
32
34
33
33
35
35
35
35
35
38
42
48
51
53
56
57
57
59
62
67
69
73
79
75
68
62
58
55
58
61
66
70
66
77
74
68
56
45
44
50
62
75
83
85
80
80
87
89
72
68
67
67
71
80
85
83
78
65
58
56
54
48
38
30
25
26
30
38
