P2
# CREATOR: GIMP PNM Filter Version 1.1
64 64
255
0
0
0
0
0
0
0
0
0
0
0
0
0
0
0
0
0
0
0
0
0
0
0
0
0
0
0
0
0
0
0
0
0
0
0
0
0
0
0
0
0
0
0
13
1
0
0
0
0
0
0
0
0
0
0
0
0
0
0
0
0
0
0
0
0
0
0
0
0
0
0
0
0
0
0
0
0
0
0
0
0
0
0
0
0
0
0
0
0
0
0
0
0
0
0
0
0
0
0
0
0
0
0
0
0
0
0
0
0
0
0
0
0
0
0
0
0
0
0
0
0
0
0
0
0
0
0
0
0
0
0
0
0
0
0
0
0
0
0
0
0
0
0
0
0
0
0
0
0
0
0
0
0
0
0
0
0
0
0
0
0
0
0
0
0
0
0
0
0
0
2
0
0
0
0
0
0
0
0
0
0
0
0
0
0
0
0
0
0
0
0
0
0
0
0
0
0
0
0
0
0
0
0
0
0
0
0
0
0
0
0
0
0
0
0
0
0
0
0
0
0
0
0
0
0
0
0
0
0
0
0
1
0
0
0
0
0
0
0
0
0
0
0
0
0
0
0
0
0
0
0
0
0
0
0
0
0
0
0
0
0
0
0
0
0
0
0
0
0
0
0
0
0
0
0
0
0
0
0
0
0
0
0
0
0
0
0
0
0
0
0
0
0
11
6
7
0
0
0
0
0
0
0
0
0
0
0
0
0
0
0
0
0
0
0
0
0
0
0
0
0
0
0
0
0
0
0
0
0
0
0
0
0
0
0
0
0
0
0
0
0
0
0
0
0
1
1
0
0
0
0
0
0
0
0
0
26
18
12
1
0
0
0
0
0
0
0
0
0
0
0
0
0
0
0
0
0
0
0
0
0
0
0
0
0
0
0
0
0
0
0
0
0
0
0
0
0
0
0
0
0
0
0
0
0
0
0
0
0
0
0
0
0
0
0
0
0
0
0
4
29
21
7
0
0
0
0
0
0
0
0
0
0
0
0
0
0
0
0
0
0
0
0
0
0
0
0
0
0
0
0
0
0
0
0
0
0
0
0
0
0
0
0
0
0
0
0
0
0
0
0
0
0
0
0
0
0
0
0
0
0
0
0
0
28
13
0
0
0
0
0
0
0
0
0
0
0
0
0
0
0
0
0
0
0
0
0
0
0
0
0
0
0
0
0
0
0
0
0
0
0
0
0
0
0
0
0
0
0
0
0
0
0
0
0
0
0
0
0
0
0
4
6
0
0
0
2
12
19
3
0
0
0
0
0
0
0
0
0
0
0
0
0
0
0
0
0
0
0
0
0
0
0
0
0
0
0
0
0
0
0
0
0
0
0
0
0
0
0
0
0
0
0
0
0
0
0
0
0
0
13
4
0
0
0
37
64
53
44
54
58
41
32
1
0
0
0
0
0
0
0
0
0
0
0
0
0
0
0
0
0
0
0
0
0
0
0
0
0
0
0
0
0
0
0
0
0
0
0
0
0
0
0
0
0
0
0
0
0
1
0
0
2
28
47
2
0
0
0
48
108
76
57
71
81
61
34
0
0
0
0
0
0
0
0
0
0
0
0
0
0
0
0
0
0
0
0
0
0
0
0
0
0
0
0
0
0
0
0
0
0
0
0
0
0
0
0
0
0
0
0
0
0
0
0
15
40
40
19
4
0
0
23
78
111
80
110
74
88
26
0
0
0
0
0
0
0
0
0
0
0
0
0
0
0
0
0
0
0
0
0
0
0
0
0
0
0
0
0
0
0
0
0
0
0
0
0
0
0
0
0
0
0
0
0
0
0
0
0
14
68
51
14
0
0
0
38
77
76
64
70
59
9
0
0
0
0
0
0
0
0
0
0
0
0
0
0
0
0
0
0
0
0
0
0
0
0
0
0
0
0
0
0
0
0
0
0
0
0
0
0
0
0
0
0
0
0
2
3
0
0
0
0
6
40
9
1
0
15
25
70
95
140
103
64
21
4
0
0
0
0
0
0
0
0
0
0
0
0
0
0
0
0
0
0
0
0
0
0
0
0
0
0
0
0
0
0
0
0
0
0
0
0
0
0
0
0
0
0
0
0
0
0
0
0
0
9
15
4
0
18
0
11
71
116
130
105
135
53
21
1
12
15
18
18
15
22
7
0
0
0
0
0
0
0
0
0
0
0
0
0
0
0
0
0
0
0
0
0
0
0
0
0
0
0
0
0
0
0
0
0
0
0
0
0
0
0
0
0
2
17
17
0
27
46
29
31
89
102
122
109
50
36
33
51
77
66
73
58
49
52
37
0
0
0
0
0
0
0
0
0
0
0
0
0
0
0
0
0
0
0
0
0
0
0
0
0
0
0
0
0
0
0
0
0
0
0
0
0
0
0
0
0
0
13
6
0
35
55
37
23
67
111
144
111
76
73
124
107
99
111
104
73
54
41
27
0
0
0
0
0
0
0
0
0
0
0
0
0
0
0
0
0
0
0
0
0
0
0
0
0
0
0
0
0
0
0
0
0
0
0
0
0
0
0
0
0
0
26
7
0
0
42
68
42
71
132
147
111
83
168
154
85
135
144
109
89
53
47
0
0
0
0
0
0
0
0
0
0
0
0
0
0
0
0
0
0
0
0
0
0
0
0
0
0
0
0
0
0
0
0
0
0
0
0
0
0
0
0
0
0
0
14
2
0
3
22
3
26
86
128
106
99
162
159
104
208
183
130
103
70
59
40
0
0
0
0
0
0
0
0
0
0
0
0
0
0
0
0
0
0
0
0
0
0
0
0
0
0
0
0
0
0
0
0
0
0
0
0
0
0
0
0
0
0
3
9
0
0
0
11
7
26
97
89
68
114
155
151
179
172
182
189
158
108
67
17
0
0
0
0
0
0
0
0
0
0
0
0
0
0
0
0
0
0
0
0
0
0
0
0
0
0
0
0
0
0
0
0
0
0
0
0
0
0
0
0
0
0
3
0
0
0
0
0
26
48
82
78
115
142
136
133
102
112
115
113
84
45
28
0
0
0
0
0
0
0
0
0
0
0
0
0
0
0
0
0
0
0
0
0
0
0
0
0
0
0
0
0
0
0
0
0
0
0
0
0
0
0
0
0
0
0
0
0
0
3
12
9
46
54
75
55
123
115
146
163
116
94
69
46
59
47
6
0
0
0
0
0
0
0
0
0
0
0
0
0
0
0
0
0
0
0
0
0
0
0
0
0
0
0
0
0
0
0
0
0
0
0
0
0
0
0
0
0
0
0
0
0
0
7
0
1
50
83
8
58
86
122
138
102
128
84
39
44
30
1
0
0
0
0
0
0
0
0
0
0
0
0
0
0
0
0
0
0
0
0
0
0
0
0
0
0
0
0
0
0
0
0
0
0
0
0
0
0
0
0
0
0
0
0
0
0
0
0
0
12
18
7
33
79
82
110
115
101
84
77
68
56
50
29
0
0
0
0
0
0
0
0
0
0
0
0
0
0
0
0
0
0
0
0
0
0
0
0
0
0
0
0
0
0
0
0
0
0
0
0
0
0
0
0
0
0
0
0
0
0
0
0
0
1
5
24
23
62
89
80
54
44
54
43
54
37
0
3
0
0
0
0
0
0
0
0
0
0
0
0
0
0
0
0
0
0
0
0
0
0
0
0
0
0
0
0
0
0
0
0
0
0
0
0
0
0
0
0
0
0
0
0
0
0
0
0
0
0
22
31
63
36
70
31
49
61
57
52
39
30
25
49
47
13
0
0
0
0
0
0
0
0
0
0
0
0
0
0
0
0
0
0
0
0
0
0
0
0
0
0
0
0
0
0
0
0
0
0
0
0
0
0
0
0
0
0
0
0
0
0
0
30
52
0
39
21
14
75
50
46
47
81
94
90
92
106
75
45
4
0
0
0
0
0
0
0
0
0
0
0
0
0
0
0
0
0
0
0
0
0
0
0
0
0
0
0
0
0
0
0
0
0
0
0
0
0
0
0
0
0
0
0
0
0
1
11
22
0
57
66
5
16
41
81
87
77
85
103
101
67
47
39
37
6
0
0
0
0
0
0
0
0
0
0
0
0
0
0
0
0
0
0
0
0
0
0
0
0
0
0
0
0
0
0
0
0
0
0
0
0
0
0
0
0
0
0
0
0
0
0
0
0
44
26
20
2
39
67
105
101
126
135
92
64
62
120
57
31
0
0
0
0
0
0
0
0
0
0
0
0
0
0
0
0
0
0
0
0
0
0
0
0
0
0
0
0
0
0
0
0
0
0
0
0
0
0
1
0
2
20
19
1
0
0
0
21
23
0
0
31
74
109
108
99
90
109
100
94
112
88
66
35
0
0
0
0
0
0
0
0
0
0
0
0
0
0
0
0
0
0
0
0
0
0
0
0
0
0
0
0
0
0
0
0
0
0
0
0
0
0
18
35
41
61
41
32
28
50
46
0
0
0
3
64
107
86
82
54
49
73
78
89
84
74
64
39
1
0
0
0
0
0
0
0
0
0
0
0
0
0
0
0
0
0
0
0
0
0
0
0
0
0
0
0
0
0
0
0
0
0
0
0
0
17
71
66
33
38
47
57
38
57
87
0
0
0
39
67
51
81
48
58
24
27
31
55
75
59
53
40
16
0
0
0
0
0
0
0
0
0
0
0
0
0
0
0
0
0
0
0
0
0
0
0
0
0
0
0
0
0
0
0
0
0
0
0
0
16
64
71
44
48
77
91
37
40
71
49
0
0
29
21
36
28
46
14
4
30
40
79
119
119
86
54
34
0
0
0
0
0
0
0
0
0
0
0
0
0
0
0
0
0
0
0
0
0
0
0
0
0
0
0
0
0
0
0
0
0
0
0
41
60
51
76
59
45
73
70
39
28
53
37
10
0
5
4
10
3
0
0
26
77
93
52
147
134
93
54
49
7
0
0
0
0
0
0
0
0
0
0
0
0
0
0
0
0
0
0
0
0
0
0
0
0
0
0
0
0
0
0
0
0
0
0
0
0
25
49
49
53
56
54
31
27
46
42
21
0
0
0
0
0
0
0
61
114
123
102
74
120
80
45
32
45
53
11
0
0
0
0
0
0
0
0
0
0
0
0
0
0
0
0
0
0
0
0
0
0
0
0
0
0
0
0
10
6
2
0
1
55
63
63
40
55
63
38
37
38
58
43
25
0
0
0
14
6
0
0
11
92
54
71
107
132
96
47
40
89
80
69
4
0
0
0
0
0
0
0
0
0
0
0
0
0
0
0
0
0
0
0
0
0
0
0
0
0
0
19
39
58
26
40
59
33
63
75
55
42
44
49
70
45
75
30
4
0
0
8
72
3
0
0
0
39
29
38
103
127
116
57
30
55
32
42
32
2
0
0
0
0
0
0
0
0
0
0
0
0
0
0
0
0
0
0
0
0
0
0
0
0
7
17
48
56
27
56
41
46
47
55
39
38
49
56
44
46
34
1
0
0
0
9
4
0
0
0
0
6
1
57
84
86
97
65
32
28
36
57
35
5
0
0
0
0
0
0
0
0
0
0
0
0
0
0
0
0
0
0
0
0
0
0
0
0
0
16
34
37
40
40
50
44
41
35
46
46
55
57
33
19
0
0
0
0
0
0
0
0
0
0
0
0
20
54
59
75
74
56
39
27
26
41
26
9
0
0
0
0
0
0
0
0
0
0
0
0
0
0
0
0
0
0
0
0
0
0
0
0
0
6
51
49
30
40
45
43
42
35
44
42
51
41
45
37
0
0
0
0
0
0
0
0
0
0
0
0
18
32
70
96
85
49
34
26
25
31
26
26
2
0
0
0
0
0
0
0
0
0
0
0
0
0
0
0
0
0
0
0
0
0
0
0
6
26
74
64
29
34
41
43
38
34
40
46
45
40
42
42
13
0
0
0
0
0
0
0
0
0
0
0
27
39
57
56
107
70
39
29
25
28
33
24
1
0
0
0
0
0
0
0
0
0
0
0
0
0
0
0
0
0
0
0
0
0
0
0
1
20
37
49
30
29
39
41
37
34
43
46
42
42
43
38
13
0
0
0
0
0
13
11
0
0
0
4
28
32
30
39
104
101
44
37
27
30
35
42
17
0
0
0
0
0
0
0
0
0
0
0
0
0
0
0
0
0
0
0
0
0
0
0
0
0
12
24
23
21
33
44
37
34
37
42
40
44
47
79
17
0
0
0
0
1
23
36
49
48
42
51
28
35
34
56
110
85
55
41
31
29
28
43
31
2
0
0
0
0
0
0
0
0
0
0
0
0
0
0
0
0
0
0
0
0
0
0
0
0
6
0
44
37
48
48
34
37
73
57
41
45
68
130
44
0
0
0
0
0
0
45
129
82
101
81
38
40
36
64
91
81
57
51
32
31
28
27
25
2
0
0
0
0
0
0
0
0
0
0
0
0
0
0
0
0
0
0
0
0
0
0
0
0
0
8
43
30
50
50
38
48
55
47
63
42
69
103
38
0
0
0
0
0
26
45
70
119
98
111
43
45
50
58
58
49
40
36
32
43
28
25
8
6
28
23
21
2
0
0
0
0
0
0
0
0
0
0
0
0
0
0
0
0
0
0
0
0
0
19
55
28
43
54
71
63
52
53
76
40
53
65
13
0
0
0
0
7
11
0
68
107
119
67
43
43
41
47
51
41
50
41
50
50
29
25
24
24
39
36
31
26
3
0
0
0
0
0
0
0
0
0
0
0
0
0
0
0
0
0
0
1
15
23
31
22
26
39
71
51
59
56
41
58
50
42
2
0
0
0
0
0
0
0
64
68
98
59
80
52
52
52
57
43
50
43
60
44
29
25
25
26
35
37
32
27
13
0
0
0
0
0
0
0
0
0
0
0
0
0
0
0
0
0
0
2
17
34
64
38
39
47
50
47
51
53
52
52
36
32
0
0
0
0
0
0
0
0
37
129
89
100
80
72
56
51
59
50
47
54
50
44
33
25
25
24
32
33
35
30
16
0
0
0
0
0
0
0
0
0
0
0
0
0
0
0
0
0
16
1
25
64
77
71
52
65
84
55
74
44
38
36
39
11
0
0
0
0
0
0
0
3
68
121
101
100
72
54
54
36
52
46
43
54
48
41
35
31
25
28
35
36
35
33
6
0
0
0
0
0
0
0
0
0
0
0
0
0
0
0
0
11
41
45
47
47
71
54
49
54
47
55
55
27
20
9
5
5
0
0
0
0
0
3
28
71
77
118
86
96
53
48
51
30
35
40
53
58
47
40
33
35
30
47
44
38
34
29
0
0
0
0
0
0
0
0
0
0
0
0
0
0
0
0
0
0
15
68
85
72
91
81
63
55
53
43
32
0
0
0
0
0
0
0
0
1
27
66
62
69
70
71
92
90
81
47
43
29
62
58
57
51
48
47
42
49
48
45
38
33
26
6
0
0
0
0
0
0
0
0
0
0
0
0
0
0
0
0
0
0
26
57
43
72
76
54
46
41
24
8
0
0
0
0
0
0
0
0
0
6
35
43
46
44
57
104
121
106
63
49
44
49
71
56
47
41
44
57
53
43
42
39
34
25
16
0
0
0
0
0
0
0
0
0
0
0
0
0
0
0
0
0
0
0
1
26
53
33
60
45
39
16
0
0
0
0
0
0
0
0
0
0
0
3
24
26
0
21
42
64
101
83
51
50
32
59
47
43
40
39
60
56
45
38
41
38
28
12
0
0
0
0
0
0
0
0
0
0
0
0
0
0
0
0
0
0
0
0
1
0
18
25
24
7
0
0
0
0
0
0
0
0
0
0
0
0
0
0
0
0
0
9
3
18
45
40
10
22
46
48
51
63
61
48
40
33
31
30
27
25
19
0
0
0
0
0
0
0
0
0
0
0
0
0
0
0
0
0
0
0
0
0
0
0
0
0
0
0
0
0
0
0
0
0
0
0
0
0
0
0
0
0
0
0
0
0
0
0
7
7
15
51
47
38
56
63
58
44
39
37
32
49
50
42
35
21
19
7
0
0
0
0
0
0
0
0
0
0
0
0
0
0
0
0
0
0
0
0
0
0
0
0
0
0
0
0
0
0
0
0
0
0
0
0
0
0
0
2
0
8
49
84
41
24
23
39
60
59
52
49
43
57
49
42
52
43
44
35
42
47
47
5
0
0
0
0
0
0
0
0
0
0
0
0
0
0
0
0
0
0
0
0
0
0
0
0
0
0
0
0
0
0
0
0
0
0
0
0
0
0
0
0
11
19
47
76
84
50
30
29
46
56
50
40
39
52
49
39
34
44
50
42
31
24
6
0
0
0
0
0
0
0
0
0
0
0
0
0
0
0
0
0
0
0
0
0
0
0
0
0
0
0
0
0
0
0
0
0
0
0
0
0
0
0
0
0
34
59
50
59
54
67
55
48
50
47
35
38
27
31
38
38
34
41
33
30
14
4
0
0
0
0
0
0
0
0
0
0
0
0
0
0
0
0
0
0
0
0
0
0
0
0
0
0
0
0
0
0
0
0
0
0
0
0
0
0
0
0
0
4
53
55
91
62
36
45
25
34
49
35
22
16
27
15
6
1
0
0
12
0
0
0
0
0
0
0
0
0
0
0
0
0
0
0
0
0
0
0
0
0
0
0
0
0
0
0
0
0
0
0
0
0
0
0
0
0
0
0
0
0
0
0
6
40
83
52
108
70
27
0
0
0
7
8
6
0
5
6
0
0
0
0
0
0
0
0
0
0
0
0
0
0
0
0
0
0
0
0
0
0
0
0
0
0
0
0
0
0
0
0
0
0
0
0
0
0
0
0
0
0
0
0
0
0
0
0
31
55
46
31
59
52
16
0
0
0
0
0
0
0
0
0
0
0
0
0
0
0
0
0
0
0
0
0
0
0
0
0
0
0
0
0
0
0
0
0
0
0
0
0
0
0
0
0
0
0
0
0
0
0
0
0
0
0
0
0
0
0
9
30
39
15
0
0
4
28
0
0
0
0
0
0
0
0
0
0
0
0
0
0
0
0
0
0
0
0
0
0
0
0
0
0
0
0
0
0
0
0
0
0
0
0
0
0
0
0
0
0
0
0
0
0
0
0
0
0
0
0
0
0
0
0
32
28
19
0
0
0
0
0
0
0
0
0
0
0
0
0
0
0
0
0
0
0
0
0
0
0
0
0
0
0
0
0
0
0
0
0
0
0
0
0
0
0
0
0
0
0
0
0
0
0
0
0
0
0
0
0
0
0
0
0
0
6
0
0
0
3
0
0
0
0
0
0
0
0
0
0
0
0
0
0
0
0
0
0
0
0
0
0
0
0
0
0
0
0
0
0
0
0
0
0
0
