P2
# CREATOR: GIMP PNM Filter Version 1.1
50 60
255
69
76
76
84
83
85
85
88
89
97
101
107
113
112
110
117
118
115
120
121
126
132
135
134
131
130
125
126
126
126
125
123
122
123
119
119
117
116
120
114
109
121
116
95
72
55
32
30
34
41
72
77
83
83
91
90
90
94
94
98
107
109
113
118
117
121
125
123
130
131
134
141
146
145
143
144
142
135
133
132
132
132
130
131
129
123
121
119
121
118
112
120
112
84
64
52
41
49
53
50
77
78
83
85
92
97
97
99
102
98
110
115
118
120
125
127
132
133
139
143
148
153
156
155
154
155
155
143
143
141
139
140
139
142
138
130
126
125
123
116
113
121
100
75
71
67
63
73
78
63
81
82
84
90
93
96
104
106
109
107
106
119
125
127
130
133
140
139
147
153
158
162
168
167
159
158
160
157
158
150
147
147
149
149
143
139
137
129
127
124
118
128
106
85
85
71
73
97
93
76
92
84
91
95
100
102
106
112
116
119
113
117
130
134
137
141
147
145
155
163
170
174
175
170
162
161
169
169
168
158
156
157
157
156
151
148
144
135
131
127
129
135
124
109
101
90
92
113
98
103
94
92
93
100
103
109
109
115
121
125
124
124
131
140
144
147
153
160
166
175
181
180
177
176
166
164
177
172
170
171
173
172
167
164
162
161
151
144
135
135
147
141
133
126
119
112
120
124
117
116
94
97
95
99
105
111
116
117
124
130
132
126
137
144
151
155
165
175
184
187
192
184
180
179
171
170
177
174
179
188
195
189
178
175
173
166
159
152
149
145
158
149
139
131
125
122
127
134
126
111
98
99
104
104
105
112
118
123
128
134
139
142
137
156
158
164
171
183
195
199
200
192
183
181
178
178
182
180
190
207
215
205
190
188
179
172
166
167
164
152
153
144
135
127
125
124
128
130
108
96
99
100
103
106
105
112
120
127
133
139
144
149
143
158
169
173
183
192
204
216
209
200
189
185
187
187
185
188
202
217
224
209
200
198
190
186
179
175
165
151
139
134
130
128
127
128
139
140
118
97
93
87
94
91
87
89
96
110
126
139
146
157
158
168
179
187
197
211
223
227
223
210
197
192
192
191
188
193
215
227
230
218
215
207
204
198
193
180
168
153
142
134
132
129
128
130
141
138
121
102
72
72
76
76
83
97
104
102
106
114
123
141
163
173
188
197
214
233
247
250
238
223
209
200
195
195
192
195
220
244
246
232
231
225
216
205
196
181
173
160
144
137
134
130
128
128
132
137
122
115
64
71
86
89
90
98
116
126
131
137
140
136
143
163
183
203
220
248
255
255
252
239
224
208
199
199
198
199
216
248
254
248
250
240
223
211
197
183
172
157
146
139
137
131
128
128
127
128
127
128
74
78
91
99
103
105
121
137
146
154
162
168
160
169
196
208
221
240
255
255
255
255
237
208
203
201
200
205
221
240
255
255
255
249
231
218
198
182
169
157
148
140
135
130
128
125
125
126
128
117
87
95
104
112
121
118
124
141
155
166
171
180
188
186
203
223
236
251
255
255
255
255
231
209
208
206
209
215
229
251
255
255
255
254
240
220
199
184
174
161
148
140
134
130
127
125
126
132
118
99
73
86
104
115
126
133
133
138
149
162
178
190
198
206
215
227
247
255
255
255
255
255
229
213
213
213
215
227
243
255
255
255
255
255
246
227
210
195
180
165
154
139
132
128
125
125
127
135
121
104
88
96
103
119
127
135
144
150
158
169
177
188
207
219
230
241
252
255
255
255
255
254
234
220
219
219
220
236
254
255
255
255
255
255
252
232
215
200
184
166
152
145
132
128
125
123
122
130
123
109
100
111
113
119
127
135
144
152
161
169
183
200
214
226
240
253
255
255
255
255
255
253
233
230
231
230
228
243
255
255
255
255
255
255
254
238
216
201
187
169
151
140
133
129
125
123
121
118
100
88
105
111
118
123
128
133
136
147
158
169
183
203
225
240
246
255
255
255
255
255
255
252
236
235
238
236
234
237
253
255
255
255
255
255
255
246
225
210
191
174
158
145
136
127
124
121
122
119
92
71
101
105
111
117
122
128
135
146
158
170
184
199
221
243
254
255
255
255
255
255
255
252
237
235
236
236
235
237
255
255
255
255
255
255
254
243
224
213
197
181
171
147
135
131
122
117
113
118
95
72
107
110
115
121
130
137
144
151
162
172
183
197
211
227
243
255
255
255
255
255
255
255
242
235
235
235
235
244
255
255
255
255
255
255
253
231
214
198
190
178
168
146
137
133
128
115
111
109
92
74
105
110
118
124
131
139
146
156
165
174
186
197
211
225
242
255
255
255
255
255
255
255
255
249
238
239
240
251
255
255
255
255
255
255
245
225
206
189
180
170
154
146
143
132
125
120
118
109
102
94
105
109
116
127
135
141
147
154
162
170
178
193
208
220
236
251
255
255
255
255
255
255
255
255
255
252
254
255
255
255
255
255
255
248
230
209
192
184
168
162
155
151
144
128
115
112
112
102
97
102
104
107
114
130
132
136
141
146
152
161
174
191
206
220
232
245
255
255
255
255
255
255
255
255
255
255
255
255
255
255
255
255
252
243
228
208
186
176
165
152
144
140
132
120
114
107
105
101
97
96
101
106
111
117
124
129
135
142
152
161
174
185
200
210
218
234
248
254
255
255
255
255
255
255
255
255
255
255
255
255
255
255
249
228
214
200
186
175
162
153
145
136
129
122
114
109
105
100
96
93
102
105
110
114
120
126
133
141
152
162
171
179
189
194
205
218
231
251
255
255
255
255
255
255
255
255
255
255
255
255
255
255
249
235
213
194
179
169
159
151
142
134
129
121
115
109
105
99
95
92
99
104
107
112
117
126
133
142
146
152
161
170
179
185
199
212
227
245
255
255
255
255
255
255
255
255
255
255
255
255
255
254
239
225
211
196
183
169
155
145
138
130
123
122
116
110
105
99
94
90
97
99
103
110
117
127
134
136
139
147
154
162
173
183
197
203
223
244
255
255
255
255
255
255
255
255
255
255
255
255
255
254
237
219
204
192
179
170
160
149
140
131
124
116
112
108
104
98
94
91
93
96
104
109
114
120
125
130
140
145
150
163
173
181
188
198
215
231
243
253
255
255
255
255
255
255
255
255
255
255
252
246
236
220
205
189
175
165
158
150
140
132
124
119
114
106
100
97
93
89
90
94
97
104
110
115
123
132
139
141
144
156
167
175
181
191
204
216
231
240
247
255
255
255
255
255
255
253
252
253
243
231
222
208
197
188
176
163
154
145
141
134
123
115
112
106
102
95
90
87
88
92
95
101
107
118
125
131
133
135
139
148
158
166
171
180
193
205
219
227
236
243
248
248
255
254
246
240
234
240
234
221
210
200
193
181
168
157
148
138
135
132
121
115
110
107
101
94
90
86
85
90
93
99
108
115
119
122
128
132
137
142
149
161
164
171
180
193
202
212
221
225
232
237
251
245
234
230
218
221
224
215
203
197
181
174
159
148
141
130
123
124
117
112
109
106
104
98
87
84
84
87
91
99
104
104
114
121
129
133
138
140
146
150
156
162
172
179
185
197
206
210
217
228
235
229
216
215
207
201
205
198
193
186
174
165
155
145
138
128
120
113
108
107
106
104
100
99
85
80
80
83
90
94
96
113
135
145
144
133
135
138
139
144
149
156
160
168
177
188
194
201
206
218
220
215
207
200
196
186
188
184
175
165
167
164
154
149
142
124
120
113
104
96
91
91
88
83
78
78
77
84
90
89
92
112
136
142
137
133
133
134
136
139
145
147
150
160
170
176
185
189
197
208
209
194
191
184
183
176
168
173
163
156
150
153
148
143
140
125
113
106
101
95
88
85
81
78
76
75
75
82
81
82
91
111
130
130
115
124
133
131
131
134
137
139
142
150
156
162
173
177
186
191
195
178
171
165
164
163
155
158
157
146
144
139
137
140
133
128
119
113
106
99
87
83
81
77
75
70
69
75
76
80
99
122
142
129
106
110
115
124
125
127
131
132
136
142
149
154
157
163
172
177
172
169
155
147
143
143
140
138
144
137
132
132
129
129
121
118
118
115
113
104
88
81
78
75
73
69
65
69
73
77
101
119
125
121
101
101
105
114
117
121
124
125
130
136
141
142
144
150
163
166
153
150
143
137
130
133
128
124
131
135
123
120
123
121
116
105
115
115
114
104
88
79
76
72
69
65
64
67
68
72
83
92
96
102
98
99
102
108
110
112
114
118
123
128
130
132
137
146
151
152
145
134
134
129
124
123
117
115
119
124
118
113
119
116
111
107
107
106
101
93
86
77
76
70
68
64
62
63
65
64
63
71
80
90
93
96
98
100
101
104
106
111
114
119
122
124
131
140
141
143
139
127
127
126
111
110
109
108
110
114
113
108
110
104
103
98
94
96
84
84
79
76
73
70
67
64
59
60
60
59
62
70
79
86
88
89
91
93
95
98
100
103
107
112
113
117
121
130
138
133
123
116
120
119
103
99
103
102
103
107
107
101
104
100
95
91
85
84
79
78
75
73
72
70
67
62
55
56
57
58
61
68
74
80
81
82
85
88
90
93
95
98
100
105
108
109
112
125
134
123
115
101
110
109
94
94
96
97
94
94
95
93
98
94
93
85
80
78
77
74
73
71
69
68
65
63
53
54
53
55
60
63
68
75
76
77
81
82
87
89
91
93
97
98
99
102
106
119
123
116
112
100
95
96
88
91
90
86
89
88
87
86
88
89
89
86
78
75
73
71
69
68
66
64
63
61
49
49
49
52
55
58
62
68
73
76
77
81
83
86
87
88
90
93
94
96
98
110
113
111
111
103
90
84
83
83
86
82
82
83
82
81
83
83
85
83
75
71
69
69
67
65
64
62
60
59
47
46
47
47
50
55
58
63
68
72
74
77
81
82
82
85
86
86
89
91
94
99
100
109
109
105
98
84
79
80
80
77
74
77
74
72
73
77
74
71
72
69
66
65
65
62
60
60
59
56
44
45
46
48
50
52
56
61
65
70
71
74
77
78
78
78
81
81
84
87
87
90
93
101
105
98
99
92
82
75
73
73
70
70
66
65
67
67
65
69
69
68
66
61
61
61
58
57
56
55
43
43
46
47
49
55
59
61
63
65
68
70
72
74
75
75
76
76
76
82
83
86
87
95
99
95
99
95
88
80
73
67
66
66
63
62
58
55
64
69
69
69
68
59
55
55
54
55
53
51
48
48
48
48
53
56
58
59
59
60
63
67
68
70
71
71
69
70
72
77
80
82
83
92
94
92
95
93
91
88
80
65
62
63
64
58
55
51
62
68
69
66
61
54
53
52
51
50
50
48
48
48
48
51
53
54
56
56
57
59
59
62
64
65
66
65
64
66
69
72
74
75
74
73
88
91
92
91
89
87
81
58
59
59
57
58
48
51
65
70
64
62
60
58
49
48
48
48
48
47
46
48
48
51
51
54
54
55
55
55
56
59
60
60
61
60
60
63
65
68
69
69
67
64
82
87
89
88
87
85
76
55
53
56
52
54
46
45
62
70
66
56
57
55
49
46
46
46
46
47
43
47
48
50
54
54
54
54
53
51
50
54
56
54
54
56
56
60
60
62
64
64
63
60
76
84
87
87
83
80
76
57
48
51
49
52
53
38
48
58
63
52
47
46
44
47
44
44
46
45
39
42
43
43
47
51
50
49
47
46
47
48
49
48
49
52
54
56
55
57
59
57
57
57
71
74
83
80
76
77
76
63
44
47
49
57
56
38
40
42
51
53
44
39
37
42
41
42
42
44
38
40
41
43
53
60
52
46
46
45
44
44
44
46
46
48
50
53
51
52
54
52
51
59
60
57
72
74
72
73
75
63
41
43
51
62
56
38
36
36
39
49
49
36
36
38
40
41
41
44
38
41
40
52
70
83
65
47
45
43
42
41
42
43
45
46
46
48
47
48
48
49
47
57
50
45
59
67
68
67
67
49
37
43
59
57
48
35
32
33
32
38
46
34
35
37
37
38
39
39
37
38
38
48
69
85
79
54
45
42
41
41
41
41
42
43
42
44
43
44
44
44
45
53
45
38
50
63
63
62
60
36
36
42
43
40
34
30
29
29
31
29
32
32
32
35
36
36
36
36
38
41
54
59
71
85
83
65
45
40
38
38
38
38
40
40
40
40
37
41
40
41
41
48
47
39
40
59
60
58
56
32
34
33
28
25
23
26
26
27
27
26
28
30
31
31
33
35
36
36
49
57
70
77
83
84
82
77
62
47
36
36
36
36
37
37
36
38
32
37
37
37
39
46
37
29
27
44
58
55
49
27
31
28
26
23
23
23
25
26
26
26
26
28
29
31
31
33
33
33
61
71
80
82
89
87
79
75
72
47
34
34
34
34
34
35
33
36
27
34
32
32
38
42
30
19
17
26
37
43
34
23
28
27
23
22
21
23
23
23
23
25
26
26
28
30
31
34
33
33
66
72
75
76
79
84
83
73
65
52
36
33
31
31
31
31
30
31
27
29
28
35
37
38
28
14
13
14
17
21
19
22
26
24
21
19
20
21
21
22
23
23
24
26
26
28
31
36
34
33
63
68
70
69
71
79
77
71
65
56
48
39
28
27
27
28
28
27
28
21
25
31
35
32
30
17
11
12
13
15
16
21
23
22
19
17
18
18
20
20
23
23
23
31
34
35
37
41
35
36
60
64
65
66
65
69
70
69
62
49
34
29
26
25
24
26
26
24
22
15
22
31
31
26
24
21
10
11
11
12
16
19
20
20
18
15
17
25
28
24
22
23
26
38
47
54
48
45
39
43
